<svg xmlns="http://www.w3.org/2000/svg" width="190.646" height="168.603" viewBox="0 0 190.646 168.603"><g transform="translate(15.045 36.76)"><rect width="3.989" height="1.013" transform="translate(20.84 20.871)" fill="#bdeef0"/><path d="M1.43,0h0A1.432,1.432,0,0,1,2.862,1.432V6.389a0,0,0,0,1,0,0H0a0,0,0,0,1,0,0V1.43A1.43,1.43,0,0,1,1.43,0Z" transform="matrix(0.601, 0.799, -0.799, 0.601, 26.523, 0)" fill="#4d4741"/><path d="M1.431,0h0A1.431,1.431,0,0,1,2.862,1.431V6.389a0,0,0,0,1,0,0H0a0,0,0,0,1,0,0V1.431A1.431,1.431,0,0,1,1.431,0Z" transform="matrix(0.601, 0.799, -0.799, 0.601, 33.017, 0)" fill="#4d4741"/><path d="M4653.069,409.146l1.69-1.22a3.481,3.481,0,0,1,2.037-.658h6.818a3.481,3.481,0,0,1,1.3,6.711l-2.328.933Z" transform="translate(-4635.872 -404.416)" fill="#6191b3"/><rect width="12.67" height="6.133" rx="3.066" transform="translate(15.576 4.562)" fill="#3f6d8f"/><rect width="3.348" height="1.636" transform="translate(20.679 34.599)" fill="#3f6d8f"/><rect width="7.498" height="2.264" transform="translate(18.604 35.466)" fill="#3f6d8f"/><rect width="5.056" height="7.539" transform="translate(11.384 30.191)" fill="#3f6d8f"/><g transform="translate(17.65 14.983)"><rect width="1.262" height="2.89" transform="translate(5.719 4.655) rotate(-179.834)" fill="#4d4741"/><rect width="1.262" height="2.89" transform="matrix(0.618, 0.787, -0.787, 0.618, 2.273, 0)" fill="#4d4741"/><rect width="1.262" height="2.89" transform="translate(3.391 0.949) rotate(29.512)" fill="#4d4741"/></g><path d="M4655.216,423.06v4.317l6.033,1.689.058-1.11.25-4.9a3.17,3.17,0,1,0-6.34,0Z" transform="translate(-4637.076 -411.493)" fill="#84aecc"/><path d="M4649.118,451.538h-6.844a1.093,1.093,0,1,1,0-2.186h6.844a1.093,1.093,0,1,1,0,2.186Z" transform="translate(-4629.207 -428.008)" fill="#4d4741"/><path d="M4635.146,446.323v-6.66h-4.376s-3.752-10.36,6.067-9.105v-2.073s-5.856-1.189-8.02,1.036a13.008,13.008,0,0,0-3.272,10.256c.49,4.528,1.647,5.728,2.65,6.546Z" transform="translate(-4620.398 -416.132)" fill="#3f6d8f"/><path d="M6.142,0h7.4A6.141,6.141,0,0,1,19.68,6.141v0a0,0,0,0,1,0,0H0a0,0,0,0,1,0,0v0A6.142,6.142,0,0,1,6.142,0Z" transform="translate(0 37.392)" fill="#3f6d8f"/><path d="M6.141,0h8.417A6.142,6.142,0,0,1,20.7,6.142v0a0,0,0,0,1,0,0H0a0,0,0,0,1,0,0v0A6.141,6.141,0,0,1,6.141,0Z" transform="translate(9.84 37.392)" fill="#6191b3"/><path d="M4644.344,446.322v-6.66h-5.46s-3.414-9.558,4.991-9.2a1.067,1.067,0,0,0,.2-2.123c-1.738-.231-5.465-.493-7.1,1.184a13.01,13.01,0,0,0-3.273,10.256c.491,4.528,1.648,5.728,2.65,6.546Z" transform="translate(-4624.972 -416.132)" fill="#6191b3"/><path d="M1.093,0H9.021a1.093,1.093,0,0,1,1.093,1.093v0A1.093,1.093,0,0,1,9.021,2.186H1.093A1.093,1.093,0,0,1,0,1.093v0A1.093,1.093,0,0,1,1.093,0Z" transform="translate(17.026 21.344)" fill="#69625b"/><g transform="translate(16.264 24.418)"><path d="M4653.257,456.94a.579.579,0,0,1-.561.6h-1.257a.494.494,0,0,1-.494-.494v-.2a.494.494,0,0,1,.494-.493h1.257A.578.578,0,0,1,4653.257,456.94Z" transform="translate(-4650.945 -456.347)" fill="#4d4741"/><path d="M4654.771,456.94a.563.563,0,1,1-.56-.593A.58.58,0,0,1,4654.771,456.94Z" transform="translate(-4652.459 -456.347)" fill="#69625b"/></g><g transform="translate(16.293 27.654)"><path d="M4653.323,464.31a.579.579,0,0,1-.561.593h-1.257a.493.493,0,0,1-.493-.493v-.2a.5.5,0,0,1,.493-.493h1.257A.582.582,0,0,1,4653.323,464.31Z" transform="translate(-4651.012 -463.712)" fill="#4d4741"/><path d="M4654.836,464.31a.563.563,0,1,1-.561-.6A.579.579,0,0,1,4654.836,464.31Z" transform="translate(-4652.525 -463.712)" fill="#69625b"/></g><g transform="translate(11.035 24.798)"><path d="M4643.849,458.938a1.645,1.645,0,0,1-1.3,1.718,1.431,1.431,0,0,1-.147.009h-1.927a1.431,1.431,0,0,1-1.428-1.433v-.588a1.431,1.431,0,0,1,1.428-1.433h1.927c.052,0,.1,0,.147.01A1.645,1.645,0,0,1,4643.849,458.938Z" transform="translate(-4639.046 -457.211)" fill="#4d4741"/><path d="M4646.283,458.938a1.645,1.645,0,0,1-1.3,1.718,1.422,1.422,0,0,1-.147.009,1.754,1.754,0,0,1,0-3.454,1.473,1.473,0,0,1,.147.01A1.645,1.645,0,0,1,4646.283,458.938Z" transform="translate(-4641.48 -457.211)" fill="#69625b"/></g><path d="M4655.216,434.474v1.077l6.033,1.689.058-1.11C4660.079,435.795,4656.616,434.848,4655.216,434.474Z" transform="translate(-4637.076 -419.668)" fill="#3f6d8f"/></g><g transform="translate(49.125 47.959)"><g transform="translate(11.376 72.972)"><rect width="4.018" height="31.941" transform="translate(26.835 4.657)" fill="#9ce9f0"/><rect width="7.416" height="12.503" transform="translate(25.136 24.506)" fill="#403a36"/><path d="M4772.167,678.218a2.534,2.534,0,0,0-.608.076l-23.511-4.682h-4l-23.511,4.682a2.566,2.566,0,1,0,1.59,1.181l18.408-3.537-2.865,2.307a2.555,2.555,0,1,0,2.2,2.528,2.54,2.54,0,0,0-.439-1.432c2.455-1.1,6.679-3,6.621-2.986l7.075,3.187a2.561,2.561,0,1,0,1.431-1.193l-2.993-2.412,18.407,3.537a2.53,2.53,0,0,0-.358,1.3,2.556,2.556,0,1,0,2.556-2.556Z" transform="translate(-4717.375 -637.892)" fill="#403a36"/><path d="M0,0H30.874a0,0,0,0,1,0,0V0a6.325,6.325,0,0,1-6.325,6.325H6.325A6.325,6.325,0,0,1,0,0V0A0,0,0,0,1,0,0Z" transform="translate(13.95)" fill="#403a36"/></g><path d="M4812.035,426.284l-11.074,68.786-49.522.222,7.724-66.269a3.118,3.118,0,0,1,3.454-2.739Z" transform="translate(-4725.094 -426.263)" fill="#524b5e"/><path d="M4746.371,582.834v6.24h-51.766a3.117,3.117,0,0,1-.924-6.095l24.149-.145Z" transform="translate(-4691.487 -514.032)" fill="#74688a"/><g transform="translate(49.419 0)"><path d="M4833.175,501.306h-26.109a3.117,3.117,0,0,1,0-6.235H4830.4l7.619-66.047a3.117,3.117,0,0,1,6.194.714l-7.938,68.807A3.117,3.117,0,0,1,4833.175,501.306Z" transform="translate(-4803.949 -426.264)" fill="#7f7296"/></g></g><g transform="translate(0 84.331)"><path d="M4581.868,590.492a2.172,2.172,0,0,1-2.135-2.567l12.985-69.555a11.6,11.6,0,0,1,11.489-9.336h7.843a11.6,11.6,0,0,1,11.487,9.334l12.863,69.56a2.169,2.169,0,0,1-4.265.789l-12.862-69.554a7.259,7.259,0,0,0-7.223-5.792h-7.843a7.262,7.262,0,0,0-7.225,5.8L4584,588.721A2.168,2.168,0,0,1,4581.868,590.492Z" transform="translate(-4579.696 -509.034)" fill="#4d4741"/></g><g transform="translate(133.906 84.331)"><path d="M4886.591,590.492a2.2,2.2,0,0,1-.4-.037,2.168,2.168,0,0,1-1.733-2.53l12.986-69.555a11.6,11.6,0,0,1,11.486-9.336h7.844a11.6,11.6,0,0,1,11.488,9.334l12.861,69.56a2.168,2.168,0,1,1-4.264.789L4924,519.163a7.26,7.26,0,0,0-7.224-5.792h-7.844a7.263,7.263,0,0,0-7.225,5.8l-12.984,69.552A2.17,2.17,0,0,1,4886.591,590.492Z" transform="translate(-4884.42 -509.034)" fill="#4d4741"/></g><g transform="translate(53.467 0)"><g transform="translate(1.354 89.626)"><path d="M4731.958,532.079a4.8,4.8,0,0,0-2.108,3.007c-.9,3.07,9.758,2.029,11.4.785a7.312,7.312,0,0,0,2.438-4.821C4743.688,530.05,4733.464,531.472,4731.958,532.079Z" transform="translate(-4718.658 -526.477)" fill="#d1b484"/><path d="M4717.683,676.3s-.06,2.748-1.278,3.589a3.811,3.811,0,0,0,5.055-1.657s-.148-1.546-.148-2.349S4717.683,676.3,4717.683,676.3Z" transform="translate(-4711.151 -607.706)" fill="#ecb984"/><path d="M4752.342,547.19l-30.46.819c.871,5.551-4.08,35.361-4.989,40.742a1.547,1.547,0,0,1-1.012,1.213,6.262,6.262,0,0,1-3.894,0,1.566,1.566,0,0,1-1.076-1.24c-.288-1.756-.974-6.045-1.72-11.486-1.962-14.313-4.339-36.606-.983-41.779,1.5-2.315,5.522-4.646,9.156-6.392,3.6-1.732,6.818-2.89,6.818-2.89l17.117-4.168,3.782-.922a7.867,7.867,0,0,1,4.472,3.123C4754.76,531.327,4752.342,547.19,4752.342,547.19Z" transform="translate(-4705.614 -521.084)" fill="#40676c"/><path d="M4755.742,548.366l-20.227,1.012-3.346.017-6.855.026c.87,5.55-4.1,35.154-5.019,40.508a1.551,1.551,0,0,1-1.012,1.21,6.265,6.265,0,0,1-3.9,0,1.566,1.566,0,0,1-1.076-1.241c-.289-1.756-.974-6.045-1.72-11.486a8.331,8.331,0,0,0,2.5-1.014c2.256-1.477,3.036-4.4,3.3-7.082.543-5.487-.324-11.033.112-16.53s2.549-11.34,7.316-14.112c1.708-.994,3.816-1.671,4.712-3.433a4.4,4.4,0,0,0-1.506-5.274,6.506,6.506,0,0,0-3.82-1.182c-1.178-.018-2.654.806-3.721.67a2.02,2.02,0,0,1-.727-.214c1.466-.7,2.868-1.315,4.015-1.79,1.671-.693,2.8-1.1,2.8-1.1l17.116-4.167a41.849,41.849,0,0,1,5.586,1.279q1.352.411,2.667.922C4758.161,532.5,4755.742,548.366,4755.742,548.366Z" transform="translate(-4709.015 -522.26)" fill="#355a5e"/><path d="M4715.684,683.511a1.02,1.02,0,0,1-.294.7c-1.71,1.742-6.6,2.616-7.6,2.805-1.058.2-3.772.218-3.281-1.079a1.652,1.652,0,0,1,.081-.177c.91-1.709,5.36-3.107,5.36-3.107,2.476.646,4.782-1.735,4.782-1.735a2.811,2.811,0,0,1,.792,1.315A4.334,4.334,0,0,1,4715.684,683.511Z" transform="translate(-4704.45 -610.683)" fill="#f5e8d0"/><path d="M4715.684,685.188a1.019,1.019,0,0,1-.294.7c-1.71,1.742-6.6,2.616-7.6,2.805-1.058.2-3.772.218-3.281-1.079a1.661,1.661,0,0,1,.081-.177,1.2,1.2,0,0,0,.428.37,2.767,2.767,0,0,0,1.367.079,29.843,29.843,0,0,0,4.614-.923,10.155,10.155,0,0,0,2.824-1.177,4.643,4.643,0,0,0,1.7-1.875A4.333,4.333,0,0,1,4715.684,685.188Z" transform="translate(-4704.45 -612.36)" fill="#e8d2b0"/></g><g transform="translate(25.044 96.992)"><path d="M4779.6,682.962s-.266,1.989-1.115,2.652,3.713,2.095,4.985-.584v-2.466C4783.467,681.821,4779.6,682.962,4779.6,682.962Z" transform="translate(-4769.582 -618.83)" fill="#ecb984"/><path d="M4760.123,557.6c.25-.011-3.512-9.478-.734-13.064,2.4-3.1,9.923-7.233,14.375-6.634S4760.123,557.6,4760.123,557.6Z" transform="translate(-4758.361 -537.848)" fill="#2b4c4f"/><path d="M4787.4,557.441l-8.188.154c.638,3.288-3.13,35.878-3.975,43.076a2.135,2.135,0,0,1-1.659,1.847,8.24,8.24,0,0,1-3.969-.087,1.556,1.556,0,0,1-1.105-1.215c-.271-1.445-.861-4.619-1.6-8.758-2.719-15.2-7.468-43.4-5.893-46.819a7.577,7.577,0,0,1,2.458-2.728c4.189-3.1,11.605-4.952,11.605-4.952C4789.138,537.272,4787.4,557.441,4787.4,557.441Z" transform="translate(-4759.671 -537.901)" fill="#40676c"/><path d="M4791.006,557.669l-8.254-.073c.649,3.354-3.283,37.2-4.021,43.478a1.569,1.569,0,0,1-1.151,1.334,8.362,8.362,0,0,1-4.429.024,1.559,1.559,0,0,1-1.107-1.218c-.271-1.446-.861-4.619-1.6-8.756a17.9,17.9,0,0,0,2.478-2.388c3.252-3.933,3.6-9.479,3.305-14.575s-1.063-10.342.474-15.211c.693-2.193,1.833-4.22,2.6-6.39a9.589,9.589,0,0,0,.265-6.743c-1.116-2.72-4.068-4.329-6.987-4.676a16.7,16.7,0,0,0-4.311.118,11.131,11.131,0,0,0-1.256.319c4.188-3.1,11.6-4.952,11.6-4.952C4792.674,537.272,4791.006,557.669,4791.006,557.669Z" transform="translate(-4763.208 -537.901)" fill="#355a5e"/><path d="M4777.47,690.1a7.578,7.578,0,0,1-.259,1.385,13.442,13.442,0,0,1-5.853,2.136c-2.912.138-4.772-.644-4.873-1.67-.033-.345.331-.7.907-1.05,1.135-.694,3.086-1.4,4.424-2.092,0,0,3.27,1.51,4.984-.792C4776.8,688.021,4777.61,688.372,4777.47,690.1Z" transform="translate(-4762.914 -622.03)" fill="#f5e8d0"/><path d="M4777.47,692.761a7.58,7.58,0,0,1-.259,1.385,13.443,13.443,0,0,1-5.853,2.136c-2.912.138-4.772-.644-4.873-1.67-.033-.345.331-.7.907-1.05a1.368,1.368,0,0,0,.119,1.1,2.868,2.868,0,0,0,1.871.89,6.033,6.033,0,0,0,2-.119,18.562,18.562,0,0,0,4.334-1.409,5.429,5.429,0,0,0,1.364-.836A2.753,2.753,0,0,0,4777.47,692.761Z" transform="translate(-4762.914 -624.687)" fill="#e8d2b0"/></g><g transform="translate(33.23)"><path d="M4808.422,362.245c-3.132,1.854-6.894,2.29-10.534,2.353a59.826,59.826,0,0,1-12.125-1.031c-2.764-.522-5.934-1.15-7.062-3.726a15.894,15.894,0,0,0,1.239-11.576c-.542-1.931-1.449-3.745-2.083-5.644-.136-.405-.26-.815-.363-1.229-.785-3.1-.492-6.362-.194-9.547.14-1.515.282-3.039.572-4.531a18.937,18.937,0,0,1,.459-1.881,10.886,10.886,0,0,1,3.407-5.427,6.612,6.612,0,0,1,6.1-1.289c2.5-2.127,6.174-1.978,9.049-.4a12.387,12.387,0,0,1,4.28,4.074q.306.457.582.935a19.163,19.163,0,0,1,1.2,2.494,56.331,56.331,0,0,1,2.395,9.528,28.942,28.942,0,0,0,3.161,9.267c1.715,2.846,4.354,5.318,4.853,8.6C4813.9,356.817,4811.554,360.392,4808.422,362.245Z" transform="translate(-4776.989 -317.126)" fill="#582f1b"/><path d="M4809.527,368.963c-3.131,1.854-6.894,2.29-10.534,2.353a59.828,59.828,0,0,1-12.125-1.031c-2.763-.522-5.933-1.15-7.062-3.726a15.886,15.886,0,0,0,1.237-11.576c-.541-1.931-1.448-3.745-2.082-5.644.322-1.361.7-2.711,1.079-4.059q.581-2.061,1.16-4.124c.045-.16.089-.32.135-.48q.411-1.468.825-2.936c.206-.729.342-2.4.924-2.918.475-.419,1.533-.309,2.119-.372,1.988-.213,3.975-.46,5.94-.832a37.5,37.5,0,0,0,3.867-.931,24.4,24.4,0,0,0,5.476-2.363c.519-.313,1.029-.651,1.52-1.014q.133-.1.265-.2.308.457.581.935a19.044,19.044,0,0,1,1.2,2.494,56.243,56.243,0,0,1,2.4,9.528,28.928,28.928,0,0,0,3.16,9.267c1.716,2.846,4.354,5.318,4.855,8.6C4815,363.535,4812.659,367.11,4809.527,368.963Z" transform="translate(-4778.095 -323.844)" fill="#472517"/><g transform="translate(3.349 3.529)"><path d="M4809.408,390.142c-1.356,4.676-4.3,9.889-9.471,11.389,0,0-3.115-6.263-3.206-11.015-.041-2.041.478-3.8,2.043-4.668.031-.019.063-.036.1-.053,0,0,.022-.033.061-.1a4.932,4.932,0,0,0,.6-2.623c-.048-1.33,5.756-5.343,8.255-7.008.685-.455,1.122-.736,1.122-.736s0,.107-.005.3a22.052,22.052,0,0,0,.448,4.745,7.438,7.438,0,0,0,.659,1.85C4810.556,383.229,4810.457,386.525,4809.408,390.142Z" transform="translate(-4791.404 -353.284)" fill="#ecb984"/><path d="M4812.158,380.749a9.663,9.663,0,0,1-3.2,3.787,9.443,9.443,0,0,1-2.6,1.25,9.615,9.615,0,0,1-4.612.29,4.932,4.932,0,0,0,.6-2.623c-.048-1.33,5.756-5.343,8.255-7.008l.363-.164a3.945,3.945,0,0,1,.753-.277A22.092,22.092,0,0,0,4812.158,380.749Z" transform="translate(-4794.214 -353.66)" fill="#dba060"/><path d="M4802.143,349.069s-2.408,6.463-7.929,6.392-8.674-4.8-9.249-10.9a57.4,57.4,0,0,1,0-12.906c.359-2.653,6.554-8.6,11.774-5.736s7.1,11.283,6.8,14.389S4802.949,347.437,4802.143,349.069Z" transform="translate(-4784.611 -325.157)" fill="#ecb984"/><g transform="translate(5.086 23.245)"><path d="M4800.58,381.387c-3.525,1.185-4.331-2.619-4.331-2.619s-.036-.183-.064-.384a19.859,19.859,0,0,0,5.607-.283l.226-.047A2.368,2.368,0,0,1,4800.58,381.387Z" transform="translate(-4796.185 -378.056)" fill="#420f14"/><path d="M4803.771,381.311a1.212,1.212,0,0,1,.453.058.549.549,0,0,1,.33.3.758.758,0,0,1-.292.756,2.8,2.8,0,0,1-2.585.7,1.289,1.289,0,0,1-.508-.174c-.125-.117-.008-.236.075-.346a3.328,3.328,0,0,1,1.49-1.1A3.184,3.184,0,0,1,4803.771,381.311Z" transform="translate(-4798.947 -379.88)" fill="#752f36"/><path d="M4797.414,379.137a18.254,18.254,0,0,0,4.668-.189,3.383,3.383,0,0,1-3.1,1.329A2.073,2.073,0,0,1,4797.414,379.137Z" transform="translate(-4796.874 -378.557)" fill="#f8e7ca"/></g><path d="M4798.321,356.4a6,6,0,0,1-.548,4.3,8.169,8.169,0,0,0-.814,1.587,1.417,1.417,0,0,0,.329,1.47,1.735,1.735,0,0,0,1.3.311,3.209,3.209,0,0,0,1.412-.393,1.638,1.638,0,0,0,.723-1.213,3.37,3.37,0,0,1-.9.812,2.648,2.648,0,0,1-1.526.211.854.854,0,0,1-.678-.762,2.309,2.309,0,0,1,.41-1.434A6.206,6.206,0,0,0,4798.321,356.4Z" transform="translate(-4791.493 -342.671)" fill="#dba060"/><path d="M4792.019,358.616c.015.68-.3,1.238-.711,1.246s-.748-.536-.761-1.216.3-1.238.711-1.246S4792,357.935,4792.019,358.616Z" transform="translate(-4787.938 -343.231)" fill="#4d2b22"/><path d="M4810.042,356.783c.014.679-.3,1.236-.71,1.244s-.746-.536-.761-1.215.3-1.236.71-1.244S4810.027,356.1,4810.042,356.783Z" transform="translate(-4798.042 -342.205)" fill="#4d2b22"/></g><g transform="translate(21.58 15.995)"><path d="M4826.287,355.537s1.372-1.763,2.188-1.959,2.351.065,2.384,2.318-.163,3.689-1.568,4.505-2.579.849-3,.392S4826.287,355.537,4826.287,355.537Z" transform="translate(-4826.099 -353.525)" fill="#ecb984"/><path d="M4827.761,359.188s.477-2.182,1.651-2.035,1.813,3.685-1.308,4.078c0,0,.689-.639.615-1.155C4828.573,359.07,4827.761,359.188,4827.761,359.188Z" transform="translate(-4827.031 -355.555)" fill="#e6b078"/><path d="M4828.791,357.929a1.233,1.233,0,0,1,1.293-.883c1.095,0,1.509,2.49.376,3.24a4.293,4.293,0,0,0,.219-2.348C4830.373,357.222,4829.652,357.1,4828.791,357.929Z" transform="translate(-4827.607 -355.499)" fill="#dba060"/></g><path d="M4802.993,333.723a5.359,5.359,0,0,1-2.895,3.857,18.032,18.032,0,0,0-.733-5.851,7.011,7.011,0,0,0-2.13-3.082,5.068,5.068,0,0,0-1.187-.713,4.444,4.444,0,0,0-.7-.229,12.539,12.539,0,0,0-2.381-.2,4.852,4.852,0,0,1-2.3-.555,2.606,2.606,0,0,1-1.217-1.4,3.322,3.322,0,0,1-1.884,2.387c-.954.507-2.036.79-2.934,1.375-.125.081-.249.17-.367.264a5.391,5.391,0,0,0-1.771,3.269,13.377,13.377,0,0,0-.121,3.078c.011.238.024.475.037.711-.059-.076-.116-.153-.173-.231a8.347,8.347,0,0,1-1.2-6.582c.038-.152.08-.3.125-.45a10.827,10.827,0,0,1,3.691-5.2,17.334,17.334,0,0,1,6.222-2.986c2.384-.653,5.071-.918,7.213.317a7.74,7.74,0,0,1,3.06,3.654c.062.138.12.276.177.418.171.429.318.867.45,1.31.285.958.492,1.944.7,2.925A10.654,10.654,0,0,1,4802.993,333.723Z" transform="translate(-4779.132 -319.091)" fill="#582f1b"/><path d="M4784.191,355.432c.012.237.024.474.039.71q-.089-.114-.173-.232C4784.1,355.75,4784.146,355.592,4784.191,355.432Z" transform="translate(-4780.951 -338.599)" fill="#4d2819"/><path d="M4822.43,340.023a5.363,5.363,0,0,1-2.894,3.857,18.086,18.086,0,0,0-.734-5.851,7.021,7.021,0,0,0-2.13-3.082,5.107,5.107,0,0,0-1.187-.713,24.339,24.339,0,0,0,5.475-2.363c.171.429.318.867.45,1.31.285.958.492,1.944.7,2.925A10.624,10.624,0,0,1,4822.43,340.023Z" transform="translate(-4798.569 -325.391)" fill="#472517"/><path d="M4787.272,352.849s2.2-2.633,4.457-.668C4791.729,352.181,4789.71,348.722,4787.272,352.849Z" transform="translate(-4782.754 -336.016)" fill="#582f1b"/><path d="M4798.635,353.128l-14.578,1.491.243,3.967,6.127-.589-.2-3.26,2.025-.241.313,3.3,6.229-.707Zm-13.682,4.763-.208-2.794,4.879-.492.176,2.8Zm8.248-.676-.234-2.953,5-.523.2,2.862Z" transform="translate(-4780.951 -337.307)" fill="#2e2d30"/><path d="M4822.745,354.028a3.735,3.735,0,0,0-.863.883l-5.337.089.24-.972Z" transform="translate(-4799.164 -337.812)" fill="#2e2d30"/><path d="M4805.06,350.222a3.158,3.158,0,0,1,4.792-.527S4807.182,345.927,4805.06,350.222Z" transform="translate(-4792.725 -334.526)" fill="#582f1b"/></g><g transform="translate(0 41.86)"><path d="M4749.363,433.165a25.16,25.16,0,0,0-1.241,4.238,37.758,37.758,0,0,1-1.642,6.93,4.659,4.659,0,0,1-4.675,3.261l-16.576-.818-.167-2.159-.285-3.708,13.541-1.884c5.629-26.641,8.833-26.641,8.833-26.641C4754.659,416.745,4751.436,427.018,4749.363,433.165Z" transform="translate(-4714.491 -412.385)" fill="#f5e8d0"/><path d="M4749.727,444.922a25.257,25.257,0,0,0-1.241,4.238,37.679,37.679,0,0,1-1.643,6.93,4.658,4.658,0,0,1-4.675,3.261l-16.575-.818-.166-2.159c.572-.035,1.2.026,1.738.012l4.512-.11,5.113-.124c1.85-.045,3.866-.151,5.257-1.373,1.55-1.363,1.81-3.683,1.614-5.739s-.735-4.128-.364-6.16c.65-3.567,3.906-6.1,5.116-9.523q.048,1.643.093,3.287a28.085,28.085,0,0,0,.777,6.948C4749.411,444.042,4749.562,444.486,4749.727,444.922Z" transform="translate(-4714.855 -424.142)" fill="#e8d2b0"/><path d="M4725.325,479.923a5.464,5.464,0,0,1-.407,2.362,1.611,1.611,0,0,1-.766.877,1.182,1.182,0,0,1-1.017-.87,7.655,7.655,0,0,1,.05-4.247c.152-.487.336-.789.515-.751a1.944,1.944,0,0,1,1.057.889A3.368,3.368,0,0,1,4725.325,479.923Z" transform="translate(-4713.413 -448.77)" fill="#d1b484"/><path d="M4714.293,478.692a5.465,5.465,0,0,1-.407,2.362c-.425-.027-1.122-.012-1.782.007l-.742.023c-.971.03-.81.568-3.394.97a7.19,7.19,0,0,1-4.793-.6c-.029-.314,4.6-4.3,3.9-4.465-1.7-.4-1.476-1.1-1.274-1.241a11.063,11.063,0,0,1,2.852-.656c.713,0,1.823.969,2.624,1.426a2.99,2.99,0,0,0,.877.293,8.62,8.62,0,0,0,1.571.138A3.359,3.359,0,0,1,4714.293,478.692Z" transform="translate(-4702.382 -447.539)" fill="#ecb984"/><path d="M4704.62,477.2a2.26,2.26,0,0,0-.792-.109,5.145,5.145,0,0,0-1.877.063,1.084,1.084,0,0,0-.211,1.648,1.537,1.537,0,0,0,.307,2.263s-.77,1.315.346,1.565a4.166,4.166,0,0,0,2.931-.552c.234-.306.4-1.108,0-1.178,0,0,1.084-1.273.5-1.768,0,0,.445-.6.3-.811C4706.032,478.182,4704.585,477.993,4704.62,477.2Z" transform="translate(-4701.369 -448.627)" fill="#ecb984"/><path d="M4702.913,485.906a10.694,10.694,0,0,1,3.462-.146s.124.083-.07.085C4705.542,485.851,4703.915,485.967,4702.913,485.906Z" transform="translate(-4702.234 -453.473)" fill="#dba060"/><path d="M4705.046,485.4s2.784-.164,2.338-1.718a1.167,1.167,0,0,0,.469-1.578s.039-.154.114-.069a1.161,1.161,0,0,1,.116,1.143c-.213.461-.438.493-.438.493S4708.178,485.581,4705.046,485.4Z" transform="translate(-4703.43 -451.415)" fill="#dba060"/><g transform="translate(2.443 13.859)"><path d="M4711.785,451.264l-.01.039q-.066.26-.133.511a108.163,108.163,0,0,1-4.081,12.976c-.18.469-.338.89-.479,1.284-.051.147-.175.115-.152-.039.065-.41.131-.856.2-1.355a109.909,109.909,0,0,1,2.649-13.342c.042-.169.085-.339.13-.512l.01-.038c1.618-6.332,2.229-6.982,2.746-6.849S4713.4,444.934,4711.785,451.264Z" transform="translate(-4706.928 -443.924)" fill="#e25d79"/><path d="M4707.561,491.268c-.18.469-.338.89-.479,1.284-.051.147-.175.115-.152-.039.065-.41.131-.856.2-1.355Z" transform="translate(-4706.928 -470.402)" fill="#464052"/><path d="M4715.413,460.108c-.045.173-.088.343-.133.511l-1.862-.476c.042-.169.085-.339.129-.512Z" transform="translate(-4710.565 -452.729)" fill="#d14764"/></g><path d="M4717.388,478.692a5.466,5.466,0,0,1-.406,2.362c-.425-.027-1.122-.012-1.783.007a15.191,15.191,0,0,1-2.161.288,3.1,3.1,0,0,1-2.819-2.736c-.044-.331.539-.766.6-1.1.077-.421-.6-.589-1.064-.592-.489,0-1.484-.552-.858-1.174a9.739,9.739,0,0,1,2.852-.656c.713,0,1.824.969,2.624,1.426a2.987,2.987,0,0,0,.877.293,8.618,8.618,0,0,0,1.571.138A3.355,3.355,0,0,1,4717.388,478.692Z" transform="translate(-4705.476 -447.539)" fill="#ecb984"/><path d="M4709.4,480.258a.767.767,0,0,0,.45-.109.825.825,0,0,0,.247-.583c.02-.148.355-.418.264-.538-.076-.1-.525-.035-.646-.067l-.638-.174a.42.42,0,0,0-.121-.02c-.116,0-.258-.224-.32-.126a2.767,2.767,0,0,0-.185,1.331c0,.053,0,.188.044.228s.21.032.273.037A5.819,5.819,0,0,0,4709.4,480.258Z" transform="translate(-4705.335 -449.512)" fill="#ecb984"/><path d="M4708.724,477.4s-.024.734,1.358.882a.9.9,0,0,1,.143.24S4708.415,478.211,4708.724,477.4Z" transform="translate(-4705.472 -448.829)" fill="#dba060"/><path d="M4702.215,480.121s3.762.753,4.078.33a.864.864,0,0,0,.119-1.044s.386-.092.35.388-.1.877-.7.961S4702.47,480.492,4702.215,480.121Z" transform="translate(-4701.843 -449.951)" fill="#dba060"/><path d="M4711.366,479.221a11.975,11.975,0,0,0,1.4-.028s-.781,2.4.764,3c0,0-1.314-.788-.56-3.164,0,0-1.646.139-2.029.1A.955.955,0,0,0,4711.366,479.221Z" transform="translate(-4706.735 -449.745)" fill="#dba060"/></g><g transform="translate(14.654 32.468)"><path d="M4785.3,471.416c-4.712,4.954-14.879,3.661-14.879,3.661,3.862-7.622-2.64-16.616-4.876-17.972s-5.044-.988-6.03-2.1c-.96-1.08,1.818-4.966,1.967-5.173-1.858,1.85-7.525,5.3-12.58,3.94s-14.187,0-14.187,0c1.837-1.375,16.866-3.684,18.795-7.639s-.577-17.938-1.927-20.354-2.607-4.632-1.062-7.719,3.184-5.306,3.085-8.2-.884-9.458-.884-9.458c1.786-1.2,6.107-2.162,6.107-2.162.083-.113.164-.222.244-.328,2.871-3.761,5.032-3.329,5.032-3.329-.033.016-.063.034-.094.053-1.412.812-1.405,3.041-1.083,4.892a13.165,13.165,0,0,0,.721,2.618c.456,1.04,1.538,7.439,1.538,7.439,1.656-.947,5.846-6.627,8.02-10.345a18.842,18.842,0,0,0,1.122-2.163,13.815,13.815,0,0,0,.913-6.067c2.62,1.038,3.025,4.154,3.025,4.154s.311.062.8.174c1.578.358,5.017,1.228,5.864,2.169,1.047,1.166.667,28.515.621,33.533,0,.295,0,.515,0,.645,0,2.345,1.357,13.573,2.712,16.78S4790.5,465.957,4785.3,471.416Z" transform="translate(-4734.715 -391.013)" fill="#f5e8d0"/><path d="M4785.3,496.8c-4.887,5.041-14.983,3.866-14.983,3.866,3.458-9-2.537-16.82-4.773-18.177s-5.044-.988-6.03-2.1c-.96-1.08,1.818-4.966,1.967-5.173-1.858,1.85-7.525,5.3-12.58,3.94s-14.187,0-14.187,0c1.837-1.375,16.866-3.684,18.795-7.639s-.577-17.939-1.927-20.354c.1.039,4.152,1.659,6.532.755,2.41-.914,5.486-2.909,9.06-1.5s7.646.915,8.56-.083,4.572-11.885,4.488-14.046c0,0,2.554,10.8,5.13,19.463.067.223.133.447.2.668,0,.295,0,.515,0,.645,0,2.345,1.357,13.573,2.712,16.78a6.889,6.889,0,0,1,.354,1.166C4789.667,479.6,4790.055,491.9,4785.3,496.8Z" transform="translate(-4734.715 -416.397)" fill="#ebdbc1"/><path d="M4826.8,499.845c-1.241-3.02-2.634-6-5-8.2a16.767,16.767,0,0,0-8.738-3.942,31.766,31.766,0,0,0-4.1-.385c-1.132-.038-5.228.6-5.838-.329-1.507-2.3,3.41-3.3,4.284-3.731a20.8,20.8,0,0,1,5.074-1.579,54.853,54.853,0,0,1,11.062-1.089c.066.223.132.447.2.668,0,.295,0,.515,0,.645,0,2.345,1.357,13.573,2.713,16.78A7.023,7.023,0,0,1,4826.8,499.845Z" transform="translate(-4772.901 -441.225)" fill="#e8d2b0"/><path d="M4795.628,473.529a23.393,23.393,0,0,0,3.021-6.743c.646-3.163,1.044-31.458.686-33.5,0,0-.2,9.471-.33,12.228-.1,2.007-.292,14.047-.421,15.531S4798.48,469.172,4795.628,473.529Z" transform="translate(-4768.861 -414.709)" fill="#e6d0ad"/><path d="M4804.058,416.9s11.164-6.508,13.243-9.279c0,0-3.887-1.55-3.8-1.55s4.669-.487,4.669-.487-.07-3.62-1.033-5.117a9.552,9.552,0,0,1,1.345,5.417l-3.909.343,3.428,1.309a73.331,73.331,0,0,1-13.864,9.495C4804.021,417.088,4804.058,416.9,4804.058,416.9Z" transform="translate(-4773.583 -396.313)" fill="#e6d0ad"/><path d="M4794.057,427.968s-1.823-12.693-6.915-14.474l3.432-2.172-3.959.473a8.406,8.406,0,0,1,1.307-4.331,34.046,34.046,0,0,0-1.082,4.032c.259-.046,4.31-.392,4.31-.392l-3.516,2.341s4.245.611,6.642,13.632Z" transform="translate(-4763.807 -400.235)" fill="#e6d0ad"/><path d="M4797.4,447.786a1.071,1.071,0,1,1-1.07-1.07A1.07,1.07,0,0,1,4797.4,447.786Z" transform="translate(-4768.656 -422.238)" fill="#e6d0ad"/><path d="M4797.77,478.37a1.071,1.071,0,1,1-1.072-1.07A1.07,1.07,0,0,1,4797.77,478.37Z" transform="translate(-4768.861 -439.383)" fill="#e6d0ad"/><path d="M4796.407,509.441a1.07,1.07,0,1,1-1.07-1.07A1.07,1.07,0,0,1,4796.407,509.441Z" transform="translate(-4768.099 -456.8)" fill="#e6d0ad"/></g><g transform="translate(30.353 38.288)"><g transform="translate(0 35.796)"><path d="M4784.884,485.771s-7.14-.125-8.372,0c-1.053.108-4.568,2.262-5.861,3.236a.527.527,0,0,0,.105.9,1.82,1.82,0,0,0,1.408-.143s.3.695,2.031.159c0,0,.146.34,1.067.289a3.513,3.513,0,0,0,1.663-.4c.444-.268.921-.674,1.319-.436a4.17,4.17,0,0,0,2.316.543c1.065-.062,2.715-.96,4.113-1.044S4784.884,485.771,4784.884,485.771Z" transform="translate(-4770.44 -485.716)" fill="#ecb984"/><path d="M4774.362,490.976a10.39,10.39,0,0,1,4.932-3.1A19.232,19.232,0,0,0,4774.362,490.976Z" transform="translate(-4772.639 -486.924)" fill="#dba060"/><path d="M4778.984,492.136a8.427,8.427,0,0,1,3.768-2.478S4780.793,490.813,4778.984,492.136Z" transform="translate(-4775.231 -487.926)" fill="#dba060"/></g><path d="M4801.848,439.341a4.842,4.842,0,0,0,.213,4.4.812.812,0,0,0,.759.43c3.354-.179,22.766-1.287,24.571-3.044,1.977-1.924.952-24.692,1.026-27.254s-.44-6.076-1.465-7.028-4.152-2.618-5.663-2.59-3.928,8.007-3.489,13.425c0,0-.123,15.447-.756,16.691-.576,1.129-12.459,4.007-14.654,4.53A.8.8,0,0,0,4801.848,439.341Z" transform="translate(-4787.808 -404.256)" fill="#f5e8d0"/></g></g><path d="M2.253,0H140.434a2.252,2.252,0,0,1,2.252,2.252v0A2.252,2.252,0,0,1,140.434,4.5H2.252A2.252,2.252,0,0,1,0,2.253v0A2.253,2.253,0,0,1,2.253,0Z" transform="translate(41.713 80.138)" fill="#c98646"/><path d="M2.252,0H140.435a2.252,2.252,0,0,1,2.252,2.252v0A2.252,2.252,0,0,1,140.435,4.5H2.252A2.252,2.252,0,0,1,0,2.253v0A2.252,2.252,0,0,1,2.252,0Z" transform="translate(2.169 80.138)" fill="#d39b67"/><g transform="translate(49.636 77.842)"><rect width="59.342" height="0.892" transform="translate(0 1.405)" fill="#665e58"/><rect width="27.211" height="0.892" transform="translate(39.123 1.405)" fill="#4d4741"/><path d="M4692.651,495.672v-.721s13.733-1.941,19.561.721Z" transform="translate(-4692.651 -494.267)" fill="#e1fafa"/><path d="M4756.727,495.672v-.721s-13.732-1.941-19.562.721Z" transform="translate(-4717.604 -494.267)" fill="#e1fafa"/><rect width="27.211" height="0.722" transform="translate(39.123 0.683)" fill="#e1fafa"/></g><g transform="translate(146.478 67.16)"><g transform="translate(1.567)"><rect width="2.798" height="0.671" transform="translate(12.309 0.899)" fill="#e87797"/><rect width="2.796" height="0.671" transform="translate(0.376 0.899)" fill="#e87797"/><rect width="2.797" height="0.671" transform="translate(4.354 0.899)" fill="#e87797"/><rect width="2.797" height="0.671" transform="translate(8.332 0.899)" fill="#e87797"/><path d="M4920.251,472v9.925a1.4,1.4,0,1,1-2.8,0V472Z" transform="translate(-4917.079 -471.106)" fill="#9ce9f0" opacity="0.5" style="mix-blend-mode:multiply;isolation:isolate"/><path d="M4929.3,472v9.925a1.4,1.4,0,1,1-2.8,0V472Z" transform="translate(-4922.153 -471.106)" fill="#9ce9f0" opacity="0.5" style="mix-blend-mode:multiply;isolation:isolate"/><path d="M4938.353,472v9.925a1.4,1.4,0,0,1-2.8,0V472Z" transform="translate(-4927.225 -471.106)" fill="#9ce9f0" opacity="0.5" style="mix-blend-mode:multiply;isolation:isolate"/><path d="M4947.4,472v9.925a1.4,1.4,0,1,1-2.8,0V472Z" transform="translate(-4932.3 -471.106)" fill="#9ce9f0" opacity="0.5" style="mix-blend-mode:multiply;isolation:isolate"/><path d="M4917.455,488.893h2.8v2.5a1.4,1.4,0,1,1-2.8,0Z" transform="translate(-4917.079 -480.573)" fill="#126687" opacity="0.5" style="mix-blend-mode:multiply;isolation:isolate"/><path d="M4926.507,488.893h2.8v2.5a1.4,1.4,0,1,1-2.8,0Z" transform="translate(-4922.153 -480.573)" fill="#e87797" opacity="0.5"/><path d="M4935.555,488.893h2.8v2.5a1.4,1.4,0,0,1-2.8,0Z" transform="translate(-4927.225 -480.573)" fill="#6ebfe0" opacity="0.5"/><path d="M4947.4,488.893v2.5a1.4,1.4,0,1,1-2.8,0v-2.5Z" transform="translate(-4932.3 -480.573)" fill="#fdbe31" opacity="0.5"/><path d="M4919.771,470.858h-2.8l-.377-.9h3.549Z" transform="translate(-4916.598 -469.958)" fill="#e87797"/><path d="M4928.823,470.858h-2.8l-.376-.9h3.548Z" transform="translate(-4921.672 -469.958)" fill="#e87797"/><path d="M4937.875,470.858h-2.8l-.376-.9h3.548Z" transform="translate(-4926.748 -469.958)" fill="#e87797"/><path d="M4946.928,470.858h-2.8l-.376-.9h3.549Z" transform="translate(-4931.82 -469.958)" fill="#e87797"/></g><path d="M4931.547,491.63v3.446h-.681V492.9h-17.154v2.181h-.68V491.63Z" transform="translate(-4913.032 -482.107)" fill="#5b5047"/></g></svg>