<svg xmlns="http://www.w3.org/2000/svg" width="94.067" height="95.699" viewBox="0 0 94.067 95.699"><g transform="translate(-4.365)"><g transform="translate(5.766 1.402)"><path d="M79.13,17.866V64.43S34.51,98.224,32.338,100.4H23.856a11.983,11.983,0,0,1-12-12V17.866A10.366,10.366,0,0,1,22.226,7.5H68.764A10.366,10.366,0,0,1,79.13,17.866Z" transform="translate(-11.86 -7.5)" fill="#f9f6f9"/><path d="M114.434,275.3v6.875s-44.62,33.794-46.792,35.966H59.16a12,12,0,0,1-3.88-.641V285.866A10.566,10.566,0,0,1,65.846,275.3Z" transform="translate(-47.164 -225.245)" fill="#dfeaef"/><path d="M111.561,118.166v30.589a1.592,1.592,0,0,1-2.718,1.126l-2.5-2.5a1.592,1.592,0,0,0-2.252,0l-2.5,2.5a1.592,1.592,0,0,1-2.718-1.126V118.166" transform="translate(-82.607 -97.481)" fill="#da4a54"/><path d="M155.308,322.446v13.6a11.986,11.986,0,0,1-12,12H76.04a11.993,11.993,0,0,0,12-12v-13.6A10.366,10.366,0,0,1,98.4,312.08h46.537A10.366,10.366,0,0,1,155.308,322.446Z" transform="translate(-64.044 -255.15)" fill="#f9f6f9"/><path d="M154.788,459.05a12,12,0,0,1-11.476,8.5H76.04a12,12,0,0,0,11.476-8.5Z" transform="translate(-64.044 -374.65)" fill="#dfeaef"/><path d="M57.254,94.458c2.853,0,6.383,2.421,8.688,1.088,2.377-1.375,2.027-5.689,3.4-8.067,1.333-2.3,5.28-4.125,5.28-6.978s-3.947-4.674-5.28-6.978c-1.375-2.377-1.026-6.691-3.4-8.067-2.3-1.333-5.834,1.088-8.688,1.088s-6.383-2.421-8.688-1.088c-2.377,1.375-2.027,5.689-3.4,8.067-1.333,2.3-5.28,4.125-5.28,6.978s3.947,4.674,5.28,6.978c1.375,2.377,1.026,6.691,3.4,8.067C50.871,96.879,54.4,94.458,57.254,94.458Z" transform="translate(-34.646 -54.298)" fill="#f4dd45"/><circle cx="8.605" cy="8.605" r="8.605" transform="translate(14.003 17.598)" fill="#eab14d"/></g><g transform="translate(4.365 0)"><path d="M90.142,57.452a1.4,1.4,0,1,0-.828,2.678A8.924,8.924,0,0,1,95.629,68.7V82.3A10.607,10.607,0,0,1,85.033,92.9H25.968a13.6,13.6,0,0,0,1.269-1.121A13.317,13.317,0,0,0,31.161,82.3V68.7a8.975,8.975,0,0,1,8.964-8.964h43.44a1.4,1.4,0,0,0,0-2.8H74.439V11.768A11.781,11.781,0,0,0,62.671,0H16.133A11.781,11.781,0,0,0,4.365,11.768V82.3a13.413,13.413,0,0,0,13.4,13.4h67.27a13.414,13.414,0,0,0,13.4-13.4V68.7A11.714,11.714,0,0,0,90.142,57.452ZM17.763,92.9A10.606,10.606,0,0,1,7.169,82.3V11.768A8.975,8.975,0,0,1,16.133,2.8H62.671a8.975,8.975,0,0,1,8.964,8.964V56.93H40.125A11.783,11.783,0,0,0,28.443,67.3H13.881a1.4,1.4,0,1,0,0,2.8H28.357v6.054H13.881a1.4,1.4,0,0,0,0,2.8H28.357V82.3A10.6,10.6,0,0,1,17.763,92.9Z" transform="translate(-4.365 0)"/><path d="M37.852,82.1a11.364,11.364,0,0,1,.93,2.976c.469,2.088,1,4.455,2.983,5.6a4.327,4.327,0,0,0,1.643.542v8.271a2.993,2.993,0,0,0,5.111,2.116l2.5-2.5a.193.193,0,0,1,.271,0l2.5,2.5A2.994,2.994,0,0,0,58.9,99.487v-8.27a4.329,4.329,0,0,0,1.641-.543c1.983-1.147,2.515-3.514,2.984-5.6A11.355,11.355,0,0,1,64.46,82.1a10.843,10.843,0,0,1,2.038-2.18c1.608-1.461,3.431-3.118,3.431-5.5s-1.823-4.04-3.432-5.5a10.844,10.844,0,0,1-2.037-2.178,9.271,9.271,0,0,1-.8-2.4,1.4,1.4,0,0,0-2.732.629,11.291,11.291,0,0,0,1.1,3.174,12.829,12.829,0,0,0,2.578,2.849c1.236,1.123,2.514,2.284,2.514,3.426s-1.277,2.3-2.513,3.426a12.832,12.832,0,0,0-2.579,2.851,13.39,13.39,0,0,0-1.24,3.765c-.36,1.6-.732,3.257-1.652,3.79-.863.5-2.45.012-3.985-.459a13.974,13.974,0,0,0-4-.817,13.967,13.967,0,0,0-4,.817c-1.535.471-3.123.959-3.986.46-.92-.533-1.292-2.188-1.651-3.789a13.4,13.4,0,0,0-1.239-3.766A12.834,12.834,0,0,0,37.7,77.843c-1.236-1.123-2.514-2.284-2.514-3.426s1.278-2.3,2.514-3.426a12.83,12.83,0,0,0,2.578-2.849,13.4,13.4,0,0,0,1.239-3.766c.359-1.6.731-3.257,1.651-3.789.864-.5,2.451-.012,3.987.46a13.967,13.967,0,0,0,4,.817,13.977,13.977,0,0,0,4-.817c1.516-.465,3.084-.947,3.952-.479A1.4,1.4,0,0,0,60.439,58.1c-1.9-1.026-4.135-.34-6.106.265a12.072,12.072,0,0,1-3.178.693,12.074,12.074,0,0,1-3.176-.693c-2.012-.618-4.292-1.318-6.214-.206-1.983,1.147-2.514,3.514-2.983,5.6a11.363,11.363,0,0,1-.93,2.976,10.85,10.85,0,0,1-2.037,2.178c-1.609,1.461-3.432,3.118-3.432,5.5s1.823,4.04,3.432,5.5A10.84,10.84,0,0,1,37.852,82.1Zm10.127,8.372a12.072,12.072,0,0,1,3.176-.693,12.076,12.076,0,0,1,3.178.693c.572.176,1.166.358,1.767.5v8.515a.169.169,0,0,1-.117.176.17.17,0,0,1-.209-.042l-2.5-2.5a3,3,0,0,0-4.233,0l-2.5,2.5a.19.19,0,0,1-.325-.134V90.969C46.813,90.824,47.407,90.644,47.979,90.468Z" transform="translate(-27.146 -46.811)"/><path d="M89.284,94.15a10.007,10.007,0,1,0,10.007,10.007A10.019,10.019,0,0,0,89.284,94.15Zm0,17.211a7.2,7.2,0,1,1,7.2-7.2A7.212,7.212,0,0,1,89.284,111.361Z" transform="translate(-65.275 -76.552)"/><path d="M245.532,96.954h15.878a1.4,1.4,0,1,0,0-2.8H245.532a1.4,1.4,0,1,0,0,2.8Z" transform="translate(-199.315 -76.552)"/><path d="M245.532,142.994h15.878a1.4,1.4,0,1,0,0-2.8H245.532a1.4,1.4,0,0,0,0,2.8Z" transform="translate(-199.315 -113.987)"/><path d="M245.532,189.035h15.878a1.4,1.4,0,1,0,0-2.8H245.532a1.4,1.4,0,1,0,0,2.8Z" transform="translate(-199.315 -151.422)"/><path d="M245.532,235.928h15.878a1.4,1.4,0,1,0,0-2.8H245.532a1.4,1.4,0,0,0,0,2.8Z" transform="translate(-199.315 -189.55)"/></g></g></svg>