<svg xmlns="http://www.w3.org/2000/svg" width="132" height="131.993" viewBox="0 0 132 131.993"><g transform="translate(0.01 -0.008)"><path d="M395.015,56.207v-22a2.2,2.2,0,0,0-2.2-2.2h-8.8v4.4h6.6v19.8Zm0,0" transform="translate(-278.425 -23.201)" fill="#a7bce6"/><path d="M56.016,240.008v55a2.2,2.2,0,0,0,2.2,2.2h88a2.2,2.2,0,0,0,2.2-2.2v-15.4h-4.4v13.2h-83.6v-52.8Zm0,0" transform="translate(-40.62 -174.004)" fill="#a7bce6"/><path d="M127.323.228c-.069-.031-.134-.048-.205-.073a2.187,2.187,0,0,0-.569-.114.84.84,0,0,0-.136-.033h-68.2a2.2,2.2,0,0,0-2.2,2.2v4.4h4.4v-2.2h63.8v17.6a2.2,2.2,0,0,0,2.2,2.2h17.6v11h4.4v-13.2c0-.046-.024-.088-.027-.136a2.143,2.143,0,0,0-.114-.569c-.025-.071-.042-.136-.073-.205a2.186,2.186,0,0,0-.439-.644l-19.8-19.8a2.2,2.2,0,0,0-.636-.424ZM140.9,19.807H128.612V7.518Zm0,0" transform="translate(-40.62)" fill="#a7bce6"/><path d="M184.016,330.208v17.6a2.2,2.2,0,0,0,2.2,2.2h28.6v-4.4h-26.4v-13.2h11v-4.4h-13.2A2.2,2.2,0,0,0,184.016,330.208Zm0,0" transform="translate(-133.422 -237.805)" fill="#a7bce6"/><path d="M216.016,360.008h13.2v4.4h-13.2Zm0,0" transform="translate(-156.622 -261.005)" fill="#a7bce6"/><path d="M186.211,136.008a15.419,15.419,0,0,0-15.4,15.4v.22l-11.22,11.844-7.024-7.024a2.2,2.2,0,0,0-3.111,0l-19.8,19.8a2.2,2.2,0,0,0,0,3.111l30.8,30.8a2.2,2.2,0,0,0,3.111,0l6.6-6.6,11.644-11.64V226.2h-85.8v4.4h88a2.2,2.2,0,0,0,2.2-2.2v-52.8h-4.4v10.089l-7.668-7.668,11.848-11.22h.22a15.4,15.4,0,0,0,0-30.8Zm-24.2,69.485-27.688-27.688,3.489-3.489L165.5,202ZM178.7,188.805l-10.089,10.089-27.688-27.688,10.089-10.089,5.552,5.552-4.95,5.223a2.2,2.2,0,0,0,.042,3.08l11,11a2.2,2.2,0,0,0,3.067.042l5.225-4.95Zm7.511-26.4h-1.1a2.2,2.2,0,0,0-1.513.6l-19.344,18.317-7.962-7.962,18.325-19.344a2.2,2.2,0,0,0,.594-1.514v-1.1a11,11,0,1,1,11,11Zm0,0" transform="translate(-69.621 -98.602)" fill="#a7bce6"/><path d="M152.016,232.008h22v4.4h-22Zm0,0" transform="translate(-110.221 -168.204)" fill="#a7bce6"/><path d="M104.016,264.008h26.4v4.4h-26.4Zm0,0" transform="translate(-75.421 -191.404)" fill="#a7bce6"/><path d="M176.016,200.008h26.4v4.4h-26.4Zm0,0" transform="translate(-127.622 -145.003)" fill="#a7bce6"/><path d="M104.016,296.008h13.2v4.4h-13.2Zm0,0" transform="translate(-75.421 -214.605)" fill="#a7bce6"/><path d="M104.016,328.008h17.6v4.4h-17.6Zm0,0" transform="translate(-75.421 -237.805)" fill="#a7bce6"/><path d="M104.016,360.008h17.6v4.4h-17.6Zm0,0" transform="translate(-75.421 -261.005)" fill="#a7bce6"/><path d="M104.016,392.008h17.6v4.4h-17.6Zm0,0" transform="translate(-75.421 -284.206)" fill="#a7bce6"/><path d="M104.016,232.008h8.8v4.4h-8.8Zm0,0" transform="translate(-75.421 -168.204)" fill="#a7bce6"/><path d="M168.016,296.008h8.8v4.4h-8.8Zm0,0" transform="translate(-121.822 -214.605)" fill="#a7bce6"/><path d="M200.016,160.008h22v4.4h-22Zm0,0" transform="translate(-145.022 -116.003)" fill="#a7bce6"/><path d="M26.4,84.795A26.4,26.4,0,0,0,52.748,59.32a5.815,5.815,0,0,0,4.265,1.333,5.966,5.966,0,0,0,9.16,0,5.967,5.967,0,0,0,6.476-6.476,5.966,5.966,0,0,0,0-9.16,5.967,5.967,0,0,0-6.476-6.476,5.966,5.966,0,0,0-9.16,0,5.967,5.967,0,0,0-6.476,6.476,5.711,5.711,0,0,0-.88.907A26.4,26.4,0,1,0,26.4,84.795Zm27.423-36.65a2.2,2.2,0,0,0,1.25-3.015,1.539,1.539,0,0,1,2.057-2.057,2.2,2.2,0,0,0,3.015-1.25,1.54,1.54,0,0,1,2.9,0,2.2,2.2,0,0,0,3.016,1.25,1.539,1.539,0,0,1,2.056,2.057,2.2,2.2,0,0,0,1.25,3.015,1.54,1.54,0,0,1,0,2.9,2.2,2.2,0,0,0-1.25,3.016,1.48,1.48,0,0,1-.3,1.759,1.5,1.5,0,0,1-1.761.3,2.2,2.2,0,0,0-3.015,1.249,1.54,1.54,0,0,1-2.9,0,2.194,2.194,0,0,0-1.232-1.3,2.243,2.243,0,0,0-.842-.168,2.154,2.154,0,0,0-.942.22,1.539,1.539,0,0,1-2.056-2.057,2.2,2.2,0,0,0-1.25-3.016,1.54,1.54,0,0,1,0-2.9ZM26.4,36.4a22,22,0,1,1-22,22,22,22,0,0,1,22-22Zm0,0" transform="translate(0 -23.19)" fill="#a7bce6"/><path d="M40.959,107.461a2.2,2.2,0,0,0,3.111,0l22-22-3.111-3.111L42.514,102.795,37.47,97.751l-3.111,3.111Zm0,0" transform="translate(-24.919 -59.7)" fill="#a7bce6"/></g></svg>