<svg xmlns="http://www.w3.org/2000/svg" width="105" height="105" viewBox="0 0 105 105"><g transform="translate(-19426 10260.15)"><circle cx="52.5" cy="52.5" r="52.5" transform="translate(19426 -10260.15)" fill="#adc46c"/><g transform="translate(19440.443 -10245.715)"><path d="M31.044,7.458A8.97,8.97,0,0,1,34.935,18.84a32.169,32.169,0,0,0,0,25.427,9.007,9.007,0,0,1-16.408,7.424,46.832,46.832,0,0,1-4.465-20.139,46.832,46.832,0,0,1,4.466-20.138A8.993,8.993,0,0,1,31.044,7.458Z" transform="translate(-4.158 -0.761)" fill="#83e046"/><path d="M80.158,81.275a8.97,8.97,0,0,1-3.891-11.381,32.169,32.169,0,0,0,0-25.427,9.007,9.007,0,0,1,16.408-7.425,47.644,47.644,0,0,1,0,40.278,8.993,8.993,0,0,1-12.518,3.956Z" transform="translate(-31.051 -11.972)" fill="#83e046"/><g transform="translate(14.681 15.254)"><path d="M36.848,25.972a2.4,2.4,0,1,1-2.4-2.4,2.4,2.4,0,0,1,2.4,2.4Z" transform="translate(-26.702 -23.567)" fill="#67cc32"/><path d="M94.159,52a2.405,2.405,0,1,1-2.405-2.4A2.406,2.406,0,0,1,94.159,52Z" transform="translate(-51.773 -34.951)" fill="#67cc32"/><circle cx="3.793" cy="3.793" r="3.793" transform="translate(0 13.341)" fill="#67cc32"/><circle cx="3.793" cy="3.793" r="3.793" transform="translate(38.967 28.429)" fill="#67cc32"/><path d="M37.1,76.056a2.243,2.243,0,1,1-2.243-2.242A2.243,2.243,0,0,1,37.1,76.056Z" transform="translate(-26.954 -45.548)" fill="#67cc32"/><circle cx="2.243" cy="2.243" r="2.243" transform="translate(36.724 43.617)" fill="#67cc32"/></g><g transform="translate(4.557 4.565)"><path d="M44.65,89.981a8.105,8.105,0,0,1-1.724,1.294l-.072.039a.984.984,0,1,0,.936,1.732l.1-.056a10.037,10.037,0,0,0,2.135-1.6.985.985,0,0,0-1.38-1.406Z" transform="translate(-21.084 -41.807)"/><path d="M34.544,20.416a.985.985,0,1,0,.731-1.828L32.09,17.315A9.917,9.917,0,0,0,27.364,5.839a10.054,10.054,0,0,0-7.935-.8,9.821,9.821,0,0,0-5.951,5.2c-.043.091-.083.182-.125.273L10.4,8.973A.985.985,0,0,0,9.5,10.716l3.062,1.592q-.788,1.885-1.4,3.825L7.983,15.068a.984.984,0,1,0-.627,1.866L10.6,18.026a47.37,47.37,0,0,0-1.024,4.685l-3.325-.532a.984.984,0,0,0-.312,1.944l3.358.538a49.659,49.659,0,0,0-.365,5.146H5.541a.984.984,0,0,0,0,1.969h3.39A49.66,49.66,0,0,0,9.3,36.922l-3.358.538a.985.985,0,0,0,.155,1.957A1,1,0,0,0,6.25,39.4l3.325-.532A47.371,47.371,0,0,0,10.6,43.557l-3.242,1.09a.984.984,0,1,0,.627,1.866l3.17-1.066q.619,1.942,1.4,3.825L9.5,50.864a.985.985,0,1,0,.909,1.747l2.949-1.534c.042.091.082.182.125.273a9.877,9.877,0,0,0,7.932,5.613.984.984,0,1,0,.211-1.957,7.925,7.925,0,0,1-6.362-4.5,45.623,45.623,0,0,1-4.372-19.714,45.623,45.623,0,0,1,4.37-19.717,7.876,7.876,0,0,1,4.77-4.163,8.031,8.031,0,0,1,9.847,10.773,33.151,33.151,0,0,0,0,26.215,7.839,7.839,0,0,1,.539,4.471.984.984,0,1,0,1.94.334,9.8,9.8,0,0,0-.259-4.435L35.275,43a.985.985,0,1,0-.731-1.828L31.4,42.426a30.125,30.125,0,0,1-1.353-4.155l3.286-.766a.985.985,0,1,0-.45-1.918l-3.246.757a31.239,31.239,0,0,1-.474-4.566h3.352a.984.984,0,0,0,0-1.969H29.167a31.239,31.239,0,0,1,.474-4.566L32.887,26a.985.985,0,0,0,.45-1.918l-3.286-.766A30.126,30.126,0,0,1,31.4,19.161Z" transform="translate(-4.557 -4.565)"/><path d="M98.09,57.4a.984.984,0,1,0,0-1.969H94.7a49.66,49.66,0,0,0-.365-5.146l3.358-.538a.984.984,0,1,0-.312-1.944l-3.325.532a47.369,47.369,0,0,0-1.024-4.685l3.242-1.09a.984.984,0,1,0-.627-1.866l-3.17,1.069q-.619-1.942-1.4-3.825l3.062-1.592a.985.985,0,1,0-.909-1.747l-2.949,1.534c-.042-.091-.082-.182-.125-.273a9.821,9.821,0,0,0-5.951-5.2,10.059,10.059,0,0,0-7.935.8q-.338.187-.651.4A.984.984,0,1,0,76.7,33.5q.255-.169.525-.32a7.971,7.971,0,0,1,6.378-.645,7.876,7.876,0,0,1,4.77,4.163,46.666,46.666,0,0,1,0,39.433,7.876,7.876,0,0,1-4.77,4.163,8.031,8.031,0,0,1-9.845-10.773,33.151,33.151,0,0,0,0-26.215A7.932,7.932,0,0,1,73.768,37a.985.985,0,0,0-1.806-.788,9.926,9.926,0,0,0-.421,6.726l-3.185,1.274a.985.985,0,1,0,.731,1.828l3.142-1.257a30.125,30.125,0,0,1,1.353,4.155l-3.286.766a.985.985,0,1,0,.447,1.918l3.246-.757a31.238,31.238,0,0,1,.474,4.566H71.112a.984.984,0,0,0,0,1.969h3.352a31.238,31.238,0,0,1-.474,4.566l-3.246-.757a.985.985,0,1,0-.447,1.918l3.286.766a30.125,30.125,0,0,1-1.353,4.155L69.088,66.8a.985.985,0,1,0-.731,1.828L71.539,69.9a9.917,9.917,0,0,0,4.725,11.476,10.054,10.054,0,0,0,7.938.8,9.821,9.821,0,0,0,5.951-5.2c.043-.091.083-.182.125-.273l2.949,1.534a.985.985,0,1,0,.909-1.747L91.074,74.9q.788-1.885,1.4-3.825l3.171,1.066a.984.984,0,1,0,.627-1.866l-3.244-1.091A47.369,47.369,0,0,0,94.055,64.5l3.325.532a.984.984,0,1,0,.312-1.944l-3.358-.538A49.66,49.66,0,0,0,94.7,57.4Z" transform="translate(-32.195 -15.777)"/><path d="M33.678,21.817a3.389,3.389,0,1,0,3.389,3.389,3.389,3.389,0,0,0-3.389-3.389Zm0,4.81a1.42,1.42,0,1,1,1.42-1.42,1.42,1.42,0,0,1-1.42,1.42Z" transform="translate(-15.813 -12.112)"/><path d="M90.986,47.841a3.39,3.39,0,1,0,3.389,3.39,3.39,3.39,0,0,0-3.389-3.39Zm0,4.81a1.421,1.421,0,1,1,1.42-1.421,1.421,1.421,0,0,1-1.42,1.421Z" transform="translate(-40.883 -23.496)"/><path d="M30.358,50.31a4.778,4.778,0,1,0-4.775,4.777A4.778,4.778,0,0,0,30.358,50.31Zm-4.775,2.808a2.809,2.809,0,1,1,2.809-2.809,2.809,2.809,0,0,1-2.809,2.809Z" transform="translate(-11.664 -22.486)"/><path d="M90.072,77.132a4.778,4.778,0,1,0,4.778-4.777A4.778,4.778,0,0,0,90.072,77.132Zm4.778-2.808a2.809,2.809,0,1,1-2.809,2.809,2.809,2.809,0,0,1,2.809-2.809Z" transform="translate(-41.966 -34.22)"/><path d="M34.09,72.064a3.228,3.228,0,1,0,3.228,3.228A3.228,3.228,0,0,0,34.09,72.064Zm0,4.486a1.259,1.259,0,1,1,1.259-1.26A1.259,1.259,0,0,1,34.09,76.55Z" transform="translate(-16.064 -34.093)"/><path d="M89.312,105.808a3.228,3.228,0,1,0-3.228-3.228A3.228,3.228,0,0,0,89.312,105.808Zm0-4.487a1.259,1.259,0,1,1-1.259,1.259A1.259,1.259,0,0,1,89.312,101.321Z" transform="translate(-40.221 -46.03)"/></g></g></g></svg>