<svg xmlns="http://www.w3.org/2000/svg" width="105" height="105" viewBox="0 0 105 105"><g transform="translate(-19790 10260.15)"><circle cx="52.5" cy="52.5" r="52.5" transform="translate(19790 -10260.15)" fill="#adc46c"/><g transform="translate(19812.5 -10237.15)"><path d="M190.862,40.376a11.917,11.917,0,0,1-5.084,13.5,32.482,32.482,0,0,0-10.834,11.158,11.944,11.944,0,0,1-20.61-12.076,56.3,56.3,0,0,1,18.8-19.355,11.933,11.933,0,0,1,17.726,6.775Zm0,0" transform="translate(-134.262 -28.055)" fill="#c9f3ff"/><path d="M214.671,71.813a7.1,7.1,0,0,0-3.764,1.085,51.866,51.866,0,0,0-17.227,17.738,7.234,7.234,0,0,0,6.228,10.888,7.268,7.268,0,0,0,6.25-3.577,37.381,37.381,0,0,1,12.4-12.774,7.251,7.251,0,0,0-3.89-13.36Zm0,0" transform="translate(-169.539 -63.351)" fill="#ffc66c"/><path d="M333.074,137.041a2.791,2.791,0,1,0-4.026.1A2.849,2.849,0,0,0,333.074,137.041Zm0,0" transform="translate(-289.127 -116.651)" fill="#ff5d5d"/><path d="M208.827,62.367a8.375,8.375,0,0,0-2.981-.55,8.283,8.283,0,0,0-4.388,1.263,52.35,52.35,0,0,0-5.773,4.174,1.178,1.178,0,1,0,1.507,1.811,50.065,50.065,0,0,1,5.512-3.986,5.935,5.935,0,0,1,3.141-.906,6.069,6.069,0,0,1,3.266,11.182,38.562,38.562,0,0,0-12.8,13.177,6.046,6.046,0,0,1-8.282,2.162,6.052,6.052,0,0,1-2.162-8.282,50.821,50.821,0,0,1,4.873-6.916,1.178,1.178,0,0,0-1.807-1.513,53.2,53.2,0,0,0-5.1,7.238,8.412,8.412,0,0,0,7.244,12.662,8.45,8.45,0,0,0,7.267-4.16,36.2,36.2,0,0,1,12.012-12.37,8.42,8.42,0,0,0-1.533-14.987Zm0,0" transform="translate(-160.714 -54.533)"/><path d="M260.03,135.776a1.176,1.176,0,0,0,.835-.347l.031-.031a1.178,1.178,0,0,0-1.667-1.667l-.035.035a1.178,1.178,0,0,0,.835,2.009Zm0,0" transform="translate(-227.911 -117.67)"/><path d="M322.278,130.275a4.122,4.122,0,0,0,2.833-1.235,4.032,4.032,0,0,0,.053-5.694,3.885,3.885,0,0,0-2.86-1.122,4.172,4.172,0,0,0-4.038,4.081,3.887,3.887,0,0,0,3.9,3.971Zm-1.656-3.933a1.816,1.816,0,0,1,1.743-1.762h.044a1.543,1.543,0,0,1,1.1.442,1.675,1.675,0,0,1-.071,2.361,1.778,1.778,0,0,1-1.219.538,1.532,1.532,0,0,1-1.595-1.578Zm0,0" transform="translate(-280.324 -107.822)"/><path d="M289.674,201.083a1.178,1.178,0,0,0,1.178-1.178v-1.519a1.178,1.178,0,1,0-2.356,0v1.519A1.178,1.178,0,0,0,289.674,201.083Zm0,0" transform="translate(-254.062 -173.972)"/><path d="M240.5,219.842a1.178,1.178,0,0,0,1.178,1.178h.766a1.178,1.178,0,1,0,0-2.357h-.766A1.178,1.178,0,0,0,240.5,219.842Zm0,0" transform="translate(-211.718 -192.9)"/><path d="M237.341,260.841a1.178,1.178,0,0,0,0,1.666l.8.8a1.178,1.178,0,0,0,1.666-1.666l-.8-.8A1.178,1.178,0,0,0,237.341,260.841Zm0,0" transform="translate(-208.63 -229.803)"/><path d="M59.648,14.4H58.2a13.091,13.091,0,0,0-.472-2.415,13.318,13.318,0,0,0-1.082-2.6l1.713-.766A1.178,1.178,0,0,0,57.4,6.465L55.314,7.4a13.059,13.059,0,0,0-4.74-3.641l1.049-2.04a1.178,1.178,0,0,0-2.1-1.077l-1.2,2.328a12.9,12.9,0,0,0-7.2.235l-.958-1.889a1.178,1.178,0,0,0-2.1,1.065l.891,1.756q-.359.194-.709.411-1.94,1.21-3.777,2.575L33.6,5.646a1.178,1.178,0,0,0-2.029,1.2L32.6,8.575q-2.125,1.718-4.081,3.634l-1.063-1.063a1.178,1.178,0,1,0-1.666,1.667l1.077,1.077a58.07,58.07,0,0,0-3.894,4.589l-1.775-1.57a1.178,1.178,0,0,0-1.561,1.766l1.94,1.715q-1.335,1.9-2.515,3.916c-.071.122-.139.244-.207.367l-2.374-.637a1.178,1.178,0,1,0-.611,2.276l2.038.547a13.028,13.028,0,0,0-.221,7.4c.031.119.064.237.1.355a15.17,15.17,0,0,0-8.2,6.814,12.406,12.406,0,0,1-3.52,4.1,1.178,1.178,0,0,0,1.4,1.9,14.748,14.748,0,0,0,4.191-4.866,12.966,12.966,0,0,1,6.993-5.744,12.974,12.974,0,0,0,1.252,2.027A26.394,26.394,0,0,0,10.315,50.5C7.1,58.039,1.942,57.976,1.733,57.97a1.178,1.178,0,1,0-.11,2.354c.017,0,.06,0,.125,0,.981,0,7.087-.354,10.734-8.906A24.191,24.191,0,0,1,21.5,40.61a13.265,13.265,0,0,0,2.241,1.651c.342.2.692.383,1.048.55a12.868,12.868,0,0,1-5.726,6.934,13.4,13.4,0,0,0-7.123,9.246,1.178,1.178,0,0,0,1.012,1.324,1.14,1.14,0,0,0,.157.011A1.178,1.178,0,0,0,14.278,59.3a11.128,11.128,0,0,1,5.918-7.49,15.17,15.17,0,0,0,6.81-8.192,13.057,13.057,0,0,0,2.537.415v1.208a1.178,1.178,0,1,0,2.356,0V43.971a13.214,13.214,0,0,0,7.446-3.46L40.63,41.8A1.178,1.178,0,0,0,42.3,40.13l-1.378-1.378a12.994,12.994,0,0,0,.781-1.178,31.41,31.41,0,0,1,2.224-3.293l1.736,1.726a1.178,1.178,0,0,0,1.662-1.671l-1.884-1.874a31.53,31.53,0,0,1,3.478-3.326l2.328,1.946a1.178,1.178,0,1,0,1.511-1.808l-1.909-1.6c.425-.3.856-.584,1.3-.858a12.907,12.907,0,0,0,3.182-2.808l2.6,1.075a1.178,1.178,0,0,0,.9-2.178l-2.162-.894a13.2,13.2,0,0,0,1.568-5.257h1.42a1.178,1.178,0,1,0,0-2.356ZM50.893,24.82q-1.343.839-2.6,1.8a1.128,1.128,0,0,0-.154.121A33.852,33.852,0,0,0,43,31.675l-.013.012a1.193,1.193,0,0,0-.143.175,33.8,33.8,0,0,0-3.178,4.52A10.773,10.773,0,0,1,22.548,38.33l-.023-.023A10.777,10.777,0,0,1,21.09,25.5,55.423,55.423,0,0,1,39.5,6.546a10.611,10.611,0,0,1,5.629-1.623,10.783,10.783,0,0,1,5.767,19.9Zm0,0" transform="translate(0 0)"/><path d="M6.311,404.049a1.186,1.186,0,0,0,.156-.011l.058-.008a1.178,1.178,0,1,0-.363-2.328l-.012,0a1.178,1.178,0,0,0,.161,2.345Zm0,0" transform="translate(-4.086 -354.358)"/></g></g></svg>