<svg xmlns="http://www.w3.org/2000/svg" width="166.999" height="173.666" viewBox="0 0 166.999 173.666"><g transform="translate(-9.828)"><g transform="translate(12.371 2.544)"><g transform="translate(0)"><path d="M65.357,113.769A15.041,15.041,0,0,0,80.4,98.728a6.951,6.951,0,0,1,10.427-6.02,15.041,15.041,0,0,0,15.041-26.052,6.951,6.951,0,0,1,0-12.04A15.041,15.041,0,0,0,90.825,28.563,6.951,6.951,0,0,1,80.4,22.543a15.041,15.041,0,0,0-30.082,0,6.951,6.951,0,0,1-10.427,6.02A15.041,15.041,0,0,0,24.847,54.615a6.951,6.951,0,0,1,0,12.04A15.041,15.041,0,0,0,39.889,92.707a6.951,6.951,0,0,1,10.427,6.02,15.041,15.041,0,0,0,15.041,15.042Z" transform="translate(-17.324 -7.502)" fill="#b1e4fa"/><path d="M108.46,28.562a6.951,6.951,0,0,0,10.427-6.02A15.046,15.046,0,0,1,129.326,8.221a15.045,15.045,0,0,0-19.644,14.321,6.857,6.857,0,0,1-2.519,5.353c.439.2.872.421,1.3.667Z" transform="translate(-76.69 -7.501)" fill="#9dc6fb"/><path d="M28.548,124.306a15.041,15.041,0,0,1,5.505-20.547,6.951,6.951,0,0,0,0-12.04,15.041,15.041,0,0,1,2.919-27.346A15.042,15.042,0,0,0,24.847,91.719a6.951,6.951,0,0,1,0,12.04,15.042,15.042,0,0,0,12.124,27.346,14.987,14.987,0,0,1-8.424-6.8Z" transform="translate(-17.324 -44.606)" fill="#9dc6fb"/><path d="M118.888,262.888a6.951,6.951,0,0,0-10.427-6.02c-.426.246-.859.467-1.3.667a6.858,6.858,0,0,1,2.519,5.353,15.045,15.045,0,0,0,19.644,14.321,15.045,15.045,0,0,1-10.439-14.321Z" transform="translate(-76.69 -171.663)" fill="#9dc6fb"/><g transform="translate(26.581 33.205)"><circle cx="11.768" cy="11.768" r="11.768" transform="translate(0 0)" fill="#ecbe6b"/><path d="M110.908,128.418a11.768,11.768,0,1,1,0-22.511,11.776,11.776,0,0,0,0,22.511Z" transform="translate(-95.691 -105.394)" fill="#eab14d"/></g><g transform="translate(55.547 47.186)"><circle cx="9.093" cy="9.093" r="9.093" transform="translate(0 0.001)" fill="#ecbe6b"/><path d="M192.847,164.406a9.094,9.094,0,1,1,0-17.4,9.1,9.1,0,0,0,0,17.4Z" transform="translate(-181.088 -146.615)" fill="#eab14d"/></g></g><g transform="translate(81.331 88.948)"><path d="M325.322,275.937a21.169,21.169,0,0,0-29.938,0l-32.076,32.076a21.169,21.169,0,0,0,29.938,29.938l32.076-32.076A21.169,21.169,0,0,0,325.322,275.937Z" transform="translate(-257.107 -269.736)" fill="#e28086"/><path d="M267.459,341.19a21.188,21.188,0,0,1-4.155-33.174l32.078-32.078a21.188,21.188,0,0,1,33.174,4.155,21.176,21.176,0,0,0-25.788,3.231L270.689,315.4A21.176,21.176,0,0,0,267.459,341.19Z" transform="translate(-257.104 -269.737)" fill="#dd636e"/></g><g transform="translate(120.592 26.654)"><circle cx="15.987" cy="15.987" r="15.987" transform="translate(0 0.001)" fill="#ecbe6b"/><path d="M393.528,117.363a15.988,15.988,0,1,1,0-30.584,16,16,0,0,0,0,30.584Z" transform="translate(-372.854 -86.083)" fill="#eab14d"/></g><g transform="translate(33.716 128.17)"><circle cx="10.282" cy="10.282" r="10.282" transform="translate(0 0.001)" fill="#ecbe6b"/><path d="M130.021,405.488a10.283,10.283,0,1,1,0-19.67,10.29,10.29,0,0,0,0,19.67Z" transform="translate(-116.724 -385.37)" fill="#eab14d"/></g><g transform="translate(14.748 109.221)"><circle cx="6.73" cy="6.73" r="6.73" transform="translate(0 0)" fill="#e28086"/><path d="M69.506,342.671a6.73,6.73,0,1,1,0-12.873,6.734,6.734,0,0,0,0,12.873Z" transform="translate(-60.803 -329.504)" fill="#dd636e"/></g></g><g transform="translate(9.828 0)"><path d="M108.623,83.516A17.575,17.575,0,0,0,102.186,59.5a4.407,4.407,0,0,1,0-7.635A17.586,17.586,0,1,0,84.6,21.4,4.33,4.33,0,0,1,82.4,22a4.428,4.428,0,0,1-4.416-4.42,17.585,17.585,0,0,0-35.171,0A4.428,4.428,0,0,1,38.4,22a4.332,4.332,0,0,1-2.194-.6,17.5,17.5,0,0,0-5.594-2.066,2.544,2.544,0,0,0-.922,5,12.42,12.42,0,0,1,3.969,1.467,9.479,9.479,0,0,0,14.245-8.222,12.5,12.5,0,0,1,25,0,9.479,9.479,0,0,0,14.243,8.224,12.5,12.5,0,1,1,12.5,21.647,9.5,9.5,0,0,0,0,16.448,12.5,12.5,0,1,1-12.5,21.645A9.479,9.479,0,0,0,72.9,93.77a12.5,12.5,0,1,1-25,0,9.479,9.479,0,0,0-14.243-8.224A12.5,12.5,0,1,1,21.166,63.9a9.5,9.5,0,0,0,0-16.448A12.5,12.5,0,0,1,21.343,25.7a2.544,2.544,0,0,0-2.467-4.45,17.587,17.587,0,0,0-.252,30.607,4.407,4.407,0,0,1,0,7.634A17.584,17.584,0,1,0,36.21,89.95a4.329,4.329,0,0,1,2.192-.6,4.428,4.428,0,0,1,4.416,4.42,17.585,17.585,0,1,0,35.171,0A4.428,4.428,0,0,1,82.4,89.35a4.333,4.333,0,0,1,2.195.6,17.579,17.579,0,0,0,24.023-6.435Z" transform="translate(-9.828 0)"/><path d="M102.5,97.9a14.311,14.311,0,1,0,14.311,14.311A14.328,14.328,0,0,0,102.5,97.9Zm0,23.535a9.223,9.223,0,1,1,9.223-9.224A9.234,9.234,0,0,1,102.5,121.431Z" transform="translate(-61.61 -64.69)"/><path d="M196.862,150.754a11.637,11.637,0,1,0-11.637,11.637A11.65,11.65,0,0,0,196.862,150.754Zm-18.186,0a6.549,6.549,0,1,1,6.549,6.549A6.557,6.557,0,0,1,178.676,150.754Z" transform="translate(-118.042 -91.93)"/><path d="M126.768,212.3a8.35,8.35,0,0,1-8.34-8.34,2.544,2.544,0,1,0-5.088,0,13.443,13.443,0,0,0,13.428,13.428,2.544,2.544,0,0,0,0-5.088Z" transform="translate(-78.23 -133.096)"/><path d="M313.711,290.663a23.446,23.446,0,0,0,3.6-6.193,2.544,2.544,0,0,0-4.737-1.858,18.463,18.463,0,0,1-4.157,6.339l-.009.008-.013.014-32.064,32.061A18.625,18.625,0,0,1,249.987,294.7l.007-.006.009-.011,32.069-32.065a18.623,18.623,0,0,1,31.681,11.127,2.544,2.544,0,0,0,5.058-.553,23.713,23.713,0,0,0-23.57-21.117,23.522,23.522,0,0,0-14.87,5.245l-9.715-9.715a2.544,2.544,0,0,0-3.6,3.6l9.618,9.618-4.421,4.421-9.618-9.618a2.544,2.544,0,0,0-3.6,3.6l9.617,9.617-4.421,4.421-9.617-9.617a2.544,2.544,0,1,0-3.6,3.6l9.617,9.617-4.421,4.421-9.617-9.617a2.544,2.544,0,0,0-3.6,3.6l9.617,9.617L248.2,289.3l-9.617-9.616a2.544,2.544,0,0,0-3.6,3.6l9.714,9.714a23.711,23.711,0,0,0,33.339,33.339l9.715,9.715a2.544,2.544,0,0,0,3.6-3.6l-9.618-9.618,4.421-4.421,9.617,9.617a2.544,2.544,0,1,0,3.6-3.6l-9.617-9.617,4.421-4.421,9.617,9.617a2.544,2.544,0,1,0,3.6-3.6L297.77,306.8l4.421-4.421,9.616,9.617a2.544,2.544,0,0,0,3.6-3.6l-9.616-9.617,4.421-4.421,9.616,9.616a2.544,2.544,0,0,0,3.6-3.6Z" transform="translate(-158.119 -163.129)"/><path d="M327.656,313.8c2.85.148,6.395.33,9.691-2.966a2.544,2.544,0,1,0-3.6-3.6c-1.621,1.621-3.115,1.623-5.831,1.483-2.849-.147-6.395-.33-9.692,2.966s-3.113,6.842-2.966,9.692c.14,2.717.138,4.211-1.483,5.832s-3.115,1.623-5.831,1.483c-2.849-.147-6.4-.33-9.692,2.966s-3.114,6.843-2.967,9.692c.14,2.717.138,4.211-1.484,5.832s-3.113,1.624-5.832,1.484c-2.849-.147-6.4-.33-9.692,2.967a2.544,2.544,0,0,0,3.6,3.6c1.621-1.621,3.114-1.624,5.832-1.484,2.848.146,6.395.33,9.692-2.967s3.114-6.843,2.967-9.692c-.14-2.717-.138-4.211,1.483-5.832s3.114-1.623,5.832-1.483c2.849.147,6.4.33,9.691-2.966s3.114-6.843,2.967-9.692c-.14-2.717-.138-4.211,1.483-5.832S324.94,313.654,327.656,313.8Z" transform="translate(-186.731 -202.529)"/><path d="M122.051,377.872A12.826,12.826,0,1,0,134.877,390.7,12.841,12.841,0,0,0,122.051,377.872Zm0,20.565a7.738,7.738,0,1,1,7.738-7.738A7.747,7.747,0,0,1,122.051,398.437Z" transform="translate(-75.51 -249.701)"/><path d="M62.577,322a9.273,9.273,0,1,0,9.274,9.273A9.284,9.284,0,0,0,62.577,322Zm0,13.459a4.186,4.186,0,1,1,4.186-4.186A4.19,4.19,0,0,1,62.577,335.463Z" transform="translate(-38.557 -212.783)"/><path d="M391.014,76.368h-6.98a18.437,18.437,0,0,0-3.581-8.63l4.94-4.94a2.544,2.544,0,0,0-3.6-3.6l-4.94,4.939a18.435,18.435,0,0,0-8.63-3.581V53.58a2.544,2.544,0,1,0-5.088,0v6.98a18.434,18.434,0,0,0-8.63,3.581l-4.94-4.94a2.544,2.544,0,0,0-3.6,3.6l4.94,4.94a18.436,18.436,0,0,0-3.581,8.63h-6.98a2.544,2.544,0,1,0,0,5.088h6.98a18.436,18.436,0,0,0,3.581,8.63l-4.94,4.94a2.544,2.544,0,0,0,3.6,3.6l4.94-4.94a18.435,18.435,0,0,0,8.63,3.581v6.98a2.544,2.544,0,1,0,5.088,0v-6.98a18.434,18.434,0,0,0,8.63-3.581l4.94,4.94a2.544,2.544,0,0,0,3.6-3.6l-4.94-4.94a18.436,18.436,0,0,0,3.581-8.63h6.98a2.544,2.544,0,1,0,0-5.088ZM365.681,92.356a13.444,13.444,0,1,1,13.444-13.444A13.459,13.459,0,0,1,365.681,92.356Z" transform="translate(-226.559 -33.725)"/></g></g></svg>