<svg xmlns="http://www.w3.org/2000/svg" width="594.667" height="397.345" viewBox="0 0 594.667 397.345"><g transform="translate(-41.681 10.479)"><g transform="translate(41.681 -10.479)"><path d="M190.854,299.56a47.848,47.848,0,0,1,6.94,4.885c1.459,1.378,2.659,3,4.05,4.45,3.361,3.5,7.723,5.838,12.007,8.122,3.566,1.9,7.483,3.865,11.468,3.164a9.335,9.335,0,0,0,7.332-7.053,4.246,4.246,0,0,0-.039-2.314,5.332,5.332,0,0,0-2.3-2.4c-5.87-3.887-12.383-6.707-18.41-10.349-8.186-4.947-15.384-11.355-22.251-18.005a26.614,26.614,0,0,0-6.646-5.233c-2.553-1.232-5.745-1.535-8.149-.035a3.394,3.394,0,0,0-1.513,1.73,4.2,4.2,0,0,0,.038,2.145C175.285,287.713,183.427,294.707,190.854,299.56Z" transform="translate(-48.318 -1.866)" fill="#fff"/><path d="M181.852,365.479c-1.13-8.835-3.4-17.6-3.016-26.5.3-6.935,2.2-13.7,2.925-20.608.813-7.775.063-15.554.014-23.342-.047-7.378,2.136-15.027.609-22.15-2.741-1.163-6.041.379-7.782,2.789s-2.272,5.464-2.644,8.411c-1.49,11.767-1.229,23.678-.879,35.534q1.175,39.794,3.662,79.535h6.871A140.676,140.676,0,0,0,181.852,365.479Z" transform="translate(-48.197 -1.8)" fill="#fff"/><path d="M62.135,347.346c.247-14.265.436-28.9-4.4-42.325-3.476-9.645-9.543-18.737-9.659-28.989-.034-3.065.526-16.441-4.779-11.917-3.274,2.793-.608,19.917-.268,23.914,1.355,15.931,4.882,31.695,4.526,47.751-.151,6.872-1.02,13.766-.254,20.6.914,8.142,4.13,15.956,4.438,24.143.232,6.161-1.186,12.158-2.755,18.156H61.246Z" transform="translate(-41.681 -1.332)" fill="#fff"/><path d="M198.907,208.845l-.2,12.642,10.243-.471-.729-11.8Z" transform="translate(-49.604 1.411)" fill="#ff9985"/><path d="M190.106,198.615a1.982,1.982,0,0,1,2.784.148l6.909,7.27a1.919,1.919,0,1,1-2.786,2.633L190.1,201.4A1.969,1.969,0,0,1,190.106,198.615Z" transform="translate(-49.141 1.952)" fill="#ff9985"/><path d="M213.655,199.009a8.515,8.515,0,0,0-2.413-3.845,4.98,4.98,0,0,0-2.738-.812,23.124,23.124,0,0,0-7.213.652c-2.181.548-4.622,1.788-5.389,4.793a11.4,11.4,0,0,0,1.379,8.364c2.619,4.509,3.593,6.1,7.44,8,4.815,2.389,8.816,1.086,9.233-6.3C214.17,206.056,214.927,202.362,213.655,199.009Z" transform="translate(-49.448 2.144)" fill="#ff9985"/><path d="M199.24,199.6l1.021-14.387a1.782,1.782,0,0,0-3.555-.252l-1.021,14.388a1.782,1.782,0,0,0,3.555.251Z" transform="translate(-49.452 2.699)" fill="#ff9985"/><path d="M204.416,198.449l1.021-14.388a1.782,1.782,0,0,0-3.555-.251L200.861,198.2a1.782,1.782,0,0,0,3.555.251Z" transform="translate(-49.713 2.757)" fill="#ff9985"/><path d="M209.9,200.953l1.021-14.388a1.782,1.782,0,0,0-3.555-.251L206.344,200.7a1.782,1.782,0,0,0,3.555.251Z" transform="translate(-49.99 2.631)" fill="#ff9985"/><path d="M213.995,205.052l1.021-14.388a1.782,1.782,0,0,0-3.555-.251L210.44,204.8a1.782,1.782,0,0,0,3.555.251Z" transform="translate(-50.196 2.424)" fill="#ff9985"/><path d="M117.95,385.969l0-.58.311-.489.509-.795-2.555-2.636h-51.6l-1.459.048-1.787,2.163.2,1.328c.937,6.077,1.789,12.668,2.559,19.637h53.5C117.819,398.019,117.929,391.761,117.95,385.969Z" transform="translate(-42.675 -7.3)" fill="#6d72a0"/><path d="M215,269.258l-44.671-45.466L142.41,251.065l70.322,61.149a13.236,13.236,0,0,0,9.794,4.225,8.355,8.355,0,0,0,7.566-11.631Z" transform="translate(-46.764 0.656)" fill="#fff"/><path d="M228.664,310.358l3.2-.563a2.771,2.771,0,0,0,2.253-3.208l-15.849-89.508a8.007,8.007,0,0,0-3.716-6.573,4.944,4.944,0,0,0-4.754-.086l-12.881,5.994a9.207,9.207,0,0,0-5.2,9.915l10.956,63.39,2.969-.511,22.428,17.8Z" transform="translate(-49.245 1.36)" fill="#fff"/><path d="M134.764,206.407l-.467-.1q-.909-.185-1.813-.366-2.141-.427-4.331-.786c-12.821-2.1-26.753-2.482-39.816-2L91.42,395.638h60.088Z" transform="translate(-44.035 1.707)" fill="#a0dcf9"/><path d="M86.022,203.173c-5.049.188-8.807,1.863-13.41,2.572C50.85,211.671,39.887,242.079,42.983,264c0,0,5.022,50.411,10.378,93.143,1.094,8.725.75,23.09-.211,38.5H89.465Z" transform="translate(-41.721 1.697)" fill="#fff"/><path d="M177.328,269.794l2.22-34.639c-7.494-26.131-42.317-28.566-42.317-28.566L153.873,395.82h25.693C178.538,344.62,177.328,286.639,177.328,269.794Z" transform="translate(-46.502 1.524)" fill="#fff"/><path d="M146.727,300.906a.855.855,0,0,1-.842-.912l5.087-61.646a2.722,2.722,0,0,0-1.5-2.722l-3.39-1.668a2.276,2.276,0,0,1-.621-3.639l5.493-5.581a1.2,1.2,0,0,0,.029-1.661L136.4,207.16a.844.844,0,1,1,1.248-1.136l14.586,15.916a2.887,2.887,0,0,1-.069,3.98l-5.493,5.58a.592.592,0,0,0,.159.945l3.391,1.667a4.417,4.417,0,0,1,2.436,4.391l-5.087,61.63A.843.843,0,0,1,146.727,300.906Z" transform="translate(-46.449 1.567)" fill="#d7e1fc"/><path d="M182.733,377.711h-5.525a.843.843,0,1,1,0-1.685h5.525a.843.843,0,1,1,0,1.685Z" transform="translate(-48.477 -7.025)" fill="#d7e1fc"/><path d="M86.553,285.962h0Z" transform="translate(-43.945 -2.481)" fill="#6ebdff"/><path d="M89.159,287.558h-2.7a1.685,1.685,0,1,1,0-3.371h2.7a1.685,1.685,0,1,1,0,3.371Z" transform="translate(-43.855 -2.391)" fill="#0959a7"/><rect width="24.44" height="14.188" rx="1.5" transform="translate(101.11 253.791)" fill="#fff"/><path d="M160.988,256.038a1.686,1.686,0,0,1-1.69-1.684V251.1a1.69,1.69,0,0,1,3.38,0v3.256A1.687,1.687,0,0,1,160.988,256.038Z" transform="translate(-47.616 -0.636)" fill="#6d72a0"/><path d="M89.317,300.415a.845.845,0,0,1-.825-.665L75.286,238.483a4.414,4.414,0,0,1,1.934-4.632l3.186-2.025a.584.584,0,0,0,.273-.464.6.6,0,0,0-.217-.5l-6.074-4.943a2.894,2.894,0,0,1-.508-3.948l12.5-18.6a.845.845,0,0,1,1.406.938l-12.52,18.63a1.215,1.215,0,0,0,.192,1.677l6.073,4.944a2.277,2.277,0,0,1-.215,3.685l-3.186,2.027a2.719,2.719,0,0,0-1.195,2.853L90.142,299.4a.841.841,0,0,1-.647,1A.816.816,0,0,1,89.317,300.415Z" transform="translate(-43.278 1.706)" fill="#d7e1fc"/><path d="M63.985,277.02h0Z" transform="translate(-42.806 -2.029)" fill="#fff"/><path d="M82.728,278.615H63.894a1.685,1.685,0,1,1,0-3.371H82.728a1.685,1.685,0,1,1,0,3.371Z" transform="translate(-42.717 -1.94)" fill="#0959a7"/><path d="M100.439,138.94c-2.064,2.049-4.071,4.612-3.767,7.388a28.963,28.963,0,0,1,.63,3.368c-.017,1.891-1.415,3.508-2.572,5.073s-2.167,3.59-1.347,5.286c.783,1.62,2.924,2.243,3.88,3.772,1.416,2.265-.061,5.957,2.23,7.426.95.608,2.288.573,3.125,1.316,1.17,1.04.769,3.049,1.842,4.182a3.113,3.113,0,0,0,3.472.39,7.307,7.307,0,0,0,2.7-2.511c1.369-1.9,2.473-4.16,2.14-6.4-.391-2.635-2.617-4.568-4.03-6.836a10.42,10.42,0,0,1,.533-11.983c.926-1.11,2.1-2.007,3.081-3.077a5.393,5.393,0,0,0,1.682-3.8,9.6,9.6,0,0,0-1.442-3.47c-.566-1.129-.89-2.566-.107-3.61.368-.493.938-.828,1.289-1.332.967-1.39-.179-2.777-1.593-3.119-1.387-.336-2.166.265-3.268,1.015A59.685,59.685,0,0,0,100.439,138.94Z" transform="translate(-44.275 5.344)" fill="#000543"/><path d="M155.843,136.889c.287-2.581.2-5.377-1.823-6.559a20.746,20.746,0,0,1-2.656-1.238c-1.2-.972-1.156-2.834-1.263-4.493s-.624-3.438-2.353-3.686c-1.651-.237-3.717,1.044-5.444.983-2.559-.093-3.787-3.067-6.514-2.1-1.13.4-2.149,1.418-3.277,1.665-1.58.346-2.56-.972-4.124-.745a4.4,4.4,0,0,0-2.952,2.393,6.137,6.137,0,0,0-.489,3.293c.159,1.986.753,3.955,2.456,4.845,2,1.045,4.975.365,7.533.46,4.065.152,7.312,2.664,7.294,6.475-.006,1.254-.346,2.588-.418,3.861a3.407,3.407,0,0,0,1.139,3.185c.878.576,2.188.534,3.355.684s2.342.637,2.405,1.751c.031.525-.2,1.12-.145,1.638.141,1.426,1.926,1.274,3.246.393a4.452,4.452,0,0,0,1.89-2.954A53.125,53.125,0,0,0,155.843,136.889Z" transform="translate(-45.881 5.914)" fill="#000543"/><path d="M140.855,150.983l-20.535-4.838a1.565,1.565,0,0,1-1.194-1.929l2.89-10.42a3.4,3.4,0,0,1,4.054-2.3l18.952,4.465a7.447,7.447,0,0,1,5.679,9.174l-.086.311A8.187,8.187,0,0,1,140.855,150.983Z" transform="translate(-45.586 5.318)" fill="#ffa27f"/><path d="M101.385,164.164a19.792,19.792,0,0,0,2.16,7.9,14.7,14.7,0,0,0,6.971-8.818c-1.037-1.207-1.35-3.538-.656-6.007.922-3.277,3.265-5.547,5.235-5.069.149.036.251.168.382.244l-10.128-14.5C102.179,143.342,100.355,151.608,101.385,164.164Z" transform="translate(-44.679 4.989)" fill="#000543"/><path d="M108.3,154.532c-2.974.121-5.351,3.013-5.307,6.459s2.489,6.14,5.464,6.018,5.352-3.014,5.308-6.459S111.276,154.41,108.3,154.532Z" transform="translate(-44.775 4.151)" fill="#ff9985"/><path d="M144.738,135a19.262,19.262,0,0,1,5.894,16.366l-1.994,16.188c-1.364,11.059-9.694,18.714-20.892,17.773s-21.191-10.134-19.828-21.194l1.929-15.653Z" transform="translate(-45.017 5.137)" fill="#ff9985"/><path d="M103.457,209.545l14.819,1.657a4.117,4.117,0,0,0,4.278-3.735l5.911-42.829a3.869,3.869,0,0,0-3.132-4.564l-14.819-1.658a4.12,4.12,0,0,0-4.279,3.737l-4.33,43C101.592,207.432,101.42,209.317,103.457,209.545Z" transform="translate(-44.71 3.956)" fill="#ff9985"/><path d="M131.4,171.559c-.007,1.206.55,2.72,3.511,3.391,0,0,3.122.862,4.313-2.018Z" transform="translate(-46.208 3.292)" fill="#fff"/><path d="M133.855,149.622l-4.619-.367a1.269,1.269,0,0,0-1.365,1.079,1.155,1.155,0,0,0,1.087,1.272l4.619.367a1.269,1.269,0,0,0,1.365-1.079A1.155,1.155,0,0,0,133.855,149.622Z" transform="translate(-46.03 4.418)" fill="#000543"/><path d="M153.023,151.141l-4.619-.366a1.268,1.268,0,0,0-1.365,1.079,1.156,1.156,0,0,0,1.088,1.272l4.619.366a1.269,1.269,0,0,0,1.365-1.078A1.157,1.157,0,0,0,153.023,151.141Z" transform="translate(-46.997 4.341)" fill="#000543"/><path d="M149.2,156.5c-.137,1.154-.88,2.038-1.663,1.976s-1.306-1.047-1.17-2.2.88-2.038,1.663-1.976S149.339,155.35,149.2,156.5Z" transform="translate(-46.962 4.163)" fill="#000543"/><path d="M130.924,155.391c-.136,1.154-.88,2.039-1.663,1.976s-1.307-1.047-1.17-2.2.881-2.038,1.663-1.976S131.061,154.238,130.924,155.391Z" transform="translate(-46.04 4.219)" fill="#000543"/><path d="M142.133,163.147l-.129-.406a2.5,2.5,0,0,1-1.972,1.82l-2.477.451a1.834,1.834,0,0,1-1.936-.887l-.076.219a1.815,1.815,0,0,0,2.13,2.336l2.477-.452A2.445,2.445,0,0,0,142.133,163.147Z" transform="translate(-46.412 3.737)" fill="#fa694f"/><path d="M146.125,134.911s-8.463-6.205-22.406-4.206l4.553,4.742Z" transform="translate(-45.821 5.373)" fill="#ffa27f"/><path d="M150.8,142.091s-4.16-4.416-15.834-3.259-9.362,14.16-22.2,15.225l-5.979-1.756,4.739-21.737s24.975-14.684,39.328,5.362Z" transform="translate(-44.966 5.622)" fill="#000543"/><path d="M100.83,138.45s5.379-16.547,23.9-17.242a27.861,27.861,0,0,1,25.833,14.507Z" transform="translate(-44.666 5.834)" fill="#000543"/><path d="M98.42,209.172c-.528,4.9,5.072,9.524,12.509,10.321s13.893-2.532,14.422-7.436-5.072-9.525-12.509-10.322S98.949,204.267,98.42,209.172Z" transform="translate(-44.542 1.775)" fill="#ff9985"/><path d="M202.05,292.449a.843.843,0,0,1-.835-.721l-6.71-45.772a.838.838,0,0,1,.712-.954.821.821,0,0,1,.957.711l6.711,45.772a.84.84,0,0,1-.713.954A.789.789,0,0,1,202.05,292.449Z" transform="translate(-49.392 -0.413)" fill="#d7e1fc"/><path d="M222.553,233.566c.343,2.829.429,5.686.819,8.508.969,7.022,3.785,13.665,4.79,20.68.452,3.155.533,6.355.9,9.522,1.17,10.059,5.214,19.62,6.052,29.713.329,3.959.093,8.182-2.016,11.516s-6.571,5.346-10.024,3.546-4.477-6.279-4.9-10.22c-.862-8.1-.751-16.272-1.163-24.409-.791-15.636-3.513-31.114-7.024-46.352-1.038-4.5-2.151-9.039-2.207-13.665a8.877,8.877,0,0,1,.653-3.973c1.471-3.058,7.8-5.613,9.68-2.183C220.727,221,221.9,228.215,222.553,233.566Z" transform="translate(-50.062 1.12)" fill="#fff"/><path d="M176.634,198.228,195.3,200.5l31.552,20.829a3.427,3.427,0,0,0,1.352.531,1.87,1.87,0,0,0,2.134-1.63l4.779-39.02a2.374,2.374,0,0,0-3-2.617l-35.688,12.657-18.662-2.273a.757.757,0,0,0-.655-.692.768.768,0,0,0-.853.666l-1.095,8.942a.766.766,0,0,0,.668.851A.758.758,0,0,0,176.634,198.228Z" transform="translate(-48.416 2.943)" fill="#fff"/><path d="M182.549,197.042l12.1,1.327,31.8,20.448a3.368,3.368,0,0,0,2.1.516l2.735-23.282Z" transform="translate(-48.789 2.056)" fill="#ffff7d"/><path d="M130.537,131.755l25.335,4.043a2.731,2.731,0,0,1,2.212,3.216l-1.673,9.517a2.839,2.839,0,0,1-3.192,2.354l-5.2-.83a2.01,2.01,0,0,1-1.625-2.389,2.611,2.611,0,1,0-5.118-.994,2.312,2.312,0,0,1-2.6,1.892l-10.8-1.722a2.731,2.731,0,0,1-2.212-3.216l1.674-9.517A2.836,2.836,0,0,1,130.537,131.755Z" transform="translate(-45.917 5.302)" fill="#aaeef2"/><path d="M105.707,168.239c-.611,0-.729-.1-.894-.247a1.676,1.676,0,0,1-.508-1.754,1.694,1.694,0,0,1,1.393-1.189c.337-.046,22.105-3.1,22.105-3.1a1.685,1.685,0,1,1,.469,3.338C111.893,167.585,107.242,168.239,105.707,168.239Z" transform="translate(-44.837 3.778)" fill="#fff"/><path d="M125.644,187.32a1.7,1.7,0,0,1-.713-.157c-22.4-10.366-22.4-10.366-22.4-11.444a1.691,1.691,0,0,1,2.413-1.524c.3.143,21.416,9.91,21.416,9.91a1.686,1.686,0,0,1-.713,3.214Z" transform="translate(-44.751 3.167)" fill="#fff"/><path d="M135.538,189.811a11.892,11.892,0,0,1-10.547-13.048l.727-6.758a11.884,11.884,0,0,1,23.632,2.531l-.728,6.758A11.909,11.909,0,0,1,135.538,189.811Z" transform="translate(-45.881 3.904)" fill="#dceaff"/><path d="M140.935,190.384a10.867,10.867,0,0,1-9.637-11.922l.947-8.79a10.859,10.859,0,0,1,21.594,2.313l-.947,8.789A10.883,10.883,0,0,1,140.935,190.384Z" transform="translate(-46.2 3.875)" fill="#fff"/><path d="M143.323,188.2a7.726,7.726,0,1,1,7.7-6.9A7.724,7.724,0,0,1,143.323,188.2Zm-.013-12.087a4.357,4.357,0,0,0-.456,8.691,4.391,4.391,0,0,0,4.813-3.868,4.365,4.365,0,0,0-3.879-4.8C143.627,176.126,143.468,176.118,143.31,176.118Z" transform="translate(-46.419 3.232)" fill="#dceaff"/><path d="M129.9,181.1c-.357,3.318-2.466,5.813-4.709,5.573s-3.772-3.125-3.415-6.444,2.466-5.814,4.709-5.574S130.258,177.785,129.9,181.1Z" transform="translate(-45.72 3.136)" fill="#fff"/><rect width="3.714" height="12.086" transform="matrix(0.994, 0.107, -0.107, 0.994, 77.07, 177.4)" fill="#fff"/><path d="M126.012,180.687c-.358,3.319-2.466,5.813-4.709,5.574s-3.772-3.126-3.415-6.444,2.466-5.814,4.709-5.574S126.369,177.368,126.012,180.687Z" transform="translate(-45.524 3.157)" fill="#dceaff"/><path d="M158.7,242.563V219.53a.805.805,0,0,0,.65-.781.818.818,0,0,0-.817-.814H148.9a.818.818,0,0,0-.817.814.805.805,0,0,0,.65.781v23.033a24.42,24.42,0,1,0,9.967,0Z" transform="translate(-46.102 0.952)" fill="#dceaff"/><path d="M164.357,250.892H143.489a20.612,20.612,0,1,0,20.868,0Z" transform="translate(-46.305 -0.711)" fill="#000543"/><path d="M142.5,244.2l-7.007,10.537,8.88,5.114,5.769-10.326Z" transform="translate(-46.415 -0.373)" fill="#ff9985"/><path d="M143.412,261.611l-13.077-8.437a5.485,5.485,0,0,0-7.449,1.436l-24.8,35.029a2.963,2.963,0,0,1-5.216-.741l-18.68-54.1L42.305,252.662l36.278,80.425a11.845,11.845,0,0,0,10.5,7.937c.221.017.444.026.667.026a9.314,9.314,0,0,0,7.29-3.575l48.008-67.357A5.985,5.985,0,0,0,143.412,261.611Z" transform="translate(-41.713 0.101)" fill="#fff"/><path d="M90.174,342.2c-.251,0-.495-.007-.743-.029A12.655,12.655,0,0,1,78.22,333.7c-.149-.224-21.479-35.861-30.777-68.229a.844.844,0,0,1,1.624-.461c9.236,32.149,30.453,67.6,30.667,67.953a11.137,11.137,0,0,0,9.843,7.532c.2.016.4.023.6.023,4.3,0,4.905-.85,6.106-2.541l.505-.7,48-67.34a5.143,5.143,0,0,0-1.406-7.311l-13.074-8.44A4.63,4.63,0,0,0,124,255.4l-24.5,34.62A4.067,4.067,0,0,1,92.338,289L73.82,235.38a.844.844,0,0,1,1.6-.546l18.518,53.622a2.331,2.331,0,0,0,1.908,1.571,2.3,2.3,0,0,0,2.274-.978l24.5-34.616a6.318,6.318,0,0,1,8.6-1.659l13.074,8.44a6.827,6.827,0,0,1,1.869,9.7l-48.5,68.036C96.185,341.024,95.109,342.2,90.174,342.2Z" transform="translate(-41.97 0.128)" fill="#d7e1fc"/><path d="M148.054,225.259a1.972,1.972,0,0,1,1.274,2.473l-2.817,9.614a1.921,1.921,0,1,1-3.684-1.073l2.817-9.614A1.98,1.98,0,0,1,148.054,225.259Z" transform="translate(-46.78 0.586)" fill="#ff9985"/><path d="M159.1,245.854a8.517,8.517,0,0,0,2.115-4.016,4.948,4.948,0,0,0-.676-2.768,22.989,22.989,0,0,0-4.2-5.884c-1.572-1.6-3.878-3.081-6.867-2.226a11.444,11.444,0,0,0-6.55,5.4c-2.587,4.527-3.471,6.167-3.185,10.44.357,5.352,3.5,8.141,10.114,4.778C153.256,249.847,156.838,248.638,159.1,245.854Z" transform="translate(-46.626 0.307)" fill="#ff9985"/><path d="M151.3,233.668l12.977-6.37a1.777,1.777,0,1,0-1.573-3.188l-12.977,6.369a1.778,1.778,0,1,0,1.573,3.189Z" transform="translate(-47.083 0.649)" fill="#ff9985"/><path d="M154.906,237.547l12.977-6.37a1.778,1.778,0,1,0-1.573-3.189l-12.978,6.37a1.778,1.778,0,1,0,1.574,3.189Z" transform="translate(-47.265 0.454)" fill="#ff9985"/><path d="M155.5,243.531l12.977-6.369a1.778,1.778,0,1,0-1.573-3.19l-12.977,6.37a1.777,1.777,0,1,0,1.573,3.188Z" transform="translate(-47.295 0.152)" fill="#ff9985"/><path d="M154.012,249.125l12.977-6.37a1.778,1.778,0,1,0-1.573-3.189l-12.978,6.37a1.778,1.778,0,1,0,1.574,3.189Z" transform="translate(-47.22 -0.131)" fill="#ff9985"/><g transform="translate(160.24)"><path d="M208.643,70.259c-7.049,1.325-14.358,3.594-19.13,8.949-3.965,4.451-5.677,10.587-5.632,16.548s1.713,11.8,3.823,17.372a109.407,109.407,0,0,0,9.095,18.527c2.091,3.4,4.439,6.765,7.706,9.062,6.969,4.9,16.42,3.925,24.68,1.835a116.94,116.94,0,0,0,30.29-12.4c5.227-3.057,10.366-6.676,13.535-11.836,2.845-4.633,3.869-10.121,4.842-15.47,1.249-6.861,1.956-15.3-2.092-21.5-3.32-5.084-10.617-6.633-16.094-8.282A108.387,108.387,0,0,0,208.643,70.259Z" transform="translate(-183.88 -68.443)" fill="#fff"/><path d="M199.529,152.995a3.278,3.278,0,1,1-3.278-3.278A3.278,3.278,0,0,1,199.529,152.995Z" transform="translate(-184.339 -72.544)" fill="#fff"/><path d="M190.406,160.383a1.848,1.848,0,1,1-1.848-1.848A1.848,1.848,0,0,1,190.406,160.383Z" transform="translate(-184.023 -72.989)" fill="#fff"/></g><g transform="translate(171.448 10.279)"><path d="M207.656,109.509a3.372,3.372,0,0,0,1.437-.329l9,15.552a3.373,3.373,0,1,0,5.33,3.037H241.4a3.378,3.378,0,1,0,5.289-3.071l8.985-15.517a3.378,3.378,0,1,0,0-6.1l-8.991-15.53A3.376,3.376,0,1,0,241.4,84.5H223.429A3.378,3.378,0,1,0,218.1,87.52l-9.011,15.564a3.376,3.376,0,1,0-1.437,6.426Zm10.939-21.7a3.352,3.352,0,0,0,4.834-2.743H241.4a3.356,3.356,0,0,0,4.788,2.768l8.992,15.532a3.363,3.363,0,0,0,0,5.539l-8.985,15.517a3.355,3.355,0,0,0-4.8,2.782H223.431a3.351,3.351,0,0,0-4.844-2.757l-9-15.543a3.363,3.363,0,0,0,0-5.539Z" transform="translate(-204.269 -81.402)" fill="#9ad0f4"/></g></g><g transform="translate(445.015 107.612)"><path d="M498.431,183.691l1.091,13.608-11.071.2-.033-12.763Z" transform="translate(-467.557 -115.411)" fill="#ff9985"/><path d="M497.192,161.185A2.133,2.133,0,0,0,495,163.246l-.593,10.8a2.075,2.075,0,1,0,4.138.226l.592-10.8A2.131,2.131,0,0,0,497.192,161.185Z" transform="translate(-467.859 -114.275)" fill="#ff9985"/><path d="M477.855,177.784a9.182,9.182,0,0,1-.708-4.847,5.351,5.351,0,0,1,1.685-2.575,24.887,24.887,0,0,1,6.4-4.489c2.179-1.068,5.058-1.749,7.794.192a12.331,12.331,0,0,1,4.726,7.845c1,5.537,1.313,7.522-.517,11.772-2.29,5.321-6.5,7.036-12.019,1.243C482.369,183.942,479.157,181.429,477.855,177.784Z" transform="translate(-466.982 -114.459)" fill="#ff9985"/><path d="M490.629,168.12l-10.922-11.133c-.74-.755-.989-1.713-.233-2.451l.263-.263a1.934,1.934,0,0,1,2.72.03l10.922,11.133a1.921,1.921,0,0,1-2.751,2.683Z" transform="translate(-467.082 -113.899)" fill="#ff9985"/><path d="M485.569,170.778l-10.923-11.133a1.922,1.922,0,0,1,2.752-2.683l10.922,11.133a1.921,1.921,0,1,1-2.751,2.683Z" transform="translate(-466.834 -114.033)" fill="#ff9985"/><path d="M482.81,176.66l-10.923-11.133a1.921,1.921,0,0,1,2.751-2.683l10.923,11.133a1.921,1.921,0,0,1-2.751,2.683Z" transform="translate(-466.695 -114.33)" fill="#ff9985"/><path d="M482.31,182.888l-10.923-11.133a1.921,1.921,0,0,1,2.751-2.683L485.06,180.2a1.921,1.921,0,0,1-2.751,2.683Z" transform="translate(-466.67 -114.644)" fill="#ff9985"/><path d="M486.478,146.553h-1.136L466.774,183.62a3.043,3.043,0,0,0,2.729,4.4h32.814a3.043,3.043,0,0,0,2.729-4.4Z" transform="translate(-466.448 -113.537)" fill="#fff"/><rect width="7.035" height="30.249" transform="translate(15.944 17.892)" fill="#fff"/><path d="M.349,0H7.605a.349.349,0,0,1,.349.349V.8a.348.348,0,0,1-.348.348H.349A.349.349,0,0,1,0,.8V.349A.349.349,0,0,1,.349,0Z" transform="translate(15.485 17.404)" fill="#fff"/><path d="M499.178,177.72h-26.2l-2.926,5.841a2.548,2.548,0,0,0,2.286,3.686h27.481a2.548,2.548,0,0,0,2.286-3.686Z" transform="translate(-466.616 -115.109)" fill="#f9e47a"/><path d="M662.006,367.645c-.79-5.772-2.752-11.333-3.621-17.095-2.05-13.59.734-27.94.976-41.618.07-3.921.025-8.1-4.687-4.61-3.895,2.885-3.607,9.706-3.308,13.925q2.926,41.22,5.85,82.439h3.545C660.733,389.645,663.5,378.586,662.006,367.645Z" transform="translate(-475.771 -121.432)" fill="#fff"/><path d="M513.279,280.332a37.985,37.985,0,0,0-5.674,2.43,46.086,46.086,0,0,1-4.186,2.793c-2.124,1-4.573.965-6.923.907l25.889-18.285c1.7-1.2,21.566-15.691,23.421-14.115C544.229,259.891,518.462,278.214,513.279,280.332Z" transform="translate(-467.964 -118.955)" fill="#fff"/><path d="M486.2,272.748l20.323-27.075-1.149-1.494L549.872,211.6a9.744,9.744,0,0,1,7.4-1.989,3.46,3.46,0,0,1,2.526,1.412L572.649,228.9,502.6,282.5a11.531,11.531,0,0,1-12.1,2.107,10.454,10.454,0,0,1-1.609-.873c-3.171-2.107-4.706-5.809-4.57-11.036Z" transform="translate(-467.349 -116.713)" fill="#fff"/><path d="M620.754,342.64l2.284-142.534a192.149,192.149,0,0,0-37.413,1.875q-2.057.338-4.069.74l-1.7.342-.439.091L567.071,342.64Z" transform="translate(-471.525 -116.23)" fill="#a0dcf9"/><path d="M650.426,341.1a101.31,101.31,0,0,1,.458-18.346l8.135-70.029c8.178-29.281-8.1-49.642-25.4-51.909-2.746-.223-5.6-.4-8.489-.546-1.238-.063-2.5-.11-3.752-.157l-32.189,103.4L577.749,203.164s-36.615,4-43.655,28.557l9,46,2.148,117.768H654.013Z" transform="translate(-469.862 -116.239)" fill="#fff"/><path d="M544.455,277.535a.577.577,0,0,0-1.154.02l2.169,121.817h1.154Z" transform="translate(-470.326 -120.117)" fill="#d7e1fc"/><path d="M588.208,289.473a.577.577,0,0,1-.554-.415l-16.466-56.549a3.927,3.927,0,0,1,1.428-4.234l2.85-2.111a.773.773,0,0,0-.016-1.253l-6.022-4.232a2.5,2.5,0,0,1-.683-3.374l9.339-14.19a.576.576,0,0,1,.964.631l-9.331,14.179a1.346,1.346,0,0,0,.375,1.812l6.023,4.233a1.921,1.921,0,0,1,.04,3.116l-2.85,2.112a2.772,2.772,0,0,0-1.008,2.989l16.465,56.548a.574.574,0,0,1-.393.713A.557.557,0,0,1,588.208,289.473Z" transform="translate(-471.591 -116.378)" fill="#d7e1fc"/><rect width="22.964" height="13.332" rx="1.5" transform="translate(98.133 143.177) rotate(180)" fill="#d7e1fc"/><path d="M557.663,244.5v0Z" transform="translate(-471.051 -118.479)" fill="#fff"/><path d="M557.632,248.1a.576.576,0,0,1-.577-.575V244.47a.577.577,0,0,1,1.154,0v3.058A.576.576,0,0,1,557.632,248.1Z" transform="translate(-471.02 -118.448)" fill="#0959a7"/><path d="M598.27,287.329a.575.575,0,0,1-.51-.842l27.523-52.1a2.771,2.771,0,0,0-.385-3.131l-2.365-2.64a1.921,1.921,0,0,1,.666-3.045l6.752-2.939a1.352,1.352,0,0,0,.728-1.712l-6.6-20.044a.577.577,0,0,1,1.1-.359l6.594,20.022a2.5,2.5,0,0,1-1.355,3.147l-6.753,2.939a.773.773,0,0,0-.268,1.225l2.365,2.64a3.922,3.922,0,0,1,.547,4.432l-27.523,52.1A.576.576,0,0,1,598.27,287.329Z" transform="translate(-473.071 -116.24)" fill="#d7e1fc"/><path d="M506,195.432l2.473,52.953-19.327,25.451a2.833,2.833,0,0,1-3.137,1,2.926,2.926,0,0,1-.742-.353,2.817,2.817,0,0,1-1.255-2.258L481.3,200.145a6.811,6.811,0,0,1,6.157-7.029l14.256-1.386A3.91,3.91,0,0,1,506,195.432Z" transform="translate(-467.197 -115.815)" fill="#fff"/><path d="M629.143,133.3c-.6-.536-1.356-.864-1.906-1.45-1.228-1.307-.964-3.279-1.313-4.993s-2.528-3.527-3.577-2.278c.318-2.589.456-5.684-1.568-7.555-3.8-3.519-10.085,1.468-14.213-1.637-1.232-.928-2.01-2.447-3.353-3.181-1.855-1.011-4.078-.084-5.293,1.44a13.071,13.071,0,0,0-1.8,3.536,3.212,3.212,0,0,1-.416.274c-1.263.631-2,.456-3.551.284-2.946-.326-5.326,2.211-6.556,5.36-.517,1.325-2.892-.2-3.52,1.063-1.428,2.881-4.927,4.558-5.254,7.856-.178,1.788.664,3.706.259,5.435-.43,1.835-2.2,3.129-2.213,5.054-.02,3.058,3.062,5.523,3.559,8.464.234,1.383,1.675,2.543,1.774,3.058a6.822,6.822,0,0,0,1.542,3.069,73.24,73.24,0,0,0,3.817,10.79,20.44,20.44,0,0,0,4.482,6.709c.016.016,2.6,2.209,2.6,2.187a27.268,27.268,0,0,1-.6-5.41,16.69,16.69,0,0,1-2.115-5.745c-2.923.192-5.392-2.375-5.614-5.716-.214-3.227,1.754-5.97,4.431-6.315l3.85.553c11.846-2.812,7.335-14.958,18.076-17.7,6.981-1.779,11.394-.86,13.639,0a19.366,19.366,0,0,1,3.11,8.831c.09-.128,1.381-1.457,1.145-2.619l.147.1C630.567,140.978,631.593,135.5,629.143,133.3Z" transform="translate(-471.919 -111.782)" fill="#000543"/><path d="M611.163,137.712c-10.74,2.738-6.23,14.885-18.076,17.7l-3.85-.553c-2.677.346-4.644,3.089-4.431,6.315.221,3.341,2.691,5.908,5.518,5.734a19.162,19.162,0,0,0,2.211,5.727c3.891,6.633,12.082,10.714,20.1,10.218,10.674-.66,17.108-9.162,16.393-19.958l-1.047-15.8c-.012-.185-.051-.362-.068-.545a19.366,19.366,0,0,0-3.11-8.831C622.557,136.852,618.144,135.932,611.163,137.712Z" transform="translate(-472.42 -113.039)" fill="#ff9985"/><path d="M614.693,203.535l-3.788-42.628a3.51,3.51,0,0,0-3.755-3.2l-13.8,1.142a3.468,3.468,0,0,0-3.142,3.769l3.784,42.6C610.865,214.858,614.861,205.451,614.693,203.535Z" transform="translate(-472.693 -114.099)" fill="#ff9985"/><path d="M611.785,147.179l-4.4.293A1.158,1.158,0,0,0,606.3,148.7a1.171,1.171,0,0,0,1.251,1.068l4.4-.292a1.158,1.158,0,0,0,1.086-1.225A1.171,1.171,0,0,0,611.785,147.179Z" transform="translate(-473.505 -113.568)" fill="#000543"/><path d="M630.019,145.7l-4.4.293a1.157,1.157,0,0,0-1.086,1.224,1.171,1.171,0,0,0,1.251,1.069l4.4-.292a1.159,1.159,0,0,0,1.087-1.225A1.171,1.171,0,0,0,630.019,145.7Z" transform="translate(-474.425 -113.494)" fill="#000543"/><path d="M627.588,152.236c.081,1.125-.458,2.078-1.2,2.127s-1.414-.822-1.494-1.947.459-2.078,1.2-2.127S627.508,151.112,627.588,152.236Z" transform="translate(-474.443 -113.725)" fill="#000543"/><path d="M610.243,153.72c.08,1.124-.459,2.077-1.2,2.127s-1.414-.822-1.494-1.948.459-2.078,1.2-2.127S610.164,152.6,610.243,153.72Z" transform="translate(-473.567 -113.8)" fill="#000543"/><path d="M622.155,159.558l-.195-.371a2.28,2.28,0,0,1-1.522,2.02l-2.242.779a1.791,1.791,0,0,1-1.976-.58l-.032.221a1.819,1.819,0,0,0,2.419,1.943l2.242-.78A2.293,2.293,0,0,0,622.155,159.558Z" transform="translate(-474.003 -114.174)" fill="#fa694f"/><path d="M611.981,168.573l6.868,1.294S614.782,172.834,611.981,168.573Z" transform="translate(-473.792 -114.648)" fill="#fff"/><path d="M614.555,197.928s-7.076,11.677-14.331,13.114l3.783,11.952s15.44-6.255,14.392-23.056Z" transform="translate(-473.198 -116.129)" fill="#fff"/><path d="M593.344,199.65s-.953,8.64,6.232,11.479l-5.73,10.529a26.861,26.861,0,0,1-6.371-19.772Z" transform="translate(-472.55 -116.216)" fill="#fff"/><path d="M597.093,224.246a2.567,2.567,0,0,1-.826-.9l-1.975-3.446c-1.37-2.391.048-6.168,2.248-5.987l4.482.371c2.2.181,2.984,4.141,1.244,6.275l-2.508,3.077a2.723,2.723,0,0,1-.66.578l2.509,74.008L591.54,308.891l-6.92-11.607Z" transform="translate(-472.411 -116.935)" fill="#000543"/><path d="M527.1,226.351c-2.683,1.645-5.726,5.4-8.132,7.425-2,1.683-3.907,2.407-5.679,4.324a2.23,2.23,0,0,1-2.536.038,1.954,1.954,0,0,1-.7-1.641q-1.434-17.644-2.868-35.289c-.184-2.269-1.341-5.313-3.566-4.8-1.758.4-2.117,2.706-2.093,4.5q.3,21.679,2.438,43.28c.189,1.907.6,4.131,2.325,4.974a5.045,5.045,0,0,0,3.794-.137c4.079-1.4,7.55-4.111,10.931-6.78q10.727-8.469,21.417-16.984c5-3.977,12.182-8.906,14.357-15.14-3.865-1.778-9.75,3.567-12.92,5.51C538.009,219.221,532.966,222.76,527.1,226.351Z" transform="translate(-468.218 -116.049)" fill="#fff"/><path d="M480.9,222.263c.2,2.054.636,4.082.776,6.141.291,4.275-.686,8.534-.8,12.818a64.279,64.279,0,0,0,.279,6.663q.42,5.458.838,10.915c.554,7.211.619,15.078,4,21.475,4.771-25.772,6.022-52.716,2.613-78.7-.165-1.261-.464-2.707-1.591-3.3-1.509-.8-4.779.077-5.427,1.534-.7,1.57.145,5.5.028,7.3C481.284,212.147,480.394,217.193,480.9,222.263Z" transform="translate(-467.17 -116.131)" fill="#fff"/><path d="M549.611,271.832l-9.95-12.531,8.171-4.172,8.48,9.22Z" transform="translate(-470.142 -119.015)" fill="#ff9985"/><path d="M562.355,257.8c4.6,4.061,13.9,12.627,38.567,27.559,3.8,2.3,9.046.006,10.663-4.641L626.208,238.7a13.3,13.3,0,0,1,1.485-2.773,3.546,3.546,0,0,1,5.242-.807l26.92,6.338c1.063.966-3.167,16.606-3.764,18.081-24.57,60.715-28.173,66.421-35.237,69.211-.559.221-1.136.414-1.75.618l-.749.251c-11.8,3.981-51.071-33.8-67.6-53.862-.786-.65-2.677-2.371-3.324-3.082-1.18-1.3,1.788-4.31,3.021-5.818l6.829-8.343A3.547,3.547,0,0,1,562.355,257.8Z" transform="translate(-470.521 -117.964)" fill="#fff"/><path d="M616.432,331.269c-15.633,0-53.615-37.99-67.076-54.322a40.764,40.764,0,0,1-3.267-3.021c-2.093-2.3.815-5.82,2.739-8.154l7.064-8.633a5.691,5.691,0,0,1,3.9-2.094,4.739,4.739,0,0,1,3.607,1.182l.673.593c4.628,4.1,14.253,12.623,37.652,26.783a4.837,4.837,0,0,0,4.225.33,6.651,6.651,0,0,0,3.963-4.082l17.21-42.259a1.689,1.689,0,0,1,3.13,1.27l-17.177,42.178a10.018,10.018,0,0,1-5.981,6.066,8.331,8.331,0,0,1-7.127-.619c-23.66-14.321-33.44-22.981-38.14-27.145l-.667-.593a1.459,1.459,0,0,0-1.1-.346,2.292,2.292,0,0,0-1.551.869l-7.07,8.644c-1.624,1.966-2.515,3.292-2.661,3.943.713.73,2.29,2.166,2.964,2.722,19.273,23.336,56.076,56.482,65.992,53.134l.752-.254c.592-.195,1.139-.379,1.671-.586,6.541-2.588,12.671-16.353,36.047-74.118a1.69,1.69,0,0,1,3.135,1.264c-24.57,60.709-30.07,72.877-37.939,75.988-.594.234-1.2.438-1.845.651l-.743.25A7.491,7.491,0,0,1,616.432,331.269Z" transform="translate(-470.43 -118.077)" fill="#d7e1fc"/><path d="M489.993,196.7h31.661a5.543,5.543,0,0,1,4.79,3.711l17.23,44.615c.81,2.1-1.145,4.656-3.542,4.666-29.88.127-33.079,1.228-34.439-2.3l-17.773-46.1C487.225,199.486,488.484,196.7,489.993,196.7Z" transform="translate(-467.522 -116.067)" fill="#000543"/><path d="M549.9,235.172a1.948,1.948,0,0,0-2,1.882l-.542,9.857a1.894,1.894,0,1,0,3.777.206l.541-9.857A1.947,1.947,0,0,0,549.9,235.172Z" transform="translate(-470.531 -118.008)" fill="#ff9985"/><path d="M532,250.575a8.382,8.382,0,0,1-.647-4.424,4.894,4.894,0,0,1,1.538-2.351,22.725,22.725,0,0,1,5.837-4.1c1.988-.976,4.618-1.6,7.114.175a11.248,11.248,0,0,1,4.314,7.16c.916,5.054,1.2,6.867-.472,10.746-2.091,4.857-5.931,6.423-10.97,1.135C536.117,256.2,533.185,253.9,532,250.575Z" transform="translate(-469.718 -118.189)" fill="#ff9985"/><path d="M543.664,241.755l-9.969-10.162a1.754,1.754,0,0,1,2.511-2.449l9.969,10.162a1.754,1.754,0,0,1-2.511,2.449Z" transform="translate(-469.816 -117.678)" fill="#ff9985"/><path d="M539.038,244.181l-9.969-10.162a1.754,1.754,0,0,1,2.511-2.449l9.969,10.162a1.754,1.754,0,1,1-2.51,2.449Z" transform="translate(-469.583 -117.8)" fill="#ff9985"/><path d="M536.519,249.55l-9.969-10.162a1.754,1.754,0,0,1,2.511-2.45l9.969,10.162a1.754,1.754,0,0,1-2.51,2.45Z" transform="translate(-469.456 -118.071)" fill="#ff9985"/><path d="M536.062,255.235l-9.968-10.162a1.754,1.754,0,0,1,2.511-2.45l9.969,10.162a1.754,1.754,0,1,1-2.512,2.45Z" transform="translate(-469.433 -118.358)" fill="#ff9985"/></g><g transform="translate(213.224 186.734)"><g transform="translate(77.272)"><path d="M306.315,195.109a2.6,2.6,0,0,0-2.6,2.589v1.85h1.833V197.7a.764.764,0,0,1,1.528,0v1.164h1.833V197.7A2.6,2.6,0,0,0,306.315,195.109Z" transform="translate(-303.718 -195.109)" fill="#fff"/><g transform="translate(3.361 3.024)"><path d="M310.618,198.294v1.845a.764.764,0,0,1-1.528,0v-1.164h-1.833v1.164a2.6,2.6,0,0,0,5.193,0v-1.845Z" transform="translate(-307.258 -198.294)" fill="#fff"/></g><g transform="translate(6.72)"><path d="M313.391,195.109a2.6,2.6,0,0,0-2.6,2.589v1.85h1.833V197.7a.763.763,0,0,1,1.527,0v1.164h1.833V197.7A2.6,2.6,0,0,0,313.391,195.109Z" transform="translate(-310.795 -195.109)" fill="#fff"/><g transform="translate(3.361 3.024)"><path d="M317.7,198.294v1.845a.764.764,0,0,1-1.528,0v-1.164h-1.833v1.164a2.6,2.6,0,0,0,5.193,0v-1.845Z" transform="translate(-314.335 -198.294)" fill="#fff"/></g></g><g transform="translate(13.441)"><path d="M320.468,195.109a2.6,2.6,0,0,0-2.6,2.589v1.85H319.7V197.7a.764.764,0,0,1,1.528,0v1.164h1.833V197.7A2.6,2.6,0,0,0,320.468,195.109Z" transform="translate(-317.873 -195.109)" fill="#fff"/><g transform="translate(3.361 3.024)"><path d="M324.772,198.294v1.845a.763.763,0,0,1-1.527,0v-1.164h-1.833v1.164a2.6,2.6,0,0,0,5.192,0v-1.845Z" transform="translate(-321.413 -198.294)" fill="#fff"/></g></g><g transform="translate(20.16)"><path d="M327.546,195.109a2.6,2.6,0,0,0-2.6,2.589v1.85h1.833V197.7a.764.764,0,0,1,1.528,0v1.164h1.833V197.7A2.6,2.6,0,0,0,327.546,195.109Z" transform="translate(-324.949 -195.109)" fill="#fff"/><g transform="translate(3.361 3.024)"><path d="M331.849,198.294v1.845a.764.764,0,0,1-1.528,0v-1.164h-1.833v1.164a2.6,2.6,0,0,0,5.193,0v-1.845Z" transform="translate(-328.489 -198.294)" fill="#fff"/></g></g><g transform="translate(26.88)"><path d="M334.622,195.109a2.6,2.6,0,0,0-2.6,2.589v1.85h1.833V197.7a.763.763,0,0,1,1.527,0v1.164h1.833V197.7A2.6,2.6,0,0,0,334.622,195.109Z" transform="translate(-332.026 -195.109)" fill="#fff"/><g transform="translate(3.361 3.024)"><path d="M338.926,198.294v1.845a.763.763,0,0,1-1.527,0v-1.164h-1.833v1.164a2.6,2.6,0,0,0,5.192,0v-1.845Z" transform="translate(-335.566 -198.294)" fill="#fff"/></g><g transform="translate(6.719)"><path d="M341.7,195.109a2.6,2.6,0,0,0-2.6,2.589v1.85h1.833V197.7a.764.764,0,0,1,1.528,0v1.164H344.3V197.7A2.6,2.6,0,0,0,341.7,195.109Z" transform="translate(-339.102 -195.109)" fill="#fff"/><g transform="translate(3.362 3.024)"><path d="M346,198.294v1.845a.763.763,0,0,1-1.527,0v-1.164h-1.833v1.164a2.6,2.6,0,0,0,5.193,0v-1.845Z" transform="translate(-342.643 -198.294)" fill="#fff"/></g></g><g transform="translate(13.44)"><path d="M348.776,195.109a2.6,2.6,0,0,0-2.6,2.589v1.85h1.833V197.7a.763.763,0,0,1,1.527,0v1.164h1.834V197.7A2.6,2.6,0,0,0,348.776,195.109Z" transform="translate(-346.18 -195.109)" fill="#fff"/><g transform="translate(3.361 3.024)"><path d="M353.08,198.294v1.845a.764.764,0,0,1-1.528,0v-1.164H349.72v1.164a2.6,2.6,0,0,0,5.193,0v-1.845Z" transform="translate(-349.72 -198.294)" fill="#fff"/></g></g><g transform="translate(20.16)"><path d="M355.853,195.109a2.6,2.6,0,0,0-2.6,2.589v1.85h1.833V197.7a.763.763,0,0,1,1.527,0v1.164h1.834V197.7A2.6,2.6,0,0,0,355.853,195.109Z" transform="translate(-353.257 -195.109)" fill="#fff"/><g transform="translate(3.361 3.024)"><path d="M360.156,198.294v1.845a.763.763,0,0,1-1.527,0v-1.164H356.8v1.164a2.6,2.6,0,0,0,5.192,0v-1.845Z" transform="translate(-356.797 -198.294)" fill="#fff"/></g></g></g><g transform="translate(53.762)"><path d="M362.934,195.109a2.6,2.6,0,0,0-2.6,2.589v1.85h1.833V197.7a.764.764,0,0,1,1.528,0v1.164h1.833V197.7A2.6,2.6,0,0,0,362.934,195.109Z" transform="translate(-360.337 -195.109)" fill="#fff"/><g transform="translate(3.361 3.024)"><path d="M367.237,198.294v1.845a.764.764,0,0,1-1.528,0v-1.164h-1.833v1.164a2.6,2.6,0,0,0,5.193,0v-1.845Z" transform="translate(-363.877 -198.294)" fill="#fff"/></g></g><g transform="translate(60.482)"><path d="M370.011,195.109a2.6,2.6,0,0,0-2.6,2.589v1.85h1.833V197.7a.764.764,0,0,1,1.528,0v1.164h1.833V197.7A2.6,2.6,0,0,0,370.011,195.109Z" transform="translate(-367.414 -195.109)" fill="#fff"/><g transform="translate(3.361 3.024)"><path d="M374.314,198.294v1.845a.764.764,0,0,1-1.528,0v-1.164h-1.833v1.164a2.6,2.6,0,0,0,5.193,0v-1.845Z" transform="translate(-370.954 -198.294)" fill="#fff"/></g></g><g transform="translate(67.203)"><path d="M377.088,195.109a2.6,2.6,0,0,0-2.6,2.589v1.85h1.833V197.7a.763.763,0,0,1,1.527,0v1.164h1.833V197.7A2.6,2.6,0,0,0,377.088,195.109Z" transform="translate(-374.492 -195.109)" fill="#fff"/><g transform="translate(3.361 3.024)"><path d="M381.391,198.294v1.845a.763.763,0,0,1-1.527,0v-1.164h-1.833v1.164a2.6,2.6,0,0,0,5.192,0v-1.845Z" transform="translate(-378.032 -198.294)" fill="#fff"/></g></g><g transform="translate(73.922)"><path d="M384.165,195.109a2.6,2.6,0,0,0-2.6,2.589v1.85H383.4V197.7a.764.764,0,0,1,1.528,0v1.164h1.833V197.7A2.6,2.6,0,0,0,384.165,195.109Z" transform="translate(-381.568 -195.109)" fill="#fff"/><g transform="translate(3.362 3.024)"><path d="M388.468,198.294v1.845a.764.764,0,0,1-1.528,0v-1.164h-1.832v1.164a2.6,2.6,0,0,0,5.192,0v-1.845Z" transform="translate(-385.109 -198.294)" fill="#fff"/></g></g><g transform="translate(80.642)"><path d="M391.241,195.109a2.6,2.6,0,0,0-2.6,2.589v1.85h1.833V197.7a.763.763,0,0,1,1.527,0v1.164h1.833V197.7A2.6,2.6,0,0,0,391.241,195.109Z" transform="translate(-388.645 -195.109)" fill="#fff"/><g transform="translate(3.361 3.024)"><path d="M395.544,198.294v1.845a.763.763,0,0,1-1.527,0v-1.164h-1.833v1.164a2.6,2.6,0,0,0,5.193,0v-1.845Z" transform="translate(-392.185 -198.294)" fill="#fff"/></g><g transform="translate(6.72)"><path d="M398.318,195.109a2.6,2.6,0,0,0-2.6,2.589v1.85h1.833V197.7a.763.763,0,0,1,1.527,0v1.164h1.833V197.7A2.6,2.6,0,0,0,398.318,195.109Z" transform="translate(-395.722 -195.109)" fill="#fff"/><g transform="translate(3.361 3.024)"><path d="M402.621,198.294v1.845a.763.763,0,0,1-1.527,0v-1.164h-1.833v1.164a2.6,2.6,0,0,0,5.192,0v-1.845Z" transform="translate(-399.262 -198.294)" fill="#fff"/></g></g><g transform="translate(13.44)"><path d="M407.953,198.863v-1.59a2.6,2.6,0,0,0-5.154.426v1.85h1.833V197.7a.764.764,0,0,1,1.528,0v1.164Z" transform="translate(-402.799 -195.109)" fill="#fff"/><g transform="translate(3.361 3.705)"><rect width="1.793" height="1.089" fill="#fff"/></g></g></g></g><rect width="1.793" height="124.369" transform="translate(77.362 3.699)" fill="#fff"/><path d="M228.247,400.542H296a5.969,5.969,0,0,0,0-11.938H228.247a5.969,5.969,0,0,0,0,11.938Z" transform="translate(-222.34 -204.873)" fill="#000543"/><g transform="translate(13.69 56.208)"><path d="M259.373,261.822h1.362l22.227,44.372a3.643,3.643,0,0,1-3.267,5.269H240.414a3.643,3.643,0,0,1-3.267-5.269Z" transform="translate(-236.757 -254.684)" fill="#fff"/><rect width="8.422" height="36.211" transform="translate(19.086 0.583)" fill="#fff"/><path d="M.45,0H9.071a.451.451,0,0,1,.451.451V.928a.449.449,0,0,1-.449.449H.451A.451.451,0,0,1,0,.926V.45A.45.45,0,0,1,.45,0Z" transform="translate(18.536)" fill="#fff"/><g transform="translate(3.787 25.759)"><path d="M252.78,281.432h14.706l11.953,23.8a3.05,3.05,0,0,1-2.737,4.413h-32.9a3.05,3.05,0,0,1-2.736-4.413Z" transform="translate(-240.745 -281.432)" fill="#a0dcf9"/></g></g><rect width="1.833" height="63.462" transform="translate(174.716 4.804)" fill="#fff"/><g transform="translate(102.093 64.749)"><path d="M364.755,286.13l5.975,10.632,28.42-15.9-5.975-10.632Z" transform="translate(-331.619 -263.649)" fill="#fff"/><path d="M393.716,270.923l5.788,10.3a1,1,0,0,0,1.747-.976l-5.788-10.3a1,1,0,0,0-1.747.976Z" transform="translate(-333.074 -263.609)" fill="#fff"/><ellipse cx="29.935" cy="29.863" rx="29.935" ry="29.863" fill="#fff"/></g><g transform="translate(107.194 92.704)"><path d="M386.691,292.739a25.809,25.809,0,1,1-51.3,0Z" transform="translate(-335.23 -292.739)" fill="#ffff7d"/></g><path d="M330.865,307.9h58.211a1.15,1.15,0,0,0,0-2.3H330.865a1.15,1.15,0,0,0,0,2.3Z" transform="translate(-227.759 -200.684)" fill="#443c60"/><path d="M362.723,306.5l-.522,87.936c-.007,1.169-.532,2.115-1.166,2.1s-1.147-.979-1.139-2.149l.522-87.889Z" transform="translate(-229.281 -200.73)" fill="#443c60"/><path d="M336.192,309.3l-21.577,75.814c-.271.951-.975,1.517-1.566,1.258a1.862,1.862,0,0,1-.608-2.212l21.577-75.814c.27-.951.975-1.518,1.566-1.258A1.862,1.862,0,0,1,336.192,309.3Z" transform="translate(-226.881 -200.756)" fill="#443c60"/><path d="M388.717,308.785l24.57,86.331c.309,1.082,1.045,1.758,1.635,1.5.617-.272.848-1.369.539-2.453L390.89,307.83c-.308-1.083-1.044-1.758-1.634-1.5C388.639,306.6,388.408,307.7,388.717,308.785Z" transform="translate(-230.728 -200.718)" fill="#443c60"/><path d="M395.912,270.429l4.919-2.771c.413-.233,1.026.063,1.363.658L406.2,275.4c.336.594.273,1.271-.14,1.5l-4.917,2.771Z" transform="translate(-231.098 -198.766)" fill="#000543"/><path d="M399.254,280.783l-1.56.88c-.413.233-1.026-.064-1.364-.659l-4.011-7.083c-.336-.594-.274-1.271.14-1.505l1.56-.878Z" transform="translate(-230.906 -198.966)" fill="#000543"/><g transform="translate(172.678 68.266)"><path d="M404.194,271.083a5.279,5.279,0,0,0,2.038-4.08h1.834a7.2,7.2,0,0,1-2.96,5.69C405.051,272.611,404.273,271.211,404.194,271.083Z" transform="translate(-404.194 -267.003)" fill="#fff"/></g><path d="M365.126,291.862l27.09-15.476.866,1.529-24.413,13.947Z" transform="translate(-229.545 -199.21)" fill="#d1e7f2"/><g transform="translate(48.315 115.386)"><path d="M332.7,390.408l-23.1-46.122V318.67a1.033,1.033,0,0,0,.834-1,1.048,1.048,0,0,0-1.046-1.043H297.04a1.048,1.048,0,0,0-1.046,1.043,1.033,1.033,0,0,0,.834,1v25.616l-23.1,46.122a4.689,4.689,0,0,0,4.206,6.784h50.564A4.689,4.689,0,0,0,332.7,390.408Zm-9.463,2.36h-40.05a3.714,3.714,0,0,1-3.331-5.372l14.911-29.768h16.89L326.568,387.4A3.714,3.714,0,0,1,323.236,392.768Z" transform="translate(-273.222 -316.627)" fill="#fff"/><path d="M312.268,359.806H295.378l-10.044,20.052,36.806-.346Z" transform="translate(-273.833 -318.806)" fill="#ffff7d"/><path d="M321.859,380.559l-36.806.347-4.866,9.716a3.714,3.714,0,0,0,3.331,5.372h40.05a3.714,3.714,0,0,0,3.332-5.372Z" transform="translate(-273.553 -319.853)" fill="#fcce72"/></g><path d="M314.188,373.852a1.665,1.665,0,1,1-1.665-1.66A1.663,1.663,0,0,1,314.188,373.852Z" transform="translate(-226.807 -204.044)" fill="#fcce72"/><path d="M323.289,389.167a1.665,1.665,0,1,1-1.665-1.66A1.662,1.662,0,0,1,323.289,389.167Z" transform="translate(-227.266 -204.817)" fill="#ffff7d"/><path d="M316.927,384.981a.833.833,0,1,1-.833-.83A.831.831,0,0,1,316.927,384.981Z" transform="translate(-227.029 -204.648)" fill="#ffff7d"/><path d="M301.44,385.459a1.31,1.31,0,1,1-1.31-1.308A1.309,1.309,0,0,1,301.44,385.459Z" transform="translate(-226.199 -204.648)" fill="#ffff7d"/><path d="M307.35,391.041a1.962,1.962,0,1,1-1.963-1.957A1.959,1.959,0,0,1,307.35,391.041Z" transform="translate(-226.432 -204.897)" fill="#ffff7d"/><path d="M315.345,392.781a.949.949,0,1,1-.949-.946A.946.946,0,0,1,315.345,392.781Z" transform="translate(-226.937 -205.036)" fill="#ffff7d"/><path d="M292.015,389.53a2.028,2.028,0,1,1-2.028-2.022A2.025,2.025,0,0,1,292.015,389.53Z" transform="translate(-225.651 -204.817)" fill="#ffff7d"/><path d="M300.695,374.147a3.248,3.248,0,1,1-3.248-3.239A3.244,3.244,0,0,1,300.695,374.147Z" transform="translate(-225.966 -203.98)" fill="#fcce72"/><path d="M306.417,366.041a.852.852,0,1,1-.852-.849A.851.851,0,0,1,306.417,366.041Z" transform="translate(-226.496 -203.691)" fill="#fcce72"/><path d="M299.59,363.142a.986.986,0,1,1-.986-.983A.984.984,0,0,1,299.59,363.142Z" transform="translate(-226.138 -203.538)" fill="#fcce72"/><g transform="translate(134.855 148.059)"><path d="M366.168,389.757h25.9a1.8,1.8,0,1,1,0,3.6h-25.9a1.8,1.8,0,1,1,0-3.6Z" transform="translate(-364.361 -352.99)" fill="#554e7a" opacity="0.46"/><g transform="translate(1.416)"><path d="M391.068,352.1A1.066,1.066,0,0,0,390,351.036H366.921a1.063,1.063,0,0,0-.076,2.123V386.9a2.71,2.71,0,0,0,2.714,2.706h17.812a2.71,2.71,0,0,0,2.714-2.706V353.158A1.063,1.063,0,0,0,391.068,352.1Z" transform="translate(-365.852 -351.036)" fill="#fff"/><path d="M368.677,372.3v14.131a2.279,2.279,0,0,0,2.284,2.277h14.991a2.28,2.28,0,0,0,2.285-2.277V372.3Z" transform="translate(-365.995 -352.109)" fill="#fcce72"/></g></g><g transform="translate(75.051 109.656)"><rect width="1.8" height="29.8" transform="translate(2.354 7.045)" fill="#d1e7f2"/><path d="M301.379,316.32v-4.969a.763.763,0,0,1,.762-.759h4.985a.763.763,0,0,1,.761.759v4.969Z" transform="translate(-301.379 -310.592)" fill="#000543"/><path d="M307.886,317.992v1.577a.762.762,0,0,1-.761.758h-4.985a.762.762,0,0,1-.762-.758v-1.577Z" transform="translate(-301.379 -310.965)" fill="#000543"/></g><g transform="translate(3.935 48.898)"><rect width="2.751" height="134.833" transform="translate(3.464)" fill="#554e7a"/><path d="M229.81,258.274h35.031a1.159,1.159,0,1,1,0,2.3H229.81Z" transform="translate(-226.652 -247.194)" fill="#554e7a"/><g transform="translate(0 7.305)"><path d="M226.484,259.09a4.806,4.806,0,1,0,4.806-4.791A4.8,4.8,0,0,0,226.484,259.09Z" transform="translate(-226.484 -254.299)" fill="#443c60"/><path d="M231.465,257.949a.679.679,0,0,0,.691-.671v-1.684a.682.682,0,0,0-1.364,0v1.684A.674.674,0,0,0,231.465,257.949Z" transform="translate(-226.701 -254.33)" fill="#554e7a"/><path d="M231.465,263.681a.678.678,0,0,0,.691-.671v-1.684a.682.682,0,0,0-1.364,0v1.684A.674.674,0,0,0,231.465,263.681Z" transform="translate(-226.701 -254.62)" fill="#554e7a"/><path d="M232.972,259.336a.678.678,0,0,0,.673.69h1.688a.68.68,0,0,0,0-1.361h-1.688A.674.674,0,0,0,232.972,259.336Z" transform="translate(-226.811 -254.519)" fill="#554e7a"/><path d="M226.943,259.336a.679.679,0,0,0,.673.69h1.689a.68.68,0,0,0,0-1.361h-1.689A.675.675,0,0,0,226.943,259.336Z" transform="translate(-226.507 -254.519)" fill="#554e7a"/></g></g><g transform="translate(175.015 95.376)"><path d="M433.44,303.036H431.92L407.09,352.6a4.069,4.069,0,0,0,3.65,5.886h43.88a4.069,4.069,0,0,0,3.649-5.886Z" transform="translate(-406.655 -295.931)" fill="#fff"/><rect width="9.408" height="40.451" transform="translate(21.321 0.652)" fill="#fff"/><path d="M.449,0h9.737a.451.451,0,0,1,.451.451v.637a.449.449,0,0,1-.449.449H.45A.45.45,0,0,1,0,1.087V.449A.449.449,0,0,1,.449,0Z" transform="translate(20.707)" fill="#fff"/><g transform="translate(4.229 46.681)"><path d="M450.423,344.715H415.387l-3.913,7.81a3.408,3.408,0,0,0,3.057,4.929h36.748a3.407,3.407,0,0,0,3.057-4.929Z" transform="translate(-411.109 -344.715)" fill="#a0dcf9"/></g><path d="M449.9,350.844a3.628,3.628,0,1,1-3.628-3.619A3.623,3.623,0,0,1,449.9,350.844Z" transform="translate(-408.471 -298.161)" fill="#1281ad"/></g><rect width="2.752" height="158.28" transform="translate(230.173 28.904)" fill="#554e7a"/><path d="M465.773,300.454H426.029a1.187,1.187,0,1,0,0,2.3h39.745Z" transform="translate(-232.543 -200.425)" fill="#554e7a"/><g transform="translate(226.777 96.256)"><path d="M470.778,301.271a4.805,4.805,0,1,1-4.806-4.791A4.8,4.8,0,0,1,470.778,301.271Z" transform="translate(-461.168 -296.48)" fill="#443c60"/><path d="M466.236,300.13a.679.679,0,0,1-.691-.671v-1.684a.682.682,0,0,1,1.364,0v1.684A.675.675,0,0,1,466.236,300.13Z" transform="translate(-461.389 -296.511)" fill="#554e7a"/><path d="M466.236,305.861a.678.678,0,0,1-.691-.671v-1.684a.682.682,0,0,1,1.364,0v1.684A.674.674,0,0,1,466.236,305.861Z" transform="translate(-461.389 -296.801)" fill="#554e7a"/><path d="M464.641,301.518a.678.678,0,0,1-.674.688h-1.687a.68.68,0,0,1,0-1.361h1.687A.675.675,0,0,1,464.641,301.518Z" transform="translate(-461.19 -296.7)" fill="#554e7a"/><path d="M470.669,301.518a.678.678,0,0,1-.673.688h-1.688a.68.68,0,0,1,0-1.361H470A.675.675,0,0,1,470.669,301.518Z" transform="translate(-461.494 -296.7)" fill="#554e7a"/></g><path d="M460.429,399.812H349.5a5.969,5.969,0,0,1,0-11.938H460.429a5.969,5.969,0,0,1,0,11.938Z" transform="translate(-228.459 -204.836)" fill="#000543"/><g transform="translate(148.724 154.688)"><path d="M398.547,399.118H384.913a5.955,5.955,0,0,1-5.946-5.93V371.448a5.955,5.955,0,0,1,5.946-5.929h13.634a5.955,5.955,0,0,1,5.946,5.929v21.741A5.955,5.955,0,0,1,398.547,399.118Z" transform="translate(-378.967 -358.396)" fill="#fff"/><path d="M399.834,365.141H384.479v-5.888a1.237,1.237,0,0,1,1.238-1.235H398.6a1.237,1.237,0,0,1,1.238,1.235Z" transform="translate(-379.245 -358.017)" fill="#a0dcf9"/><path d="M398.488,393.958H385.145a2.425,2.425,0,0,1-2.429-2.422V374.823a2.425,2.425,0,0,1,2.429-2.421h13.343a2.425,2.425,0,0,1,2.429,2.421v16.713A2.425,2.425,0,0,1,398.488,393.958Z" transform="translate(-379.156 -358.743)" fill="#000543"/><path d="M387.628,365.2v-5.22a.958.958,0,0,0-1.916,0v5.22Z" transform="translate(-379.307 -358.068)" fill="#fff"/><path d="M390.493,365.2v-5.22a.958.958,0,0,0-1.916,0v5.22Z" transform="translate(-379.452 -358.068)" fill="#fff"/><path d="M393.472,365.2v-5.22a.959.959,0,0,0-1.917,0v5.22Z" transform="translate(-379.602 -358.068)" fill="#fff"/><path d="M396.3,365.2v-5.22a.959.959,0,0,0-1.917,0v5.22Z" transform="translate(-379.745 -358.068)" fill="#fff"/><path d="M399.246,365.2v-5.22a.958.958,0,0,0-1.916,0v5.22Z" transform="translate(-379.894 -358.068)" fill="#fff"/><g transform="translate(6.178 17.629)"><rect width="9.551" height="0.783" fill="#fff"/><g transform="translate(11.155)"><rect width="1.81" height="0.783" fill="#fff"/></g><g transform="translate(0 2.2)"><rect width="6.344" height="0.783" fill="#fff"/></g><g transform="translate(9.765 2.2)"><rect width="3.2" height="0.783" fill="#fff"/></g><g transform="translate(0 4.401)"><rect width="1.886" height="0.783" fill="#fff"/></g><g transform="translate(3.475 4.401)"><rect width="9.491" height="0.783" fill="#fff"/></g><g transform="translate(0 6.601)"><rect width="9.768" height="0.783" fill="#fff"/></g></g></g></g></g></svg>