<svg xmlns="http://www.w3.org/2000/svg" width="316.875" height="314.293" viewBox="0 0 316.875 314.293"><g transform="translate(-93.066 -92.308)"><g transform="translate(294.179 92.308)"><path d="M517.147,172.272l.65,8.14-6.6.119-.02-7.634Z" transform="translate(-498.752 -131.432)" fill="#ff9985"/><g transform="translate(2.485 23.823)"><g transform="translate(13.332 4.233)"><path d="M519.473,147.242a1.274,1.274,0,0,0-1.3,1.233l-.353,6.459a1.237,1.237,0,1,0,2.466.135l.353-6.459A1.275,1.275,0,0,0,519.473,147.242Z" transform="translate(-517.814 -147.241)" fill="#ff9985"/></g><path d="M499.059,159.046a5.505,5.505,0,0,1-.421-2.9,3.194,3.194,0,0,1,1-1.541,14.833,14.833,0,0,1,3.81-2.685,4.34,4.34,0,0,1,4.644.115,7.38,7.38,0,0,1,2.816,4.692c.6,3.312.782,4.5-.307,7.041-1.365,3.183-3.872,4.208-7.161.743C501.748,162.731,499.835,161.227,499.059,159.046Z" transform="translate(-495.066 -144.994)" fill="#ff9985"/><g transform="translate(4.625)"><path d="M507.685,147.561l-6.508-6.659c-.441-.451-.589-1.025-.139-1.466l.157-.157a1.149,1.149,0,0,1,1.621.018l6.508,6.659a1.147,1.147,0,0,1-1.639,1.605Z" transform="translate(-500.765 -138.953)" fill="#ff9985"/></g><g transform="translate(1.844 1.51)"><path d="M502.154,150.517l-6.508-6.659a1.147,1.147,0,1,1,1.639-1.605l6.508,6.659a1.147,1.147,0,0,1-1.639,1.6Z" transform="translate(-495.32 -141.909)" fill="#ff9985"/></g><g transform="translate(0.283 4.85)"><path d="M499.1,157.057l-6.508-6.659a1.147,1.147,0,0,1,1.639-1.605l6.508,6.659a1.147,1.147,0,1,1-1.639,1.6Z" transform="translate(-492.264 -148.449)" fill="#ff9985"/></g><g transform="translate(0 8.388)"><path d="M498.543,163.984l-6.508-6.659a1.147,1.147,0,1,1,1.639-1.6l6.508,6.659a1.147,1.147,0,1,1-1.639,1.605Z" transform="translate(-491.71 -155.376)" fill="#ff9985"/></g></g><g transform="translate(0 10.41)"><path d="M498.778,130.973H498.1l-11.063,22.171a1.819,1.819,0,0,0,1.626,2.633h19.551a1.82,1.82,0,0,0,1.626-2.633Z" transform="translate(-486.844 -121.635)" fill="#fff"/><rect width="4.192" height="18.093" transform="translate(9.499 0.291)" fill="#fff"/><path d="M.344,0H4.4a.344.344,0,0,1,.344.344v0a.344.344,0,0,1-.344.344H.344A.344.344,0,0,1,0,.344v0A.344.344,0,0,1,.344,0Z" transform="translate(9.226)" fill="#fff"/><g transform="translate(1.884 27.039)"><path d="M508.05,165.632h-15.61l-1.743,3.493a1.524,1.524,0,0,0,1.362,2.2h16.373a1.524,1.524,0,0,0,1.362-2.2Z" transform="translate(-490.534 -165.632)" fill="#f9e47a"/></g></g><path d="M633.4,526.229c.263,2.42.611,4.833.779,7.262.437,6.334-.361,12.7-.014,19.04.5,9.252,3.423,18.191,4.681,27.369.523,3.813.59,8.172-2.051,10.949a1.329,1.329,0,0,1-1.116.54c-.549-.1-.774-.758-.889-1.309-.587-2.812-.952-5.666-1.315-8.516l-2.943-23.051c-.926-7.252-1.852-14.512-2.27-21.812-.585-10.234-.167-20.5.252-30.738a48.36,48.36,0,0,1,.664-7.263c.21-1.081.649-2.317,1.7-2.623,4.735-1.378,2.249,10.616,2.141,12.279A103.532,103.532,0,0,0,633.4,526.229Z" transform="translate(-555.896 -289.807)" fill="#6d72a0"/><path d="M694.84,513.569c-.109,5.08-.656,10.175-.123,15.228.314,2.977,1,5.9,1.379,8.871,1.23,9.649-.811,19.542.873,29.122.787,4.481,2.374,8.789,3.181,13.267a21,21,0,0,1-.9,11.562.65.65,0,0,1-1.261-.019c-3.308-9.439-5.148-19.342-6.757-29.223-2.881-17.7-5.076-35.621-3.835-53.528a22.474,22.474,0,0,1,1.576-7,4.753,4.753,0,0,1,1.1-1.734c2.691-2.473,4.137.552,4.356,2.8A90.062,90.062,0,0,1,694.84,513.569Z" transform="translate(-584.795 -291.383)" fill="#6d72a0"/><g transform="translate(99.828 289.624)"><path d="M692.774,659.389l.607,18.987-7.847.666L682.6,675l.532-.809-.822-13.921Z" transform="translate(-682.307 -659.389)" fill="#ff9985"/></g><g transform="translate(87.718 304.51)"><path d="M671.557,688.537l-10.443,3.555c-2.556.87-3.039,2.66-2.023,3.991l24.2-.564-.97-5.335a2,2,0,0,0-1.971-1.646Z" transform="translate(-658.595 -688.537)" fill="#fff"/><path d="M683.766,702.206l.268.9c.166.562-.511,1.088-1.413,1.1l-18.8.2a5.167,5.167,0,0,1-4.25-1.639Z" transform="translate(-659.071 -695.225)" fill="#000543"/><rect width="4.708" height="1.7" rx="0.458" transform="translate(17.56 4.713)" fill="#000543"/></g><g transform="translate(66.552 290.222)"><path d="M627.62,660.561l.607,18.987-7.847.666-2.937-4.038.532-.809-.822-13.921Z" transform="translate(-617.152 -660.561)" fill="#ff9985"/></g><g transform="translate(54.442 305.109)"><path d="M606.4,689.709l-10.443,3.555c-2.556.87-3.039,2.66-2.023,3.991l24.2-.564-.97-5.335a2,2,0,0,0-1.971-1.646Z" transform="translate(-593.441 -689.709)" fill="#fff"/><path d="M618.612,703.377l.267.9c.167.562-.511,1.088-1.412,1.1l-18.8.2a5.167,5.167,0,0,1-4.25-1.638Z" transform="translate(-593.916 -696.396)" fill="#000543"/><rect width="4.708" height="1.7" rx="0.458" transform="translate(17.561 4.713)" fill="#000543"/></g><g transform="translate(47.415 189.495)"><path d="M608.672,463.337l-.158,3.142c-2.851,56.769,2.971,88.489,6.311,104.018a4.572,4.572,0,0,1-4.468,5.538h-12.01a6.342,6.342,0,0,1-6.26-5.363c-4.073-25.954-7.268-50.412-8.6-62.87-1.818-16.967-2.851-30.03-3.8-44.466Z" transform="translate(-579.683 -463.337)" fill="#6d72a0"/><path d="M644.138,463.337h28.989l-.157,3.142c-2.767,55.1,2.752,86.393,6.066,104.16a4.559,4.559,0,0,1-4.487,5.4H661.368a4.565,4.565,0,0,1-4.506-3.846c-4.4-27.616-7.627-52.3-8.922-64.386C646.138,490.973,645.107,478.041,644.138,463.337Z" transform="translate(-611.219 -463.337)" fill="#6d72a0"/></g><path d="M695.785,333.395c.518,3.446,1.687,6.771,2.157,10.224.917,6.737-.864,13.549-.741,20.348s2.143,13.408,3.212,20.126,1.075,14.016-2.459,19.826Q694.779,359,691.6,314.073c-.179-2.523-.35-6.6,1.971-8.328,2.807-2.087,2.835.412,2.793,2.757C696.223,316.683,694.564,325.266,695.785,333.395Z" transform="translate(-586.981 -196.354)" fill="#fff"/><path d="M530.129,266.176a22.607,22.607,0,0,0-3.38,1.454,27.536,27.536,0,0,1-2.494,1.671,9.047,9.047,0,0,1-4.125.543l15.425-10.937c1.011-.717,12.849-9.386,13.955-8.443C548.569,253.95,533.217,264.909,530.129,266.176Z" transform="translate(-503.13 -169.654)" fill="#fff"/><path d="M507.756,238.8l12.109-16.194-.684-.893,26.511-19.487a5.79,5.79,0,0,1,4.408-1.19,2.062,2.062,0,0,1,1.505.845l7.658,10.69-41.737,32.062a6.852,6.852,0,0,1-7.213,1.26,6.231,6.231,0,0,1-.958-.522c-1.889-1.26-2.8-3.474-2.723-6.6Z" transform="translate(-496.524 -145.477)" fill="#fff"/><path d="M630.292,275.687l1.361-85.252a114,114,0,0,0-22.291,1.122q-1.226.2-2.425.442l-1.015.2-.262.054-7.353,83.429Z" transform="translate(-541.38 -140.267)" fill="#a0dcf9"/><path d="M561.777,209.441c4.2-14.686,26.01-17.081,26.01-17.081l6.814,60.024,19.179-61.847c.749.028,1.5.056,2.235.093,1.723.088,3.422.193,5.058.327,10.31,1.355,20.009,13.534,15.136,31.048l-4.847,41.885a60.812,60.812,0,0,0-.272,10.972l4.559,69.412c.228,2.658-.483,3.5-3.149,3.5l-56.887.1a6.566,6.566,0,0,1-6.573-6.451l-1.9-104.468Z" transform="translate(-523.507 -140.369)" fill="#fff"/><g transform="translate(43.479 93.816)"><path d="M573.942,384.154h.7a6.062,6.062,0,0,1-.078-.827l-1.9-106.99a.344.344,0,1,0-.687.012l1.9,106.99A6.8,6.8,0,0,0,573.942,384.154Z" transform="translate(-571.976 -275.999)" fill="#d7e1fc"/></g><g transform="translate(57.658 51.724)"><path d="M611.563,245.39a.344.344,0,0,1-.33-.248l-9.81-33.823a2.353,2.353,0,0,1,.851-2.532l1.7-1.263a.463.463,0,0,0-.009-.749l-3.588-2.532a1.5,1.5,0,0,1-.407-2.018l5.564-8.487a.344.344,0,1,1,.575.378l-5.56,8.481a.808.808,0,0,0,.223,1.084l3.589,2.531a1.151,1.151,0,0,1,.023,1.864l-1.7,1.263a1.663,1.663,0,0,0-.6,1.788l9.811,33.823a.342.342,0,0,1-.33.44Z" transform="translate(-599.739 -193.584)" fill="#d7e1fc"/></g><g transform="translate(44.787 77.663)"><rect width="13.683" height="7.974" rx="1.5" transform="translate(13.683 7.974) rotate(180)" fill="#d7e1fc"/></g><g transform="translate(51.261 75.032)"><path d="M587.885,239.894v0Z" transform="translate(-587.541 -239.55)" fill="#fff"/><path d="M587.556,241.738a.344.344,0,0,1-.344-.344v-1.829a.344.344,0,1,1,.688,0v1.829A.344.344,0,0,1,587.556,241.738Z" transform="translate(-587.212 -239.22)" fill="#0959a7"/></g><g transform="translate(74.252 50.173)"><path d="M632.573,242.7a.34.34,0,0,1-.16-.04.344.344,0,0,1-.144-.465l16.4-31.16a1.66,1.66,0,0,0-.229-1.872l-1.41-1.579a1.151,1.151,0,0,1,.4-1.821l4.023-1.758a.809.809,0,0,0,.434-1.024L647.949,191a.344.344,0,1,1,.653-.215l3.928,11.975a1.494,1.494,0,0,1-.807,1.882L647.7,206.4a.464.464,0,0,0-.16.733l1.41,1.579a2.352,2.352,0,0,1,.325,2.651l-16.4,31.16A.344.344,0,0,1,632.573,242.7Z" transform="translate(-632.229 -190.546)" fill="#d7e1fc"/></g><path d="M518.008,183.416l1.474,31.673-11.516,15.223a1.683,1.683,0,0,1-1.869.6,1.744,1.744,0,0,1-.443-.211,1.688,1.688,0,0,1-.748-1.351l-1.616-43.112a4.068,4.068,0,0,1,3.668-4.2l8.494-.829A2.332,2.332,0,0,1,518.008,183.416Z" transform="translate(-494.889 -135.796)" fill="#fff"/><g transform="translate(61.337)"><path d="M607.8,105.177c.355-.321.808-.517,1.136-.867.731-.782.574-1.962.782-2.986s1.506-2.109,2.131-1.362c-.189-1.549-.271-3.4.934-4.519,2.267-2.105,6.009.878,8.468-.979.735-.555,1.2-1.464,2-1.9a2.571,2.571,0,0,1,3.153.861,7.822,7.822,0,0,1,1.075,2.114,1.91,1.91,0,0,0,.248.164,3.135,3.135,0,0,0,2.116.17c1.756-.2,3.174,1.323,3.906,3.206.308.792,1.724-.122,2.1.636.85,1.724,2.935,2.726,3.13,4.7.106,1.07-.4,2.217-.154,3.251.256,1.1,1.312,1.871,1.319,3.023.011,1.829-1.825,3.3-2.121,5.062-.139.828-1,1.521-1.057,1.83a4.084,4.084,0,0,1-.919,1.835,43.894,43.894,0,0,1-2.274,6.454,12.228,12.228,0,0,1-2.67,4.013c-.01.01-1.551,1.321-1.548,1.308a16.332,16.332,0,0,0,.36-3.236,10.022,10.022,0,0,0,1.26-3.436,3.679,3.679,0,0,0,.7-7.2l-2.294.33c-7.057-1.682-4.37-8.947-10.77-10.585-4.159-1.064-6.789-.514-8.126,0a11.614,11.614,0,0,0-1.853,5.282l-.068.015c.015-.092-.754-.887-.613-1.582l-.088.062C606.953,109.77,606.342,106.494,607.8,105.177Z" transform="translate(-606.942 -92.308)" fill="#000543"/><path d="M619.957,120.619c6.4,1.638,3.712,8.9,10.77,10.585l2.294-.33a3.689,3.689,0,0,1-.647,7.207,11.506,11.506,0,0,1-1.318,3.425,13.179,13.179,0,0,1-11.976,6.112c-6.359-.395-10.193-5.48-9.767-11.937l.624-9.451c.007-.111.031-.216.041-.326a11.615,11.615,0,0,1,1.853-5.282C613.168,120.105,615.8,119.555,619.957,120.619Z" transform="translate(-608.086 -105.862)" fill="#ff9985"/><g transform="translate(9.927 26.078)"><path d="M626.381,170.784l2.256-25.5a2.1,2.1,0,0,1,2.238-1.912l8.22.683a2.072,2.072,0,0,1,1.872,2.254l-2.255,25.479C628.662,177.556,626.281,171.93,626.381,170.784Z" transform="translate(-626.378 -143.368)" fill="#ff9985"/></g><g transform="translate(11.4 20.102)"><path d="M630.009,131.668l2.621.176a.691.691,0,0,1,.648.732.7.7,0,0,1-.745.639l-2.621-.175a.691.691,0,0,1-.648-.732A.7.7,0,0,1,630.009,131.668Z" transform="translate(-629.263 -131.667)" fill="#000543"/></g><g transform="translate(1.084 19.264)"><path d="M609.81,130.027l2.621.175a.691.691,0,0,1,.648.732.7.7,0,0,1-.745.639l-2.62-.175a.688.688,0,1,1,.1-1.372Z" transform="translate(-609.064 -130.026)" fill="#000543"/></g><g transform="translate(3.285 21.869)"><path d="M613.378,136.292c-.048.673.273,1.243.717,1.272s.842-.492.89-1.164-.273-1.243-.717-1.272S613.425,135.62,613.378,136.292Z" transform="translate(-613.373 -135.127)" fill="#000543"/></g><g transform="translate(13.098 22.711)"><path d="M632.591,137.942c-.048.673.273,1.242.717,1.272s.842-.491.89-1.164-.273-1.242-.717-1.272S632.639,137.269,632.591,137.942Z" transform="translate(-632.587 -136.777)" fill="#000543"/></g><path d="M619.059,145.245l.116-.223a1.363,1.363,0,0,0,.907,1.208l1.336.466a1.065,1.065,0,0,0,1.177-.348l.019.132a1.085,1.085,0,0,1-1.441,1.162l-1.336-.466A1.373,1.373,0,0,1,619.059,145.245Z" transform="translate(-612.794 -118.099)" fill="#fa694f"/><path d="M626.91,155.46l-4.092.774A2.78,2.78,0,0,0,626.91,155.46Z" transform="translate(-614.71 -123.206)" fill="#fff"/></g><path d="M643.571,188.1s-4.216,6.985-8.539,7.844l2.254,7.149s9.2-3.742,8.575-13.791Z" transform="translate(-559.348 -139.178)" fill="#fff"/><path d="M624.355,190.019s-.567,5.168,3.713,6.866l-3.414,6.3a16.1,16.1,0,0,1-3.8-11.826Z" transform="translate(-552.384 -140.115)" fill="#fff"/><path d="M625.179,212.058a1.525,1.525,0,0,1-.493-.536l-1.177-2.061c-.816-1.43.029-3.69,1.34-3.581l2.671.222c1.311.108,1.778,2.477.741,3.753l-1.494,1.84a1.614,1.614,0,0,1-.393.346l1.494,44.265-6,6.379-4.123-6.942Z" transform="translate(-550.891 -147.874)" fill="#000543"/><path d="M540.942,204.292c-1.6.983-3.411,3.229-4.845,4.442-1.19,1.006-2.328,1.439-3.384,2.586a1.324,1.324,0,0,1-1.511.022,1.171,1.171,0,0,1-.418-.981l-1.708-21.107c-.11-1.357-.8-3.178-2.125-2.874-1.048.24-1.262,1.619-1.247,2.695q.18,12.966,1.453,25.887c.112,1.14.357,2.471,1.386,2.974a3,3,0,0,0,2.26-.082,22.827,22.827,0,0,0,6.513-4.055q6.391-5.065,12.76-10.159c2.981-2.378,7.258-5.326,8.554-9.056-2.3-1.063-5.808,2.134-7.7,3.3C547.439,200.027,544.435,202.144,540.942,204.292Z" transform="translate(-505.857 -138.318)" fill="#fff"/><path d="M502.773,202.678c.122,1.228.379,2.441.462,3.672.173,2.557-.409,5.1-.479,7.667a38.627,38.627,0,0,0,.166,3.986l.5,6.528c.33,4.313.369,9.018,2.385,12.845a152.6,152.6,0,0,0,1.557-47.074,2.452,2.452,0,0,0-.948-1.976c-.9-.478-2.847.046-3.233.917-.416.939.086,3.288.016,4.365C503,196.628,502.473,199.645,502.773,202.678Z" transform="translate(-494.594 -139.198)" fill="#fff"/><g transform="translate(61.549 16.754)"><path d="M626.1,127.314l-16-2.186a1.723,1.723,0,0,0-1.94,1.475l-.8,5.838a1.724,1.724,0,0,0,1.474,1.941l3.282.448a1.268,1.268,0,0,0,1.429-1.1,1.684,1.684,0,0,1,1.491-1.5,1.646,1.646,0,0,1,1.775,1.841,1.4,1.4,0,0,0,1.2,1.567l6.818.932a1.723,1.723,0,0,0,1.939-1.475l.8-5.838A1.724,1.724,0,0,0,626.1,127.314Z" transform="translate(-607.356 -125.112)" fill="#aaeef2"/></g><path d="M644.8,137.508l-.477,3.615s6.612-1.493,6.619-1.491Z" transform="translate(-563.895 -114.423)" fill="#aaeef2"/><path d="M573.873,261.7l-5.928-7.5,4.868-2.5,5.053,5.515Z" transform="translate(-526.524 -170.3)" fill="#ff9985"/><g transform="translate(45.662 69.581)"><path d="M585.3,242.605c2.744,2.429,8.281,7.552,22.979,16.483,2.265,1.376,5.39,0,6.354-2.777l8.712-25.128a7.946,7.946,0,0,1,.885-1.658,2.108,2.108,0,0,1,3.124-.483l16.039,3.791c.633.578-1.886,9.932-2.242,10.815-14.639,36.315-16.786,39.728-21,41.4-.333.132-.677.248-1.042.37l-.447.15c-7.032,2.381-30.429-20.219-40.277-32.216-.468-.389-1.6-1.418-1.981-1.844-.7-.776,1.065-2.578,1.8-3.479l4.069-4.99A2.108,2.108,0,0,1,585.3,242.605Z" transform="translate(-576.249 -228.548)" fill="#fff"/></g><g transform="translate(45.055 71.258)"><path d="M616.971,287.687c-9.036,0-31.9-22.932-39.627-32.349a26.037,26.037,0,0,1-1.96-1.82c-1.011-1.117.587-3.063,1.645-4.351L581.24,244a2.978,2.978,0,0,1,2.04-1.105,2.463,2.463,0,0,1,1.851.606l.4.355c2.766,2.459,8.521,7.574,22.492,16.063a3.27,3.27,0,0,0,2.863.231,4.384,4.384,0,0,0,2.607-2.689l10.247-25.257a.6.6,0,1,1,1.117.455l-10.235,25.228a5.586,5.586,0,0,1-3.327,3.4,4.526,4.526,0,0,1-3.9-.335c-14.064-8.547-19.874-13.71-22.666-16.193l-.4-.354a1.274,1.274,0,0,0-.955-.308,1.765,1.765,0,0,0-1.2.667l-4.214,5.167c-1.713,2.086-1.748,2.634-1.682,2.774.356.392,1.457,1.4,1.916,1.781,10.048,12.223,33.237,34.047,39.708,31.854l.448-.15c.355-.12.69-.23,1.011-.359,4.046-1.6,7.725-9.875,21.707-44.555a.6.6,0,1,1,1.12.453c-14.585,36.177-17.839,43.424-22.381,45.225-.343.135-.7.256-1.075.381l-.444.149A4.1,4.1,0,0,1,616.971,287.687Z" transform="translate(-575.062 -231.831)" fill="#d7e1fc"/></g><g transform="translate(12.037 48.228)"><path d="M511.764,186.737h18.864a3.3,3.3,0,0,1,2.854,2.219l10.266,26.686a2.218,2.218,0,0,1-2.11,2.791c-17.8.077-19.708.735-20.519-1.376l-10.589-27.574C510.115,188.4,510.865,186.737,511.764,186.737Z" transform="translate(-510.412 -186.737)" fill="#000543"/></g><g transform="translate(33.462 66.356)"><g transform="translate(12.312 3.72)"><path d="M577.984,229.518a1.162,1.162,0,0,0-1.19,1.126l-.323,5.9a1.128,1.128,0,1,0,2.25.124l.323-5.9A1.162,1.162,0,0,0,577.984,229.518Z" transform="translate(-576.469 -229.517)" fill="#ff9985"/></g><path d="M559.07,240.573a5.027,5.027,0,0,1-.385-2.646,2.917,2.917,0,0,1,.916-1.406,13.564,13.564,0,0,1,3.478-2.451,3.962,3.962,0,0,1,4.239.1,6.737,6.737,0,0,1,2.57,4.283c.546,3.022.714,4.107-.281,6.427-1.246,2.905-3.534,3.841-6.537.678C561.525,243.935,559.778,242.563,559.07,240.573Z" transform="translate(-555.426 -227.747)" fill="#ff9985"/><g transform="translate(4.3)"><path d="M567.019,230.089l-5.94-6.078a1.047,1.047,0,0,1,1.5-1.465l5.94,6.078a1.047,1.047,0,1,1-1.5,1.465Z" transform="translate(-560.783 -222.233)" fill="#ff9985"/></g><g transform="translate(1.683 1.378)"><path d="M561.894,232.788l-5.939-6.078a1.047,1.047,0,1,1,1.5-1.465l5.94,6.078a1.047,1.047,0,1,1-1.5,1.465Z" transform="translate(-555.658 -224.931)" fill="#ff9985"/></g><g transform="translate(0.258 4.427)"><path d="M559.1,238.757l-5.939-6.078a1.047,1.047,0,0,1,1.5-1.465l5.94,6.078a1.047,1.047,0,1,1-1.5,1.465Z" transform="translate(-552.868 -230.901)" fill="#ff9985"/></g><g transform="translate(0 7.656)"><path d="M558.6,245.079,552.659,239a1.047,1.047,0,0,1,1.5-1.465l5.94,6.078a1.047,1.047,0,0,1-1.5,1.465Z" transform="translate(-552.363 -237.222)" fill="#ff9985"/></g></g></g><g transform="translate(93.066 94.311)"><g transform="translate(75.667 5.714)"><g transform="translate(15.627 6.453)"><g transform="translate(0 0.026)"><path d="M283.8,121.065l-11.5.08a.481.481,0,1,1-.007-.963l11.5-.079a.481.481,0,1,1,.007.962Z" transform="translate(-271.82 -120.103)" fill="#fff"/></g><g transform="translate(13.582)"><path d="M300.5,121.016l-1.6.011a.481.481,0,1,1-.007-.963l1.6-.011a.481.481,0,1,1,.007.963Z" transform="translate(-298.413 -120.053)" fill="#fff"/></g><g transform="translate(0 2.117)"><path d="M277.089,125.162l-4.783.033a.481.481,0,1,1-.007-.962l4.783-.033a.481.481,0,1,1,.007.963Z" transform="translate(-271.82 -124.199)" fill="#fff"/></g><g transform="translate(6.89 2.045)"><path d="M294.089,125.021l-8.294.057a.481.481,0,1,1-.007-.963l8.294-.057a.481.481,0,1,1,.007.963Z" transform="translate(-285.31 -124.058)" fill="#fff"/></g><g transform="translate(0.033 4.154)"><path d="M281.586,129.149l-9.216.064a.481.481,0,1,1-.007-.963l9.215-.063a.481.481,0,1,1,.007.962Z" transform="translate(-271.885 -128.187)" fill="#fff"/></g></g><g transform="translate(39.651 3.443)"><g transform="translate(0.121)"><g transform="translate(0.023)"><path d="M324.672,114.9l-5.25-.029a.365.365,0,0,1,.007-.713l5.25.029a.365.365,0,0,1-.006.713Z" transform="translate(-319.139 -114.16)" fill="#fff"/></g><g transform="translate(6.612 0.037)"><path d="M334.131,114.955l-1.808-.01a.365.365,0,0,1,.006-.712l1.808.01a.365.365,0,0,1-.006.713Z" transform="translate(-332.04 -114.232)" fill="#fff"/></g><g transform="translate(3.158 1.318)"><path d="M325.561,117.454l5.25.029a.365.365,0,0,0,.006-.713l-5.25-.029a.365.365,0,0,0-.006.713Z" transform="translate(-325.278 -116.741)" fill="#fff"/></g><g transform="translate(0 2.624)"><path d="M319.526,120.01l7.983.044a.364.364,0,1,0,.006-.713l-7.983-.044a.364.364,0,1,0-.006.713Z" transform="translate(-319.094 -119.297)" fill="#fff"/></g><g transform="translate(0.012 1.301)"><path d="M319.4,117.42l1.808.01a.365.365,0,0,0,.006-.712l-1.808-.01a.365.365,0,0,0-.006.713Z" transform="translate(-319.117 -116.707)" fill="#fff"/></g></g><g transform="translate(0 9.081)"><g transform="translate(3.158 0.017)"><path d="M325.325,132.687l5.25.029a.365.365,0,0,0,.007-.713l-5.25-.029a.365.365,0,0,0-.006.713Z" transform="translate(-325.042 -131.974)" fill="#fff"/></g><g transform="translate(0 1.323)"><path d="M319.29,135.242l7.983.044a.363.363,0,1,0,.007-.712l-7.983-.044a.363.363,0,1,0-.007.712Z" transform="translate(-318.858 -134.53)" fill="#fff"/></g><g transform="translate(0.012)"><path d="M319.164,132.653l1.809.01a.365.365,0,0,0,.006-.712l-1.808-.01a.365.365,0,0,0-.007.713Z" transform="translate(-318.881 -131.94)" fill="#fff"/></g></g><g transform="translate(0.11 3.858)"><path d="M324.606,122.455l-5.25-.029a.365.365,0,0,1,.006-.713l5.25.029a.365.365,0,0,1-.007.713Z" transform="translate(-319.073 -121.713)" fill="#fff"/></g></g><path d="M290.747,125.789H243.065a1.846,1.846,0,0,1-1.843-1.845v-14.68a1.846,1.846,0,0,1,1.843-1.845h47.681a1.846,1.846,0,0,1,1.843,1.845v14.68A1.846,1.846,0,0,1,290.747,125.789Zm-47.681-18.13a1.606,1.606,0,0,0-1.6,1.6v14.68a1.605,1.605,0,0,0,1.6,1.6h47.681a1.605,1.605,0,0,0,1.6-1.6v-14.68a1.606,1.606,0,0,0-1.6-1.6Z" transform="translate(-241.222 -107.419)" fill="#fff"/><g transform="translate(2.364 3.43)"><path d="M251.5,125.445a5.656,5.656,0,1,1,5.65-5.655A5.659,5.659,0,0,1,251.5,125.445Zm0-11.071a5.415,5.415,0,1,0,5.409,5.415A5.418,5.418,0,0,0,251.5,114.375Z" transform="translate(-245.851 -114.134)" fill="#fff"/></g><g transform="translate(5.289 5.936)"><path d="M251.578,121.649a8.9,8.9,0,0,1,.771.513q.367.273.712.565c.461.388.9.8,1.312,1.228l-.921.08c.255-.451.513-.9.793-1.335s.565-.867.872-1.287.625-.83.966-1.228a11.685,11.685,0,0,1,1.1-1.144,11.574,11.574,0,0,1-.518,1.5c-.2.485-.42.956-.656,1.419s-.486.916-.751,1.361-.543.881-.83,1.313a.555.555,0,0,1-.921.079c-.371-.468-.725-.951-1.052-1.459q-.246-.38-.47-.779A8.9,8.9,0,0,1,251.578,121.649Z" transform="translate(-251.578 -119.042)" fill="#fff"/></g></g><g transform="translate(186.529 152.77)"><rect width="2.952" height="155.977" fill="#452a51"/></g><rect width="186.843" height="8.323" transform="translate(10.285 150.514)" fill="#452a51"/><g transform="translate(14.893 150.929)"><rect width="3.606" height="158.089" fill="#b2c3eb"/></g><g transform="translate(24.542 68.635)"><path d="M401.814,298.277a6.748,6.748,0,0,0,1.375-13.352v-5.038h7.025v-1.154h-7.025v-.189a.22.22,0,0,0,.18-.214.224.224,0,0,0-.223-.228h-2.665a.223.223,0,0,0-.043.442v.189h-.192a.577.577,0,0,0,0,1.154h.192v5.038a6.748,6.748,0,0,0,1.375,13.352Z" transform="translate(-265.372 -253.851)" fill="#aaeef2"/><path d="M351.572,276.1h-25.26V260.444a.966.966,0,0,0-.966-.966h-.527V231.7a1.3,1.3,0,0,0-2.576.214v1.144a.382.382,0,1,1-.764,0v-1.144a1.3,1.3,0,1,0-2.595,0v1.144a.382.382,0,1,1-.764,0v-1.144a1.3,1.3,0,1,0-2.6,0v1.144a.382.382,0,1,1-.764,0v-1.144a1.3,1.3,0,1,0-2.6,0v1.144a.382.382,0,1,1-.764,0v-1.144a1.3,1.3,0,1,0-2.6,0v1.144a.382.382,0,1,1-.764,0v-1.144a1.3,1.3,0,1,0-2.6,0v1.144a.382.382,0,1,1-.763,0v-1.144a1.3,1.3,0,1,0-2.6,0v1.144a.382.382,0,1,1-.764,0v-1.144a1.3,1.3,0,1,0-2.6,0v1.144a.382.382,0,1,1-.763,0v-1.144a1.3,1.3,0,1,0-2.6,0v1.144a.382.382,0,1,1-.764,0v-1.144a1.3,1.3,0,1,0-2.6,0v1.144a.382.382,0,1,1-.763,0v-1.144a1.3,1.3,0,1,0-2.6,0v1.144a.382.382,0,1,1-.763,0v-1.144a1.3,1.3,0,1,0-2.6,0v1.144a.382.382,0,1,1-.764,0v-1.144a1.3,1.3,0,1,0-2.6,0v1.144a.382.382,0,1,1-.764,0v-1.144a1.3,1.3,0,1,0-2.6,0v1.144a.382.382,0,1,1-.763,0v-1.144a1.3,1.3,0,1,0-2.6,0v32.745a3.613,3.613,0,0,0,1.48,2.855l-.758,1.344c-.169.3-.137.638.069.755l2.459,1.391,2.618-4.639-2.459-1.391c-.207-.117-.513.032-.682.33l-.97,1.719c.086-.153.162-.289.178-.316a2.653,2.653,0,0,1-1.019-2.048V231.917a.382.382,0,1,1,.764,0v1.144a1.3,1.3,0,1,0,2.6,0v-1.144a.382.382,0,1,1,.763,0v1.144a1.3,1.3,0,1,0,2.6,0v-1.144a.382.382,0,1,1,.764,0v1.144a1.3,1.3,0,1,0,2.6,0v-1.144a.382.382,0,1,1,.764,0v1.144a1.3,1.3,0,1,0,2.6,0v-1.144a.382.382,0,1,1,.763,0v1.144a1.3,1.3,0,1,0,2.6,0v-1.144a.382.382,0,1,1,.764,0v1.144a1.3,1.3,0,1,0,2.6,0v-1.144a.382.382,0,1,1,.764,0v1.144a1.3,1.3,0,1,0,2.6,0v-1.144a.382.382,0,1,1,.764,0v1.144a1.3,1.3,0,1,0,2.6,0v-1.144a.382.382,0,1,1,.764,0v1.144a1.3,1.3,0,1,0,2.6,0v-1.144a.382.382,0,1,1,.764,0v1.144a1.3,1.3,0,1,0,2.6,0v-1.144a.382.382,0,1,1,.764,0v1.144a1.3,1.3,0,1,0,2.6,0v-1.144a.382.382,0,1,1,.763,0v1.144a1.3,1.3,0,1,0,2.6,0v-1.144a.381.381,0,1,1,.763,0v1.144a1.3,1.3,0,1,0,2.6,0v-1.144a.382.382,0,1,1,.764,0v1.144a1.3,1.3,0,1,0,2.6,0v-1.144a.382.382,0,1,1,.764,0v27.561H323.4a.966.966,0,0,0-.966.966V276.1h-.6a.577.577,0,0,0,0,1.155h.6v.719a5.457,5.457,0,0,0,.942,2.721,2.715,2.715,0,0,1,.518,1.607v.428a.5.5,0,0,0,.355.487.489.489,0,0,0,.62-.47v-.463a2.707,2.707,0,0,1,.511-1.6,5.46,5.46,0,0,0,.936-2.713v-.719h25.26Z" transform="translate(-206.73 -230.618)" fill="#aaeef2"/><path d="M359.631,335.427V353.59a1.456,1.456,0,0,0,1.455,1.457h7.94l-.748,1.5a1.826,1.826,0,0,0,.505,2.253h21.889a1.826,1.826,0,0,0,.505-2.253l-9.345-18.728V325.6h.061a.215.215,0,0,0,.214-.214v-.263a.215.215,0,0,0-.214-.214h-4.331a.215.215,0,0,0-.214.214v.263a.215.215,0,0,0,.214.214h.061V337.82L372.093,348.9V335.426a.572.572,0,0,0-.046-1.142H359.671a.572.572,0,0,0-.04,1.143Z" transform="translate(-247.77 -276.751)" fill="#aaeef2"/><path d="M174.852,315.357v12.853L163.3,351.353a2.332,2.332,0,0,0,.1,2.274h29.286a2.332,2.332,0,0,0,.1-2.274l-11.548-23.143V315.357a.517.517,0,0,0,.417-.5.524.524,0,0,0-.523-.523h-6.169a.525.525,0,0,0-.523.523A.517.517,0,0,0,174.852,315.357Z" transform="translate(-151.851 -271.577)" fill="#aaeef2"/><path d="M142.833,264.238v56.521h1.375V264.238a2.4,2.4,0,0,0,1.641-1.726h7.306v3.1a8.788,8.788,0,1,0,3.587,0v-3.1h1.306a.577.577,0,0,0,0-1.154h-1.306v-4.071a.291.291,0,0,0,.234-.282.3.3,0,0,0-.294-.294h-3.467a.3.3,0,0,0-.294.294.291.291,0,0,0,.234.282v4.071H145.85a2.4,2.4,0,0,0-1.641-1.726V247.155h-1.375v12.477a2.4,2.4,0,0,0,0,4.606Z" transform="translate(-141.119 -238.709)" fill="#aaeef2"/><path d="M168.265,261.438a1.246,1.246,0,0,0,2.078-.93v-1.1a.367.367,0,1,1,.734,0v1.1a1.247,1.247,0,1,0,2.494,0v-1.1a.367.367,0,1,1,.734,0v1.1a1.247,1.247,0,1,0,2.494,0v-1.1a.367.367,0,1,1,.733,0v1.1a1.247,1.247,0,1,0,2.494,0v-1.1a.367.367,0,1,1,.733,0v1.1a1.247,1.247,0,1,0,2.494,0v-1.1a.367.367,0,1,1,.734,0v1.1a1.247,1.247,0,1,0,2.495,0v-1.1a.367.367,0,1,1,.733,0v1.1a1.247,1.247,0,1,0,2.494,0v-1.1a.367.367,0,1,1,.734,0v1.1a1.247,1.247,0,1,0,2.494,0v-1.1a.367.367,0,1,1,.734,0v1.1a1.247,1.247,0,1,0,2.494,0v-1.1a.367.367,0,1,1,.733,0v1.1a1.247,1.247,0,1,0,2.494,0v-1.1a.367.367,0,1,1,.733,0v1.1a1.247,1.247,0,1,0,2.494,0v-1.1a.367.367,0,1,1,.734,0v1.1a1.247,1.247,0,1,0,2.494,0v-1.1a.367.367,0,1,1,.733,0v1.1a1.247,1.247,0,1,0,2.494,0v-1.1a.367.367,0,1,1,.734,0v1.1a1.247,1.247,0,1,0,2.494,0v-1.1a.367.367,0,1,1,.733,0v1.1a1.247,1.247,0,1,0,2.495,0v-1.1a.367.367,0,1,1,.733,0v32.363h-.8a.374.374,0,0,0-.372.373v2.441h-.476a.279.279,0,0,0-.278.278V295a.279.279,0,0,0,.277.278v12.343l-3.911,7.837h-.093v-39.8a2.4,2.4,0,0,0,0-4.526v-7.449h-1.375v7.379a2.4,2.4,0,0,0-1.759,1.756h-9.212v-3.336h.061a.215.215,0,0,0,.214-.214v-.263a.214.214,0,0,0-.214-.214H194a.215.215,0,0,0-.214.214v.263a.215.215,0,0,0,.214.214h.061v3.336H191.88a.577.577,0,0,0,0,1.154h2.184v1.937l-9.345,18.728a1.827,1.827,0,0,0,1.633,2.643h19.633a1.827,1.827,0,0,0,1.633-2.643l-9.345-18.728v-1.937h9.212a2.4,2.4,0,0,0,1.759,1.756v39.728H197.617a2.954,2.954,0,0,0-2.953,2.956v.079a2.954,2.954,0,0,0,2.953,2.956h10.108l-2.341,4.692h22.732l-2.046-4.1,1.108-.591h4.3a2.954,2.954,0,0,0,2.953-2.956v-.079a2.954,2.954,0,0,0-2.953-2.956h-4.606l5.154-14.591a14.933,14.933,0,0,0,11.566,5.472c.326,0,.65-.014.971-.035l.069,6.361h-.773a.287.287,0,0,0-.286.286.283.283,0,0,0,.228.275v5.349h-1.624v-5.349a.283.283,0,0,0,.228-.275.287.287,0,0,0-.286-.286h-3.377a.287.287,0,0,0-.286.286.283.283,0,0,0,.228.275v5.349h-1.977a.822.822,0,0,0,0,1.644h.16a1.027,1.027,0,0,0-.021.207v5.712h22.774v-5.712a1.027,1.027,0,0,0-.023-.215.82.82,0,0,0-.069-1.637h-1.914v-5.349a.284.284,0,0,0,.228-.275.288.288,0,0,0-.287-.286h-3.377a.287.287,0,0,0-.286.286.283.283,0,0,0,.228.275v5.349H252.38v-5.349a.283.283,0,0,0,.228-.275.287.287,0,0,0-.286-.286h-3.377a.288.288,0,0,0-.286.286.283.283,0,0,0,.228.275v5.349H247.3v-5.349a.283.283,0,0,0,.228-.275.287.287,0,0,0-.286-.286h-1.45l-.07-6.479a14.958,14.958,0,0,0,9.984-6.023l7.513,21.268a.576.576,0,0,0,1.087-.385l-7.8-22.1q.364-.618.67-1.274h.892a.577.577,0,0,0,0-1.154h-.409a14.972,14.972,0,0,0-25.739-14.534l-3.634-2.039a.5.5,0,0,0-.911-.4l-2.9,5.169a.5.5,0,0,0,.819.569l3.853,2.162a15.036,15.036,0,0,0,.4,9.076h-.593a.577.577,0,0,0,0,1.154h1.076a14.886,14.886,0,0,0,1.175,2.078l-5.547,15.7h-2.866l-3.911-7.837V295.283a.279.279,0,0,0,.277-.278v-.141a.279.279,0,0,0-.278-.278h-.59v-2.441a.374.374,0,0,0-.372-.373h-.76V259.409a1.247,1.247,0,1,0-2.494,0v1.1a.367.367,0,1,1-.734,0v-1.1a1.247,1.247,0,1,0-2.494,0v1.1a.367.367,0,1,1-.734,0v-1.1a1.247,1.247,0,1,0-2.495,0v1.1a.367.367,0,1,1-.733,0v-1.1a1.247,1.247,0,1,0-2.494,0v1.1a.367.367,0,1,1-.734,0v-1.1a1.247,1.247,0,1,0-2.494,0v1.1a.367.367,0,1,1-.733,0v-1.1a1.247,1.247,0,1,0-2.494,0v1.1a.367.367,0,1,1-.734,0v-1.1a1.247,1.247,0,1,0-2.494,0v1.1a.367.367,0,1,1-.733,0v-1.1a1.247,1.247,0,1,0-2.494,0v1.1a.367.367,0,1,1-.734,0v-1.1a1.247,1.247,0,1,0-2.495,0v1.1a.367.367,0,1,1-.733,0v-1.1a1.247,1.247,0,1,0-2.494,0v1.1a.367.367,0,1,1-.734,0v-1.1a1.247,1.247,0,1,0-2.494,0v1.1a.367.367,0,1,1-.733,0v-1.1a1.247,1.247,0,1,0-2.494,0v1.1a.367.367,0,1,1-.733,0v-1.1a1.247,1.247,0,1,0-2.494,0v1.1a.367.367,0,1,1-.733,0v-1.1a1.247,1.247,0,1,0-2.494,0v1.1a.367.367,0,1,1-.733,0v-1.1a1.247,1.247,0,1,0-2.494,0v1.1a.367.367,0,1,1-.734,0v-1.1a1.247,1.247,0,0,0-2.488-.128h-.786a.374.374,0,0,0-.372.373v2.44h3.184Zm-1.127-2.157a.365.365,0,0,1,.685,0Z" transform="translate(-152.843 -244.094)" fill="#aaeef2"/></g><g transform="translate(84.089 94.078)"><g transform="translate(22.121)"><path d="M309.588,333.766h67.358a2.709,2.709,0,0,0,2.572-2.212l8.019-48.907a1.829,1.829,0,0,0-1.847-2.212H318.332a2.709,2.709,0,0,0-2.573,2.212l-8.019,48.907A1.829,1.829,0,0,0,309.588,333.766Z" transform="translate(-304.296 -280.435)" fill="#6d72a0"/><path d="M302.9,333.766H370.26a2.71,2.71,0,0,0,2.573-2.212l8.018-48.907A1.829,1.829,0,0,0,379,280.435H311.646a2.709,2.709,0,0,0-2.573,2.212l-8.019,48.907A1.829,1.829,0,0,0,302.9,333.766Z" transform="translate(-301.025 -280.435)" fill="#fff"/><path d="M380.082,284.727H314.788a1.811,1.811,0,0,0-1.733,1.463l-3.728,22.736-3.05,18.6-.509,3.1a1.222,1.222,0,0,0,1.254,1.463h65.293a1.812,1.812,0,0,0,1.734-1.463l1.987-12.117,1.572-9.589,3.728-22.736A1.223,1.223,0,0,0,380.082,284.727Z" transform="translate(-303.336 -282.535)" fill="#000543"/></g><path d="M259.6,387.645H352.88a1.892,1.892,0,0,0,0-3.784H259.6a1.892,1.892,0,0,0,0,3.784Z" transform="translate(-257.712 -331.039)" fill="#fff"/></g><g transform="translate(0 0)"><g transform="translate(7.233 149.985)"><path d="M130.15,672.03l-9.437-2.4c-.144.453-.276.9-.4,1.331a25.327,25.327,0,0,0-.784,3.854l8.886,2.312Q129.289,674.582,130.15,672.03Z" transform="translate(-113.247 -526.764)" fill="#ff9985"/><path d="M119.4,679.672c-.505,3.925.339,6.635,2.43,7.213,2.059.579,5.09-.925,6.174-3.97.119-.334.233-.669.352-1Z" transform="translate(-113.115 -531.677)" fill="#ff9985"/><path d="M148.927,396.557c.01-.273,0-.537-.028-.979l-.125-3.172-36.126-1.324-4.18.067.208,3.616.1.941c4.579,29.861,8.7,88.268-1.445,132.852-.615,2.7,1.6,5.325,4.782,5.737l12,1.556c2.953.383,5.707-1.29,6.253-3.8C142.084,478.135,147.987,426.812,148.927,396.557Z" transform="translate(-107.229 -390.478)" fill="#000543"/><path d="M174.709,672.03l-9.438-2.4c-.144.453-.276.9-.4,1.331a25.324,25.324,0,0,0-.784,3.854l8.886,2.312Q173.848,674.582,174.709,672.03Z" transform="translate(-135.048 -526.764)" fill="#ff9985"/><path d="M163.967,679.783c-.471,3.928.385,6.649,2.46,7.244,2.044.6,5.035-.888,6.086-3.93.115-.333.226-.669.341-1Z" transform="translate(-134.928 -531.731)" fill="#ff9985"/><path d="M193.485,396.557c.01-.273,0-.537-.028-.979l-.125-3.172-36.126-1.324-4.18.067.208,3.616.1.941c4.579,29.861,8.7,88.268-1.445,132.852-.615,2.7,1.6,5.325,4.782,5.737l12,1.556c2.953.383,5.707-1.29,6.253-3.8C186.642,478.135,192.545,426.812,193.485,396.557Z" transform="translate(-129.03 -390.478)" fill="#000543"/><g transform="translate(22.154)"><path d="M168.936,535.931a7.215,7.215,0,0,1-.921-.059l-12-1.556a6.454,6.454,0,0,1-4.5-2.613,4.824,4.824,0,0,1-.793-3.858c10.269-45.115,5.735-104.593,1.437-132.625l-.1-.971-.247-4.271,4.809-.079,36.716,1.346.148,3.731c.026.457.037.736.027,1.024-.839,26.988-6.206,78.693-18.576,135.6A5.94,5.94,0,0,1,168.936,535.931ZM153.088,391.165l.269,3.9c4.308,28.088,8.853,87.756-1.457,133.049a3.626,3.626,0,0,0,.607,2.9,5.239,5.239,0,0,0,3.665,2.106l12,1.556c2.638.347,5.1-1.118,5.587-3.332,12.351-56.83,17.712-108.447,18.547-135.383.01-.26,0-.509-.026-.925l-.1-2.624-35.567-1.3Z" transform="translate(-150.607 -389.899)" fill="#1a2d8e"/></g><g transform="translate(25.503 148.665)"><path d="M181.937,687.376,162.648,681.1c-.95-.309-2.113.025-2.311.665L157.19,691.94c-.183.592.563,1.147,1.558,1.157l20.733.212C184.929,693.365,186.758,688.944,181.937,687.376Z" transform="translate(-157.163 -680.983)" fill="#f9e47a"/></g><g transform="translate(2.839 148.485)"><path d="M137.562,687.025l-19.289-6.276c-.95-.309-2.113.025-2.312.664l-3.146,10.175c-.183.592.563,1.147,1.558,1.157l20.733.213C140.554,693.014,142.383,688.593,137.562,687.025Z" transform="translate(-112.788 -680.632)" fill="#f9e47a"/></g></g><path d="M108.7,295.327c3.536-9.194,10.15-70.3,14.775-78.667,2.3-4.165.735-12.747-2.322-14.851-3.6-2.481-7.752,2.184-10.04,6.323-3.731,6.75-7.181,17.265-9.873,27.254a57.2,57.2,0,0,0-.295,28.636Z" transform="translate(-96.103 -147.548)" fill="#fff"/><g transform="translate(21.791)"><path d="M204.647,130.266a11.378,11.378,0,0,0,2.253-2.014,9.975,9.975,0,0,1-.945.968A14.345,14.345,0,0,1,204.647,130.266Z" transform="translate(-169.45 -111.898)" fill="#ff8698"/><path d="M184.83,136.667a4.045,4.045,0,0,0-.712-1.265,2.593,2.593,0,0,0-1.557-.923c-1.6-.25-3.066,1.316-3.266,3.5a4.842,4.842,0,0,0,.74,3.12c-.086.077-.17.154-.258.23a14.155,14.155,0,0,1-12.337,7.522,2.618,2.618,0,0,1-.848-.144,11.2,11.2,0,0,1-3.9,3.139,14.842,14.842,0,0,1-.985,3.215c-.1.214-3.5,10.872-3.435,11.1s5.8,1.377,6.012,1.5c2.67,1.571,1.78.4,4.714-.6.75-.255,1.271.062,1.611-.643.964-2,3.5-13.24,3.58-14.749.011-.213.035-.424.051-.637a.984.984,0,0,1,.923-.726,12.891,12.891,0,0,0,5.681-1.724,11.223,11.223,0,0,0,5.708-7.951l1.092-10.019a9.07,9.07,0,0,0-1.74,2.906C185.751,134.139,185.489,136.614,184.83,136.667Z" transform="translate(-146.76 -113.049)" fill="#ff9985"/><path d="M178.85,103.851c-.8-2.176-3.815-2.48-6.011-3.319-3.442-1.316-2.112-1.018-3.775-2.641-.756-.737-4.49-1.526-5.56-1.641,0,0-18.906-1.315-16.952,17.512a11.2,11.2,0,0,0-.6,22.352,10.98,10.98,0,0,0,5.718-1.088,11.2,11.2,0,0,0,3.9-3.139c.273.1-10.3,8.9-10.008,8.906,5.358-.1,20.06-7.165,23.194-16.285.088-.076.172-.153.258-.23a4.842,4.842,0,0,1-.74-3.12c.2-2.183,1.661-3.749,3.266-3.5a2.593,2.593,0,0,1,1.557.923,4.045,4.045,0,0,1,.712,1.265c.659-.053.921-2.528,1.075-3.156a9.07,9.07,0,0,1,1.74-2.906,15.431,15.431,0,0,0,1.641-2.358A11,11,0,0,0,178.85,103.851Z" transform="translate(-135.732 -96.23)" fill="#000543"/></g><g transform="translate(78.055 16.562)"><g transform="translate(0 1.441)"><path d="M256.619,144.7l1.269,1.12a.628.628,0,0,1,.072.866.549.549,0,0,1-.822.035l-1.843-1.917Z" transform="translate(-250.495 -137.95)" fill="#a5ccef"/><path d="M246.676,141.8l3.534-2.618a.581.581,0,0,1,.719.287c.012.025.024.05.034.076a1.016,1.016,0,0,1-.219,1.063l-2.579,3.16Z" transform="translate(-246.278 -135.229)" fill="#fff"/><path d="M250.916,140.121l-1.121-.323a.057.057,0,0,1-.045-.066l2.346-8.174a.129.129,0,0,1,.166-.072l.972.28a.129.129,0,0,1,.1.149l-2.347,8.174A.058.058,0,0,1,250.916,140.121Z" transform="translate(-247.781 -131.48)" fill="#000543"/><path d="M246.3,146l-.34-.792a.779.779,0,0,1,.294-.973l.212-.149a.971.971,0,0,0,.322.382l1.07,1.693.627.106.547,1.112-1.613,1.6Z" transform="translate(-245.897 -137.648)" fill="#fff"/><rect width="0.202" height="1.168" transform="translate(1.965 8.514) rotate(-73.961)" fill="#fff"/><path d="M249.565,148.515l-1.31,4.565a.431.431,0,0,1-.553.239l-.347-.1a.431.431,0,0,1-.341-.5l1.311-4.565a.057.057,0,0,1,.074-.032l1.121.322A.057.057,0,0,1,249.565,148.515Z" transform="translate(-246.438 -139.623)" fill="#000543"/><path d="M262.2,164.885c-.932-1.694-2.677-4.414-3.685-6.184l3.715-2.736c1.5,1.7,2.864,3.3,4.121,4.8A9.161,9.161,0,0,0,262.2,164.885Z" transform="translate(-252.069 -143.46)" fill="#fff"/><path d="M276.445,200.111c-.759-10.874-4.944-20.141-10.719-30.629a9.161,9.161,0,0,1,4.151-4.122c13.238,15.823,16.088,24.462,19.381,31.785a6.388,6.388,0,0,1-1.276,7.118l-1.575,1.591C284.4,208.933,276.476,200.568,276.445,200.111Z" transform="translate(-255.599 -148.057)" fill="#ff9985"/><path d="M250.457,145.726l.419-6.281a1.012,1.012,0,0,1,1.991-.18l.067.268a1.013,1.013,0,0,0,.92.765l3.064.187a1.013,1.013,0,0,1,.948.939l.436,6.045a1.014,1.014,0,0,1-.266.76l-1.977,2.145a1.011,1.011,0,0,1-1.463.026l-3.849-3.891A1.012,1.012,0,0,1,250.457,145.726Z" transform="translate(-248.127 -134.914)" fill="#fff"/></g><path d="M254.67,130.106l.97-1.448,0,1.728Z" transform="translate(-250.189 -128.658)" fill="#fff"/></g><g transform="translate(0 44.35)"><path d="M205.457,206.4c-1.353-1.777-3.58-2.432-5.809-3.267-9.872-3.7-37.716-12.743-53.245-17.893a21.435,21.435,0,0,0-2.44-.989,19.01,19.01,0,0,0-7.231-1.154c-4.766-.326-10.514,2.659-15.487,5.558q-.123.852-.207,1.713a75.713,75.713,0,0,0-11.239,7.756,28.706,28.706,0,0,0-5.046,6.077c-2.163,3.508-.588,7.923-1.393,12.885-.96,5.914-1.241,25.586-.925,31.533.979,18.419-1.546,32.916-2.935,49.541-.667,8.781-5.258,28.262-6.434,37.458.049,3.01.821,10.552,2.069,12.428.93,1.4,10.457,10.751,23.416,12.359,12.326,1.529,14.693-10.092,37.552-8.766,2.831.164,5.615-2.756,6.252-6.833,5.857-37.536,2.139-60.058,3.274-115.475a61.072,61.072,0,0,0,.535-8.834,4.209,4.209,0,0,1,3.756-4.168c16.852-2.054,27.155-.67,31.223-1.069a7.136,7.136,0,0,0,2.971-.791C206.264,213.192,206.811,208.178,205.457,206.4Z" transform="translate(-93.066 -183.067)" fill="#fff"/></g><path d="M117.978,144.1a13.681,13.681,0,0,1-2.358,2.866c-.869.639-1.965.922-2.88,1.5s-1.668,1.687-1.224,2.592c.211.43.651.722.861,1.15.592,1.208-.823,2.449-1.583,3.631a4.088,4.088,0,0,0-.075,4.333c.579.917,1.586,1.748,1.411,2.833-.14.855-1.019,1.587-.9,2.434.171,1.244,2.141,1.319,2.876,2.339.517.72.292,1.7.343,2.588a4.124,4.124,0,0,0,2.963,3.624,8.7,8.7,0,0,1,2.625.778c.948.667,1.2,2.03,2.252,2.543,2.192,1.064,3.571-1.477,5.621-2.551,2.579-1.352,6.425-.285,8.1-2.587.394-.539.628-1.237,1.238-1.545s1.388-.088,2.036-.339c1.215-.47,1.291-2.174,2.056-3.124.1-.073.614-.513.709-.548,5.92-4.826,15.071-20.077,12.6-25.219-2.049-4.259-13.592,2.134-19.614,2.338-.037-.054-.051-.108-.089-.16a5.692,5.692,0,0,0-3.954-2.079c-2.946-.45-4.622,1.845-7.157,1.8-.969-.018-1.729-.77-2.682-.9A3.723,3.723,0,0,0,117.978,144.1Z" transform="translate(-101.417 -117.618)" fill="#000543"/></g></g></g></svg>