<svg xmlns="http://www.w3.org/2000/svg" width="114.309" height="151.334" viewBox="0 0 114.309 151.334"><g transform="translate(-62.631)"><g transform="translate(64.847 16.549)"><path d="M145.969,94.872V55.988h-41.8V94.872a3,3,0,0,1-1.773,2.728,54.948,54.948,0,0,0-20.3,84.278,17.84,17.84,0,0,0,13.956,6.679h58.037a17.84,17.84,0,0,0,13.956-6.679,54.948,54.948,0,0,0-20.3-84.277A3,3,0,0,1,145.969,94.872Z" transform="translate(-70.13 -55.988)" fill="#e4f6ff"/></g><g transform="translate(101.009 76.918)"><path d="M256.406,260.233c.172,1.949.265,3.921.265,5.915a66.32,66.32,0,0,1-64.2,66.284h47.795a17.84,17.84,0,0,0,13.956-6.679,54.94,54.94,0,0,0,2.182-65.52Z" transform="translate(-192.474 -260.233)" fill="#d3effb"/></g><g transform="translate(98.885 16.549)"><path d="M185.289,55.988h41.8v8.957h-41.8Z" transform="translate(-185.289 -55.988)" fill="#d3effb"/></g><g transform="translate(74.401 94.317)"><path d="M106.871,319.1a2.993,2.993,0,0,0-2.89,2.225,45.348,45.348,0,0,0,6.942,38.057,11.905,11.905,0,0,0,9.694,4.963H175.06a11.905,11.905,0,0,0,9.694-4.963,45.384,45.384,0,0,0,6.947-38.056,2.993,2.993,0,0,0-2.89-2.226H106.871Z" transform="translate(-102.455 -319.098)" fill="#75cef9"/></g><g transform="translate(133.258 96.829)"><path d="M301.583,370.331h13.748a11.905,11.905,0,0,0,9.694-4.963,45.386,45.386,0,0,0,7.022-37.77A66.405,66.405,0,0,1,301.583,370.331Z" transform="translate(-301.583 -327.597)" fill="#6bbef6"/></g><g transform="translate(91.122 2.217)"><path d="M213.365,7.5H162.01a2.986,2.986,0,0,0-2.986,2.986v8.36a2.986,2.986,0,0,0,2.986,2.986h51.355a2.986,2.986,0,0,0,2.986-2.986v-8.36A2.986,2.986,0,0,0,213.365,7.5Z" transform="translate(-159.024 -7.5)" fill="#e4f6ff"/></g><g transform="translate(135.866 2.217)"><path d="M320,7.5h-9.6a2.986,2.986,0,0,1,2.986,2.986v8.36a2.986,2.986,0,0,1-2.986,2.986H320a2.986,2.986,0,0,0,2.986-2.986v-8.36A2.986,2.986,0,0,0,320,7.5Z" transform="translate(-310.405 -7.5)" fill="#d3effb"/></g><g transform="translate(101.838 82.006)"><g transform="translate(0)"><circle cx="5.971" cy="5.971" r="5.971" fill="#6bbef6"/></g></g><g transform="translate(113.814 33.319)"><circle cx="5.971" cy="5.971" r="5.971" fill="#6bbef6"/></g><g transform="translate(122.773 63.818)"><circle cx="5.971" cy="5.971" r="5.971" fill="#6bbef6"/></g><g transform="translate(62.63 0)"><path d="M155.453,368.435a6.26,6.26,0,0,1-4.6-1.927,2.217,2.217,0,0,0-3.285,2.977,10.757,10.757,0,0,0,7.886,3.384c3.764,0,6.926-2.4,7.516-5.71.444-2.489-.687-5.741-5.194-7.4-2.2-.813-4.256-1.7-4.882-1.972a1.264,1.264,0,0,1-.449-1.189,1.819,1.819,0,0,1,1.441-1.453c2.538-.765,4.886,1.092,4.951,1.144a2.217,2.217,0,0,0,2.841-3.4c-.169-.142-4.189-3.456-9.071-1.986a6.279,6.279,0,0,0-4.551,5.069,5.672,5.672,0,0,0,2.53,5.615,2.207,2.207,0,0,0,.307.167c.1.046,2.57,1.144,5.348,2.168.791.292,2.6,1.116,2.363,2.464a3.046,3.046,0,0,1-3.152,2.055Z" transform="translate(-122.058 -246.916)"/><path d="M218.2,361.693a11.174,11.174,0,1,0,11.174-11.174A11.187,11.187,0,0,0,218.2,361.693Zm17.914,0a6.741,6.741,0,1,1-6.741-6.741A6.748,6.748,0,0,1,236.118,361.693Z" transform="translate(-172.22 -246.915)"/><path d="M322.315,358.414a2.057,2.057,0,0,0,.04-.221l.087-.68a2.225,2.225,0,0,0,.018-.28,6.713,6.713,0,0,0-13.3-1.3,2.217,2.217,0,1,0,4.351.854,2.28,2.28,0,0,1,4.513.327l-.05.393a9.711,9.711,0,0,1-1.5,2.947c-2.781,3.974-4.44,6.146-5.332,7.313-1.114,1.458-1.673,2.19-1.3,3.4a2.293,2.293,0,0,0,1.491,1.512c.294.1.558.186,4.012.186,1.344,0,3.172-.014,5.671-.045a2.217,2.217,0,0,0-.027-4.433h-.028c-1.606.02-3.3.034-4.766.039.953-1.281,2.232-3.038,3.91-5.435A13.581,13.581,0,0,0,322.315,358.414Z" transform="translate(-236.262 -246.915)"/><path d="M161.916,282.26H137.651a8.188,8.188,0,1,0-14.141,0H101.588a5.216,5.216,0,0,0-5.031,3.871,47.565,47.565,0,0,0,7.28,39.917,14.144,14.144,0,0,0,11.5,5.892h54.442a14.143,14.143,0,0,0,11.5-5.892,47.6,47.6,0,0,0,7.285-39.915,5.216,5.216,0,0,0-5.032-3.872H172.275a2.217,2.217,0,0,0,0,4.434h11.252a.777.777,0,0,1,.748.58,43.167,43.167,0,0,1-6.609,36.2,9.7,9.7,0,0,1-7.89,4.035H115.335a9.7,9.7,0,0,1-7.89-4.035,43.132,43.132,0,0,1-6.6-36.2.778.778,0,0,1,.748-.58h60.328a2.217,2.217,0,1,0,0-4.434Zm-31.335-7.877a3.755,3.755,0,1,1-3.755,3.755A3.759,3.759,0,0,1,130.581,274.382Z" transform="translate(-85.401 -190.159)"/><path d="M143.375,148.1a.788.788,0,0,1-.473-.709V132.766a2.217,2.217,0,1,0-4.434,0v14.629a5.231,5.231,0,0,0,3.074,4.747,52.857,52.857,0,0,1,30.964,48.033,52.149,52.149,0,0,1-11.481,32.844,15.535,15.535,0,0,1-12.222,5.845H90.767a15.536,15.536,0,0,1-12.223-5.845,52.721,52.721,0,0,1,.1-65.815,2.217,2.217,0,0,0-3.457-2.775A57.3,57.3,0,0,0,62.63,200.174a56.539,56.539,0,0,0,12.448,35.608A19.948,19.948,0,0,0,90.767,243.3H148.8a19.947,19.947,0,0,0,15.688-7.514,56.539,56.539,0,0,0,12.448-35.608,57.3,57.3,0,0,0-33.565-52.07Z" transform="translate(-62.63 -91.962)"/><path d="M130.041,68.647a2.208,2.208,0,0,0,1.439-.531,52.762,52.762,0,0,1,12.471-7.936,5.231,5.231,0,0,0,3.074-4.747V18.765h37.367V30.444a2.217,2.217,0,0,0,4.434,0V18.765h2.561a5.209,5.209,0,0,0,5.2-5.2V5.2a5.208,5.208,0,0,0-5.2-5.2H140.031a5.209,5.209,0,0,0-5.2,5.2v8.36a5.209,5.209,0,0,0,5.2,5.2h2.561V55.433a.788.788,0,0,1-.473.709,57.184,57.184,0,0,0-13.519,8.6,2.217,2.217,0,0,0,1.441,3.9Zm9.221-55.084V5.2a.77.77,0,0,1,.769-.769h51.355a.77.77,0,0,1,.769.769v8.36a.77.77,0,0,1-.769.769H140.031A.77.77,0,0,1,139.262,13.563Z" transform="translate(-108.553 0)"/><path d="M236.485,121.6a8.188,8.188,0,1,0-8.188-8.189A8.2,8.2,0,0,0,236.485,121.6Zm0-11.943a3.755,3.755,0,1,1-3.755,3.755A3.759,3.759,0,0,1,236.485,109.66Z" transform="translate(-179.33 -74.124)"/><path d="M266.8,208.412a8.188,8.188,0,1,0,8.188,8.189A8.2,8.2,0,0,0,266.8,208.412Zm0,11.943a3.755,3.755,0,1,1,3.755-3.755A3.759,3.759,0,0,1,266.8,220.355Z" transform="translate(-200.683 -146.811)"/></g></g></svg>