<svg xmlns="http://www.w3.org/2000/svg" width="113" height="113" viewBox="0 0 113 113"><g transform="translate(-322 -764)"><circle cx="56.5" cy="56.5" r="56.5" transform="translate(322 764)" fill="#80cab6"/><g transform="translate(347 789)"><rect width="14" height="6" rx="2" transform="translate(47 21)" fill="#c6c5ca"/><circle cx="2" cy="2" r="2" transform="translate(57 3)" fill="#ffde55"/><circle cx="2" cy="2" r="2" transform="translate(57 13)" fill="#ffde55"/><path d="M54,61a3.995,3.995,0,0,1-4-4V27h8V57A4,4,0,0,1,54,61Z" fill="#57a4ff"/><circle cx="3" cy="3" r="3" transform="translate(44 8)" fill="#ffde55"/><path d="M41,61a5,5,0,0,1-4.53-2.91v-.01A4.876,4.876,0,0,1,36,56c0-2.05,1-4,3-4V45h4v7c2,0,3,1.95,3,4a4.876,4.876,0,0,1-.47,2.08v.01A5,5,0,0,1,41,61Z" fill="#00eed1"/><circle cx="2" cy="2" r="2" transform="translate(31 17)" fill="#ffde55"/><path d="M28,61a5,5,0,0,1-4.53-2.91v-.01c-.07-.16-.14-.32-.2-.49A4.913,4.913,0,0,1,23,56c0-2.05,1-4,3-4V45h4v7c2,0,3,1.95,3,4a4.876,4.876,0,0,1-.47,2.08v.01A5,5,0,0,1,28,61Z" fill="#00eed1"/><circle cx="2" cy="2" r="2" transform="translate(29 3)" fill="#ffde55"/><circle cx="3" cy="3" r="3" transform="translate(23 10)" fill="#ffde55"/><path d="M20.77,58.2A2,2,0,0,1,18.94,61H5.06a2,2,0,0,1-1.83-2.8L9,45V37h6v8Z" fill="#ffde55"/><path d="M58,27V57a3.994,3.994,0,0,1-6,3.46A3.98,3.98,0,0,0,54,57V27Z" fill="#2488ff"/><path d="M18.94,61h-4a2,2,0,0,0,1.83-2.8L11,45V37h4v8l5.77,13.2A2,2,0,0,1,18.94,61Z" fill="#ffcd00"/><path d="M18,35a2.015,2.015,0,0,1-2,2H8a2,2,0,0,1,0-4h8A2.006,2.006,0,0,1,18,35Z" fill="#c6c5ca"/><path d="M61,23v2a2.006,2.006,0,0,1-2,2H55a2.006,2.006,0,0,0,2-2V23a2.006,2.006,0,0,0-2-2h4A2.006,2.006,0,0,1,61,23Z" fill="#898890"/><path d="M18,35a2.015,2.015,0,0,1-2,2H12a2,2,0,0,0,0-4h4A2.006,2.006,0,0,1,18,35Z" fill="#898890"/><circle cx="3" cy="3" r="3" transform="translate(14 3)" fill="#ffde55"/><circle cx="2" cy="2" r="2" transform="translate(12 15)" fill="#ffde55"/><circle cx="3" cy="3" r="3" transform="translate(3 7)" fill="#ffde55"/><path d="M21.69,57.8,16,44.79V38a3,3,0,0,0,0-6H8a3,3,0,0,0,0,6v6.79L2.31,57.8A3,3,0,0,0,5.06,62H18.94a3,3,0,0,0,2.75-4.2ZM7,35a1,1,0,0,1,1-1h8a1,1,0,0,1,0,2H8a1,1,0,0,1-1-1ZM19.78,59.55a1,1,0,0,1-.84.45H5.06a1,1,0,0,1-.84-.45.979.979,0,0,1-.08-.95L9.92,45.4A1.1,1.1,0,0,0,10,45V38h4v7a1.1,1.1,0,0,0,.08.4l5.78,13.2a.979.979,0,0,1-.08.95Z"/><path d="M44,51.13V46h2V44H36v2h2v5.13c-1.81.5-3,2.36-3,4.87a5.845,5.845,0,0,0,.52,2.41.882.882,0,0,0,.09.2,5.976,5.976,0,0,0,10.78-.01.663.663,0,0,0,.09-.19A5.845,5.845,0,0,0,47,56c0-2.51-1.19-4.37-3-4.87Zm.64,6.51c-.01.01-.01.02-.02.03a3.977,3.977,0,0,1-7.24,0c-.01-.01-.01-.02-.02-.03A4.015,4.015,0,0,1,37,56c0-1.11.42-3,2-3a1,1,0,0,0,1-1V46h2v6a1,1,0,0,0,1,1c1.58,0,2,1.89,2,3a4.015,4.015,0,0,1-.36,1.64Z"/><path d="M31,51.13V46h2V44H23v2h2v5.13c-1.81.5-3,2.36-3,4.87a5.845,5.845,0,0,0,.52,2.41.882.882,0,0,0,.09.2,5.976,5.976,0,0,0,10.78-.01.663.663,0,0,0,.09-.19A5.845,5.845,0,0,0,34,56c0-2.51-1.19-4.37-3-4.87Zm.64,6.51c-.01.01-.01.02-.02.03a3.977,3.977,0,0,1-7.24,0c-.01-.01-.01-.02-.02-.03A4.015,4.015,0,0,1,24,56c0-1.11.42-3,2-3a1,1,0,0,0,1-1V46h2v6a1,1,0,0,0,1,1c1.58,0,2,1.89,2,3a4.015,4.015,0,0,1-.36,1.64Z"/><path d="M59,20H49a3.009,3.009,0,0,0-3,3v2a3.009,3.009,0,0,0,3,3V57a5,5,0,1,0,10,0V28a3.009,3.009,0,0,0,3-3V23a3.009,3.009,0,0,0-3-3ZM57,57a3,3,0,0,1-6,0V28h6Zm3-32a1,1,0,0,1-1,1H49a1,1,0,0,1-1-1V23a1,1,0,0,1,1-1H59a1,1,0,0,1,1,1Z"/><path d="M42,42V38a1,1,0,0,0-1-1H28a1,1,0,0,0-1,1v4h2V39H40v3Z"/><path d="M13,26H30v9h2V25a1,1,0,0,0-1-1H12a1,1,0,0,0-1,1v5h2Z"/><path d="M40,4H53V18h2V3a1,1,0,0,0-1-1H39a1,1,0,0,0-1,1V35h2Z"/><path d="M6,14a4,4,0,1,0-4-4A4,4,0,0,0,6,14ZM6,8a2,2,0,1,1-2,2A2,2,0,0,1,6,8Z"/><path d="M14,20a3,3,0,1,0-3-3,3,3,0,0,0,3,3Zm0-4a1,1,0,1,1-1,1A1,1,0,0,1,14,16Z"/><path d="M17,10a4,4,0,1,0-4-4A4,4,0,0,0,17,10Zm0-6a2,2,0,1,1-2,2A2,2,0,0,1,17,4Z"/><path d="M30,19a3,3,0,1,0,3-3A3,3,0,0,0,30,19Zm4,0a1,1,0,1,1-1-1A1,1,0,0,1,34,19Z"/><path d="M31,8a3,3,0,1,0-3-3,3,3,0,0,0,3,3Zm0-4a1,1,0,1,1-1,1A1,1,0,0,1,31,4Z"/><path d="M59,12a3,3,0,1,0,3,3,3,3,0,0,0-3-3Zm0,4a1,1,0,1,1,1-1A1,1,0,0,1,59,16Z"/><path d="M59,8a3,3,0,1,0-3-3,3,3,0,0,0,3,3Zm0-4a1,1,0,1,1-1,1A1,1,0,0,1,59,4Z"/><path d="M26,17a4,4,0,1,0-4-4A4,4,0,0,0,26,17Zm0-6a2,2,0,1,1-2,2A2,2,0,0,1,26,11Z"/><path d="M43,11a4,4,0,1,0,4-4,4,4,0,0,0-4,4Zm6,0a2,2,0,1,1-2-2A2,2,0,0,1,49,11Z"/></g></g></svg>