<svg xmlns="http://www.w3.org/2000/svg" width="454.682" height="217.894" viewBox="0 0 454.682 217.894"><g transform="translate(-143.496 -311.901)"><g transform="translate(222.445 339.884)"><path d="M185.254,377.487h-4.141V364.7a14.466,14.466,0,0,1,14.45-14.45H308.3a10.322,10.322,0,0,0,10.309-10.309v-.252a14.467,14.467,0,0,1,14.45-14.45h34.386a14.467,14.467,0,0,1,14.45,14.45v22.283h-4.141V339.684a10.322,10.322,0,0,0-10.309-10.309H333.055a10.322,10.322,0,0,0-10.309,10.309v.252a14.467,14.467,0,0,1-14.45,14.45H195.563A10.321,10.321,0,0,0,185.254,364.7Z" transform="translate(-181.113 -325.234)" fill="#babbc0"/></g><g transform="translate(426.804 328.131)"><path d="M395.738,421.928H391.6V400.382a10.048,10.048,0,0,0-9.822-10.238h-.239a14.19,14.19,0,0,1-13.961-14.379V334.013a10.046,10.046,0,0,0-9.818-10.238H338.847a10.047,10.047,0,0,0-9.82,10.238v.791a14.19,14.19,0,0,1-13.961,14.379H292.445a10.049,10.049,0,0,0-9.822,10.24v9.659h-4.139v-9.659a14.19,14.19,0,0,1,13.961-14.379h22.621a10.049,10.049,0,0,0,9.822-10.24v-.791a14.189,14.189,0,0,1,13.959-14.379h18.912a14.188,14.188,0,0,1,13.957,14.379v41.753A10.047,10.047,0,0,0,381.538,386h.239a14.191,14.191,0,0,1,13.961,14.379Z" transform="translate(-278.484 -319.634)" fill="#babbc0"/></g><g transform="translate(378.767 420.371)"><path d="M282.421,371.976c-.26-.678-2.483-1.736-4.051-2.082a16.3,16.3,0,0,1-3.631-1.765,15.172,15.172,0,0,1-1.36,1.883c.023-.027,1.74,1.291,1.943,1.4.659.361,1.436.355,1.859,1.125a6.55,6.55,0,0,1,.4,1.242c.141.493.149,2.063.655,2.3.762.355.493-1.27.567-1.564.113-.441.646-.89.944-.348.411.743.7,2.453,1.574,2.791,1.1.422-.579-2.766-.726-3.459.313,1.016,1.767,3.9,2.3,3.69,1.02-.405-.823-3.135-1.133-4.1a4.514,4.514,0,0,0,1.375,2.235C284.187,375.867,282.684,372.656,282.421,371.976Z" transform="translate(-236.056 -358.59)" fill="#ff9d8a"/><path d="M255.6,367.259a6.026,6.026,0,0,0,5.625,5.453c4.684.243,12.593,5.385,15.241,5.74,3.681.5,19.678-.521,19.678-.521l1.213-4.319s-17.607-2.181-20.547-2.539-15.292-9.249-17.986-7.176C257.882,364.621,255.481,366.025,255.6,367.259Z" transform="translate(-255.596 -363.584)" fill="#fff"/><g transform="translate(5.266 3.209)"><path d="M275.069,375.336c-4.168-1.49-9.946-6.676-14.364-9.3a8.821,8.821,0,0,0-2.149-.919,4.072,4.072,0,0,0-.407,1.175,6.793,6.793,0,0,0,1.57,4.913c4.733.915,11.564,5.245,13.99,5.57,2.281.308,9.291.034,14.295-.218C281.208,375.978,276.921,376,275.069,375.336Z" transform="translate(-258.105 -365.113)" fill="#d0d1de"/></g></g><path d="M208.57,339.084a79.959,79.959,0,0,0-7.43,4.038,29.816,29.816,0,0,0-5.87,4.783c-3.438,3.727-4.237,7.4-5.218,12.253a49.753,49.753,0,0,0-1.207,12.118c.216,4.836,1.007,9.669,1.211,14.452.214,5.031-2.05,8.294-5.176,11.946-3.3,3.86-5.117,9.35-7.245,13.93-1.261,2.718-2.8,6.032-3.247,9.014-.449,3,2.252,4.913,4.1,6.9a20.867,20.867,0,0,0,11.873,6.429c4.263.764,6.676.006,9.661-2.846,2.81-2.684,4.89-6.789,4.659-10.7-.321-5.394-5.751-7.121-8.588-11.13s1.121-6.878,1.381-11.037c.134-2.153-.695-4.111-1.343-6.128a33.635,33.635,0,0,1-1.245-7.413,79.28,79.28,0,0,1,.13-16.561,32.85,32.85,0,0,1,5.9-15.136c1.572-2.3,5.268-4.6,7.742-5.574,1.918-.758,7.856-4.082,8.294-6.04.216-.97-6.92.982-7.446.094C208.938,341.517,209.295,340.031,208.57,339.084Z" transform="translate(33.891 29.868)" fill="#fc3"/><g transform="translate(411.929 372.301)"><g transform="translate(2.488 2.358)"><path d="M290.136,341.8v75.448c0,4.63-3.136,6.288-7,6.288h-.141c-3.868,0-7-1.658-7-6.288V341.8h-3.406v79.745a10.376,10.376,0,0,0,10.376,10.374h.208a10.374,10.374,0,0,0,10.374-10.374V341.8Z" transform="translate(-272.582 -341.803)" fill="#fff"/><rect width="3.406" height="7.073" transform="translate(17.553)" fill="#dfeaeb"/><rect width="3.406" height="7.073" transform="translate(0.001)" fill="#dfeaeb"/><path d="M281.349,423.54h-.141c-3.868,0-7-1.658-7-6.288V341.8h14.148v75.448C288.353,421.882,285.217,423.54,281.349,423.54Z" transform="translate(-270.799 -341.803)" fill="#fff" opacity="0.32" style="mix-blend-mode:screen;isolation:isolate"/><path d="M274.205,360.58v36.042c0,4.63,3.136,6.288,7,6.288h.141c3.868,0,7-1.658,7-6.288V360.58Z" transform="translate(-270.799 -321.173)" fill="#f34f95"/></g><rect width="25.936" height="5.371" rx="1.267" fill="#fff"/><path d="M278.636,366.51a1.833,1.833,0,1,1-1.832-1.832A1.833,1.833,0,0,1,278.636,366.51Z" transform="translate(-267.471 -314.312)" fill="#fc889f"/><path d="M283.314,364.816a2.948,2.948,0,1,1-2.947-2.947A2.948,2.948,0,0,1,283.314,364.816Z" transform="translate(-264.779 -317.398)" fill="#fc889f"/><path d="M281.224,371.253a2.62,2.62,0,1,1-2.619-2.621A2.62,2.62,0,0,1,281.224,371.253Z" transform="translate(-266.357 -309.967)" fill="#fc889f"/><path d="M281.709,379.543a2.815,2.815,0,1,1-2.816-2.817A2.816,2.816,0,0,1,281.709,379.543Z" transform="translate(-266.253 -301.074)" fill="#fc889f"/><circle cx="1.899" cy="1.899" r="1.899" transform="translate(15.122 54.257)" fill="#fc889f"/><path d="M278.2,375.3a1.55,1.55,0,1,1-1.549-1.551A1.549,1.549,0,0,1,278.2,375.3Z" transform="translate(-267.323 -304.342)" fill="#fc889f"/><path d="M281.582,374.563a1.551,1.551,0,1,1-1.551-1.549A1.551,1.551,0,0,1,281.582,374.563Z" transform="translate(-263.613 -305.153)" fill="#fc889f"/></g><g transform="translate(504.366 426.55)"><path d="M363.552,388.855V368.91h-3.5v20.312s25.387,36.344,25.387,47.516c0,5.427-1.742,8.871-6.437,10.584a15.41,15.41,0,0,1-5.3.875H332.423a15.39,15.39,0,0,1-5.3-.875c-4.695-1.713-6.439-5.157-6.439-10.584,0-11.172,25.387-47.516,25.387-47.516V368.91h-3.5v19.945s-27.133,38.987-27.133,51.972c0,6.307,2.025,10.309,7.482,12.3a17.934,17.934,0,0,0,6.156,1.018h47.967a17.934,17.934,0,0,0,6.156-1.018c5.457-1.992,7.484-5.994,7.484-12.3C390.685,427.841,363.552,388.855,363.552,388.855Z" transform="translate(-315.44 -363.911)" fill="#fff"/><rect width="3.504" height="6.062" transform="translate(44.607 5)" fill="#dfeaeb"/><rect width="3.504" height="6.062" transform="translate(27.132 5)" fill="#dfeaeb"/><path d="M357.3,389.222V368.91H343.328v20.312s-25.387,36.344-25.387,47.516c0,5.427,1.744,8.871,6.439,10.584a15.39,15.39,0,0,0,5.3.875h41.276a15.41,15.41,0,0,0,5.3-.875c4.695-1.713,6.437-5.157,6.437-10.584C382.686,425.566,357.3,389.222,357.3,389.222Z" transform="translate(-312.692 -363.911)" fill="#fff" opacity="0.32" style="mix-blend-mode:screen;isolation:isolate"/><path d="M371.737,390.616a49.084,49.084,0,0,1-8.79,4.34c-7.574,2.85-13.747.9-20.7-2.569a25.137,25.137,0,0,0-13.98-2.479c-5.467,9.371-10.326,19.078-10.326,23.966,0,5.427,1.744,8.871,6.439,10.584a15.39,15.39,0,0,0,5.3.875h41.276a15.41,15.41,0,0,0,5.3-.875c4.695-1.713,6.437-5.157,6.437-10.584,0-4.85-4.785-14.448-10.2-23.756C372.236,390.286,371.991,390.456,371.737,390.616Z" transform="translate(-312.692 -341.047)" fill="#fc3"/><rect width="27.277" height="7.75" rx="1.828" transform="translate(23.983)" fill="#fff"/><path d="M329.393,400.734a3.937,3.937,0,1,1-3.937-3.937A3.938,3.938,0,0,1,329.393,400.734Z" transform="translate(-308.762 -333.269)" fill="#ffe081"/><path d="M330.109,394.84a2.062,2.062,0,1,1-2.063-2.063A2.062,2.062,0,0,1,330.109,394.84Z" transform="translate(-303.854 -337.686)" fill="#ffe081"/><path d="M333,404.526a2.86,2.86,0,1,1-2.861-2.861A2.86,2.86,0,0,1,333,404.526Z" transform="translate(-302.431 -327.92)" fill="#ffe081"/><circle cx="3.527" cy="3.527" r="3.527" transform="translate(30.568 61.465)" fill="#ffe081"/><circle cx="5.062" cy="5.062" r="5.062" transform="translate(45.473 59.215)" fill="#ffe081"/><circle cx="2.297" cy="2.297" r="2.297" transform="translate(41.255 77.027)" fill="#ffe081"/><circle cx="2.601" cy="2.601" r="2.601" transform="translate(55.973 71.402)" fill="#ffe081"/><circle cx="2.015" cy="2.015" r="2.015" transform="translate(60.472 60.247)" fill="#ffe081"/><path d="M326.273,404.221a2.109,2.109,0,1,1-2.109-2.109A2.109,2.109,0,0,1,326.273,404.221Z" transform="translate(-308.173 -327.429)" fill="#ffe081"/></g><g transform="translate(143.496 366.999)"><rect width="3.345" height="154.246" transform="translate(345.212)" fill="#110239"/><path d="M596.193,422.532H145.481a1.982,1.982,0,0,1-1.721-2.966l4.867-8.519a3.03,3.03,0,0,1,2.632-1.526H590.415a3.03,3.03,0,0,1,2.632,1.526l4.867,8.519A1.982,1.982,0,0,1,596.193,422.532Z" transform="translate(-143.496 -259.736)" fill="#110239"/><rect width="78.309" height="5.576" transform="translate(320.183 72.963)" fill="#110239"/><rect width="78.309" height="5.576" transform="translate(283.437 20.179)" fill="#110239"/><circle cx="4.894" cy="4.894" r="4.894" transform="translate(341.99 18.072)" fill="#110239"/><circle cx="2.172" cy="2.172" r="2.172" transform="translate(344.713 20.795)" fill="#8397ca"/><circle cx="4.894" cy="4.894" r="4.894" transform="translate(341.99 70.856)" fill="#110239"/><circle cx="2.172" cy="2.172" r="2.172" transform="translate(344.713 73.579)" fill="#8397ca"/></g><rect width="44.695" height="10.559" rx="2.49" transform="translate(519.64 437.47)" fill="#110239"/><rect width="44.695" height="10.559" rx="2.49" transform="translate(402.549 384.686)" fill="#110239"/><g transform="translate(175.531 388.516)"><path d="M213.013,376.609V352.244H199.678v24.365c-20.241,4.057-37.56,21.926-37.56,43.36a44.227,44.227,0,1,0,88.455,0C250.573,398.534,233.251,380.666,213.013,376.609Z" transform="translate(-155.07 -344.188)" fill="#fff" opacity="0.32" style="mix-blend-mode:screen;isolation:isolate"/><path d="M221.727,384.2c-8,1.908-16.587,1.608-24.157-1.922-10.315-4.81-19.716-7.543-29.752-5.751a40.865,40.865,0,0,0-5.7,20.6,44.226,44.226,0,1,0,88.452,0,41.44,41.44,0,0,0-7.948-24.088C235.524,376.358,229.421,382.369,221.727,384.2Z" transform="translate(-155.07 -321.343)" fill="#56b2e5"/><path d="M220.164,370.917V352.244H216.7v24.365c20.238,4.057,37.557,21.926,37.557,43.36a44.226,44.226,0,1,1-88.452,0c0-21.435,17.319-39.3,37.56-43.36V352.244H199.9v18.673a51.274,51.274,0,1,0,20.259,0Z" transform="translate(-158.76 -344.188)" fill="#fff"/><rect width="20.26" height="9.282" transform="translate(41.144 8.055)" fill="#dfeaeb"/><rect width="32.761" height="9.308" rx="2.195" transform="translate(34.893)" fill="#fff"/><path d="M177.62,383.746a4.829,4.829,0,1,1-4.829-4.831A4.829,4.829,0,0,1,177.62,383.746Z" transform="translate(-148.649 -314.883)" fill="#6fc6ec"/><circle cx="2.243" cy="2.243" r="2.243" transform="translate(30.87 79.957)" fill="#6fc6ec"/><circle cx="6.21" cy="6.21" r="6.21" transform="translate(48.983 69.607)" fill="#6fc6ec"/><circle cx="3.278" cy="3.278" r="3.278" transform="translate(72.962 70.814)" fill="#6fc6ec"/><circle cx="6.555" cy="6.555" r="6.555" transform="translate(73.997 84.126)" fill="#6fc6ec"/><circle cx="3.795" cy="3.795" r="3.795" transform="translate(83.312 59.429)" fill="#6fc6ec"/><path d="M195.09,398.176a3.536,3.536,0,1,1-3.536-3.536A3.535,3.535,0,0,1,195.09,398.176Z" transform="translate(-126.613 -297.605)" fill="#6fc6ec"/><path d="M189.125,401.441a8.281,8.281,0,1,1-8.28-8.28A8.279,8.279,0,0,1,189.125,401.441Z" transform="translate(-143.593 -299.23)" fill="#6fc6ec"/><path d="M177.62,394.14a4.829,4.829,0,1,1-4.829-4.829A4.829,4.829,0,0,1,177.62,394.14Z" transform="translate(-148.649 -303.46)" fill="#6fc6ec"/><circle cx="3.45" cy="3.45" r="3.45" transform="translate(50.191 87.375)" fill="#6fc6ec"/><path d="M187.848,402.229a2.329,2.329,0,1,1-2.33-2.328A2.33,2.33,0,0,1,187.848,402.229Z" transform="translate(-131.916 -291.825)" fill="#6fc6ec"/></g><g transform="translate(225.54 409.2)"><path d="M197.822,373.382l.923-2.768h41.363l-.882,2.768Z" transform="translate(-165.848 -350.688)" fill="#110239"/><path d="M195.48,380.423l.933-2.8H238l-.891,2.8Z" transform="translate(-168.422 -342.984)" fill="#110239"/><path d="M206.565,363.588a3.258,3.258,0,0,1-1.192,2.768H237.15l.881-2.768Z" transform="translate(-157.552 -358.408)" fill="#110239"/><path d="M193.112,387.54l.943-2.827H235.86l-.9,2.827Z" transform="translate(-171.023 -335.198)" fill="#110239"/><path d="M190.719,394.734l.953-2.859H233.7l-.91,2.859Z" transform="translate(-173.653 -327.327)" fill="#110239"/><path d="M188.3,402l.964-2.889h42.258L230.6,402Z" transform="translate(-176.311 -319.371)" fill="#110239"/><path d="M185.854,409.356l.974-2.921h42.488l-.93,2.921Z" transform="translate(-178.998 -311.329)" fill="#110239"/><path d="M223.015,361.145a1.894,1.894,0,0,0-1.482,1.255L182.687,478.756a1.915,1.915,0,0,0,1.815,2.521h.2a1.913,1.913,0,0,0,1.815-1.312l37.96-114.208A16.241,16.241,0,0,1,223.015,361.145Z" transform="translate(-182.587 -361.093)" fill="#110239"/><path d="M204.752,481.3h-.21a1.914,1.914,0,0,1-1.824-2.5l37.14-116.356a1.911,1.911,0,0,1,1.822-1.331h.042a1.915,1.915,0,0,1,1.824,2.493l-36.97,116.355A1.911,1.911,0,0,1,204.752,481.3Z" transform="translate(-160.57 -361.12)" fill="#110239"/><g transform="translate(38.948)"><path d="M247.627,373.382l-.923-2.768H205.341l.882,2.768Z" transform="translate(-196.534 -350.688)" fill="#56b2e5"/><path d="M250.09,380.423l-.933-2.8H207.574l.891,2.8Z" transform="translate(-194.081 -342.984)" fill="#56b2e5"/><path d="M244.662,366.356l-.923-2.768H202.377l.881,2.768Z" transform="translate(-199.791 -358.408)" fill="#56b2e5"/><path d="M252.579,387.54l-.943-2.827H209.831l.9,2.827Z" transform="translate(-191.601 -335.198)" fill="#56b2e5"/><path d="M255.1,394.734l-.953-2.859H212.112l.91,2.859Z" transform="translate(-189.095 -327.327)" fill="#56b2e5"/><path d="M257.639,402l-.964-2.889H214.418l.92,2.889Z" transform="translate(-186.561 -319.371)" fill="#56b2e5"/><path d="M260.211,409.356l-.974-2.921H216.748l.93,2.921Z" transform="translate(-184 -311.329)" fill="#56b2e5"/><path d="M261.353,481.3h.2a1.914,1.914,0,0,0,1.815-2.521L224.519,362.428a1.916,1.916,0,0,0-1.815-1.308h-2.676l39.509,118.872A1.916,1.916,0,0,0,261.353,481.3Z" transform="translate(-180.397 -361.12)" fill="#56b2e5"/><path d="M240.029,481.3h.212a1.914,1.914,0,0,0,1.822-2.5l-37.14-116.356a1.911,1.911,0,0,0-1.822-1.331h-.04a1.916,1.916,0,0,0-1.826,2.493l36.97,116.355A1.911,1.911,0,0,0,240.029,481.3Z" transform="translate(-201.145 -361.12)" fill="#56b2e5"/></g></g><g transform="translate(232.656 311.901)"><g transform="translate(2.682)"><path d="M189.273,364.183,264.5,319.528c4.617-2.741,8.126-.6,10.414,3.259l.084.141c2.29,3.858,2.491,7.965-2.124,10.7l-75.228,44.657,2.017,3.4,79.51-47.2a12.031,12.031,0,0,0,4.2-16.486l-.124-.208a12.028,12.028,0,0,0-16.484-4.2l-79.512,47.2Z" transform="translate(-187.256 -311.901)" fill="#fff"/><rect width="8.202" height="3.949" transform="translate(0.001 48.886) rotate(-30.693)" fill="#dfeaeb"/><rect width="8.202" height="3.949" transform="matrix(0.86, -0.51, 0.51, 0.86, 10.389, 66.387)" fill="#dfeaeb"/><path d="M273.857,319.441l.084.141c2.29,3.858,2.491,7.965-2.124,10.7l-75.228,44.657-8.372-14.106,75.226-44.655C268.06,313.441,271.569,315.586,273.857,319.441Z" transform="translate(-186.2 -308.555)" fill="#fff" opacity="0.32" style="mix-blend-mode:screen;isolation:isolate"/><path d="M273.363,322.5a12.1,12.1,0,0,0-1.282-2.915l-.084-.141a13.723,13.723,0,0,0-.915-1.36,9.246,9.246,0,0,0-2.168-2.088,5.879,5.879,0,0,0-4.078-1,8.385,8.385,0,0,0-3.253,1.19l-.006,0c-11.629,6.9-22.9,14.173-34.695,20.6L218.6,341.7a22.694,22.694,0,0,0-6.338,6.813c-3.711,6.187-8.6,8.67-14.043,13.161-2.367,1.952-6.389,3.637-8.307,6.023l4.819,7.247,75.228-44.657a8.369,8.369,0,0,0,2.6-2.286,5.83,5.83,0,0,0,.7-1.289,6.028,6.028,0,0,0,.371-2.77A8.066,8.066,0,0,0,273.363,322.5Z" transform="translate(-184.34 -308.555)" fill="#fc3"/></g><path d="M191.764,335.215l12.2,20.557A3.084,3.084,0,0,1,202.892,360l-.055.031a3.082,3.082,0,0,1-4.223-1.077l-12.2-20.557a3.084,3.084,0,0,1,1.077-4.225l.055-.031A3.082,3.082,0,0,1,191.764,335.215Z" transform="translate(-185.978 -287.943)" fill="#fff"/><path d="M214.943,327.129a2.127,2.127,0,1,1-.743,2.915A2.127,2.127,0,0,1,214.943,327.129Z" transform="translate(-155.297 -295.496)" fill="#ffe081"/><path d="M195.533,338.525a2.126,2.126,0,1,1-.743,2.913A2.125,2.125,0,0,1,195.533,338.525Z" transform="translate(-176.624 -282.975)" fill="#ffe081"/><circle cx="3.417" cy="3.417" r="3.417" transform="translate(48.108 32.523) rotate(-75.742)" fill="#ffe081"/><path d="M200,334.645a3.417,3.417,0,1,1-1.194,4.682A3.417,3.417,0,0,1,200,334.645Z" transform="translate(-172.407 -287.438)" fill="#ffe081"/><path d="M218.449,322.875a3.039,3.039,0,1,1-1.062,4.164A3.038,3.038,0,0,1,218.449,322.875Z" transform="translate(-151.935 -300.311)" fill="#ffe081"/><path d="M207.017,330.759a3.039,3.039,0,1,1-1.062,4.164A3.038,3.038,0,0,1,207.017,330.759Z" transform="translate(-164.496 -291.649)" fill="#ffe081"/><path d="M226.5,317.765a3.266,3.266,0,1,1-1.142,4.475A3.266,3.266,0,0,1,226.5,317.765Z" transform="translate(-143.206 -305.96)" fill="#ffe081"/><path d="M214.656,322.335a2.2,2.2,0,1,1-.77,3.018A2.2,2.2,0,0,1,214.656,322.335Z" transform="translate(-155.654 -300.777)" fill="#ffe081"/><path d="M202.739,330.937a2.2,2.2,0,1,1-.77,3.018A2.2,2.2,0,0,1,202.739,330.937Z" transform="translate(-168.746 -291.325)" fill="#ffe081"/><path d="M223.852,321.949a1.8,1.8,0,1,1-.628,2.464A1.8,1.8,0,0,1,223.852,321.949Z" transform="translate(-145.331 -301.137)" fill="#ffe081"/><path d="M203.958,334.134a1.1,1.1,0,1,1-.384,1.5A1.1,1.1,0,0,1,203.958,334.134Z" transform="translate(-166.812 -287.642)" fill="#ffe081"/><path d="M210.647,329.932a1.1,1.1,0,1,1-.384,1.5A1.1,1.1,0,0,1,210.647,329.932Z" transform="translate(-159.465 -292.259)" fill="#ffe081"/><path d="M218.205,320.775a1.1,1.1,0,1,1-.384,1.5A1.1,1.1,0,0,1,218.205,320.775Z" transform="translate(-151.158 -302.321)" fill="#ffe081"/><path d="M221.116,319.02a1.8,1.8,0,1,1-.628,2.462A1.8,1.8,0,0,1,221.116,319.02Z" transform="translate(-148.336 -304.357)" fill="#ffe081"/><path d="M206.692,327.616a1.8,1.8,0,1,1-.628,2.462A1.8,1.8,0,0,1,206.692,327.616Z" transform="translate(-164.186 -294.911)" fill="#ffe081"/></g><g transform="translate(249.049 324.365)"><path d="M222.929,388.924s.264,5.2-.491,5.973-11.054,1.9-12.018,1.02-.567-2.512,1.6-3.3c2.323-.848,3.538-.292,4.978-1.03s.861-3.052.861-3.052Z" transform="translate(-176.057 -243.163)" fill="#110239"/><path d="M226.868,388.924s-.267,5.2.489,5.973,11.054,1.9,12.018,1.02.567-2.512-1.6-3.3c-2.325-.848-3.541-.292-4.978-1.03s-.863-3.052-.863-3.052Z" transform="translate(-157.493 -243.163)" fill="#110239"/><path d="M243.12,393.626C242,387.962,240.1,372.5,237.867,367.14c-.9-.3-1.883-.6-2.879-.894.26-1.207.437-8.456.63-9.365-1.75.464-3.61.688-5.492,1.284-.256.082-.542.168-.84.256-.3-.088-.583-.174-.837-.256-1.883-.6-3.742-.821-5.492-1.284.193.909.367,8.158.63,9.365-1,.29-1.981.59-2.882.894-2.235,5.36-2.059,20.822-3.182,26.486-1.555,7.839-4.153,31.072-4.153,31.072l6.624.873s7.3-30.995,7.606-32.944c1.127-7.216,1.65-17.457,2.034-17.55.93-.222,2.2,11.434,3.413,17.55.384,1.935,7.606,32.944,7.606,32.944l6.624-.873S244.675,401.465,243.12,393.626Z" transform="translate(-172.276 -277.942)" fill="#f34f95"/><path d="M233.527,332.149c-.39-2.689-.791-3.106-1.7-3.633a3.513,3.513,0,0,1-1.135-.854,7.46,7.46,0,0,0-1.209-1.1,2.907,2.907,0,0,1-1.079-1.2c-.21-.644.636-.468,1.184-.269.594.216,1.711,1.853,2.342,1.627s-.852-2.134-1.152-2.51c-.709-.886-1.553-.766-2.5-1.175-.55-.237-.73-.514-.134-.871a1.8,1.8,0,0,1,1.459.1,6.147,6.147,0,0,1,2.546,1.582,7.159,7.159,0,0,0-2.22-1.721c-.476-.243-2.693-.923-2.376-1.708.636-1.574,4.945,1.394,5.415,2.227a8.372,8.372,0,0,0-2.124-1.874c-.455-.325-1.568-1.049-.634-1.423,1.377-.554,3.043,2,3.992,3.01a9.9,9.9,0,0,0-1.606-2.162c-.76-.923.185-1.161,1.125-.348a12.982,12.982,0,0,1,1.211,1.331c1.5,1.9,1.561,3.165,1.826,5.476.1.831.118,2.183.39,4.6C237.311,332.642,234.692,331.927,233.527,332.149Z" transform="translate(-156.719 -319.269)" fill="#ff9d8a"/><path d="M206.123,347.97c-2.546-.957-2.861-1.977-3.182-2.974a3.514,3.514,0,0,0-.592-1.293,7.441,7.441,0,0,1-.819-1.417,2.923,2.923,0,0,0-.944-1.312c-.583-.342-.592.523-.514,1.1.084.628,1.444,2.067,1.087,2.636s-1.9-1.289-2.2-1.662c-.714-.884-.418-1.681-.615-2.691-.115-.59-.348-.825-.823-.317-.355.376-.26.976-.21,1.446a6.166,6.166,0,0,0,1,2.825,7.16,7.16,0,0,1-1.2-2.535c-.136-.518-.327-2.829-1.161-2.686-1.675.283.3,5.127,1.016,5.765a8.459,8.459,0,0,1-1.377-2.474c-.22-.516-.688-1.757-1.255-.926-.835,1.228,1.305,3.4,2.088,4.544a9.876,9.876,0,0,1-1.769-2.03c-.741-.94-1.173-.069-.581,1.022a13.539,13.539,0,0,0,1.041,1.469c1.53,1.872,2.758,2.2,4.959,2.953a21.309,21.309,0,0,1,4.235,1.6C205.561,351.626,205.655,349.057,206.123,347.97Z" transform="translate(-193.789 -297.497)" fill="#ff9d8a"/><path d="M226.21,340.977a15.912,15.912,0,0,1-4.34.21,6.341,6.341,0,0,1-1.52-.325c.063,1.807.063,5.994-1.209,7.713,0,0,.453,2.021,4.141,2.076s4.145-2.076,4.145-2.076A18.764,18.764,0,0,1,226.21,340.977Z" transform="translate(-165.933 -295.543)" fill="#ff9d8a"/><path d="M245.108,348.028c-1.005-1.282-3.039-5.658-6.275-5.184-5.736.839-12.129.751-17.369,1.58-3.23.512-6.443,1.331-7.449,2.615-1.259,1.608,2.51,10.628,3.138,18.9.212,2.823.5,5.383.758,7.417.374,2.911-1.935,35.091-1.935,35.091,5.274,2.275,22.954,3.96,27.32-.7,0,0-4.227-31.618-3.879-34.648.235-2.063.344-7.415.8-10.009C241.677,354.758,246.382,349.654,245.108,348.028Z" transform="translate(-171.846 -293.405)" fill="#fff"/><path d="M219.66,377.249c-.321-3.788.359-14.234.5-17.206.1-2.227.842-6.217.021-8.259-1.175-2.919-3.824-4.013-6.273-5.343.5,2.537,1.534,6.151,2.29,10,.061.3.12.6.176.909.046.252.086.506.128.76q.107.633.2,1.268c.031.216.061.43.088.646.082.642.155,1.284.2,1.922.212,2.823.5,5.381.758,7.417.374,2.911-1.935,35.091-1.935,35.091a23.4,23.4,0,0,0,4.422,1.238C219.784,399.036,219.788,378.743,219.66,377.249Z" transform="translate(-171.684 -289.413)" fill="#d0d1de"/><path d="M232.859,338s-7.646-4.5-8.806-3.392-2.972,4.867-3.851,5.44-2.252,1.119-2.13,1.794.567.722.531,1.4-1.585,3.941-.739,4.9,6.4,3.083,9.74.865S236.624,340.01,232.859,338Z" transform="translate(-167.614 -302.61)" fill="#ff9d8a"/><path d="M231.123,336.933l-6.439.1a13.135,13.135,0,0,1-3.96,5.23s.153.949.842.756a2.144,2.144,0,0,0,1.576-1c.462-.722,1.851-2.6,2.8-.951s-1.075,2.212-1.922,2.2c0,0-2.932,3.555-.653,4.223,0,0,2.546-.378,6.42-4.491S232.861,336.612,231.123,336.933Z" transform="translate(-164.194 -299.894)" fill="#110239"/><path d="M220.532,333.331s-3.129,1.9.5,5.707,12.156,1.8,12.156,1.8.907-2.483-2.176-5.085c-2.3-1.946-4.833-2.938-6.863-2C220.691,335.335,220.532,333.331,220.532,333.331Z" transform="translate(-165.784 -303.818)" fill="#110239"/><path d="M200.7,342.736l-2.737,4.359A123.892,123.892,0,0,0,213.1,359.228c4.714,3.125,20.86-1.874,23.353-2.623,3.564-1.068,6.244-8.609.3-11.413-3.482-1.641-17.455,8.976-20.876,7.178C211.586,350.113,200.7,342.736,200.7,342.736Z" transform="translate(-189.205 -293.484)" fill="#fff"/><path d="M235.746,325.344l5.436-.909s2.743,18.467,2.529,24.119-10.45,22.788-12.5,24.4c-2.464,1.929-10.1-2.581-5.142-8.592A100.194,100.194,0,0,0,236.409,347.8C236.541,347.293,235.746,325.344,235.746,325.344Z" transform="translate(-160.121 -313.593)" fill="#fff"/></g><path d="M278.714,385.6c-.705.2-3.012-.989-4.328-2.082a17.978,17.978,0,0,0-3.8-1.929,14.94,14.94,0,0,0,.565-2.309c-.006.036,2.17.646,2.393.745.722.325,1.234.978,2.12.85a6.28,6.28,0,0,0,1.234-.443c.481-.191,1.713-1.163,2.235-.888.783.416-.665,1.2-.846,1.45-.269.367-.264,1.093.357,1.005.854-.124,2.386-.947,3.23-.428,1.062.648-2.548,1.242-3.186,1.551,1-.374,4.225-.959,4.414-.386.365,1.1-3,1.27-3.96,1.614a4.5,4.5,0,0,1,2.665-.248C282.931,384.641,279.42,385.393,278.714,385.6Z" transform="translate(139.644 74.032)" fill="#ff9d8a"/><path d="M258.718,358.245c.092.1.174.2.271.3A18.682,18.682,0,0,0,261.816,361c.63.418,1.608.69,2.149,1.129a6.4,6.4,0,0,0,.678.479,52.323,52.323,0,0,0-.974,8.215s-5.642-.4-7.7-2.678C255.971,368.149,258.311,361.863,258.718,358.245Z" transform="translate(123.583 50.921)" fill="#ff9d8a"/><path d="M264.345,364.363c.115-.7.22-1.314.3-1.75a6.4,6.4,0,0,1-.678-.479c-.542-.439-1.52-.711-2.149-1.129a18.8,18.8,0,0,1-2.829-2.464c-.094-.094-.176-.2-.269-.3-.407,3.618-2.747,9.9-2.747,9.9a7.412,7.412,0,0,0,3.188,1.8A6.509,6.509,0,0,1,264.345,364.363Z" transform="translate(123.583 50.921)" fill="#e17c5e"/><path d="M258.769,406.67s.155,5.627,1.035,6.395,12.074,1.1,13.035.078.4-2.756-2-3.421c-2.575-.716-3.839-.015-5.451-.686s-1.188-3.215-1.188-3.215Z" transform="translate(126.658 103.195)" fill="#110239"/><path d="M245.746,406.386s-.863,5.48-.013,6.282,12.25,1.7,13.254.709.5-2.737-1.872-3.5c-2.546-.812-3.778-.3-5.421-.9-1.293-.47-.422-3.079-.422-3.079Z" transform="translate(111.923 103.288)" fill="#110239"/><g transform="translate(357.177 444.022)"><path d="M254.076,407.483a167.687,167.687,0,0,1,2.336-31.284A14.267,14.267,0,0,1,262,377.28c3.415,1.555,6.853,3.045,10.284,4.542-2.787,5.767-8.888,24.589-9.623,28.529-.915,4.9-11.157,29.893-11.157,29.893l-6.2-.779C245.41,435.435,254.1,408.835,254.076,407.483Z" transform="translate(-245.309 -373.374)" fill="#110239"/><path d="M261.289,379.035a57.434,57.434,0,0,0,5.53,2.248c-2.735,5.656-7.723,21.307-8.85,25.466-.869-2.626-5.073-8.968-6.685-15.911a37.038,37.038,0,0,1-.523-14.156l.008-.057A26.593,26.593,0,0,1,261.289,379.035Z" transform="translate(-239.81 -372.905)" fill="#0d1124"/><path d="M256.39,380.131c2.414.814,6.808,1.983,10.126,3.169,2.311,5.841,9.138,19.626,9.493,25.857.393,6.878-1.99,32.93-1.99,32.93h-7.092s-.657-29.366-1.65-31.253c-3.276-6.223-6.894-11.153-8.951-15.025A48.214,48.214,0,0,1,251.1,382.1c-.269-1.341-1.442-5.841.837-7.249C253.819,375.388,254.367,379.449,256.39,380.131Z" transform="translate(-239.541 -374.853)" fill="#110239"/></g><g transform="translate(364.565 418.075)"><path d="M276.95,413.005a33.549,33.549,0,0,1-16.509,4.145c-4.363-.021-9.073-.753-11.612-2.124,0,0,1.394-18.119,1.71-20.285.921-6.317,3.022-19.328,5.356-24.3,3.133-6.674,8.278-7.952,8.278-7.952s4.055,2.355,7.369,2.3c0,0-.082,13.008-.334,18.2-.164,3.362-.2,8.783-.21,12.192C270.994,397.042,276.95,413.005,276.95,413.005Z" transform="translate(-248.829 -362.49)" fill="#fff"/><path d="M254.391,390.807c.783-10.259,3.287-19.844,8.928-28.172a14.827,14.827,0,0,0-7.423,7.648c-2.334,4.972-4.435,17.982-5.356,24.3-.317,2.166-1.71,20.285-1.71,20.285,2,1.079,5.346,1.757,8.806,2.009C254.288,408.81,253.8,398.515,254.391,390.807Z" transform="translate(-248.829 -362.331)" fill="#d0d1de"/><path d="M258.663,382.7a12.66,12.66,0,0,0,4.54,8.515l.052.044a5.408,5.408,0,0,1-.18-.986c.006-3.408.046-8.83.21-12.192.021-.46.042-.995.063-1.564,0-.111.006-.223.01-.336.019-.571.038-1.175.052-1.818l.006-.233c.015-.611.029-1.245.042-1.893l.008-.323c.013-.722.027-1.455.038-2.187l0-.034a4.245,4.245,0,0,1-.8-.055,18.839,18.839,0,0,1-5.767-2.68l-.9.479c-.042,2.586,1.01,5.511,1.492,7.488A71.434,71.434,0,0,1,258.663,382.7Z" transform="translate(-240.905 -357.579)" fill="#d0d1de"/></g><path d="M288.425,398.156l2.491-4.932s-12.353-7.908-16.87-12.462-9.4-13.827-12.84-14.408-6.911,1.314-4.915,6.107,12.1,11.144,14.152,13.254S286.406,397.023,288.425,398.156Z" transform="translate(123.291 59.718)" fill="#fff"/><path d="M257.74,353.842s9.115-1.043,9.747.489.768,5.849,1.358,6.76,1.658,2,1.259,2.59-.837.443-1.089,1.1-.155,4.391-1.36,4.947-7.344.229-9.568-3.27S253.337,354.165,257.74,353.842Z" transform="translate(122.868 45.702)" fill="#ff9d8a"/><path d="M256.5,354.212l6.044,2.8a13.582,13.582,0,0,0,1.551,6.607s-.544.831-1.114.359a2.209,2.209,0,0,1-1.07-1.6c-.134-.877-.661-3.234-2.244-2.071s.088,2.542.894,2.884c0,0,1.282,4.59-1.154,4.263,0,0-2.248-1.425-4.185-6.936S255,353.18,256.5,354.212Z" transform="translate(121.816 46.187)" fill="#110239"/><path d="M270.284,354.492s2.162,3.108-2.861,5.188-12.248-3.4-12.248-3.4.185-2.726,4.191-3.893c2.995-.873,5.8-.749,7.329.984C269.293,356.32,270.284,354.492,270.284,354.492Z" transform="translate(122.709 43.904)" fill="#110239"/></g></svg>