<svg xmlns="http://www.w3.org/2000/svg" width="111.625" height="111.625" viewBox="0 0 111.625 111.625"><path d="M360.407,200H331.6a3.611,3.611,0,0,0-3.6,3.6v46.811a3.611,3.611,0,0,0,3.6,3.6h28.806a3.611,3.611,0,0,0,3.6-3.6V203.6A3.611,3.611,0,0,0,360.407,200Zm0,0" transform="translate(-254.183 -154.99)" fill="#fcd770"/><path d="M24,40V83.012l11.649,11H92.415v-14.4a3.611,3.611,0,0,1,3.6-3.6h10.8V40Zm0,0" transform="translate(-18.599 -30.998)" fill="#e6e9ed"/><path d="M360,232h21.6v10.8H360Zm0,0" transform="translate(-278.982 -179.788)" fill="#69d6f4"/><path d="M291.21,104v7.2H248V104Zm0,0" transform="translate(-192.187 -80.595)" fill="#b4dd7f"/><path d="M291.21,72v7.2H248V72Zm0,0" transform="translate(-192.187 -55.796)" fill="#ff826e"/><path d="M210.8,79.2v7.2L200,79.2,210.8,72Zm0,0" transform="translate(-154.99 -55.796)" fill="#f5e0cd"/><path d="M450.8,77.4V81a5.394,5.394,0,0,1-5.4,5.4H440V72h5.4A5.394,5.394,0,0,1,450.8,77.4Zm0,0" transform="translate(-340.978 -55.796)" fill="#ffeaa7"/><path d="M8,270.012V216l3.6,3.4,11.649,11,49.565,46.811H8Zm10.8-28.951v25.35H45.646Zm0,0" transform="translate(-6.199 -167.389)" fill="#ffeaa7"/><path d="M98.02,9.8v3.6a1.806,1.806,0,0,1-1.8,1.8H9.8A1.806,1.806,0,0,1,8,13.4V9.8A1.806,1.806,0,0,1,9.8,8H96.22A1.806,1.806,0,0,1,98.02,9.8Zm0,0" transform="translate(-6.2 -6.2)" fill="#838f9b"/><path d="M104.424,32.407a7.209,7.209,0,0,0,7.2-7.2V21.6a7.209,7.209,0,0,0-7.2-7.2H90.02V10.8a3.6,3.6,0,0,0,3.6-3.6V3.6A3.6,3.6,0,0,0,90.02,0H3.6A3.6,3.6,0,0,0,0,3.6V7.2a3.6,3.6,0,0,0,3.6,3.6V47.835L0,44.434v67.191H71.143L21.579,64.815H72.016V95.422a5.408,5.408,0,0,0,5.4,5.4h28.806a5.408,5.408,0,0,0,5.4-5.4V48.611a5.408,5.408,0,0,0-5.4-5.4H90.02v-10.8Zm-7.2-10.8H57.613V18H97.222Zm-43.21,5.639-5.755-3.838,5.755-3.838Zm3.6-2.038H97.222v3.6H57.613Zm50.411-3.6v3.6a3.6,3.6,0,0,1-3.6,3.6h-3.6V18h3.6A3.6,3.6,0,0,1,108.024,21.6ZM3.6,3.6H90.02l0,3.6H3.6Zm0,104.424v-3.6H7.2v-3.6H3.6v-3.6H7.2v-3.6H3.6v-3.6H7.2v-3.6H3.6v-3.6H7.2v-3.6H3.6v-3.6H7.2v-3.6H3.6v-3.6H7.2v-3.6H3.6V52.788l58.486,55.237ZM108.024,48.611V95.422a1.8,1.8,0,0,1-1.8,1.8H77.417a1.8,1.8,0,0,1-1.8-1.8V48.611a1.8,1.8,0,0,1,1.8-1.8h28.806A1.8,1.8,0,0,1,108.024,48.611Zm-21.6-5.4H55.813v3.6H72.348a5.326,5.326,0,0,0-.331,1.8v1.8h-16.2v3.6h16.2v7.2H17.767L7.2,51.236V10.8H86.419v3.6H55.267l-13.5,9,13.5,9H86.419Zm0,0"/><path d="M75.006,96H62.628l-3.254,24.39L54.265,114H48v3.6h4.537l9.294,11.618L65.779,99.6h9.227Zm0,0" transform="translate(-37.198 -74.395)"/><path d="M156.348,138.344l-7.729,7.729-7.729-7.729-2.546,2.546,7.729,7.729-7.729,7.729,2.546,2.546,7.729-7.729,7.729,7.729,2.546-2.546-7.729-7.729,7.729-7.729Zm0,0" transform="translate(-107.21 -107.21)"/><path d="M248,160h27.006v3.6H248Zm0,0" transform="translate(-192.187 -123.992)"/><path d="M48,308.8v31.327H81.169Zm3.6,8.354,20.512,19.372H51.6Zm0,0" transform="translate(-37.198 -239.305)"/><path d="M377.206,224H352v14.4h25.206Zm-3.6,10.8h-18v-7.2h18Zm0,0" transform="translate(-272.782 -173.589)"/><path d="M416,320h10.8v3.6H416Zm0,0" transform="translate(-322.379 -247.984)"/><path d="M352,368h10.8v3.6H352Zm0,0" transform="translate(-272.782 -285.181)"/><path d="M352,400h10.8v3.6H352Zm0,0" transform="translate(-272.782 -309.98)"/><path d="M355.6,314.8h3.6v-3.6h3.6v-3.6h-3.6V304h-3.6v3.6H352v3.6h3.6Zm0,0" transform="translate(-272.782 -235.585)"/><path d="M425.546,370.344l-2.328,2.328-2.328-2.328-2.546,2.546,2.328,2.328-2.328,2.328,2.546,2.546,2.328-2.328,2.328,2.328,2.546-2.546-2.328-2.328,2.328-2.328Zm0,0" transform="translate(-324.195 -286.998)"/></svg>