<svg xmlns="http://www.w3.org/2000/svg" width="124.795" height="124.791" viewBox="0 0 124.795 124.791"><g transform="translate(-1 -1.003)"><path d="M2,18H122.769V98.513H2Z" transform="translate(1.013 17.215)" fill="#4d8c28"/><path d="M58.333,28.077A12.077,12.077,0,0,0,46.256,16H6V84.436H38.9a27.491,27.491,0,0,1,19.437,8.051Z" transform="translate(5.064 15.19)" fill="#f2f2f2"/><path d="M21.064,51.064A10.064,10.064,0,0,0,11,41V51.064Z" transform="translate(10.128 40.51)" fill="#6bc13b"/><path d="M8,50v8.051H56.308A27.491,27.491,0,0,0,36.87,50Z" transform="translate(7.09 49.626)" fill="#ddd"/><path d="M80.308,50v8.051H32A27.491,27.491,0,0,1,51.438,50Z" transform="translate(31.397 49.626)" fill="#b5b5b5"/><path d="M32,28.077A12.077,12.077,0,0,1,44.077,16H84.333V84.436h-32.9A27.491,27.491,0,0,0,32,92.487Z" transform="translate(31.397 15.19)" fill="#ddd"/><path d="M58.077,50V74.154l-6.038-6.038L46,74.154V50" transform="translate(45.577 49.626)" fill="#f4a93c"/><path d="M46,50V74.154l6.038-6.038V50Z" transform="translate(45.577 49.626)" fill="#f6b940"/><path d="M37,40H49.079v4.026H37Z" transform="translate(36.462 39.498)" fill="#f2f2f2"/><path d="M37,44H49.079v4.026H37Z" transform="translate(36.462 43.549)" fill="#f2f2f2"/><path d="M22.383,22.293l-5.622,5.62-5.62-5.62L8.293,25.141l5.622,5.62L8.293,36.383l2.848,2.848,5.62-5.622,5.622,5.622,2.848-2.848-5.622-5.622,5.622-5.62Z" transform="translate(7.387 21.564)" fill="#ddd"/><path d="M25.05,24H21.025v4.026H17v4.026h4.026v4.026h4.028l0-4.026H29.08V28.026H25.052Z" transform="translate(16.206 23.292)" fill="#ddd"/><path d="M37.5,24.815,34.278,22.4,29.85,28.3l-4.426-5.9L22.2,24.815l5.636,7.514V39.71h4.028V32.329Z" transform="translate(21.473 21.672)" fill="#ddd"/><path d="M60.09,55.1H48.013a2.013,2.013,0,0,1-1.546-3.3l7.313-8.776H46V39H58.077a2.013,2.013,0,0,1,1.546,3.3l-7.311,8.774H60.09Z" transform="translate(45.577 38.485)" fill="#f2f2f2"/><path d="M38.18,62.193H12.013A2.013,2.013,0,0,1,10,60.18V34.014a2.013,2.013,0,0,1,3.438-1.423L39.6,58.757a2.013,2.013,0,0,1-1.425,3.436ZM14.026,58.168H33.321L14.026,38.875Z" transform="translate(9.115 31.394)" fill="#fad85d"/><path d="M0,0H16.1V64.41H0Z" transform="translate(103.622 2.989) rotate(31.671)" fill="#f6b940"/><g transform="translate(75.055 11.568)"><path d="M0,0H4.024V6.038H0Z" transform="translate(21.139 3.424) rotate(-58.329)" fill="#fad85d"/><path d="M0,0H4.024V6.038H0Z" transform="translate(16.912 10.274) rotate(-58.329)" fill="#fad85d"/><path d="M0,0H4.024V6.04H0Z" transform="translate(12.695 17.135) rotate(-58.329)" fill="#fad85d"/><path d="M0,0H4.024V6.038H0Z" transform="translate(8.456 23.975) rotate(-58.329)" fill="#fad85d"/><path d="M0,0H4.024V6.038H0Z" transform="translate(4.23 30.822) rotate(-58.329)" fill="#fad85d"/><path d="M0,0H4.024V6.038H0Z" transform="translate(0 37.674) rotate(-58.329)" fill="#fad85d"/></g><path d="M123.782,33.2h-6.038V31.19a2.013,2.013,0,0,0-2.013-2.013h-6.976l10.279-16.65a2.013,2.013,0,0,0-.658-2.77L104.674,1.3a1.993,1.993,0,0,0-1.52-.246,2.013,2.013,0,0,0-1.25.9L85.1,29.177H75.474A14.1,14.1,0,0,0,63.4,36.021a14.09,14.09,0,0,0-12.077-6.844H11.064A2.013,2.013,0,0,0,9.051,31.19V33.2H3.013A2.013,2.013,0,0,0,1,35.215v80.513a2.013,2.013,0,0,0,2.013,2.013H89.564v6.038A2.013,2.013,0,0,0,93,125.2l4.613-4.613,4.615,4.615a2.013,2.013,0,0,0,3.436-1.425v-6.038h18.115a2.013,2.013,0,0,0,2.013-2.013V35.215A2.013,2.013,0,0,0,123.782,33.2Zm-18.115,68.436h4.026v4.026h-4.026ZM104.274,5.78l10.265,6.344L82.833,63.51,72.568,57.165l4.227-6.844,3.422,2.115,2.111-3.422L78.9,46.89l2.115-3.422,3.422,2.115,2.113-3.422-3.424-2.115,2.115-3.422,3.422,2.113,2.111-3.422L87.35,33.2l2.115-3.422,3.422,2.113L95,28.473l-3.422-2.115,2.115-3.422,3.422,2.115,2.113-3.422-3.422-2.115,2.113-3.422,3.422,2.115,2.113-3.422-3.422-2.113ZM75.474,33.2h7.137L68.073,56.765a2.013,2.013,0,0,0,.656,2.77l13.7,8.454a2.013,2.013,0,0,0,2.77-.656L106.271,33.2h7.447v64.41H82.837a29.272,29.272,0,0,0-17.427,5.692V43.267A10.076,10.076,0,0,1,75.474,33.2ZM17.1,101.639H43.962a25.287,25.287,0,0,1,13.727,4.026H17.1Zm72.462,0v4.026H69.11a25.287,25.287,0,0,1,13.727-4.026ZM13.077,33.2H51.321A10.076,10.076,0,0,1,61.385,43.267v60.04a29.266,29.266,0,0,0-17.423-5.694H13.077ZM5.026,113.715V37.228H9.051v62.4a2.013,2.013,0,0,0,2.013,2.013h2.013v6.038a2.013,2.013,0,0,0,2.013,2.013H89.564v4.026Zm94.015,2.6a2.013,2.013,0,0,0-2.848,0l-2.6,2.6V101.639h8.051v17.28Zm22.729-2.6h-16.1V109.69h6.038a2.013,2.013,0,0,0,2.013-2.013v-6.038h2.013a2.013,2.013,0,0,0,2.013-2.013v-62.4h4.026Z" transform="translate(0)"/><path d="M22.383,39.231l2.848-2.848-5.622-5.622,5.622-5.62-2.848-2.848-5.622,5.62-5.62-5.62L8.293,25.141l5.622,5.62L8.293,36.383l2.848,2.848,5.62-5.622Z" transform="translate(7.387 21.564)"/><path d="M37,40H49.079v4.026H37Z" transform="translate(36.462 39.498)"/><path d="M37,44H49.079v4.026H37Z" transform="translate(36.462 43.549)"/><path d="M21.027,36.077h4.028l0-4.026H29.08V28.026H25.052l0-4.026H21.025v4.026H17v4.026h4.026Z" transform="translate(16.206 23.292)"/><path d="M27.837,39.71h4.028V32.329L37.5,24.815,34.278,22.4,29.85,28.3l-4.426-5.9L22.2,24.815l5.636,7.514Z" transform="translate(21.473 21.672)"/><path d="M46.467,51.8a2.013,2.013,0,0,0,1.546,3.3H60.09V51.077H52.312L59.625,42.3A2.013,2.013,0,0,0,58.077,39H46v4.026h7.78Z" transform="translate(45.577 38.485)"/><path d="M40.041,60.951a2.013,2.013,0,0,0-.437-2.194L13.438,32.591A2.013,2.013,0,0,0,10,34.014V60.18a2.013,2.013,0,0,0,2.013,2.013H38.18A2.013,2.013,0,0,0,40.041,60.951ZM14.026,52.415a8.051,8.051,0,0,1,5.755,5.753H14.026Zm9.885,5.753a12.1,12.1,0,0,0-9.885-9.883v-9.41L33.321,58.168Z" transform="translate(9.115 31.394)"/></g></svg>