<svg xmlns="http://www.w3.org/2000/svg" width="118.252" height="90.374" viewBox="0 0 118.252 90.374"><g transform="translate(-4.875 -18.814)"><path d="M27.754,4.372H100.37v105H27.754Z" transform="translate(6.637 120.44) rotate(-89.484)" fill="#ffa75f"/><path d="M30.912,14.057H97.156v92H30.912Z" transform="translate(3.425 123.57) rotate(-89.484)" fill="#4d5e80"/><path d="M32.07,75.694h9v25.5h-9Z" transform="translate(-52.187 124.247) rotate(-89.484)" fill="#0094ce"/><path d="M28.695,79.04h9V97.79h-9Z" transform="translate(-55.504 120.843) rotate(-89.484)" fill="#fb3d80"/><path d="M59.713,39.8h8v114.75h-8Z" transform="translate(-34.013 160.049) rotate(-89.484)" fill="#ffbe82"/><path d="M101.346,58.61,51.774,107.332l49.147.425ZM91.714,98.39l-17.885-.155,18.04-17.73Z" fill="#fb3d80"/><path d="M118.25,20.564a1.75,1.75,0,0,0-1.75-1.75H11.5a1.751,1.751,0,0,0-1.75,1.75V91.43H6.625a1.75,1.75,0,0,0-1.75,1.75v8a1.751,1.751,0,0,0,1.75,1.75H39.511a1.75,1.75,0,1,0,0-3.5H8.375v-4.5h53.8L50.912,106.2a1.75,1.75,0,0,0,1.237,2.988H101.3a1.75,1.75,0,0,0,1.75-1.75V102.93h18.327a1.75,1.75,0,0,0,1.75-1.75v-8a1.749,1.749,0,0,0-1.75-1.75H111.75V26.936a1.749,1.749,0,0,0-1.75-1.75H46.127a1.75,1.75,0,0,0,0,3.5H108.25V91.43h-5.2V58.287a1.749,1.749,0,0,0-2.987-1.237l-9.082,9.081a1.75,1.75,0,1,0,2.475,2.474l6.094-6.093v6.6H97.707a1.75,1.75,0,0,0,0,3.5h1.841v2.564H97.707a1.75,1.75,0,0,0,0,3.5h1.841V81.24H97.707a1.75,1.75,0,0,0,0,3.5h1.841V87.3H97.707a1.75,1.75,0,0,0,0,3.5h1.841v2.563H97.707a1.75,1.75,0,0,0,0,3.5h1.841V99.43H97.707a1.75,1.75,0,0,0,0,3.5h1.841v2.756H56.374L81.8,80.264a1.75,1.75,0,1,0-2.475-2.475L65.68,91.43H51.28V84.18a1.75,1.75,0,0,0-1.75-1.75H24.03a1.749,1.749,0,0,0-1.75,1.75v3.777a1.75,1.75,0,1,0,3.5,0V85.93H41.03v5.5H19.75V28.686H32.617a1.75,1.75,0,0,0,0-3.5H18a1.75,1.75,0,0,0-1.75,1.75V91.43h-3V22.314h101.5V77.979a1.75,1.75,0,1,0,3.5,0ZM103.05,94.93h16.577v4.5H103.048Zm-58.516-9h3.25v5.5h-3.25Z" fill="#292a2d"/><path d="M116.5,82.24a1.749,1.749,0,0,0-1.75,1.75v.84a1.75,1.75,0,1,0,3.5,0v-.84a1.749,1.749,0,0,0-1.75-1.75Z" fill="#292a2d"/><path d="M48.755,99.43H47.3a1.75,1.75,0,0,0,0,3.5h1.457a1.75,1.75,0,1,0,0-3.5Z" fill="#292a2d"/><path d="M81.3,53.109a1.751,1.751,0,0,0-2.475,0l-3.143,3.143L72.54,53.109a1.75,1.75,0,1,0-2.475,2.475l3.143,3.143L70.065,61.87a1.75,1.75,0,0,0,2.475,2.475L75.683,61.2l3.143,3.143A1.75,1.75,0,1,0,81.3,61.87l-3.143-3.143L81.3,55.584A1.751,1.751,0,0,0,81.3,53.109Z" fill="#292a2d"/><path d="M87.8,74.264l.511-.511a1.75,1.75,0,0,0-2.475-2.475l-.511.511A1.75,1.75,0,1,0,87.8,74.264Z" fill="#292a2d"/><path d="M72.508,98.818a1.75,1.75,0,0,0,1.617,1.08H92.011a1.749,1.749,0,0,0,1.75-1.75V80.263a1.75,1.75,0,0,0-2.988-1.238L72.888,96.911A1.749,1.749,0,0,0,72.508,98.818ZM90.261,84.487V91.43h-3.7a1.75,1.75,0,0,0,0,3.5h3.7V96.4H78.35Z" fill="#292a2d"/><path d="M38.191,28.686h.591a1.75,1.75,0,1,0,0-3.5h-.591a1.75,1.75,0,0,0,0,3.5Z" fill="#292a2d"/><path d="M76.832,43.764H45.522a1.751,1.751,0,0,0-1.612,1.068L36.827,61.571l-3.19-7.538a1.75,1.75,0,0,0-1.612-1.068H29.438a1.75,1.75,0,0,0,0,3.5h1.428l4.349,10.279a1.75,1.75,0,0,0,3.224,0l8.243-19.48h30.15a1.75,1.75,0,1,0,0-3.5Z" fill="#292a2d"/><path d="M58.753,53.109a1.751,1.751,0,0,0-2.475,0l-3.143,3.143-3.143-3.143a1.75,1.75,0,1,0-2.474,2.475l3.143,3.143L47.518,61.87a1.75,1.75,0,1,0,2.474,2.475L53.135,61.2l3.143,3.143a1.75,1.75,0,0,0,2.475-2.475L55.61,58.727l3.143-3.143a1.749,1.749,0,0,0,0-2.475Z" fill="#292a2d"/><path d="M62.058,56.977a1.75,1.75,0,0,0,0,3.5h4.7a1.75,1.75,0,1,0,0-3.5Z" fill="#292a2d"/></g></svg>