<svg xmlns="http://www.w3.org/2000/svg" width="105" height="105" viewBox="0 0 105 105"><g transform="translate(-275 -2261.162)"><g transform="translate(-17 95.162)"><circle cx="52.5" cy="52.5" r="52.5" transform="translate(292 2166)" fill="#adc46c"/></g><g transform="translate(296 2281.809)"><path d="M47,44V42.526A5.977,5.977,0,0,0,43,41H41s-1,6-3,9l-6-4-6,4c-2-3-3-9-3-9H20a5,5,0,0,0-5,5v8L13,41H4L7,61H43a2,2,0,0,1-1.846-2.769Z" fill="#fff"/><path d="M9,26h6V39H9Z" fill="#71caf0"/><path d="M44.5,25a2.5,2.5,0,0,0,0-5H43v5Z" fill="#fce0b9"/><path d="M19.5,20a2.5,2.5,0,0,0,0,5H21V20Z" fill="#fce0b9"/><path d="M41.1,12.785a4.428,4.428,0,0,0-6.685-1.959,4.428,4.428,0,0,1-4.921.152l-.437-.273a4.428,4.428,0,0,0-6.619,2.59L21,20v7h.05a11,11,0,0,0,21.9,0H43V20Z" fill="#fce0b9"/><path d="M9,39v4a3,3,0,0,0,6,0V39Z" fill="#78af4f"/><path d="M60.844,58.231l-2.3-5.6L55,44V32h.5a1.5,1.5,0,0,0,0-3h-9a1.5,1.5,0,0,0,0,3H47V44L41.152,58.231A2,2,0,0,0,43,61H59A2,2,0,0,0,60.844,58.231Z" fill="#71caf0"/><path d="M9,41.487V35h1a2,2,0,0,0,0-4H4a1,1,0,0,0-1,1l1.309,9.487Z" fill="#fce0b9"/><path d="M29.052,10.7l.437.273a4.428,4.428,0,0,0,4.921-.152A4.428,4.428,0,0,1,41.1,12.785L43,20l-.417-9.976A7.9,7.9,0,0,0,31.673,4L27,6a7,7,0,0,0-7,7l1,7,1.433-6.7A4.428,4.428,0,0,1,29.052,10.7Z" fill="#665642"/><path d="M32,23a4,4,0,0,0,4,4h5a2,2,0,0,0,2-2V20H32Zm5-1a1,1,0,1,1-1,1A1,1,0,0,1,37,22Z" fill="#71caf0"/><circle cx="1" cy="1" r="1" transform="translate(36 22)" fill="#fff"/><path d="M23,27h5a4,4,0,0,0,4-4V20H21v5A2,2,0,0,0,23,27Zm4-5a1,1,0,1,1-1,1A1,1,0,0,1,27,22Z" fill="#71caf0"/><circle cx="1" cy="1" r="1" transform="translate(26 22)" fill="#fff"/><path d="M51,38v4a2,2,0,0,0,2,2h4a1,1,0,0,0,1-1V37a1,1,0,0,0-1-1H53A2,2,0,0,0,51,38Z" fill="#fce0b9"/><path d="M12,33a2,2,0,0,0,2,2h3a1,1,0,0,0,1-1V32a1,1,0,0,0-1-1H14A2,2,0,0,0,12,33Z" fill="#fce0b9"/><path d="M50,37a2,2,0,0,0-2-2H45a1,1,0,0,0-1,1v2a1,1,0,0,0,1,1h3A2,2,0,0,0,50,37Z" fill="#fce0b9"/><circle cx="2" cy="2" r="2" transform="translate(53 18)" fill="#fca947"/><circle cx="2" cy="2" r="2" transform="translate(50 7)" fill="#fca947"/><path d="M51.434,52.623a6.429,6.429,0,0,0-5.257-.853l-2.671.728-2.355,5.733A2,2,0,0,0,43,61H59a2,2,0,0,0,1.846-2.769l-2.3-5.6A6.428,6.428,0,0,1,51.434,52.623Z" fill="#fca947"/><path d="M43,61H54.961l-.556-.219a23.838,23.838,0,0,1-10.673-8.345l-.225.061L41.152,58.23A2,2,0,0,0,43,61Z" fill="#e68f29"/><path d="M32,37a10.939,10.939,0,0,1-5-1.2V40l5,6,5-6V35.8A10.939,10.939,0,0,1,32,37Z" fill="#fce0b9"/><path d="M27,7.646l4.673-2a7.9,7.9,0,0,1,10.91,6.026l.336,8.02L43,20l-.417-9.976A7.9,7.9,0,0,0,31.673,4L27,6a7,7,0,0,0-7,7l.086.6A7,7,0,0,1,27,7.646Z" fill="#735f47"/><path d="M28.842,36.52l6.22,5.805L37,40V35.8a10.856,10.856,0,0,1-8.158.722Z" fill="#f5cba1"/><path d="M41,41s-1,6-3,9l-.073-.049c-.01.015-.019.034-.029.049l-5.949-3.966,0,0s-5.966,3.931-5.976,3.916L25.9,50l-.115-.355c-1.758-2.933-2.684-8.07-2.774-8.591C23,41.021,23,41,23,41H21.4c.579,2.947,1.54,8.136,3.177,11.069a1,1,0,0,0,1.436.35L31.9,48.5l5.88,3.92a1,1,0,0,0,1.436-.351c1.637-2.933,2.92-8.122,3.57-11.069H41Z" fill="#ccc"/><path d="M41,41l-4-3v2l-5,6,6,4C40,47,41,41,41,41Z" fill="#fff"/><path d="M27,38l-4,3s1,6,3,9l6-4-5-6Z" fill="#fff"/><path d="M12,44a3,3,0,0,1-3-3v2a3,3,0,0,0,6,0V41A3,3,0,0,1,12,44Z" fill="#619c35"/><path d="M27,24.75A1.75,1.75,0,1,1,28.75,23,1.752,1.752,0,0,1,27,24.75Zm0-2a.25.25,0,0,0-.25.25c0,.275.5.275.5,0A.25.25,0,0,0,27,22.75Z"/><path d="M37,24.75A1.75,1.75,0,1,1,38.75,23,1.752,1.752,0,0,1,37,24.75Zm0-2a.25.25,0,0,0-.25.25c0,.275.5.275.5,0A.25.25,0,0,0,37,22.75Z"/><path d="M32,33.75A3.755,3.755,0,0,1,28.25,30h1.5a2.25,2.25,0,0,0,4.5,0h1.5A3.755,3.755,0,0,1,32,33.75Z"/><path d="M6.01,61.137A1,1,0,0,0,7,62H59a3,3,0,0,0,2.77-4.149L56.493,45H57a2,2,0,0,0,2-2V37a2,2,0,0,0-2-2H56V32.95A2.5,2.5,0,0,0,55.5,28h-9a2.5,2.5,0,0,0-.5,4.95V34H45a2,2,0,0,0-2,2v2a2,2,0,0,0,2,2h1v.678A6.989,6.989,0,0,0,43,40H41.333L38,37.5V36.376A12,12,0,0,0,44,26h.5a3.5,3.5,0,1,0,0-7h-.541l-.377-9.019a.882.882,0,0,0-.012-.114A8.9,8.9,0,0,0,31.279,3.078L26.788,5A8.009,8.009,0,0,0,19,13a.969.969,0,0,0,.01.142L19.847,19H19.5a3.5,3.5,0,1,0,0,7H20a12,12,0,0,0,6,10.377V37.5L22.667,40H21a6.973,6.973,0,0,0-5,2.111V36h1a2,2,0,0,0,2-2V32a2,2,0,0,0-2-2H16V26a1,1,0,0,0-1-1H9a1,1,0,0,0-1,1v4H4a2,2,0,0,0-2,2,.893.893,0,0,0,.01.137Zm53.819-1.582A.982.982,0,0,1,59,60H43a1,1,0,0,1-.922-1.389l2.168-5.277,2.2-.6a5.428,5.428,0,0,1,4.438.721,7.379,7.379,0,0,0,7.164.588l1.877,4.572a.978.978,0,0,1-.091.939ZM57,43H53a1,1,0,0,1-1-1V38a1,1,0,0,1,1-1h4ZM47,31h-.5a.5.5,0,0,1,0-1h9a.5.5,0,0,1,0,1H51v2h3v2H53a2.985,2.985,0,0,0-2.193.967A2.994,2.994,0,0,0,48,34h0V32a1,1,0,0,0-1-1Zm-2,5h3a1,1,0,0,1,0,2H45Zm3,4a2.977,2.977,0,0,0,2-.779V42a3,3,0,0,0,3,3h1.334l2.954,7.2a5.419,5.419,0,0,1-5.3-.4,7.44,7.44,0,0,0-6.074-.986L45.2,51l2.719-6.619A.99.99,0,0,0,48,44V40Zm-2,3.025V43.8l-5.77,14.043A3,3,0,0,0,40.168,60H33V47.868l4.445,2.964a1,1,0,0,0,1.387-.277c1.659-2.489,2.64-6.757,3-8.555H43A4.974,4.974,0,0,1,46,43.025Zm-6.1-1.6a30.454,30.454,0,0,1-2.23,7.152l-4.192-2.794,4.287-5.145A1,1,0,0,0,38,40ZM22,21h9v2a3,3,0,0,1-3,3H23a1,1,0,0,1-1-1Zm.236-2L23.4,13.559a3.429,3.429,0,0,1,5.124-2.006l.438.273a5.412,5.412,0,0,0,6.032-.187A3.427,3.427,0,0,1,40.145,13.1L41.7,19H22.236ZM33,21h9v4a1,1,0,0,1-1,1H36a3,3,0,0,1-3-3Zm13,1.5A1.5,1.5,0,0,1,44.5,24H44V21h.5A1.5,1.5,0,0,1,46,22.5ZM27,7a.985.985,0,0,0,.394-.081l4.673-2a6.9,6.9,0,0,1,9.52,5.209l.064,1.53a5.431,5.431,0,0,0-7.822-1.643,3.419,3.419,0,0,1-3.81.118l-.438-.273a5.426,5.426,0,0,0-8.126,3.229l-.26,1.213L21,12.932A6.007,6.007,0,0,1,27,7ZM19.5,24a1.5,1.5,0,0,1,0-3H20v3Zm2.682,3.872A2.957,2.957,0,0,0,23,28h5a4.982,4.982,0,0,0,4-2.031A4.982,4.982,0,0,0,36,28h5a2.957,2.957,0,0,0,.818-.128,9.994,9.994,0,0,1-19.636,0ZM32,38a11.922,11.922,0,0,0,4-.7v2.338l-4,4.8-4-4.8V37.3A11.922,11.922,0,0,0,32,38Zm-6,2a1,1,0,0,0,.231.641l4.287,5.145L26.326,48.58a30.42,30.42,0,0,1-2.23-7.152ZM15,55a1,1,0,0,0,1-1V47a5.006,5.006,0,0,1,5-5h1.17c.358,1.8,1.339,6.066,3,8.555a1,1,0,0,0,1.387.277L31,47.868V60H23V56H21v4H7.871L5.456,42.487H8V43a4,4,0,0,0,4,4,3.953,3.953,0,0,0,2.029-.572c-.015.189-.029.379-.029.572v6H12v2ZM10,40h4v3a2,2,0,0,1-4,0Zm4-2H10V36a2.981,2.981,0,0,0,2-.78A2.976,2.976,0,0,0,14,36Zm3-4H14a1,1,0,1,1,0-2h3Zm-7-7h4v3a2.981,2.981,0,0,0-2,.78A2.976,2.976,0,0,0,10,30Zm0,5a1,1,0,0,1,0,2H7v2H8v4.487H5.18L4.01,32Z"/><path d="M55,23a3,3,0,1,0-3-3A3,3,0,0,0,55,23Zm0-4a1,1,0,1,1-1,1A1,1,0,0,1,55,19Z"/><path d="M55,9a3,3,0,1,0-3,3A3,3,0,0,0,55,9Zm-3,1a1,1,0,1,1,1-1A1,1,0,0,1,52,10Z"/></g></g></svg>