<svg xmlns="http://www.w3.org/2000/svg" width="105" height="105" viewBox="0 0 105 105"><g transform="translate(-1220 -2261.162)"><g transform="translate(928 95.162)"><circle cx="52.5" cy="52.5" r="52.5" transform="translate(292 2166)" fill="#adc46c"/></g><g transform="translate(1215.048 2286.163)"><g transform="translate(34.748 0.794)"><path d="M84.749,20.456a3.98,3.98,0,0,1-2.2-3.287v-.016a3.98,3.98,0,0,0-3.692-3.692h-.016a3.979,3.979,0,0,1-3.287-2.2,3.98,3.98,0,0,0-4.837-2,3.98,3.98,0,0,1-3.882-.767l-.012-.01a3.98,3.98,0,0,0-5.221,0l-.012.01a3.98,3.98,0,0,1-3.882.767,3.98,3.98,0,0,0-4.837,2,3.979,3.979,0,0,1-3.287,2.2h-.016a3.98,3.98,0,0,0-3.692,3.692v.016a3.979,3.979,0,0,1-2.2,3.287,3.979,3.979,0,0,0-2,4.837,4.179,4.179,0,0,0,2.94,2.717l19.6,4.935,19.6-4.935a4.179,4.179,0,0,0,2.94-2.717A3.98,3.98,0,0,0,84.749,20.456Z" transform="translate(-41.457 -7.501)" fill="#77718c"/><path d="M128.913,366.768l2.574,7.3-2.574,7.3h-8.684c0-10.65,6.515-14.606,6.515-14.606Z" transform="translate(-111.875 -328.668)" fill="#eaeaea"/><path d="M299.281,381.374H290.6l-2.021-7.3,2.021-7.3h2.169S299.281,370.724,299.281,381.374Z" transform="translate(-262.369 -328.668)" fill="#eaeaea"/><path d="M202.113,366.768H213.3v14.606h-11.19Z" transform="translate(-185.076 -328.668)" fill="#81ddfd"/><path d="M65.424,329.69v-6.3H60.465v6.3a5.1,5.1,0,1,0,4.959,0Z" transform="translate(-56.11 -289.888)" fill="#81ddfd"/><path d="M51.523,42.124a28.225,28.225,0,0,1,7.955-19.678,3.975,3.975,0,0,1-1.772-.176,3.98,3.98,0,0,0-4.837,2,3.98,3.98,0,0,1-3.287,2.2h-.016a3.98,3.98,0,0,0-3.692,3.692v.016a3.979,3.979,0,0,1-2.2,3.287,3.98,3.98,0,0,0-2,4.837,4.179,4.179,0,0,0,2.94,2.717l6.924,1.743C51.526,42.555,51.523,42.34,51.523,42.124Z" transform="translate(-41.458 -20.517)" fill="#6a647f"/><circle cx="4.947" cy="4.947" r="4.947" transform="translate(35.345 17.896)" fill="#ffbd86"/><path d="M234.25,422.725l-1.071-9.7h-3.41l-1.071,9.7Z" transform="translate(-208.842 -370.018)" fill="#77718c"/><path d="M233.716,369.83v3.205a2.243,2.243,0,0,0,4.487,0V369.83Z" transform="translate(-213.327 -331.405)" fill="#827f98"/><path d="M122.054,114.1a5.487,5.487,0,0,0-6.557-2.669,32.469,32.469,0,0,1-18.479,0,5.489,5.489,0,0,0-6.559,2.674,17.764,17.764,0,1,0,31.6-.005Z" transform="translate(-83.506 -100.168)" fill="#fed2a4"/><path d="M341.61,456.458v-4.9a.8.8,0,1,0-1.591,0v4.9Z" transform="translate(-308.357 -403.752)" fill="#e2e2e2"/><circle cx="4.928" cy="4.928" r="4.928" transform="translate(24.952 27.109) rotate(-76.7)" fill="#ffd7b6"/><path d="M59.193,138.473a28.348,28.348,0,0,1-3.385-27.294,5.464,5.464,0,0,0-5.166,2.93,17.638,17.638,0,0,0-1.474,3.971c-.087,0-.176-.008-.267-.008a4.947,4.947,0,1,0,0,9.894,4.513,4.513,0,0,0,.694-.052A17.714,17.714,0,0,0,59.193,138.473Z" transform="translate(-43.689 -100.177)" fill="#ffbd86"/><circle cx="4.928" cy="4.928" r="4.928" transform="translate(8.696 27.105) rotate(-76.7)" fill="#ffd7b6"/><path d="M67.689,301.089H62.766a2.364,2.364,0,0,0,0,4.728h4.923a2.364,2.364,0,1,0,0-4.728Z" transform="translate(-58.393 -269.954)" fill="#a4e6ff"/><path d="M62.382,328.27a15.744,15.744,0,0,1,.772-4.882H60.465v6.3a5.1,5.1,0,1,0,5.486,8.567A15.693,15.693,0,0,1,62.382,328.27Z" transform="translate(-56.11 -289.888)" fill="#5bd6fd"/><path d="M66.427,301.089H62.766a2.364,2.364,0,0,0,0,4.728h2.1A15.646,15.646,0,0,1,66.427,301.089Z" transform="translate(-58.393 -269.954)" fill="#81ddfd"/><path d="M86.317,444.263h-.583a3.194,3.194,0,1,0,0,6.388h.583a3.194,3.194,0,1,0,0-6.388Z" transform="translate(-78.183 -397.945)" fill="#fed2a4"/></g><g transform="translate(33.952 -0.001)"><path d="M173.839,216.034a.8.8,0,0,0-.8.8v1.538a.8.8,0,1,0,1.591,0v-1.538A.8.8,0,0,0,173.839,216.034Z" transform="translate(-158.293 -193.124)"/><path d="M324.749,219.163a.8.8,0,0,0,.8-.8v-1.538a.8.8,0,0,0-1.591,0v1.538A.8.8,0,0,0,324.749,219.163Z" transform="translate(-293.199 -193.124)"/><path d="M235.018,261.133a1.644,1.644,0,0,1-2.482,0,.8.8,0,0,0-1.2,1.045,3.235,3.235,0,0,0,4.881,0,.8.8,0,0,0-1.2-1.045Z" transform="translate(-210.229 -233.196)"/><path d="M142.826,181.891a6.263,6.263,0,1,0-6.192-7.2,4.964,4.964,0,0,0-3.87,0,6.268,6.268,0,1,0,.01,1.8,3.387,3.387,0,0,1,3.849,0A6.271,6.271,0,0,0,142.826,181.891ZM126.572,180.3a4.672,4.672,0,1,1,4.672-4.672A4.677,4.677,0,0,1,126.572,180.3Zm16.254-9.344a4.672,4.672,0,1,1-4.672,4.672A4.677,4.677,0,0,1,142.826,170.956Z" transform="translate(-111.151 -151.404)"/><path d="M78.4,13.032a3.2,3.2,0,0,1-1.762-2.63v-.017A4.8,4.8,0,0,0,72.2,5.955h-.017a3.2,3.2,0,0,1-2.631-1.762,4.793,4.793,0,0,0-5.8-2.4,3.2,3.2,0,0,1-3.106-.614l-.012-.011a4.8,4.8,0,0,0-6.266,0l-.012.01a3.2,3.2,0,0,1-3.106.614,4.793,4.793,0,0,0-5.8,2.4,3.2,3.2,0,0,1-2.632,1.763H42.8a4.8,4.8,0,0,0-4.43,4.429V10.4A3.2,3.2,0,0,1,36.6,13.031a4.793,4.793,0,0,0-2.4,5.8,4.965,4.965,0,0,0,.951,1.659,5.738,5.738,0,0,0,4.959,8.879,18.439,18.439,0,0,0,.76,1.757H39.119a3.16,3.16,0,0,0-.813,6.213V40.15a5.892,5.892,0,0,0,.018,9.808c-.01.115-.016.231-.016.349A4,4,0,0,0,42.3,54.3H71.661a.8.8,0,0,0,.8-.8,20.1,20.1,0,0,0-3.4-11.755,15.055,15.055,0,0,0-2.436-2.727,18.584,18.584,0,0,0,4.919-4.024.8.8,0,0,0-1.2-1.041,17.014,17.014,0,0,1-23.622,2.025,3.159,3.159,0,0,0-2.67-4.848H42.665a16.846,16.846,0,0,1-1.309-3.015l0-.015a17.066,17.066,0,0,1,1.056-13.015A4.678,4.678,0,0,1,48.017,12.8a31.687,31.687,0,0,0,9.483,1.38,31.609,31.609,0,0,0,9.483-1.38,4.675,4.675,0,0,1,5.609,2.277,16.993,16.993,0,0,1-.577,16.568.8.8,0,0,0,1.36.826,18.434,18.434,0,0,0,1.5-3.1A5.738,5.738,0,0,0,79.849,20.5a4.966,4.966,0,0,0,.951-1.659,4.793,4.793,0,0,0-2.4-5.8ZM39.592,27.77a4.152,4.152,0,0,1-.361-8.223A18.841,18.841,0,0,0,39.592,27.77ZM37.55,34.291a1.571,1.571,0,0,1,1.569-1.569h4.924a1.569,1.569,0,0,1,.006,3.137H39.113A1.57,1.57,0,0,1,37.55,34.291Zm-.271,10.757a4.309,4.309,0,0,1,2.21-3.759.8.8,0,0,0,.408-.695V37.45h3.368v3.144a.8.8,0,0,0,.408.695,4.3,4.3,0,0,1,1.657,5.865,3.968,3.968,0,0,0-2.449-.838H42.3a3.99,3.99,0,0,0-3.477,2.03A4.293,4.293,0,0,1,37.279,45.048ZM39.9,50.306a2.4,2.4,0,0,1,2.4-2.4h.583a2.4,2.4,0,1,1,0,4.8H42.3A2.4,2.4,0,0,1,39.9,50.306Zm11.887-2.254a.8.8,0,0,0-.8.8v3.857H46.066a3.986,3.986,0,0,0,.8-2.4,4.055,4.055,0,0,0-.467-1.875,5.907,5.907,0,0,0,1.07-3.384,6.025,6.025,0,0,0-.49-2.352,12.753,12.753,0,0,1,2.792-2.948c.4.18.8.348,1.213.5v5.428a.8.8,0,1,0,1.591,0V40.759c.625.17,1.34.316,1.761.388v1.276a3.023,3.023,0,0,0,.625,1.843l-.953,8.44H52.58V48.848A.8.8,0,0,0,51.785,48.052Zm10.4,4.653H60.987L60,43.961a3.02,3.02,0,0,0,.42-1.538v-1.24c.59-.093,1.261-.237,1.761-.367Zm-4.8-8.834a1.451,1.451,0,0,1-1.448-1.448V41.347a18.97,18.97,0,0,0,2.9.018v1.058A1.451,1.451,0,0,1,57.38,43.871Zm-1.766,8.834.834-7.388a3.069,3.069,0,0,0,2.094-.084l.843,7.472H55.614Zm15.239,0H68V48.6a.8.8,0,0,0-1.591,0v4.109h-2.64V40.325c.438-.157.87-.331,1.293-.519,1.238.933,5.524,4.742,5.789,12.9ZM48.225,38.948a14.7,14.7,0,0,0-2.15,2.294,5.892,5.892,0,0,0-1.219-1.093V37.344a3.145,3.145,0,0,0,.685-.272A18.42,18.42,0,0,0,48.225,38.948ZM66.5,11.289a30.005,30.005,0,0,1-9,1.3,30.006,30.006,0,0,1-9-1.3,6.263,6.263,0,0,0-7.509,3.068A18.717,18.717,0,0,0,39.6,17.9a5.755,5.755,0,0,0-3.391,1.38,3.367,3.367,0,0,1-.5-.953,3.2,3.2,0,0,1,1.6-3.871,4.792,4.792,0,0,0,2.643-3.943V10.5a3.2,3.2,0,0,1,2.956-2.954h.014A4.793,4.793,0,0,0,46.87,4.9a3.2,3.2,0,0,1,2.862-1.769,3.152,3.152,0,0,1,1.009.166A4.793,4.793,0,0,0,55.4,2.374l.012-.01a3.2,3.2,0,0,1,4.178,0l.012.011a4.793,4.793,0,0,0,4.658.921A3.2,3.2,0,0,1,68.13,4.9a4.793,4.793,0,0,0,3.943,2.643h.017A3.2,3.2,0,0,1,75.045,10.5v.017a4.793,4.793,0,0,0,2.643,3.945,3.2,3.2,0,0,1,1.1,4.824,5.759,5.759,0,0,0-3.4-1.38,18.789,18.789,0,0,0-1.388-3.549A6.261,6.261,0,0,0,66.5,11.289ZM75.4,27.77a18.689,18.689,0,0,0,.365-8.224A4.152,4.152,0,0,1,75.4,27.77Z" transform="translate(-33.952 0.001)"/></g></g></g></svg>