<svg xmlns="http://www.w3.org/2000/svg" width="105" height="105" viewBox="0 0 105 105"><g transform="translate(-905 -2261.162)"><g transform="translate(613 95.162)"><circle cx="52.5" cy="52.5" r="52.5" transform="translate(292 2166)" fill="#adc46c"/></g><g transform="translate(928.333 2284.496)"><g transform="translate(1.903 1.903)"><g transform="translate(13.549 36.129)"><path d="M20.613,42l1.563,10.92v.009a1.453,1.453,0,0,0-.524-.09,1.674,1.674,0,0,0-1.5.921l-.443.885H17L18.806,42Z" transform="translate(-17 -42)" fill="#ffeaa7"/></g><g transform="translate(13.774 32.516)"><path d="M22.218,39.237l-1.581,2.376H18.831L17.25,39.246,19.734,38Z" transform="translate(-17.25 -38)" fill="#fcd770"/></g><g transform="translate(17.161 33.754)"><path d="M25.516,49.875v4.679a2.5,2.5,0,0,0-.9-.163h-.9v-.135a1.657,1.657,0,0,0-1.147-1.581v-.009L21,41.745l1.581-2.376,2.936,1.472Z" transform="translate(-21 -39.37)" fill="#b4dd7f"/></g><g transform="translate(10.839 33.763)"><path d="M16.936,39.38l1.581,2.366L16.71,54.392H14V40.843Z" transform="translate(-14 -39.38)" fill="#b4dd7f"/></g><g transform="translate(16.258 28.903)"><path d="M25.419,34v6.323L22.484,38.85,20,37.613,23.613,34Z" transform="translate(-20 -34)" fill="#a0d468"/></g><g transform="translate(10.839 28.903)"><path d="M19.419,37.613l-2.484,1.246L14,40.323v-6.07A13.178,13.178,0,0,1,15.806,34Z" transform="translate(-14 -34)" fill="#a0d468"/></g><g transform="translate(21.678 14.452)"><path d="M29.613,32.452A14.448,14.448,0,0,0,44.065,18v2.71a1.82,1.82,0,0,0,1.806,1.806,1.812,1.812,0,0,0,1.806-1.806V18.9a1.82,1.82,0,0,0,1.806,1.806v2.511a18.969,18.969,0,0,1-7.226,14.9V36.968a.906.906,0,0,0-.9-.9H39.549a.906.906,0,0,0-.9.9v3.4a19.435,19.435,0,0,1-4.408,1.463l-2.818.56V46.9H26.9a.906.906,0,0,0-.9.9V32.452Z" transform="translate(-26 -18)" fill="#e6e9ed"/></g><g transform="translate(0 29.156)"><path d="M12.839,53.9h5.419v5.419H11.032A9.036,9.036,0,0,1,2,50.285V47.612A13.607,13.607,0,0,1,12.839,34.28V53.9Z" transform="translate(-2 -34.28)" fill="#e6e9ed"/></g><g transform="translate(39.742 3.613)"><path d="M49.613,7.806v4.516H46V7.806A1.812,1.812,0,0,1,47.806,6a1.82,1.82,0,0,1,1.806,1.806Z" transform="translate(-46 -6)" fill="#ccd1d9"/></g><g transform="translate(39.742 9.936)"><path d="M49.613,18.419v1.806a1.812,1.812,0,0,1-1.806,1.806A1.82,1.82,0,0,1,46,20.226V13h3.613v5.419Z" transform="translate(-46 -13)" fill="#69d6f4"/></g><g transform="translate(1.806 0)"><path d="M32.9,16.452a5.424,5.424,0,0,1-5.419,5.419h-.063a4.642,4.642,0,0,0,.063-.795V18.1a2.7,2.7,0,0,0,0-5.094V11.032a1.812,1.812,0,0,0-1.806-1.806H18.452a3.612,3.612,0,0,0-3.613,3.613v1.806H13.457a2.23,2.23,0,0,0-.994,4.227l2.376,1.192V26.8a3.514,3.514,0,0,1-1.806.488,3.612,3.612,0,0,1-3.613-3.613,3.61,3.61,0,0,1-2.619-6.1A5.418,5.418,0,0,1,9.419,7.419,5.424,5.424,0,0,1,14.839,2a5.357,5.357,0,0,1,3.613,1.391,5.407,5.407,0,0,1,7.786.569,5.121,5.121,0,0,1,1.246-.154A5.424,5.424,0,0,1,32.9,9.226a5.357,5.357,0,0,1-1.391,3.613A5.357,5.357,0,0,1,32.9,16.452Z" transform="translate(-4 -2)" fill="#656d78"/></g><g transform="translate(12.645 7.226)"><path d="M28.645,13.766v.009a2.5,2.5,0,0,0-.9-.163,2.681,2.681,0,0,0-2.547,1.806h-3.92l-.018.009a2.7,2.7,0,0,0-5.112.045L16,15.419V13.613A3.612,3.612,0,0,1,19.613,10h7.226a1.812,1.812,0,0,1,1.806,1.806Z" transform="translate(-16 -10)" fill="#f0d0b4"/></g><g transform="translate(9.032 12.645)"><path d="M28.258,19.459v2.972a4.642,4.642,0,0,1-.063.795,6.171,6.171,0,0,1-6.043,5.41v.009l.686,3.613-3.613,3.613-3.613-3.613V21.419l-2.376-1.192A2.23,2.23,0,0,1,14.231,16h1.382l.145.054a2.4,2.4,0,0,0-.145.849,2.71,2.71,0,0,0,5.419,0,2.455,2.455,0,0,0-.163-.894L20.888,16h3.92a2.5,2.5,0,0,0-.163.9,2.706,2.706,0,0,0,2.71,2.71,2.5,2.5,0,0,0,.9-.163Z" transform="translate(-12 -16)" fill="#f0d0b4"/></g><g transform="translate(21.678 10.839)"><path d="M28.71,14a2.5,2.5,0,0,1,.9.163,2.7,2.7,0,0,1,0,5.094,2.5,2.5,0,0,1-.9.163A2.706,2.706,0,0,1,26,16.71a2.5,2.5,0,0,1,.163-.9A2.681,2.681,0,0,1,28.71,14Z" transform="translate(-26 -14)" fill="#69d6f4"/></g><g transform="translate(12.645 10.839)"><path d="M21.257,15.815a2.455,2.455,0,0,1,.163.894,2.71,2.71,0,1,1-5.419,0,2.4,2.4,0,0,1,.145-.849,2.7,2.7,0,0,1,5.112-.045Z" transform="translate(-16 -14)" fill="#69d6f4"/></g><g transform="translate(43.355 9.936)"><path d="M53.613,18.419a1.812,1.812,0,0,1-1.806,1.806A1.82,1.82,0,0,1,50,18.419V14.806A1.812,1.812,0,0,1,51.806,13a1.82,1.82,0,0,1,1.806,1.806Z" transform="translate(-50 -13)" fill="#f0d0b4"/></g><g transform="translate(36.129 9.936)"><path d="M45.08,13.533a1.806,1.806,0,0,1-1.274,3.08A1.812,1.812,0,0,1,42,14.806a1.8,1.8,0,0,1,3.08-1.274Z" transform="translate(-42 -13)" fill="#f0d0b4"/></g><g transform="translate(16.258 46.968)"><path d="M27.226,58.516a2.7,2.7,0,0,1-1.192,2.249h-.009a2.7,2.7,0,0,1-1.508.461H20V55.806l.443-.885a1.674,1.674,0,0,1,1.5-.921,1.453,1.453,0,0,1,.524.09,1.657,1.657,0,0,1,1.147,1.581v.135h.9a2.5,2.5,0,0,1,.9.163,2.563,2.563,0,0,1,1.012.632A2.7,2.7,0,0,1,27.226,58.516Z" transform="translate(-20 -54)" fill="#f0d0b4"/></g><g transform="translate(21.678 43.355)"><path d="M35.032,57.226v1.806a1.812,1.812,0,0,1-.822,1.517,1.848,1.848,0,0,1-.985.289H27.806a1.753,1.753,0,0,1-1.192-.461,2.711,2.711,0,0,0,.4-4.164A2.563,2.563,0,0,0,26,55.582V50.9a.906.906,0,0,1,.9-.9h7.226a.906.906,0,0,1,.9.9v6.323Z" transform="translate(-26 -50)" fill="#ffeaa7"/></g><g transform="translate(45.162 32.516)"><path d="M55.613,38.9v4.516H52V38.9a.906.906,0,0,1,.9-.9H54.71A.906.906,0,0,1,55.613,38.9Z" transform="translate(-52 -38)" fill="#cf9e76"/></g><g transform="translate(34.323 32.516)"><path d="M43.613,40.059v3.36H40V38.9a.906.906,0,0,1,.9-.9H42.71a.906.906,0,0,1,.9.9Z" transform="translate(-40 -38)" fill="#cf9e76"/></g><g transform="translate(34.323 37.936)"><path d="M40,44h3.613v3.613H40Z" transform="translate(-40 -44)" fill="#ccd1d9"/></g><g transform="translate(30.71 41.549)"><path d="M43.831,55.226c-2.412,0-2.412,1.806-4.823,1.806-1.59,0-2.132-.786-3.008-1.328v-.181l3.613-4.814V48h3.613v2.71l2.059,2.746,2.637,3.514C46.207,56.653,45.963,55.226,43.831,55.226Z" transform="translate(-36 -48)" fill="#e6e9ed"/></g><g transform="translate(40.004 37.936)"><path d="M60.48,54.721a.515.515,0,0,1-.009.117c-2.4-.009-2.4-1.806-4.805-1.806s-2.412,1.806-4.823,1.806c-2.312,0-2.4-1.671-4.552-1.8a5.5,5.5,0,0,1,1.734-2.574l3.423-2.854V44H55.06v3.613l3.423,2.854A5.541,5.541,0,0,1,60.48,54.721Z" transform="translate(-46.29 -44)" fill="#e6e9ed"/></g><g transform="translate(29.888 48.775)"><path d="M35.912,56.479c.876.542,1.418,1.328,3.008,1.328,2.412,0,2.412-1.806,4.823-1.806,2.132,0,2.376,1.427,4.092,1.743l.316.425a2.03,2.03,0,0,1-.181,2.646l-.009.009a2.021,2.021,0,0,1-1.436.6H36.138a2.072,2.072,0,0,1-1.048-.289,1.812,1.812,0,0,0,.822-1.517V56.479Z" transform="translate(-35.09 -56)" fill="#4fc1e9"/></g><g transform="translate(39.995 46.968)"><path d="M46.289,54.009c2.15.126,2.24,1.8,4.552,1.8,2.412,0,2.412-1.806,4.823-1.806s2.4,1.8,4.805,1.806a5.517,5.517,0,0,1-5.528,5.419H51.564a5.453,5.453,0,0,1-2.511-.605,2.03,2.03,0,0,0,.181-2.646l-.316-.425L46.28,54.036c0-.009.009-.018.009-.027Z" transform="translate(-46.28 -54)" fill="#69d6f4"/></g></g><g transform="translate(1 1)"><path d="M24.43,23.743a2.02,2.02,0,0,1-3.613,0l-.095-.191-1.616.808.095.19a3.826,3.826,0,0,0,6.845,0l.095-.191-1.616-.808Z" transform="translate(-2.752 -3.182)"/><path d="M54.685,45.614l-3.1-2.585V35.323a1.808,1.808,0,0,0-1.806-1.806H47.968a1.808,1.808,0,0,0-1.806,1.806v7.706l-3.1,2.585a6.408,6.408,0,0,0-1.336,1.553l-.98-1.306V36.9a19.757,19.757,0,0,0,7.226-15.32V19.8a2.706,2.706,0,0,0,1.806-2.544V13.646a2.713,2.713,0,0,0-2.71-2.71,2.679,2.679,0,0,0-.9.166V7.323a2.71,2.71,0,0,0-5.419,0V11.1a2.679,2.679,0,0,0-.9-.166,2.71,2.71,0,1,0,0,5.419,2.679,2.679,0,0,0,.9-.166v.166A13.564,13.564,0,0,1,27.194,29.9H22.522L22.16,27.99a7.129,7.129,0,0,0,5.734-5.353,6.313,6.313,0,0,0,4.482-9.895,6.314,6.314,0,0,0-6.1-9.864,6.309,6.309,0,0,0-8.109-.737,6.315,6.315,0,0,0-9.88,4.336A6.321,6.321,0,0,0,5.223,17.712a4.473,4.473,0,0,0-.61,2.256A4.524,4.524,0,0,0,8.3,24.408,4.466,4.466,0,0,0,13.645,28v2.011A14.564,14.564,0,0,0,1,44.388v2.677A9.947,9.947,0,0,0,10.936,57H22.678a3.581,3.581,0,0,0,1.462-.315A2.7,2.7,0,0,0,25.387,57h5.419a2.685,2.685,0,0,0,1-.2,2.938,2.938,0,0,0,1.037.2H43.226a2.91,2.91,0,0,0,1.572-.465A6.462,6.462,0,0,0,47.181,57h3.38a6.44,6.44,0,0,0,4.123-11.386Zm-4.91-10.291v3.613H47.968V35.323ZM44.216,47l3.752-3.127V40.742h1.806v3.132L53.527,47a4.618,4.618,0,0,1,1.563,2.586,4.106,4.106,0,0,1-.859-.536,4.56,4.56,0,0,0-5.9,0,2.771,2.771,0,0,1-3.732,0,5.373,5.373,0,0,0-1.4-.825A4.588,4.588,0,0,1,44.216,47Zm-2.707,2.891a4.72,4.72,0,0,0-1.069-.118,4.437,4.437,0,0,0-2.951,1.084,2.682,2.682,0,0,1-1.867.723,2.623,2.623,0,0,1-1.816-.686l3.324-4.432V44.355h1.806v2.107ZM29.9,41.483l2.09-.418a19.978,19.978,0,0,0,3.329-.978v5.774L33.516,48.27V46.162a1.808,1.808,0,0,0-1.806-1.806H29.9Zm9.032,1.066H37.129V40.742h1.806Zm0-3.613H37.129V35.323h1.806Zm8.129-26.194a.9.9,0,0,1,.9.9v3.613a.9.9,0,1,1-1.806,0V13.645A.9.9,0,0,1,47.065,12.742ZM43.452,6.419a.9.9,0,0,1,.9.9v3.613H42.549V7.323A.9.9,0,0,1,43.452,6.419Zm-3.613,8.129a.9.9,0,1,1,.9-.9A.9.9,0,0,1,39.839,14.549Zm2.71-1.806h1.806v6.323a.9.9,0,1,1-1.806,0Zm-.784,8.426a2.681,2.681,0,0,0,4.292-1.4c.033.014.07.02.1.033V21.58A17.949,17.949,0,0,1,40.6,34.616a1.807,1.807,0,0,0-1.661-1.1H37.129a1.808,1.808,0,0,0-1.806,1.806v2.805a18.126,18.126,0,0,1-3.683,1.165L29.9,39.64V37.129H28.1v7.226H24.484V31.71h2.71A15.373,15.373,0,0,0,41.765,21.168ZM22.678,49.775h-.118a2.58,2.58,0,0,0-1.106-1.413L20.008,38.246l.947-1.42,1.723.862Zm-4.884-.381-.191.381h-1.11l1.548-10.839h.239l1.3,9.1A2.545,2.545,0,0,0,17.794,49.393ZM14.22,31.755l2.417,2.417-2.992,1.5V31.825c.19-.029.382-.05.574-.07Zm7.929-.045h.529v3.958l-2.992-1.5Zm-3.567,5.419h-.84L17,36.012l1.165-.583,1.165.583Zm-4.936.558,1.723-.862.947,1.42L14.668,49.775H13.645ZM26.291,20.977A5.313,5.313,0,0,1,19.3,26.018l-1.752-.584-.572,1.713,1.752.584a7.127,7.127,0,0,0,1.607.313l.466,2.46-2.637,2.637-2.71-2.71V19.41l-2.879-1.439a1.33,1.33,0,0,1,.6-2.519h.477a3.613,3.613,0,1,0,7.226,0h1.806a3.617,3.617,0,0,0,3.613,3.613Zm-.9-10.944a.9.9,0,0,1,.9.9v.9a3.6,3.6,0,0,0-3.111,1.806H20.368a3.55,3.55,0,0,0-4.875-1.327,2.709,2.709,0,0,1,2.668-2.286Zm.9,7.226A1.806,1.806,0,1,1,28.1,15.452,1.808,1.808,0,0,1,26.291,17.258Zm-9.032-3.613a1.806,1.806,0,1,1-1.806,1.806A1.808,1.808,0,0,1,17.258,13.645ZM12.742,26.291a2.713,2.713,0,0,1-2.71-2.71v-.9h-.9a2.7,2.7,0,0,1-1.961-4.569l.8-.847L6.95,16.7a4.516,4.516,0,0,1,2.18-8.471h.9v-.9a4.51,4.51,0,0,1,7.527-3.359l.6.54.6-.54a4.507,4.507,0,0,1,6.485.474l.358.431.546-.129a4.508,4.508,0,0,1,4.4,7.4l-.542.6.542.6A4.509,4.509,0,0,1,28.1,20.78V18.562a3.582,3.582,0,0,0,0-6.221V10.936a2.713,2.713,0,0,0-2.71-2.71H21.774a.9.9,0,1,1,0-1.806h.9V4.613h-.9a2.713,2.713,0,0,0-2.71,2.71,2.679,2.679,0,0,0,.166.9H18.161a4.521,4.521,0,0,0-4.516,4.516v.9h-.477a3.136,3.136,0,0,0-1.4,5.941l1.88.94v5.589a2.7,2.7,0,0,1-.9.175ZM2.806,47.065V44.388a12.761,12.761,0,0,1,9.032-12.153v17.54h-.9a2.713,2.713,0,0,1-2.71-2.71V40.742H6.419v6.323a4.521,4.521,0,0,0,4.516,4.516h6.323v3.613H10.936A8.138,8.138,0,0,1,2.806,47.065Zm16.258,8.129v-4.3l.345-.69a.771.771,0,0,1,1.461.345v1.035h1.806a1.806,1.806,0,1,1,0,3.613Zm6.724,0a3.555,3.555,0,0,0-1.3-4.917V46.162H31.71v1.806H28.1v1.806H31.71v1.806H29.9v1.806H31.71v.9a.9.9,0,0,1-.9.9Zm17.438,0H33.35a2.679,2.679,0,0,0,.166-.9v-1.42a4.178,4.178,0,0,0,2.105.517A4.437,4.437,0,0,0,38.573,52.3a2.774,2.774,0,0,1,3.735,0,5.083,5.083,0,0,0,1.686.9l.135.181a1.129,1.129,0,0,1-.9,1.806Zm7.335,0h-3.38a4.641,4.641,0,0,1-1.2-.161,2.894,2.894,0,0,0,.177-.968,2.95,2.95,0,0,0-.587-1.761L44.8,51.275a4.31,4.31,0,0,0,1.657.306A4.437,4.437,0,0,0,49.412,50.5a2.774,2.774,0,0,1,3.735,0,4.723,4.723,0,0,0,1.955.984,4.64,4.64,0,0,1-4.54,3.713Z" transform="translate(-1 -1)"/></g></g></g></svg>