<svg xmlns="http://www.w3.org/2000/svg" width="105" height="105" viewBox="0 0 105 105"><g transform="translate(-590 -2261.162)"><g transform="translate(298 95.162)"><circle cx="52.5" cy="52.5" r="52.5" transform="translate(292 2166)" fill="#adc46c"/></g><g transform="translate(612 2283.162)"><g transform="translate(1 1)"><g transform="translate(10 34)"><path d="M19,36v2a1,1,0,0,1-1,1H12a1,1,0,0,1-1-1V36a1,1,0,0,1,1-1h6A1,1,0,0,1,19,36Z" transform="translate(-11 -35)" fill="#ccd1d9"/></g><g transform="translate(6 38)"><path d="M15,51a2,2,0,1,0-2,2H7a7.994,7.994,0,0,1,6-7.74V39h4v6.26a8.045,8.045,0,0,1,5.23,4.32,3.269,3.269,0,0,0-.35.3A2.993,2.993,0,0,0,21,52a2.772,2.772,0,0,0,.18,1H13A2.006,2.006,0,0,0,15,51Z" transform="translate(-7 -39)" fill="#e6e9ed"/></g><g transform="translate(6 52)"><path d="M21.18,53a2.935,2.935,0,0,0,1.63,1.75A8,8,0,0,1,7,53H21.17Z" transform="translate(-7 -53)" fill="#69d6f4"/></g><g transform="translate(22 44)"><circle cx="2" cy="2" r="2" transform="translate(0 0)" fill="#4fc1e9"/></g><g transform="translate(6 32)"><circle cx="2" cy="2" r="2" transform="translate(0 0)" fill="#4fc1e9"/></g><g transform="translate(4 42)"><circle cx="2" cy="2" r="2" transform="translate(0 0)" fill="#4fc1e9"/></g><g transform="translate(10 48)"><circle cx="2" cy="2" r="2" transform="translate(0 0)" fill="#4fc1e9"/></g><g transform="translate(0 22)"><path d="M4.2,23.4A2.027,2.027,0,0,1,5,25a2,2,0,1,1-.8-1.6Z" transform="translate(-1 -23)" fill="#b4dd7f"/></g><g transform="translate(0 6)"><path d="M3,7A2.006,2.006,0,0,1,5,9a2,2,0,0,1-2,2A2,2,0,0,1,3,7Z" transform="translate(-1 -7)" fill="#b4dd7f"/></g><g transform="translate(12 2)"><path d="M15,3a2,2,0,0,1,0,4,1.914,1.914,0,0,1-.89-.21A2,2,0,0,1,15,3Z" transform="translate(-13 -3)" fill="#b4dd7f"/></g><g transform="translate(12 22)"><path d="M16,23a3,3,0,1,1-1.84.63A3.03,3.03,0,0,1,16,23Z" transform="translate(-13 -23)" fill="#b4dd7f"/></g><g transform="translate(4 12)"><path d="M11.45,20.15A3.917,3.917,0,0,1,9,21a4,4,0,1,1,4-4A3.956,3.956,0,0,1,11.45,20.15Z" transform="translate(-5 -13)" fill="#b4dd7f"/></g><g transform="translate(16)"><path d="M26.01,13.01A6.713,6.713,0,0,0,23,18.61V19l-2.81-2.35A8.848,8.848,0,0,1,25.85,1H39.69A21.3,21.3,0,0,1,61,22.31,20.674,20.674,0,0,1,43,42.82V31h3.66A6.35,6.35,0,0,0,53,24.66,5.619,5.619,0,0,0,51.66,21c-.11-.12-.21-.23-.32-.34a5.649,5.649,0,0,0-8,0L43,21a6,6,0,0,0-6-6H30a5.022,5.022,0,0,1-3.54-1.46,4.655,4.655,0,0,1-.45-.53Z" transform="translate(-17 -1)" fill="#b27946"/></g><g transform="translate(30 41.99)"><path d="M40.31,43c.15,0,.3,0,.45-.01V43a4.246,4.246,0,0,0-3,1.24L33,49H31a6,6,0,0,1,6-6Z" transform="translate(-31 -42.99)" fill="#e6e9ed"/></g><g transform="translate(30 46.24)"><path d="M45,47.24V61H31V57h4.34a4,4,0,0,0,2.83-1.17l5.59-5.59A4.246,4.246,0,0,0,45,47.24Z" transform="translate(-31 -47.24)" fill="#e6e9ed"/></g><g transform="translate(26 42)"><path d="M31,49h2l4.76-4.76a4.243,4.243,0,0,1,6,6l-5.59,5.59A4,4,0,0,1,35.34,57H28a1,1,0,0,1-1-1V49Z" transform="translate(-27 -43)" fill="#e6e9ed"/></g><g transform="translate(20 48)"><path d="M25,49h2v6H24a3,3,0,0,1-2.82-2A2.772,2.772,0,0,1,21,52a2.993,2.993,0,0,1,.88-2.12,3.269,3.269,0,0,1,.35-.3A3,3,0,0,1,24,49Z" transform="translate(-21 -49)" fill="#f0d0b4"/></g><g transform="translate(22 12.01)"><path d="M29,19a6,6,0,0,0-6,6V18.61a6.713,6.713,0,0,1,3.01-5.6,4.655,4.655,0,0,0,.45.53A5.022,5.022,0,0,0,30,15h7a6,6,0,0,1,6,6l.34-.34a5.649,5.649,0,0,1,8,0c.11.11.21.22.32.34A5.619,5.619,0,0,1,53,24.66,6.35,6.35,0,0,1,46.66,31H43V42.82a18.3,18.3,0,0,1-2.24.17c-.15.01-.3.01-.45.01H32a8.954,8.954,0,0,1-5.79-2.12A6,6,0,0,0,31,35H23.06A8.262,8.262,0,0,1,23,34V25a6,6,0,1,0,6-6Z" transform="translate(-23 -13.01)" fill="#f0d0b4"/></g><g transform="translate(22.06 34)"><path d="M23.06,35H31a6,6,0,0,1-4.79,5.88A8.938,8.938,0,0,1,23.06,35Z" transform="translate(-23.06 -35)" fill="#ff826e"/></g><g transform="translate(22 18)"><path d="M29,19a6,6,0,1,1-6,6A6,6,0,0,1,29,19Z" transform="translate(-23 -19)" fill="#69d6f4"/></g><g transform="translate(26 22)"><circle cx="2" cy="2" r="2" transform="translate(0 0)" fill="#d3a06c"/></g></g><g transform="translate(0)"><path d="M62,22.315A22.34,22.34,0,0,0,39.685,0H25.854a9.838,9.838,0,0,0-8,4.123,2.992,2.992,0,1,0-5.01,2.954L10.288,12.19a4.689,4.689,0,0,0-3.417.3L5.5,10.661A3,3,0,1,0,3,12a2.968,2.968,0,0,0,.888-.149L5.274,13.7a4.914,4.914,0,0,0,0,6.6L3.888,22.149A2.968,2.968,0,0,0,3,22a3.007,3.007,0,1,0,2.495,1.339L6.87,21.506a4.823,4.823,0,0,0,4.336-.042l1.639,2.107A3.959,3.959,0,0,0,12,26a4,4,0,1,0,4-4,3.961,3.961,0,0,0-1.586.332l-1.632-2.1a4.923,4.923,0,0,0-.707-7.147l2.562-5.124A2.9,2.9,0,0,0,15,8a2.967,2.967,0,0,0,1.238-.275,9.812,9.812,0,0,0,3.307,9.7L22,19.468V34A10.011,10.011,0,0,0,32,44h.111a6.99,6.99,0,0,0-2.031,4H27.816A2.966,2.966,0,0,0,28,47a3,3,0,0,0-6,0,2.949,2.949,0,0,0,.042.412A8.973,8.973,0,0,0,18,44.522V40a2,2,0,0,0,2-2V36a2,2,0,0,0-2-2H12c-.061,0-.119.013-.179.018A3.018,3.018,0,1,0,10,37.816V38a2,2,0,0,0,2,2v4.521a8.93,8.93,0,0,0-2.057,1.046A3,3,0,1,0,7,48a3,3,0,0,0,.564-.057A8.99,8.99,0,0,0,15,62a9.064,9.064,0,0,0,8.5-6.051A3.967,3.967,0,0,0,24,56h2a2,2,0,0,0,2,2h2v4H46V47h-.024a5.216,5.216,0,0,0-1.469-3.41A21.719,21.719,0,0,0,62,22.315ZM2,9a1,1,0,1,1,1,1A1,1,0,0,1,2,9ZM3,26a1,1,0,1,1,1-1A1,1,0,0,1,3,26Zm15,0a2,2,0,1,1-2-2A2,2,0,0,1,18,26ZM9.79,16.386,8.21,17.614l1.728,2.221A2.948,2.948,0,0,1,9,20a3,3,0,1,1,3-3,2.973,2.973,0,0,1-.479,1.613ZM15,6a1,1,0,1,1,1-1A1,1,0,0,1,15,6ZM25,46a1,1,0,1,1-1,1A1,1,0,0,1,25,46ZM18,36v2H12V36ZM9,36a1,1,0,1,1,1-1A1,1,0,0,1,9,36Zm4.25,10.23.75-.194V40h2v6.036l.75.193a6.992,6.992,0,0,1,4.243,3.162A3.966,3.966,0,0,0,20,52H15.816A2.966,2.966,0,0,0,16,51a3,3,0,0,0-6,0,2.966,2.966,0,0,0,.184,1h-2.1A6.986,6.986,0,0,1,13.25,46.23ZM12,51a1,1,0,1,1,1,1A1,1,0,0,1,12,51ZM6,45a1,1,0,1,1,1,1A1,1,0,0,1,6,45Zm9,15a7.006,7.006,0,0,1-6.92-6H20.556a4,4,0,0,0,1.065,1.2A7.033,7.033,0,0,1,15,60Zm11-6H24a2,2,0,0,1,0-4h2ZM20.826,15.887A7.854,7.854,0,0,1,25.854,2H39.686A20.337,20.337,0,0,1,60,22.315,19.71,19.71,0,0,1,44,41.642V32h2.657A7.351,7.351,0,0,0,54,24.657,6.622,6.622,0,0,0,53.443,22H56V20H52.092a6.641,6.641,0,0,0-8.368-.928A7.009,7.009,0,0,0,37,14H30a4,4,0,0,1-4-4,2,2,0,0,1,4,0h2a4,4,0,0,0-8,0,5.966,5.966,0,0,0,.685,2.775A7.66,7.66,0,0,0,22.167,17ZM24,18.609a5.677,5.677,0,0,1,1.9-4.24A5.974,5.974,0,0,0,30,16h7a5.009,5.009,0,0,1,4.9,4H33.89a6.979,6.979,0,0,0-9.89.11ZM34,25a5,5,0,1,1-5-5A5.006,5.006,0,0,1,34,25ZM24.263,36H29.9a5.016,5.016,0,0,1-3.429,3.767A8.006,8.006,0,0,1,24.263,36ZM32,42a7.941,7.941,0,0,1-3.638-.884A7.014,7.014,0,0,0,32,35V34H24V29.89A6.989,6.989,0,0,0,35.315,22h8.1l.636-.636A4.657,4.657,0,0,1,52,24.657,5.349,5.349,0,0,1,46.657,30H42V41.915c-.557.047-1.116.085-1.685.085Zm4.539,2.047L32.586,48H32.1A4.993,4.993,0,0,1,36.539,44.047ZM28,50h4.586l1.707,1.707,1.414-1.414L34.414,49l4.05-4.05a3.242,3.242,0,1,1,4.586,4.585l-5.586,5.586A3.017,3.017,0,0,1,35.343,56H28Zm4,10V58h3.343a4.968,4.968,0,0,0,3.535-1.465L44,51.414V60Z" transform="translate(0)"/><path d="M46,25.236A2.224,2.224,0,0,1,48,24V22a4.212,4.212,0,0,0-3.789,2.342l-.1.211,1.789.9Z" transform="translate(0 0)"/><path d="M29,22a3,3,0,1,0,3,3A3,3,0,0,0,29,22Zm0,4a1,1,0,1,1,1-1A1,1,0,0,1,29,26Z" transform="translate(0 0)"/><path d="M2,37a3,3,0,0,1,1.542-2.6l.59-.332-.1-.774A2.172,2.172,0,0,1,4,33a3,3,0,0,1,5.25-1.984l1.5-1.323A5,5,0,0,0,2,33v.021A4.947,4.947,0,0,0,1.018,40,4.963,4.963,0,0,0,0,43a5.048,5.048,0,0,0,.157,1.249l1.938-.5A3.008,3.008,0,0,1,2,43a2.955,2.955,0,0,1,1.038-2.247L3.9,40l-.861-.753A2.957,2.957,0,0,1,2,37Z" transform="translate(0 0)"/></g></g></g></svg>