<svg xmlns="http://www.w3.org/2000/svg" width="141" height="140.97" viewBox="0 0 141 140.97"><g transform="translate(-1 -1.013)"><g transform="translate(3.274 3.257)"><g transform="translate(0 81.871)"><path d="M45.21,42.548h2.274a9.1,9.1,0,1,0,0,18.194V83.484a9.094,9.094,0,0,0,9.1,9.1H13.371a11.365,11.365,0,0,1-1.524-22.628,5.91,5.91,0,0,1,.3-.819,13.677,13.677,0,0,1,12.6-8.392,9.049,9.049,0,0,0-4.5-7.846c-.023-.409-.045-.819-.045-1.251A13.656,13.656,0,0,1,33.839,38a12.106,12.106,0,0,1,2.433.227h.023A11.3,11.3,0,0,0,45.21,42.548Z" transform="translate(-2 -38)" fill="#e6e9ed"/></g><g transform="translate(31.839 59.129)"><path d="M52.387,39.371v6.823H27.371A2.281,2.281,0,0,0,25.1,48.468v4.548a2.281,2.281,0,0,0,2.274,2.274,11.371,11.371,0,1,1,4.048-22.014,12.227,12.227,0,0,1,2.047-2.411,11.373,11.373,0,0,1,18.921,8.505Z" transform="translate(-16 -28)" fill="#e6e9ed"/></g><g transform="translate(45.484 45.484)"><path d="M58.387,22a9.1,9.1,0,0,1,5.276,16.511,11.373,11.373,0,0,0-18.921,8.505,11.373,11.373,0,0,0-18.921-8.505A9.1,9.1,0,0,1,31.1,22v2.274h27.29Z" transform="translate(-22 -22)" fill="#e6e9ed"/></g><g transform="translate(68.226 59.129)"><path d="M57.016,46.194H32V39.371a11.373,11.373,0,0,1,18.921-8.505,12.227,12.227,0,0,1,2.047,2.411A11.409,11.409,0,0,1,68.387,43.919,11.384,11.384,0,0,1,57.016,55.29a2.281,2.281,0,0,0,2.274-2.274V48.468A2.281,2.281,0,0,0,57.016,46.194Z" transform="translate(-32 -28)" fill="#e6e9ed"/></g><g transform="translate(81.871 81.871)"><path d="M82.733,69.952A11.365,11.365,0,0,1,81.21,92.581H38a9.094,9.094,0,0,0,9.1-9.1V60.742a9.1,9.1,0,0,0,0-18.194h2.274a11.3,11.3,0,0,0,8.915-4.321h.023A12.106,12.106,0,0,1,60.742,38,13.656,13.656,0,0,1,74.387,51.645c0,.432-.023.841-.045,1.251a9.049,9.049,0,0,0-4.5,7.846,13.677,13.677,0,0,1,12.6,8.392A5.912,5.912,0,0,1,82.733,69.952Z" transform="translate(-38 -38)" fill="#e6e9ed"/></g><g transform="translate(36.387 86.419)"><path d="M27.1,49.1v9.1A9.1,9.1,0,1,1,27.1,40Z" transform="translate(-18 -40)" fill="#69d6f4"/></g><g transform="translate(4.548 95.516)"><path d="M17.691,45.251a9.049,9.049,0,0,1,4.5,7.846,13.677,13.677,0,0,0-12.6,8.392,9.093,9.093,0,1,1,8.1-16.238Z" transform="translate(-4 -44)" fill="#69d6f4"/></g><g transform="translate(4.548 36.387)"><circle cx="13.645" cy="13.645" r="13.645" transform="translate(0 0)" fill="#69d6f4"/></g><g transform="translate(100.065 45.484)"><circle cx="4.548" cy="4.548" r="4.548" fill="#69d6f4"/></g><g transform="translate(118.258 61.403)"><circle cx="9.097" cy="9.097" r="9.097" fill="#69d6f4"/></g><g transform="translate(113.71 95.516)"><path d="M52,53.1a9.1,9.1,0,1,1,12.6,8.392A13.677,13.677,0,0,0,52,53.1Z" transform="translate(-52 -44)" fill="#69d6f4"/></g><g transform="translate(90.968 86.419)"><path d="M42,40a9.1,9.1,0,0,1,0,18.194Z" transform="translate(-42 -40)" fill="#69d6f4"/></g><g transform="translate(27.29 118.258)"><circle cx="4.548" cy="4.548" r="4.548" fill="#69d6f4"/></g><g transform="translate(100.065 118.258)"><circle cx="4.548" cy="4.548" r="4.548" fill="#69d6f4"/></g><g transform="translate(40.935 77.323)"><path d="M74.581,38.274v4.548A2.281,2.281,0,0,1,72.306,45.1H22.274A2.281,2.281,0,0,1,20,42.823V38.274A2.281,2.281,0,0,1,22.274,36H72.306A2.281,2.281,0,0,1,74.581,38.274Z" transform="translate(-20 -36)" fill="#aab2bd"/></g><g transform="translate(45.484 86.419)"><path d="M22,76.387V40H67.484V80.935a9.094,9.094,0,0,1-9.1,9.1H31.1a9.094,9.094,0,0,1-9.1-9.1Z" transform="translate(-22 -40)" fill="#ffeaa7"/></g><g transform="translate(68.226 118.258)"><circle cx="4.548" cy="4.548" r="4.548" fill="#4fc1e9"/></g><g transform="translate(72.774 95.516)"><circle cx="4.548" cy="4.548" r="4.548" fill="#4fc1e9"/></g><g transform="translate(0 9.097)"><path d="M42.935,6h9.1V24.194H11.1A9.1,9.1,0,0,1,11.1,6H42.935Z" transform="translate(-2 -6)" fill="#ffeaa7"/></g><g transform="translate(50.032 4.548)"><path d="M33.1,26.742v2.274a2.281,2.281,0,0,1-2.274,2.274H26.274A2.281,2.281,0,0,1,24,29.016V6.274A2.281,2.281,0,0,1,26.274,4h4.548A2.281,2.281,0,0,1,33.1,6.274Z" transform="translate(-24 -4)" fill="#fcd770"/></g><g transform="translate(77.323 9.097)"><path d="M45.1,24.194v2.274a2.281,2.281,0,0,1-2.274,2.274H38.274A2.281,2.281,0,0,1,36,26.468V8.274A2.281,2.281,0,0,1,38.274,6h4.548A2.281,2.281,0,0,1,45.1,8.274V24.194Z" transform="translate(-36 -6)" fill="#b4dd7f"/></g><g transform="translate(86.419)"><path d="M58.194,29.29H40V15.645H58.194L76.774,3.251a7.549,7.549,0,0,1,8.324,0l2.911,1.956a4.5,4.5,0,0,1,2.024,3.775v15.76c-5.3,0-5.3,4.548-10.6,4.548-5.322,0-5.322-4.548-10.62-4.548C63.492,24.742,63.492,29.29,58.194,29.29Z" transform="translate(-40 -2)" fill="#e6e9ed"/></g><g transform="translate(104.613 22.742)"><path d="M79.839,12V23.212a4.5,4.5,0,0,1-2.024,3.775L74.9,28.943a7.549,7.549,0,0,1-8.324,0L48,16.548c5.3,0,5.3-4.548,10.62-4.548,5.3,0,5.3,4.548,10.62,4.548,5.3,0,5.3-4.548,10.6-4.548Z" transform="translate(-48 -12)" fill="#69d6f4"/></g></g><g transform="translate(1 1.013)"><path d="M98.187,4.563l-2.9-1.938a9.943,9.943,0,0,0-10.855,0l-18,12H51.194a4.553,4.553,0,0,0-4.548-4.548H42.1a4.553,4.553,0,0,0-4.548,4.548V28.692A6.813,6.813,0,0,0,33,35.1V51.015h4.548V35.1a2.241,2.241,0,0,1,.221-.946A4.54,4.54,0,0,0,42.1,37.37h4.548a4.553,4.553,0,0,0,4.548-4.548h15.23l18,12a9.783,9.783,0,0,0,10.857,0l2.9-1.938a6.806,6.806,0,0,0,3.038-5.674V10.239a6.813,6.813,0,0,0-3.038-5.676ZM46.645,32.822H42.1l0-18.194h4.551Zm4.548-4.548v-9.1h4.548v4.548H60.29V19.177h4.548v4.548h4.548V18.119L86.951,6.412a5.322,5.322,0,0,1,5.811,0l2.9,1.938a2.267,2.267,0,0,1,1.012,1.89V23.98a10.273,10.273,0,0,0-4.51,2.568c-1.212,1.039-2.013,1.726-3.825,1.726s-2.615-.687-3.827-1.726a9.573,9.573,0,0,0-13.575,0c-1.212,1.039-2.015,1.726-3.827,1.726ZM95.665,39.1l-2.9,1.938a5.322,5.322,0,0,1-5.811,0L72.291,31.266A18.806,18.806,0,0,0,73.9,30c1.21-1.042,2.013-1.728,3.825-1.728s2.613.687,3.827,1.726a9.567,9.567,0,0,0,13.57,0,10.1,10.1,0,0,1,1.549-1.162v8.374A2.266,2.266,0,0,1,95.665,39.1Z" transform="translate(39.774 -1.013)"/><path d="M12.371,30.29H51.032a4.553,4.553,0,0,0,4.548,4.548h4.548a4.54,4.54,0,0,0,4.328-3.22,2.241,2.241,0,0,1,.221.946V48.484h4.548V32.565a6.813,6.813,0,0,0-4.548-6.4V7.548A4.553,4.553,0,0,0,60.129,3H55.581a4.553,4.553,0,0,0-4.548,4.548H12.371a11.371,11.371,0,0,0,0,22.742ZM55.581,7.548h4.548V30.29H55.581ZM12.371,12.1h2.274v9.1h4.548V12.1h4.548v4.548H28.29V12.1h4.548v9.1h4.548V12.1h4.548v4.548h4.548V12.1h4.548V25.742H12.371a6.823,6.823,0,0,1,0-13.645Z" transform="translate(-1 1.518)"/><path d="M37.823,53a6.823,6.823,0,1,0,6.823,6.823A6.831,6.831,0,0,0,37.823,53Zm0,9.1A2.274,2.274,0,1,1,40.1,59.823,2.278,2.278,0,0,1,37.823,62.1Z" transform="translate(37.226 65.228)"/><path d="M39.823,43a6.823,6.823,0,1,0,6.823,6.823A6.831,6.831,0,0,0,39.823,43Zm0,9.1A2.274,2.274,0,1,1,42.1,49.823,2.278,2.278,0,0,1,39.823,52.1Z" transform="translate(39.774 52.486)"/><path d="M3,32.919A15.919,15.919,0,1,0,18.919,17,15.937,15.937,0,0,0,3,32.919Zm27.29,0A11.371,11.371,0,1,1,18.919,21.548,11.384,11.384,0,0,1,30.29,32.919Z" transform="translate(1.548 19.357)"/><path d="M10,25.548a2.278,2.278,0,0,1,2.274,2.274h4.548A6.831,6.831,0,0,0,10,21Z" transform="translate(10.468 24.454)"/><path d="M19.823,53a6.823,6.823,0,1,0,6.823,6.823A6.831,6.831,0,0,0,19.823,53Zm0,9.1A2.274,2.274,0,1,1,22.1,59.823,2.278,2.278,0,0,1,19.823,62.1Z" transform="translate(14.29 65.228)"/><path d="M134.018,93.061a11.338,11.338,0,0,0-10.352-19.21,15.937,15.937,0,0,0-14.327-13.843A13.605,13.605,0,0,0,96.516,41.742a13.767,13.767,0,0,0-2.472.223,11.342,11.342,0,0,0-6.625-18.187V19H82.871V32.645h4.548v-4.13A6.79,6.79,0,0,1,90.285,39.4,13.6,13.6,0,0,0,71.5,43.311,13.6,13.6,0,0,0,52.715,39.4a6.79,6.79,0,0,1,2.865-10.884v4.13h4.548V19H55.581v4.778a11.342,11.342,0,0,0-6.625,18.187A13.66,13.66,0,0,0,32.839,55.387a13.549,13.549,0,0,0,.823,4.621A15.933,15.933,0,0,0,19.335,73.851,11.344,11.344,0,0,0,8.982,93.061a13.611,13.611,0,0,0,5.663,26h113.71a13.611,13.611,0,0,0,5.663-26Zm-1.114-8.11a6.8,6.8,0,0,1-2.433,5.224A15.929,15.929,0,0,0,119.6,82.912a6.8,6.8,0,0,1,13.3,2.04ZM82.871,41.742a9.106,9.106,0,0,1,9.1,9.1h4.548a13.518,13.518,0,0,0-.771-4.478c.257-.023.509-.071.771-.071a9.068,9.068,0,0,1,4.548,16.929V59.935a4.553,4.553,0,0,0-4.548-4.548H73.774V50.839A9.106,9.106,0,0,1,82.871,41.742ZM46.484,69.451V82.257a6.781,6.781,0,0,1,0-12.806Zm0-4.967V59.935H96.516l0,4.548H46.484Zm50.032,4.967a6.783,6.783,0,0,1,0,12.808ZM46.484,46.29c.262,0,.514.048.771.071a13.518,13.518,0,0,0-.771,4.478h4.548a9.1,9.1,0,0,1,18.194,0v4.548H46.484a4.553,4.553,0,0,0-4.548,4.548v3.284A9.068,9.068,0,0,1,46.484,46.29ZM16.919,78.129a6.777,6.777,0,0,1,6.452,4.787A15.929,15.929,0,0,0,12.53,90.178a6.825,6.825,0,0,1,4.389-12.049ZM5.548,105.419a9.116,9.116,0,0,1,4.6-7.891c-.025.355-.055.707-.055,1.069a16.09,16.09,0,0,0,.221,2.652l4.487-.755a11.2,11.2,0,0,1-.159-1.9A11.375,11.375,0,0,1,31.7,88.745l2.279-3.934a15.878,15.878,0,0,0-5.9-2,11.343,11.343,0,0,0-4.33-6.9c0-.02,0-.041,0-.061A11.07,11.07,0,0,1,36.45,64.6a13.723,13.723,0,0,0,4.332,3.166A11.357,11.357,0,0,0,46.484,87v20.7a11.253,11.253,0,0,0,2.333,6.823H14.645a9.106,9.106,0,0,1-9.1-9.1Zm52.306,9.1a6.831,6.831,0,0,1-6.823-6.823v-2.274h9.1v-4.548h-9.1V96.323H64.677V91.774H51.032V87.226h9.1V82.677h-9.1V78.129H64.677V73.581H51.032V69.032H91.968v38.661a6.831,6.831,0,0,1-6.823,6.823Zm70.5,0H94.183a11.253,11.253,0,0,0,2.333-6.823V87a11.357,11.357,0,0,0,5.7-19.228A13.653,13.653,0,0,0,106.55,64.6a11.07,11.07,0,0,1,12.708,11.253c0,.02,0,.041,0,.061a11.353,11.353,0,0,0-4.33,6.9,15.878,15.878,0,0,0-5.9,2l2.279,3.934a11.38,11.38,0,0,1,16.9,11.748l4.487.755A16.339,16.339,0,0,0,132.9,98.6c0-.362-.03-.714-.055-1.069a9.086,9.086,0,0,1-4.494,16.988Z" transform="translate(-1 21.905)"/><path d="M51.823,53a6.823,6.823,0,1,0,6.823,6.823A6.831,6.831,0,0,0,51.823,53Zm0,9.1A2.274,2.274,0,1,1,54.1,59.823,2.278,2.278,0,0,1,51.823,62.1Z" transform="translate(55.065 65.228)"/><path d="M64.371,28A11.371,11.371,0,1,0,75.742,39.371,11.384,11.384,0,0,0,64.371,28Zm0,18.194a6.823,6.823,0,1,1,6.823-6.823A6.831,6.831,0,0,1,64.371,46.194Z" transform="translate(65.258 33.373)"/><path d="M58.645,27.823a6.823,6.823,0,1,0-6.823,6.823A6.831,6.831,0,0,0,58.645,27.823Zm-9.1,0A2.274,2.274,0,1,1,51.823,30.1,2.278,2.278,0,0,1,49.548,27.823Z" transform="translate(55.065 24.454)"/></g></g></svg>