<svg xmlns="http://www.w3.org/2000/svg" width="157.568" height="136.333" viewBox="0 0 157.568 136.333"><g transform="translate(3.074 3.074)"><path d="M100.875,140.215H60.928a10.959,10.959,0,0,0-10.792,8.219l-19.8,71.237c-2.076,7.462,2.949,10.652,7.476,10.652H163.94c4.527,0,9.552-3.19,7.476-10.652l-19.8-71.237a10.959,10.959,0,0,0-10.792-8.219Zm0,0" transform="translate(-23.738 -100.138)" fill="#cbe558" fill-rule="evenodd"/><path d="M186.715,179.949a32.852,32.852,0,1,0,23.231,9.614,32.745,32.745,0,0,0-23.231-9.614Zm0,0" transform="translate(-109.578 -127.644)" fill="#f9fceb" fill-rule="evenodd"/><path d="M161.409,9.988H9.989A19.88,19.88,0,0,0,29.818,29.8H141.58A19.88,19.88,0,0,0,161.409,9.988Zm0,0" transform="translate(-9.989 -9.988)" fill="#cbe558" fill-rule="evenodd"/><path d="M165.414,74.363h12.859V94.629H165.414Zm0,0" transform="translate(-117.582 -54.552)" fill="#ffc15a" fill-rule="evenodd"/><path d="M309.2,74.363h12.868V94.629H309.2Zm0,0" transform="translate(-217.114 -54.552)" fill="#ffc15a" fill-rule="evenodd"/><path d="M248.2,268.063a5.716,5.716,0,1,0,5.53,5.709A5.621,5.621,0,0,0,248.2,268.063Zm0,0" transform="translate(-171.058 -188.641)" fill="#ff6977" fill-rule="evenodd"/></g><path d="M154.561,231.4a35.892,35.892,0,0,0,50.477,0c.056-.049.114-.1.167-.151s.1-.107.145-.161a35.814,35.814,0,0,0,.067-50.371c-.066-.081-.137-.16-.213-.236a3.092,3.092,0,0,0-.239-.215,35.9,35.9,0,0,0-50.334,0c-.082.067-.162.138-.239.215s-.145.155-.212.236a35.814,35.814,0,0,0,.067,50.371c.047.054.094.109.145.161s.111.1.167.151Zm-4.393-22.461h3.52a3.074,3.074,0,1,0,0-6.148h-3.52a29.594,29.594,0,0,1,6.518-15.674l2.48,2.478a3.074,3.074,0,1,0,4.346-4.348l-2.474-2.473a29.665,29.665,0,0,1,15.688-6.5v3.505a3.073,3.073,0,1,0,6.147,0v-3.505a29.665,29.665,0,0,1,15.689,6.5l-2.475,2.472a3.074,3.074,0,1,0,4.345,4.349l2.48-2.479a29.6,29.6,0,0,1,6.519,15.674H205.91a3.074,3.074,0,0,0,0,6.148h3.521a29.614,29.614,0,0,1-6.517,15.676l-2.482-2.481a3.074,3.074,0,1,0-4.345,4.349l2.479,2.475a29.673,29.673,0,0,1-15.693,6.508v-3.514a3.073,3.073,0,1,0-6.147,0v3.514a29.669,29.669,0,0,1-15.693-6.508l2.479-2.475a3.074,3.074,0,1,0-4.346-4.349l-2.482,2.48a29.6,29.6,0,0,1-6.516-15.675Zm0,0" transform="translate(-99.589 -117.656)"/><path d="M241.278,259.04a8.815,8.815,0,0,0,3.073-16.994v-4.89a3.074,3.074,0,1,0-6.148,0v4.89a8.815,8.815,0,0,0,3.075,16.994Zm0-6.148a2.646,2.646,0,1,1,2.456-2.644A2.559,2.559,0,0,1,241.278,252.892Zm0,0" transform="translate(-161.067 -162.044)"/><path d="M133.91,50.547a13.978,13.978,0,0,0-13.753-10.469H111.1V25.959h23.569a22.921,22.921,0,0,0,22.9-22.885A3.074,3.074,0,0,0,154.494,0H3.074A3.074,3.074,0,0,0,0,3.074,22.922,22.922,0,0,0,22.9,25.96h24.93V40.077h-7.57A13.979,13.979,0,0,0,26.511,50.547L19.262,76.608a3.073,3.073,0,0,0,5.922,1.647l7.25-26.06a7.885,7.885,0,0,1,7.83-5.97h79.893a7.883,7.883,0,0,1,7.83,5.969l19.8,71.238c.417,1.5.688,3.588-.394,5.014a5.266,5.266,0,0,1-4.121,1.74H17.145a5.262,5.262,0,0,1-4.12-1.74c-1.083-1.426-.813-3.514-.394-5.015l5.714-20.58a3.074,3.074,0,1,0-5.923-1.645L6.708,121.783c-1.433,5.148-.018,8.486,1.422,10.381a11.264,11.264,0,0,0,9.015,4.169H143.276a11.267,11.267,0,0,0,9.016-4.169c1.439-1.895,2.854-5.233,1.422-10.379ZM6.432,6.148H151.138a16.779,16.779,0,0,1-16.473,13.665H22.9A16.777,16.777,0,0,1,6.432,6.148Zm85.65,19.811V40.077H66.84V25.959ZM53.98,40.077V25.959h6.712V40.077Zm44.249,0V25.959h6.72V40.077Zm0,0" transform="translate(0 0)"/><path d="M52.585,289.746a3.074,3.074,0,0,0,3.888-1.945l.018-.052a3.074,3.074,0,0,0-5.833-1.944l-.018.052a3.076,3.076,0,0,0,1.945,3.889Zm0,0" transform="translate(-34.946 -196.393)"/></svg>