<svg xmlns="http://www.w3.org/2000/svg" width="127" height="127" viewBox="0 0 127 127"><circle cx="63.5" cy="63.5" r="63.5" fill="#adc46c"/><path d="M203.738,184.869c30.045-3.669,53.377-30.759,53.377-63.639,0-.106,0-.212,0-.318L215.038,76.245,178.5,82.624l27.124,28.8-20.33,53.868Z" transform="translate(-130.115 -58.272)" fill="#8fa259"/><path d="M205.982,177.492h0c-8.52,0-15.427-7.337-15.427-16.388V85.2h30.854v75.9C221.409,170.155,214.5,177.492,205.982,177.492Z" transform="translate(-142.482 -64.222)" fill="#35ccff"/><g transform="translate(45.231 17.972)"><path d="M256,85.2v93.186h0c8.52,0,15.427-7.408,15.427-16.547V85.2Z" transform="translate(-237.731 -83.088)" fill="#00baff"/><rect width="36.538" height="6.008" fill="#00baff"/></g><rect width="18.269" height="6.008" transform="translate(64.063 17.974)" fill="#008cc3"/><path d="M221.246,240.609a3.883,3.883,0,0,0-1.482.293,3.879,3.879,0,0,0-3.509.28,3.894,3.894,0,0,0-7.3,1.634,3.875,3.875,0,0,0-3.952.3,3.893,3.893,0,0,0-7.369,1.385h-.017v28.9a13.762,13.762,0,1,0,27.525,0v-28.9A3.9,3.9,0,0,0,221.246,240.609Z" transform="translate(-147.881 -176.48)" fill="#8c6239"/><path d="M265.865,240.609a3.879,3.879,0,0,0-1.482.293,3.878,3.878,0,0,0-3.509.28A3.9,3.9,0,0,0,256,239.45v47.721a13.763,13.763,0,0,0,13.762-13.763v-28.9A3.9,3.9,0,0,0,265.865,240.609Z" transform="translate(-192.094 -176.48)" fill="#754c24"/><circle cx="1.015" cy="1.015" r="1.015" transform="translate(53.806 69.123)" fill="#a67c52"/><g transform="translate(67.694 68.106)"><circle cx="1.886" cy="1.886" r="1.886" transform="translate(0 25.025)" fill="#8c6239"/><circle cx="1.015" cy="1.015" r="1.015" transform="translate(4.687 15.26)" fill="#8c6239"/><circle cx="1.902" cy="1.902" r="1.902" transform="translate(0.999)" fill="#8c6239"/></g><circle cx="2.947" cy="2.947" r="2.947" transform="translate(60.553 74.012)" fill="#a67c52"/><path d="M256,297.622v5.893a2.947,2.947,0,0,0,0-5.893Z" transform="translate(-192.421 -223.61)" fill="#8c6239"/><circle cx="2.302" cy="2.302" r="2.302" transform="translate(52.51 93.14)" fill="#a67c52"/></svg>