<svg xmlns="http://www.w3.org/2000/svg" width="187" height="187" viewBox="0 0 187 187"><g transform="translate(-231 -1767)"><circle cx="93.5" cy="93.5" r="93.5" transform="translate(231 1767)" fill="#80cab6"/><g transform="translate(267 1723.6)"><path d="M113.409,290.133H1.922A1.928,1.928,0,0,0,0,292.055v23.066a1.928,1.928,0,0,0,1.922,1.922H113.409a1.928,1.928,0,0,0,1.922-1.922V292.055A1.927,1.927,0,0,0,113.409,290.133ZM111.487,313.2H3.844V293.977H9.611v3.844a1.922,1.922,0,1,0,3.844,0v-3.844h7.689v7.689a1.922,1.922,0,1,0,3.844,0v-7.689h7.689v3.844a1.922,1.922,0,1,0,3.844,0v-3.844H44.21v7.689a1.922,1.922,0,1,0,3.844,0v-7.689h7.689v3.844a1.922,1.922,0,1,0,3.844,0v-3.844h7.689v7.689a1.922,1.922,0,1,0,3.844,0v-7.689h7.689v3.844a1.922,1.922,0,1,0,3.844,0v-3.844h7.689v7.689a1.922,1.922,0,1,0,3.844,0v-7.689h7.689v3.844a1.922,1.922,0,1,0,3.844,0v-3.844h5.767V313.2Z" transform="translate(0 -145.445)"/><g transform="translate(3.844 148.532)"><rect width="5.767" height="3.844" transform="translate(0 0)" fill="#f6981e"/><rect width="7.689" height="3.844" transform="translate(9.611 0)" fill="#f6981e"/><rect width="7.689" height="3.844" transform="translate(21.144 0)" fill="#f6981e"/><rect width="7.689" height="3.844" transform="translate(32.677 0)" fill="#f6981e"/><rect width="7.689" height="3.844" transform="translate(44.21 0)" fill="#f6981e"/><rect width="7.689" height="3.844" transform="translate(55.743 0)" fill="#f6981e"/><rect width="7.689" height="3.844" transform="translate(67.276 0)" fill="#f6981e"/><rect width="7.689" height="3.844" transform="translate(78.809 0)" fill="#f6981e"/><rect width="7.689" height="3.844" transform="translate(90.343 0)" fill="#f6981e"/><rect width="5.767" height="3.844" transform="translate(101.876 0)" fill="#f6981e"/><path d="M468.489,324.267v15.378H460.8V326.189a1.928,1.928,0,0,0,1.922-1.922Z" transform="translate(-360.846 -320.423)" fill="#f6981e"/></g><path d="M117.021,326.188v13.455H17.067V324.266h5.767a1.922,1.922,0,1,0,3.844,0h7.689v3.844a1.922,1.922,0,1,0,3.844,0v-3.844H45.9a1.922,1.922,0,1,0,3.844,0h7.689v3.844a1.922,1.922,0,1,0,3.844,0v-3.844h7.689a1.922,1.922,0,1,0,3.844,0H80.5v3.844a1.922,1.922,0,1,0,3.844,0v-3.844h7.689a1.922,1.922,0,1,0,3.844,0h7.689v3.844a1.922,1.922,0,1,0,3.844,0v-3.844H115.1A1.931,1.931,0,0,0,117.021,326.188Z" transform="translate(-13.223 -171.889)" fill="#fdb50d"/><path d="M1.922,102.4A1.92,1.92,0,0,0,0,104.322V137a1.922,1.922,0,0,0,3.844,0V104.322A1.92,1.92,0,0,0,1.922,102.4Z"/><path d="M496.856,102.4a1.92,1.92,0,0,0-1.922,1.922V137a1.922,1.922,0,1,0,3.844,0V104.322A1.92,1.92,0,0,0,496.856,102.4Z" transform="translate(-383.447)"/><path d="M133.684,140.229,124.746,128.7a1.723,1.723,0,0,0-1.98-.577,1.9,1.9,0,0,0-1.172,1.807v9.611H46.628v-9.611a1.9,1.9,0,0,0-1.172-1.807,1.7,1.7,0,0,0-1.98.577l-8.938,11.533a2.05,2.05,0,0,0-.4,1.23,2.009,2.009,0,0,0,.4,1.23l8.938,11.533a1.694,1.694,0,0,0,1.98.577,1.9,1.9,0,0,0,1.172-1.807v-9.611h74.965v9.611a1.9,1.9,0,0,0,1.172,1.807,1.694,1.694,0,0,0,1.98-.577l8.938-11.533a2.076,2.076,0,0,0,0-2.46Zm-90.631,7.458-4.805-6.228,4.805-6.228Zm82.116,0V135.231l4.805,6.228Z" transform="translate(-26.445 -19.837)"/><g transform="translate(11.802 115.394)"><path d="M443.077,166.313l-4.805,6.228V160.085Z" transform="translate(-351.351 -160.085)" fill="#f9f9f9"/><path d="M57.2,160.085v12.456L52.4,166.313Z" transform="translate(-52.395 -160.085)" fill="#f9f9f9"/></g></g></g></svg>