<svg xmlns="http://www.w3.org/2000/svg" width="322" height="197.849" viewBox="0 0 322 197.849"><g transform="translate(-53 -52.151)"><g transform="translate(66.285 52.151)"><path d="M293.236,1.5H0v-3H293.236Z" transform="translate(1.097 92.444)" fill="#a6ccb6"/><path d="M98.078,1.5H0v-3H98.078Z" transform="translate(1.097 21.844)" fill="#a6ccb6"/><path d="M195.4,1.5H0v-3H195.4Z" transform="translate(99.175 60.229)" fill="#a6ccb6"/><path d="M65.458,1.5H0v-3H65.458Z" transform="translate(229.12 130.499)" fill="#a6ccb6"/><path d="M70.873,1.5H0v-3H70.873Z" transform="translate(1.097 146.003)" fill="#a6ccb6"/><path d="M1.5,97.514h-3V0h3Z" transform="translate(71.97 91.435)" fill="#a6ccb6"/><path d="M1.5,69.234h-3V0h3Z" transform="translate(99.175 22.087)" fill="#a6ccb6"/><path d="M1.5,30.957h-3V0h3Z" transform="translate(166.682 60.364)" fill="#a6ccb6"/><path d="M1.5,94.032h-3V0h3Z" transform="translate(229.12 91.435)" fill="#a6ccb6"/><path d="M223.509,342.017a2.14,2.14,0,1,1-2.139-2.139A2.14,2.14,0,0,1,223.509,342.017Z" transform="translate(-149.4 -196.014)" fill="#98c3a7"/><path d="M223.509,234.9a2.14,2.14,0,1,1-2.139-2.139A2.14,2.14,0,0,1,223.509,234.9Z" transform="translate(-149.4 -142.455)" fill="#98c3a7"/><circle cx="2.14" cy="2.14" r="2.14" transform="translate(97.036 19.947)" fill="#98c3a7"/><path d="M277.92,170.738a2.139,2.139,0,1,1-2.139-2.139A2.139,2.139,0,0,1,277.92,170.738Z" transform="translate(-176.605 -110.375)" fill="#98c3a7"/><path d="M412.933,170.738a2.139,2.139,0,1,1-2.139-2.139A2.139,2.139,0,0,1,412.933,170.738Z" transform="translate(-244.112 -110.375)" fill="#98c3a7"/><path d="M412.933,234.9a2.139,2.139,0,1,1-2.139-2.139A2.14,2.14,0,0,1,412.933,234.9Z" transform="translate(-244.112 -142.455)" fill="#98c3a7"/><path d="M537.806,311.916a2.14,2.14,0,1,1-2.032-2.242A2.139,2.139,0,0,1,537.806,311.916Z" transform="translate(-306.55 -180.911)" fill="#98c3a7"/><path d="M537.806,235a2.14,2.14,0,1,1-2.032-2.241A2.14,2.14,0,0,1,537.806,235Z" transform="translate(-306.55 -142.455)" fill="#98c3a7"/><circle cx="2.14" cy="2.14" r="2.14" transform="translate(97.036 90.304)" fill="#98c3a7"/><path d="M12.838,1.5H0v-3H12.838Z" transform="translate(216.281 114.836)" fill="#a6ccb6"/><path d="M537.806,279.2a2.14,2.14,0,1,1-2.032-2.242A2.139,2.139,0,0,1,537.806,279.2Z" transform="translate(-306.55 -164.554)" fill="#98c3a7"/><rect width="4.5" height="185.2" transform="translate(293.736)" fill="#98c3a7"/><rect width="4.5" height="185.2" fill="#98c3a7"/></g><g transform="translate(216.322 163.884)"><circle cx="21.878" cy="21.878" r="21.878" transform="translate(6.288 33.459)" fill="#f7f8f9"/><path d="M401.285,377.312a17.635,17.635,0,1,0,34.112,0Z" transform="translate(-390.175 -326.465)" fill="#f1d054"/><rect width="9.295" height="44.379" transform="translate(23.519 1.053)" fill="#f7f8f9"/><path d="M2.116,0h9.269A2.116,2.116,0,0,1,13.5,2.116v0a2.116,2.116,0,0,1-2.116,2.116H2.116A2.116,2.116,0,0,1,0,2.116v0A2.116,2.116,0,0,1,2.116,0Z" transform="translate(21.416)" fill="#e6c221"/><path d="M399.514,347.942l-12.655-12.655L381.75,340.4l13.167,13.167C396.522,351.758,397.988,349.813,399.514,347.942Z" transform="translate(-380.697 -305.453)" fill="#f7f8f9"/><path d="M385.22,333.663l-5.094,5.095a1.644,1.644,0,0,0,0,2.326h0a1.645,1.645,0,0,0,2.326,0l5.094-5.095a1.644,1.644,0,0,0,0-2.326h0A1.645,1.645,0,0,0,385.22,333.663Z" transform="translate(-379.644 -304.4)" fill="#e6c221"/><path d="M425.147,365.11a1.37,1.37,0,1,1-1.371-1.37A1.37,1.37,0,0,1,425.147,365.11Z" transform="translate(-401.025 -319.679)" fill="#e6c221"/><circle cx="3.32" cy="3.32" r="3.32" transform="translate(20.314 55.337)" fill="#e6c221"/><path d="M451.911,375.3A2.008,2.008,0,1,1,449.9,373.3,2.008,2.008,0,0,1,451.911,375.3Z" transform="translate(-413.769 -324.457)" fill="#e6c221"/></g><g transform="translate(77.231 171.659)"><path d="M114.421,291.167H103.749a2.286,2.286,0,1,0,0,4.573h.137v40.578a4.689,4.689,0,0,0,4.69,4.69h1.017a4.689,4.689,0,0,0,4.689-4.69V295.74h.138a2.286,2.286,0,0,0,0-4.573Z" transform="translate(-101.463 -291.167)" fill="#f7f8f9"/><path d="M111.311,318.2v31.637a2.192,2.192,0,0,0,2.19,2.19h1.017a2.192,2.192,0,0,0,2.189-2.19V318.2Z" transform="translate(-106.387 -304.682)" fill="#e1a4cd"/><g transform="translate(19.033)"><path d="M152.487,291.167H141.816a2.286,2.286,0,0,0,0,4.573h.137v40.578a4.69,4.69,0,0,0,4.69,4.69h1.017a4.69,4.69,0,0,0,4.69-4.69V295.74h.137a2.286,2.286,0,1,0,0-4.573Z" transform="translate(-139.529 -291.167)" fill="#f7f8f9"/><path d="M0,0H38.444a2.7,2.7,0,0,1,2.7,2.7v0a2.7,2.7,0,0,1-2.7,2.7H0a0,0,0,0,1,0,0V0A0,0,0,0,1,0,0Z" transform="translate(10.32 6.199) rotate(90)" fill="#f1d054"/></g><g transform="translate(38.065)"><path d="M190.552,291.167H179.88a2.286,2.286,0,0,0,0,4.573h.138v40.578a4.689,4.689,0,0,0,4.689,4.69h1.018a4.689,4.689,0,0,0,4.689-4.69V295.74h.138a2.286,2.286,0,0,0,0-4.573Z" transform="translate(-177.594 -291.167)" fill="#f7f8f9"/><path d="M187.442,330.662v25.4a2.192,2.192,0,0,0,2.189,2.19h1.018a2.192,2.192,0,0,0,2.189-2.19v-25.4Z" transform="translate(-182.518 -310.914)" fill="#616d8a"/></g></g><g transform="translate(79.655 124.704)"><rect width="48.386" height="28.437" rx="7.002" fill="#5b6481"/><g transform="translate(4.037 5.536)"><rect width="24.544" height="11.128" rx="2.055" fill="#e2f1ec"/><g transform="translate(28.651)"><rect width="4.511" height="1.643" fill="#98c3a7"/><rect width="4.511" height="1.643" transform="translate(0 4.02)" fill="#98c3a7"/><rect width="4.511" height="1.643" transform="translate(0 8.04)" fill="#98c3a7"/><rect width="4.511" height="1.643" transform="translate(0 11.703)" fill="#98c3a7"/><rect width="4.511" height="1.643" transform="translate(0 15.723)" fill="#98c3a7"/><rect width="4.511" height="1.643" transform="translate(7.15)" fill="#98c3a7"/><rect width="4.511" height="1.643" transform="translate(7.15 4.02)" fill="#98c3a7"/><rect width="4.511" height="1.643" transform="translate(7.15 8.04)" fill="#98c3a7"/><rect width="4.511" height="1.643" transform="translate(7.15 11.703)" fill="#98c3a7"/><rect width="4.511" height="1.643" transform="translate(7.15 15.723)" fill="#98c3a7"/></g><path d="M120.186,240.009a1.017,1.017,0,1,1-1.017-1.017A1.017,1.017,0,0,1,120.186,240.009Z" transform="translate(-116.268 -223.661)" fill="#363b5d"/><path d="M130.033,240.009a1.017,1.017,0,1,1-1.017-1.017A1.017,1.017,0,0,1,130.033,240.009Z" transform="translate(-121.191 -223.661)" fill="#363b5d"/><path d="M139.88,240.009a1.017,1.017,0,1,1-1.018-1.017A1.017,1.017,0,0,1,139.88,240.009Z" transform="translate(-126.115 -223.661)" fill="#363b5d"/><path d="M149.726,240.009a1.017,1.017,0,1,1-1.017-1.017A1.017,1.017,0,0,1,149.726,240.009Z" transform="translate(-131.038 -223.661)" fill="#363b5d"/><path d="M159.573,240.009a1.017,1.017,0,1,1-1.017-1.017A1.017,1.017,0,0,1,159.573,240.009Z" transform="translate(-135.962 -223.661)" fill="#363b5d"/></g><path d="M136.442,219.975a1.461,1.461,0,0,1-1.038-.438l-1.063-1.063a1.816,1.816,0,0,0-1.291-.535h-4.895a2.4,2.4,0,0,1-2.244-1.53l-.223-.568a.481.481,0,0,0-.888-.017l-1.2,2.736a1.481,1.481,0,0,1-2.628.167.481.481,0,0,0-.8-.044l-.684.9a.5.5,0,0,1-.8-.6l.683-.9a1.481,1.481,0,0,1,2.451.134.481.481,0,0,0,.853-.055l1.2-2.736a1.481,1.481,0,0,1,2.736.053l.222.567a1.4,1.4,0,0,0,1.313.9h4.895a2.81,2.81,0,0,1,2,.828l1.063,1.063a.481.481,0,0,0,.821-.34v-4.336a.5.5,0,0,1,1,0v4.336a1.458,1.458,0,0,1-.914,1.368A1.5,1.5,0,0,1,136.442,219.975Z" transform="translate(-112.704 -205.707)" fill="#5b6481"/></g><g transform="translate(314.441 203.883)"><path d="M595.111,363.148a3.533,3.533,0,1,1-7.066,0c0-1.951,3.533-7.533,3.533-7.533S595.111,361.2,595.111,363.148Z" transform="translate(-581.964 -355.615)" fill="#a44643"/><path d="M595.111,365.479a2.2,2.2,0,1,1-4.4,0c0-1.216,2.2-4.7,2.2-4.7S595.111,364.263,595.111,365.479Z" transform="translate(-583.294 -358.199)" fill="#e6c221"/><rect width="3.902" height="1.051" transform="translate(13.663 20.187)" fill="#5b6481"/><rect width="1.05" height="3.902" transform="translate(15.641 18.761)" fill="#5b6481"/><path d="M588.045,382.907v19.132h7.066V382.907a1.353,1.353,0,0,0-1.353-1.353H589.4A1.353,1.353,0,0,0,588.045,382.907Z" transform="translate(-581.964 -368.584)" fill="#616d8a"/><path d="M575.883,415.384v2.569h19.228v-2.569a2,2,0,0,0-2-2H577.885A2,2,0,0,0,575.883,415.384Z" transform="translate(-575.883 -384.499)" fill="#363b5d"/></g><g transform="translate(146.62 159.619)"><rect width="69.4" height="19.752" transform="translate(0 57.979)" fill="#5b6481"/><g transform="translate(7.825 60.653)"><circle cx="7.202" cy="7.202" r="7.202" fill="#f7f8f9"/><path d="M0,4.283a.5.5,0,0,1-.5-.5V0A.5.5,0,0,1,0-.5.5.5,0,0,1,.5,0V3.783A.5.5,0,0,1,0,4.283Z" transform="translate(7.202 3.419)" fill="#a44643"/><path d="M0,1.5A.5.5,0,0,1-.5,1V0A.5.5,0,0,1,0-.5.5.5,0,0,1,.5,0V1A.5.5,0,0,1,0,1.5Z" transform="translate(7.202 1.075)" fill="#98c3a7"/><path d="M0,1.2a.5.5,0,0,1-.354-.146.5.5,0,0,1,0-.707l.7-.7a.5.5,0,0,1,.707,0,.5.5,0,0,1,0,.707l-.7.7A.5.5,0,0,1,0,1.2Z" transform="translate(10.83 2.869)" fill="#98c3a7"/><path d="M1,.5H0A.5.5,0,0,1-.5,0,.5.5,0,0,1,0-.5H1a.5.5,0,0,1,.5.5A.5.5,0,0,1,1,.5Z" transform="translate(12.333 7.202)" fill="#98c3a7"/><path d="M.7,1.2a.5.5,0,0,1-.354-.146l-.7-.7a.5.5,0,0,1,0-.707.5.5,0,0,1,.707,0l.7.7A.5.5,0,0,1,.7,1.2Z" transform="translate(10.83 10.83)" fill="#98c3a7"/><path d="M0,1.5A.5.5,0,0,1-.5,1V0A.5.5,0,0,1,0-.5.5.5,0,0,1,.5,0V1A.5.5,0,0,1,0,1.5Z" transform="translate(7.202 12.333)" fill="#98c3a7"/><path d="M0,1.2a.5.5,0,0,1-.354-.146.5.5,0,0,1,0-.707l.7-.7a.5.5,0,0,1,.707,0,.5.5,0,0,1,0,.707l-.7.7A.5.5,0,0,1,0,1.2Z" transform="translate(2.869 10.83)" fill="#98c3a7"/><path d="M1,.5H0A.5.5,0,0,1-.5,0,.5.5,0,0,1,0-.5H1a.5.5,0,0,1,.5.5A.5.5,0,0,1,1,.5Z" transform="translate(1.075 7.202)" fill="#98c3a7"/><path d="M.7,1.2a.5.5,0,0,1-.354-.146l-.7-.7a.5.5,0,0,1,0-.707.5.5,0,0,1,.707,0l.7.7A.5.5,0,0,1,.7,1.2Z" transform="translate(2.869 2.869)" fill="#98c3a7"/><rect width="3.167" height="11.757" rx="1.584" transform="translate(20.442 1.075)" fill="#363b5d"/><rect width="3.167" height="11.757" rx="1.584" transform="translate(27.977 1.075)" fill="#363b5d"/><rect width="3.167" height="11.757" rx="1.584" transform="translate(35.512 1.075)" fill="#363b5d"/><rect width="3.167" height="11.757" rx="1.584" transform="translate(43.048 1.075)" fill="#363b5d"/><rect width="3.167" height="11.757" rx="1.584" transform="translate(50.583 1.075)" fill="#363b5d"/></g><path d="M0,0H34.466A2.964,2.964,0,0,1,37.43,2.964V37.983a0,0,0,0,1,0,0H0a0,0,0,0,1,0,0V0A0,0,0,0,1,0,0Z" transform="translate(15.985 19.996)" fill="#f7f8f9"/><circle cx="3.992" cy="3.992" r="3.992" transform="translate(35.663 35.68)" fill="#e2f1ec"/><path d="M301.234,345.4a1.664,1.664,0,1,1-1.664-1.664A1.664,1.664,0,0,1,301.234,345.4Z" transform="translate(-269.072 -305.411)" fill="#e2f1ec"/><path d="M320.838,324.034a1.33,1.33,0,1,1-1.33-1.329A1.33,1.33,0,0,1,320.838,324.034Z" transform="translate(-279.209 -294.896)" fill="#e2f1ec"/><path d="M320.838,295.349a2.09,2.09,0,1,1-2.091-2.09A2.091,2.091,0,0,1,320.838,295.349Z" transform="translate(-278.448 -280.174)" fill="#98c3a7"/><path d="M299.116,292.406a1.678,1.678,0,1,1-1.678-1.678A1.678,1.678,0,0,1,299.116,292.406Z" transform="translate(-268 -278.908)" fill="#98c3a7"/><path d="M306.016,268.133a1.045,1.045,0,1,1-1.045-1.045A1.045,1.045,0,0,1,306.016,268.133Z" transform="translate(-272.083 -267.088)" fill="#98c3a7"/><path d="M313.681,277.106a1.488,1.488,0,1,1-1.488-1.488A1.488,1.488,0,0,1,313.681,277.106Z" transform="translate(-275.472 -271.353)" fill="#98c3a7"/><path d="M332.658,345.289a2.144,2.144,0,1,1-2.144-2.144A2.144,2.144,0,0,1,332.658,345.289Z" transform="translate(-284.305 -305.117)" fill="#e2f1ec"/><rect width="32.345" height="17.89" transform="translate(18.528 40.089)" fill="#e1a4cd"/><path d="M298.507,307.081h-35.6a1.2,1.2,0,0,0-.931,1.966l4.98,6.087h31.551Z" transform="translate(-250.971 -287.085)" fill="#f7f8f9"/><path d="M4.368,1H0A1,1,0,0,1-1,0,1,1,0,0,1,0-1H4.368a1,1,0,0,1,1,1A1,1,0,0,1,4.368,1Z" transform="translate(46.505 30.802)" fill="#363b5d"/><path d="M4.368,1H0A1,1,0,0,1-1,0,1,1,0,0,1,0-1H4.368a1,1,0,0,1,1,1A1,1,0,0,1,4.368,1Z" transform="translate(46.505 35.392)" fill="#363b5d"/><path d="M4.368,1H0A1,1,0,0,1-1,0,1,1,0,0,1,0-1H4.368a1,1,0,0,1,1,1A1,1,0,0,1,4.368,1Z" transform="translate(46.505 39.982)" fill="#363b5d"/><path d="M4.368,1H0A1,1,0,0,1-1,0,1,1,0,0,1,0-1H4.368a1,1,0,0,1,1,1A1,1,0,0,1,4.368,1Z" transform="translate(46.505 44.573)" fill="#363b5d"/><path d="M4.368,1H0A1,1,0,0,1-1,0,1,1,0,0,1,0-1H4.368a1,1,0,0,1,1,1A1,1,0,0,1,4.368,1Z" transform="translate(46.505 49.163)" fill="#363b5d"/><path d="M4.368,1H0A1,1,0,0,1-1,0,1,1,0,0,1,0-1H4.368a1,1,0,0,1,1,1A1,1,0,0,1,4.368,1Z" transform="translate(46.505 53.754)" fill="#363b5d"/><circle cx="1.873" cy="1.873" r="1.873" transform="translate(23.219 33.519)" fill="#e2f1ec"/><path d="M304.561,327.964a.727.727,0,1,1-.727-.727A.727.727,0,0,1,304.561,327.964Z" transform="translate(-271.673 -297.163)" fill="#e2f1ec"/><path d="M296.773,313.261a1.873,1.873,0,1,1-1.873-1.873A1.873,1.873,0,0,1,296.773,313.261Z" transform="translate(-266.633 -289.238)" fill="#e2f1ec"/><circle cx="2.374" cy="2.374" r="2.374" transform="translate(29.059 45.955)" fill="#d48ebd"/><path d="M315.8,370.658a1.187,1.187,0,1,1-1.187-1.187A1.187,1.187,0,0,1,315.8,370.658Z" transform="translate(-276.834 -318.28)" fill="#d48ebd"/></g><g transform="translate(271.957 211.702)"><g transform="translate(15.474)"><rect width="11.833" height="21.413" transform="translate(1.008 4.236)" fill="#f7f8f9"/><rect width="13.849" height="4.236" fill="#e6c221"/></g><g transform="translate(0 0.069)"><rect width="11.833" height="21.413" transform="translate(1.008 4.236)" fill="#f7f8f9"/><rect width="13.849" height="4.236" fill="#5b6481"/></g><rect width="7.23" height="10.361" transform="translate(3.38 7.798)" fill="#616d8a"/><rect width="7.23" height="1.417" transform="translate(3.38 19.909)" fill="#616d8a"/><rect width="7.23" height="10.361" transform="translate(18.783 7.798)" fill="#f1d054"/><rect width="7.23" height="1.417" transform="translate(18.783 19.909)" fill="#f1d054"/></g><g transform="translate(275.336 156.493)"><rect width="8.231" height="38.252" rx="4.116" fill="#f7f8f9"/><path d="M504.417,296.032V268.919a.817.817,0,1,0-1.635,0v27.112a2.3,2.3,0,1,0,1.635,0Z" transform="translate(-499.484 -264.469)" fill="#98c3a7"/><path d="M504.417,316.4v-7.565h-1.635V316.4a2.3,2.3,0,1,0,1.635,0Z" transform="translate(-499.484 -284.833)" fill="#a44643"/><g transform="translate(0 4.865)"><rect width="2.242" height="0.75" fill="#a5d2b5"/><rect width="2.242" height="0.75" transform="translate(0 2.754)" fill="#a5d2b5"/><rect width="2.242" height="0.75" transform="translate(0 5.508)" fill="#a5d2b5"/><rect width="2.242" height="0.75" transform="translate(0 8.261)" fill="#a5d2b5"/><rect width="2.242" height="0.75" transform="translate(0 11.015)" fill="#a5d2b5"/><rect width="2.242" height="0.75" transform="translate(0 13.769)" fill="#a5d2b5"/><rect width="2.242" height="0.75" transform="translate(0 16.523)" fill="#a5d2b5"/></g></g><g transform="translate(91.979 58.852)"><path d="M256.868,140.881H187.448a7.985,7.985,0,0,1-7.976-7.976V120.777h8V132.9l69.4-.024Z" transform="translate(-157.215 -93.165)" fill="#f7f8f9"/><path d="M508.98,129.661H496.852v-8H508.98l-.024-20.46a7.946,7.946,0,0,1,7.937-7.937h14.354v8H516.892l.063,20.42A7.985,7.985,0,0,1,508.98,129.661Z" transform="translate(-313.905 -81.409)" fill="#f7f8f9"/><path d="M33.574,4H0V-4H33.574Z" transform="translate(129.391 43.716)" fill="#f7f8f9"/><g transform="translate(91.156 22.225)"><circle cx="21.491" cy="21.491" r="21.491" fill="#f7f8f9"/><path d="M377.86,141.064a2.346,2.346,0,1,1-2.346-2.346A2.346,2.346,0,0,1,377.86,141.064Z" transform="translate(-343.219 -124.361)" fill="#e2f1ec"/><circle cx="0.965" cy="0.965" r="0.965" transform="translate(14.282 9.96)" fill="#e2f1ec"/><circle cx="2.75" cy="2.75" r="2.75" transform="translate(16.711 18.741)" fill="#e2f1ec"/><path d="M360.193,129.868a2.229,2.229,0,1,1-2.229-2.229A2.229,2.229,0,0,1,360.193,129.868Z" transform="translate(-334.503 -118.822)" fill="#e2f1ec"/><path d="M334.722,153.134a1.78,1.78,0,1,1-1.78-1.78A1.78,1.78,0,0,1,334.722,153.134Z" transform="translate(-322.216 -130.679)" fill="#e2f1ec"/><path d="M343.763,142.425a.986.986,0,1,1-.985-.986A.986.986,0,0,1,343.763,142.425Z" transform="translate(-327.531 -125.721)" fill="#e2f1ec"/><path d="M356.056,146.217h-5.215a25.047,25.047,0,0,0-10.266,2.2l-.206.093a25.045,25.045,0,0,1-10.266,2.2H322.5a16.968,16.968,0,1,0,33.56-4.494Z" transform="translate(-317.883 -128.11)" fill="#f1d054"/><path d="M376.86,158.064a2.346,2.346,0,1,1-2.346-2.346A2.346,2.346,0,0,1,376.86,158.064Z" transform="translate(-342.719 -132.861)" fill="#e6c221"/><path d="M352.152,168.632a1.326,1.326,0,1,1-1.325-1.326A1.326,1.326,0,0,1,352.152,168.632Z" transform="translate(-331.386 -138.655)" fill="#e6c221"/><circle cx="0.673" cy="0.673" r="0.673" transform="translate(13.205 27.611)" fill="#e6c221"/></g><g transform="translate(146.178 22.225)"><circle cx="21.491" cy="21.491" r="21.491" fill="#f7f8f9"/><path d="M453.506,136.372a2.346,2.346,0,1,1-2.346-2.346A2.346,2.346,0,0,1,453.506,136.372Z" transform="translate(-436.064 -122.015)" fill="#e2f1ec"/><path d="M477.028,123.921a.631.631,0,1,1-.631-.631A.631.631,0,0,1,477.028,123.921Z" transform="translate(-449.54 -116.647)" fill="#e2f1ec"/><path d="M459.461,125.03a.631.631,0,1,1-.631-.632A.631.631,0,0,1,459.461,125.03Z" transform="translate(-440.756 -117.201)" fill="#e2f1ec"/><path d="M486.693,140a1.667,1.667,0,1,1-1.667-1.667A1.667,1.667,0,0,1,486.693,140Z" transform="translate(-453.337 -124.168)" fill="#e2f1ec"/><circle cx="1.069" cy="1.069" r="1.069" transform="translate(23.44 10.943)" fill="#e2f1ec"/><path d="M454.669,143.418h0a18.041,18.041,0,0,0-15.416-2.178l-6.557,2.07a16.97,16.97,0,1,0,33.6,3.128l-.005,0h-1.634A18.044,18.044,0,0,1,454.669,143.418Z" transform="translate(-427.836 -125.203)" fill="#817ea1"/><circle cx="1.069" cy="1.069" r="1.069" transform="translate(18.704 23.066)" fill="#72708f"/><path d="M450.952,167.84a.535.535,0,1,1-.535-.534A.534.534,0,0,1,450.952,167.84Z" transform="translate(-436.599 -138.655)" fill="#72708f"/><path d="M470.193,171.349a1.529,1.529,0,1,1-1.529-1.53A1.529,1.529,0,0,1,470.193,171.349Z" transform="translate(-445.224 -139.911)" fill="#72708f"/></g><path d="M130.958,69.626q0,1.242.122,2.509a26.258,26.258,0,0,0,52.392-2.553V69.54a4.03,4.03,0,0,0-4.051-3.987H135.012A4.059,4.059,0,0,0,130.958,69.626Z" transform="translate(-130.958 -65.553)" fill="#f7f8f9"/><path d="M143.435,78.88c1.841,10.394,10.1,18.236,20.018,18.236s18.178-7.842,20.019-18.236Z" transform="translate(-137.196 -72.216)" fill="#e1a4cd"/><path d="M179.842,87.456a1.53,1.53,0,1,1-1.53-1.529A1.53,1.53,0,0,1,179.842,87.456Z" transform="translate(-153.87 -75.74)" fill="#d48ebd"/><path d="M192.586,98.328a1.212,1.212,0,1,1-1.212-1.212A1.212,1.212,0,0,1,192.586,98.328Z" transform="translate(-160.56 -81.335)" fill="#d48ebd"/><path d="M170.017,100.744a1.212,1.212,0,1,1-1.212-1.212A1.212,1.212,0,0,1,170.017,100.744Z" transform="translate(-149.275 -82.543)" fill="#d48ebd"/><path d="M4,8.847H-4V0H4Z" transform="translate(50.842 44.681)" fill="#f7f8f9"/><circle cx="9.162" cy="9.162" r="9.162" transform="translate(41.68 51.523)" fill="#a6ccb6"/><g transform="translate(42.979 52.823)"><circle cx="6.509" cy="6.509" r="6.509" transform="translate(0 12.649) rotate(-76.333)" fill="#f7f8f9"/><path d="M0,3.919a.5.5,0,0,1-.5-.5V0A.5.5,0,0,1,0-.5.5.5,0,0,1,.5,0V3.419A.5.5,0,0,1,0,3.919Z" transform="translate(7.862 4.444)" fill="#a44643"/><path d="M0,1.4A.5.5,0,0,1-.5.9V0A.5.5,0,0,1,0-.5.5.5,0,0,1,.5,0V.9A.5.5,0,0,1,0,1.4Z" transform="translate(7.862 2.325)" fill="#98c3a7"/><path d="M0,1.136A.5.5,0,0,1-.354.99a.5.5,0,0,1,0-.707L.283-.354a.5.5,0,0,1,.707,0,.5.5,0,0,1,0,.707L.354.99A.5.5,0,0,1,0,1.136Z" transform="translate(11.141 3.947)" fill="#98c3a7"/><path d="M.9.5H0A.5.5,0,0,1-.5,0,.5.5,0,0,1,0-.5H.9a.5.5,0,0,1,.5.5A.5.5,0,0,1,.9.5Z" transform="translate(12.5 7.862)" fill="#98c3a7"/><path d="M.636,1.136A.5.5,0,0,1,.283.99L-.354.354a.5.5,0,0,1,0-.707.5.5,0,0,1,.707,0L.99.283a.5.5,0,0,1-.354.854Z" transform="translate(11.141 11.141)" fill="#98c3a7"/><path d="M0,1.4A.5.5,0,0,1-.5.9V0A.5.5,0,0,1,0-.5.5.5,0,0,1,.5,0V.9A.5.5,0,0,1,0,1.4Z" transform="translate(7.862 12.5)" fill="#98c3a7"/><path d="M0,1.136A.5.5,0,0,1-.354.99a.5.5,0,0,1,0-.707L.283-.354a.5.5,0,0,1,.707,0,.5.5,0,0,1,0,.707L.354.99A.5.5,0,0,1,0,1.136Z" transform="translate(3.947 11.141)" fill="#98c3a7"/><path d="M.9.5H0A.5.5,0,0,1-.5,0,.5.5,0,0,1,0-.5H.9a.5.5,0,0,1,.5.5A.5.5,0,0,1,.9.5Z" transform="translate(2.325 7.862)" fill="#98c3a7"/><path d="M.636,1.136A.5.5,0,0,1,.283.99L-.354.354a.5.5,0,0,1,0-.707.5.5,0,0,1,.707,0L.99.283a.5.5,0,0,1-.354.854Z" transform="translate(3.947 3.947)" fill="#98c3a7"/></g><g transform="translate(211.933 4.263)"><path d="M581.811,236.2V225.752H568.124v10.74a16.642,16.642,0,0,1-6.087,12.721,20.144,20.144,0,1,0,25.72-.118A16.661,16.661,0,0,1,581.811,236.2Z" transform="translate(-554.823 -149.915)" fill="#f7f8f9"/><path d="M7,0H23.946a7,7,0,0,1,7,7v7.685a7,7,0,0,1-7,7H7a7,7,0,0,1-7-7V7A7,7,0,0,1,7,0Z" transform="translate(4.67 61.746)" fill="#5b6481"/><rect width="40.288" height="64.64" rx="11.358" transform="translate(0)" fill="#f7f8f9"/><path d="M575.258,102.276h0a8.869,8.869,0,0,0-8.869-8.869h-3.566v49.3a1.679,1.679,0,0,0,1.679,1.679h28.93a1.679,1.679,0,0,0,1.679-1.679V117.578a6.433,6.433,0,0,0-6.433-6.433h-4.55A8.869,8.869,0,0,1,575.258,102.276Z" transform="translate(-558.824 -83.743)" fill="#e1a4cd"/><circle cx="4.122" cy="4.122" r="4.122" transform="translate(9.655 111.633) rotate(-51.978)" fill="#e2f1ec"/><path d="M617.729,295.572a2.209,2.209,0,1,1-2.209-2.208A2.209,2.209,0,0,1,617.729,295.572Z" transform="translate(-584.068 -183.721)" fill="#e2f1ec"/><circle cx="1.104" cy="1.104" r="1.104" transform="translate(25.894 105.473)" fill="#e2f1ec"/><circle cx="1.104" cy="1.104" r="1.104" transform="translate(20.227 7.879)" fill="#e2f1ec"/><circle cx="1.847" cy="1.847" r="1.847" transform="translate(13.312 105.027)" fill="#e2f1ec"/><path d="M597.162,278.89a1.1,1.1,0,1,1-1.562,0A1.1,1.1,0,0,1,597.162,278.89Z" transform="translate(-575.05 -176.323)" fill="#e2f1ec"/><path d="M605.64,108.118a1.1,1.1,0,1,1-1.562,0A1.1,1.1,0,0,1,605.64,108.118Z" transform="translate(-579.289 -90.936)" fill="#e2f1ec"/><circle cx="1.104" cy="1.104" r="1.104" transform="translate(14.337 98.513)" fill="#e2f1ec"/><circle cx="0.746" cy="0.746" r="0.746" transform="translate(22.478 97.767)" fill="#e2f1ec"/><circle cx="0.746" cy="0.746" r="0.746" transform="translate(20.586 91.391)" fill="#e2f1ec"/><path d="M597.485,293.581a2.346,2.346,0,1,1-2.346-2.346A2.346,2.346,0,0,1,597.485,293.581Z" transform="translate(-573.808 -182.657)" fill="#e2f1ec"/><path d="M617.729,94.918a2.346,2.346,0,1,1-2.346-2.346A2.346,2.346,0,0,1,617.729,94.918Z" transform="translate(-583.93 -83.325)" fill="#e2f1ec"/><circle cx="1.173" cy="1.173" r="1.173" transform="translate(23.224 110.351)" fill="#e2f1ec"/><circle cx="1.173" cy="1.173" r="1.173" transform="translate(7.912 110.351)" fill="#e2f1ec"/><path d="M574.685,289.721a.845.845,0,1,1-.846-.846A.846.846,0,0,1,574.685,289.721Z" transform="translate(-563.909 -181.477)" fill="#e2f1ec"/><path d="M562.906,296.665a16.316,16.316,0,1,0,31.777,0Z" transform="translate(-558.651 -185.372)" fill="#e1a4cd"/><path d="M593.951,135.694a1.53,1.53,0,1,1-1.53-1.529A1.53,1.53,0,0,1,593.951,135.694Z" transform="translate(-572.858 -104.122)" fill="#d48ebd"/><circle cx="2.146" cy="2.146" r="2.146" transform="translate(22.706 44.1)" fill="#d48ebd"/><circle cx="2.146" cy="2.146" r="2.146" transform="translate(17.418 120.465)" fill="#d48ebd"/><path d="M581.526,166.109a1.808,1.808,0,1,1-1.807-1.808A1.808,1.808,0,0,1,581.526,166.109Z" transform="translate(-566.367 -119.19)" fill="#d48ebd"/><path d="M610.627,307.354a.9.9,0,1,1-.9-.9A.9.9,0,0,1,610.627,307.354Z" transform="translate(-581.821 -190.264)" fill="#d48ebd"/><path d="M578.9,307.1a1.4,1.4,0,1,1-1.4-1.4A1.4,1.4,0,0,1,578.9,307.1Z" transform="translate(-565.463 -189.891)" fill="#d48ebd"/><rect width="35.584" height="2.285" rx="1.143" transform="translate(2.428 67.923)" fill="#434973"/><path d="M594.12,219.259h-33.3a1.143,1.143,0,0,1-1.143-1.143h0a1.143,1.143,0,0,1,1.143-1.143h33.3a1.143,1.143,0,0,1,1.143,1.143h0A1.143,1.143,0,0,1,594.12,219.259Z" transform="translate(-557.251 -145.526)" fill="#434973"/><path d="M594.12,226.308h-33.3a1.143,1.143,0,0,1-1.143-1.143h0a1.143,1.143,0,0,1,1.143-1.143h33.3a1.143,1.143,0,0,1,1.143,1.143h0A1.143,1.143,0,0,1,594.12,226.308Z" transform="translate(-557.251 -149.051)" fill="#434973"/></g></g><path d="M9.129,0H312.871A9.129,9.129,0,0,1,322,9.129v3.521a0,0,0,0,1,0,0H0a0,0,0,0,1,0,0V9.129A9.129,9.129,0,0,1,9.129,0Z" transform="translate(53 237.351)" fill="#98c3a7"/></g></svg>