<svg xmlns="http://www.w3.org/2000/svg" width="152" height="152" viewBox="0 0 152 152"><g transform="translate(-306 -1721.752)"><circle cx="76" cy="76" r="76" transform="translate(306 1721.752)" fill="#80cab6"/><g transform="translate(344.5 1760.252)"><path d="M43.413,387.11,29.43,401.093a11,11,0,0,0,15.537,0l6.215-6.215Z" transform="translate(-25.119 -330.404)" fill="#ffbe8f"/><path d="M16.926,334.077l-6.215,6.215a11,11,0,0,0,0,15.537c2.57,2.57,8.147,1.176,12.43-3.107.005-.005-6.215-18.645-6.215-18.645Z" transform="translate(-6.4 -285.139)" fill="#ffe4ad"/><path d="M123.636,197.615a10.975,10.975,0,0,1-9.317,3.1L140.4,155.991l12.43,12.43Z" transform="translate(-97.573 -133.14)" fill="#adf2f5"/><path d="M94.764,147.208l-6.215,6.215L60.909,171.74,65.57,176.4l-6.21,6.21a10.979,10.979,0,0,1-6.22-18.639l29.194-29.194Z" transform="translate(-42.614 -115.035)" fill="#e0feff"/><path d="M119.159,262.057,93.073,285.036a6.592,6.592,0,0,0,9.322,0l22.979-22.979Z" transform="translate(-79.439 -223.669)" fill="#ffb433"/><path d="M88.038,281.929l19.872-19.872H95.48L81.823,275.714a6.592,6.592,0,0,0,0,9.322C82.681,285.894,85.464,284.5,88.038,281.929Z" transform="translate(-68.19 -223.669)" fill="#946907"/><path d="M336.35,166.6,334.8,177.474h6.215Z" transform="translate(-285.754 -142.193)" fill="#46d3db"/><path d="M282.032,139.439l-10.876-4.661v6.215l9.322,9.322,3.107-3.107Z" transform="translate(-231.436 -115.035)" fill="#80e7ed"/><path d="M357.832,115.388l-12.43-12.43,1.554,17.091,3.107,3.107Z" transform="translate(-294.806 -87.876)" fill="#01b1bc"/><path d="M0,0H17.578V10.986H0Z" transform="translate(47.486 11.969) rotate(45)" fill="#46d3db"/><path d="M410.865,113.565h-12.43v12.43l3.108,3.108,12.429-12.43Z" transform="translate(-340.07 -96.929)" fill="#46d3db"/><path d="M0,0H17.578V21.973H0Z" transform="translate(42.822 13.533) rotate(-45)" fill="#80e7ed"/><path d="M74.678,18.966,56.034.322a1.1,1.1,0,0,0-1.554,0L42.05,12.751a1.1,1.1,0,0,0,0,1.554l.777.777-24.7,24.7a1.1,1.1,0,0,0,1.554,1.554L38.622,22.4v3.562a1.1,1.1,0,0,0,.322.777l9.322,9.322a1.1,1.1,0,0,0,.777.322H52.6L25.286,63.7A9.888,9.888,0,0,1,11.3,49.716l5.277-5.277a1.1,1.1,0,1,0-1.554-1.554L9.749,48.16,3.535,54.375A12.085,12.085,0,0,0,20.625,71.466L59.918,32.173l.777.777a1.1,1.1,0,0,0,1.554,0l12.43-12.43a1.1,1.1,0,0,0,0-1.554ZM19.071,69.912A9.888,9.888,0,0,1,5.088,55.929l1.31-1.31a12.068,12.068,0,0,0,11.9,14.167,12.254,12.254,0,0,0,2.085-.181ZM40.819,25.5V22.4L52.6,34.181H49.5Zm14.438,8.223L41.274,19.743l3.107-3.107L58.364,30.619Zm6.215-3.107L44.381,13.528,55.257,2.652,72.348,19.743Z" transform="translate(0 0)"/><path d="M74.664,279.413a7.691,7.691,0,0,0,10.876,0l22.979-22.979a1.1,1.1,0,0,0-.777-1.875H89.1a1.1,1.1,0,0,0-.777.322L74.664,268.538A7.7,7.7,0,0,0,74.664,279.413Zm14.889-22.657H105.09l-21.1,21.1a5.493,5.493,0,1,1-7.769-7.768Z" transform="translate(-61.808 -217.27)"/></g></g></svg>