<svg xmlns="http://www.w3.org/2000/svg" width="114.408" height="138" viewBox="0 0 114.408 138"><g transform="translate(-43.768)"><g transform="translate(45.79 2.021)"><g transform="translate(31.97 48.197)"><circle cx="6.028" cy="6.028" r="6.028" fill="#fe646f"/><circle cx="6.028" cy="6.028" r="6.028" transform="translate(34.405)" fill="#26a6fe"/></g><circle cx="6.028" cy="6.028" r="6.028" transform="translate(31.97 100.189)" fill="#fe646f"/><circle cx="6.028" cy="6.028" r="6.028" transform="translate(16.727 121.901)" fill="#26a6fe"/><circle cx="6.028" cy="6.028" r="6.028" transform="translate(83.917 121.901)" fill="#fe646f"/><circle cx="6.028" cy="6.028" r="6.028" transform="translate(66.375 100.189)" fill="#eaf6ff"/><g transform="translate(16.727 74.193)"><circle cx="6.028" cy="6.028" r="6.028" fill="#26a6fe"/><circle cx="6.028" cy="6.028" r="6.028" transform="translate(64.855)" fill="#fe646f"/></g><g transform="translate(0 100.189)"><circle cx="6.028" cy="6.028" r="6.028" fill="#eaf6ff"/></g><g transform="translate(0 48.197)"><circle cx="6.028" cy="6.028" r="6.028" fill="#eaf6ff"/></g><g transform="translate(98.308 100.189)"><circle cx="6.028" cy="6.028" r="6.028" fill="#26a6fe"/></g><g transform="translate(98.308 48.197)"><circle cx="6.028" cy="6.028" r="6.028" fill="#eaf6ff"/></g><circle cx="6.028" cy="6.028" r="6.028" transform="translate(15.243 22.2)" fill="#eaf6ff"/><circle cx="6.028" cy="6.028" r="6.028" transform="translate(15.243)" fill="#fe646f"/><g transform="translate(3.677 0)"><g transform="translate(31.969 48.198)"><path d="M191.9,192.347a6.029,6.029,0,0,1-8.38,5.55,6.029,6.029,0,0,0,0-11.1,6.029,6.029,0,0,1,8.38,5.55Z" transform="translate(-183.52 -186.32)" fill="#fd4755"/><path d="M319.55,192.347a6.029,6.029,0,0,1-8.38,5.55,6.029,6.029,0,0,0,0-11.1,6.029,6.029,0,0,1,8.38,5.55Z" transform="translate(-276.764 -186.32)" fill="#0593fc"/></g><path d="M191.9,385.247a6.029,6.029,0,0,1-8.38,5.55,6.029,6.029,0,0,0,0-11.1,6.029,6.029,0,0,1,8.38,5.55Z" transform="translate(-151.551 -279.03)" fill="#fd4755"/><path d="M135.347,465.8a6.027,6.027,0,0,1-8.377,5.55,6.033,6.033,0,0,0,0-11.1,6.027,6.027,0,0,1,8.377,5.552Z" transform="translate(-110.243 -337.869)" fill="#0593fc"/><path d="M384.63,465.8a6.029,6.029,0,0,1-8.38,5.55,6.031,6.031,0,0,0,0-11.1,6.029,6.029,0,0,1,8.38,5.552Z" transform="translate(-292.334 -337.869)" fill="#fd4755"/><path d="M319.55,385.247a6.029,6.029,0,0,1-8.38,5.55,6.029,6.029,0,0,0,0-11.1,6.029,6.029,0,0,1,8.38,5.55Z" transform="translate(-244.795 -279.03)" fill="#d8ecfe"/><g transform="translate(16.727 74.194)"><path d="M135.347,288.8a6.027,6.027,0,0,1-8.377,5.55,6.029,6.029,0,0,0,0-11.1,6.027,6.027,0,0,1,8.377,5.55Z" transform="translate(-126.97 -282.77)" fill="#0593fc"/><path d="M375.967,288.8a6.027,6.027,0,0,1-8.377,5.55,6.029,6.029,0,0,0,0-11.1,6.027,6.027,0,0,1,8.377,5.55Z" transform="translate(-302.735 -282.77)" fill="#fd4755"/></g><g transform="translate(0 100.19)"><path d="M73.29,385.247a6.029,6.029,0,0,1-8.38,5.55,6.029,6.029,0,0,0,0-11.1,6.029,6.029,0,0,1,8.38,5.55Z" transform="translate(-64.91 -379.22)" fill="#d8ecfe"/></g><g transform="translate(0 48.198)"><path d="M73.29,192.347a6.029,6.029,0,0,1-8.38,5.55,6.029,6.029,0,0,0,0-11.1,6.029,6.029,0,0,1,8.38,5.55Z" transform="translate(-64.91 -186.32)" fill="#d8ecfe"/></g><g transform="translate(98.306 100.19)"><path d="M438.02,385.247a6.029,6.029,0,0,1-8.38,5.55,6.029,6.029,0,0,0,0-11.1,6.029,6.029,0,0,1,8.38,5.55Z" transform="translate(-429.64 -379.22)" fill="#0593fc"/></g><g transform="translate(98.306 48.198)"><path d="M438.02,192.347a6.029,6.029,0,0,1-8.38,5.55,6.029,6.029,0,0,0,0-11.1,6.029,6.029,0,0,1,8.38,5.55Z" transform="translate(-429.64 -186.32)" fill="#d8ecfe"/></g><path d="M129.84,95.9a6.029,6.029,0,0,1-8.38,5.55,6.029,6.029,0,0,0,0-11.1,6.029,6.029,0,0,1,8.38,5.55Z" transform="translate(-106.218 -67.669)" fill="#d8ecfe"/><path d="M129.84,13.527a6.029,6.029,0,0,1-8.38,5.552,6.031,6.031,0,0,0,0-11.1,6.029,6.029,0,0,1,8.38,5.55Z" transform="translate(-106.218 -7.5)" fill="#fd4755"/></g></g><g transform="translate(43.768 0)"><path d="M363.16,452.272a8.049,8.049,0,1,0,8.049,8.049A8.058,8.058,0,0,0,363.16,452.272Zm0,12.056a4.006,4.006,0,1,1,4.006-4.006A4.011,4.011,0,0,1,363.16,464.328Z" transform="translate(-271.194 -330.371)"/><path d="M150.125,100.189a8.015,8.015,0,0,0-2.515.4l-8.3-12.9a8.03,8.03,0,0,0,0-10.907l8.3-12.9a8.067,8.067,0,1,0-3.4-2.191l-8.3,12.9a8.015,8.015,0,0,0-4.709-.1l-7.349-12.54a8.047,8.047,0,1,0-3.493,2.036l7.354,12.55a8.036,8.036,0,0,0,0,11.394l-7.354,12.55a8.044,8.044,0,0,0-9.963,5.728H91.579a8.044,8.044,0,0,0-10-5.719L74.225,87.939a8.035,8.035,0,0,0,0-11.394l7.359-12.559a8.044,8.044,0,0,0,10-5.719h11.137a2.021,2.021,0,0,0,0-4.043H91.579A8.045,8.045,0,0,0,81.273,48.6l-8.3-12.9a8.043,8.043,0,0,0-3.893-13.244V15.843a8,8,0,0,0,3.7-2.134,2.021,2.021,0,0,0-2.875-2.842,4.007,4.007,0,1,1-.157-5.784,2.021,2.021,0,0,0,2.719-2.992,8.049,8.049,0,1,0-7.433,13.75v6.617a8.049,8.049,0,1,0,4.538,15.436l8.3,12.9A8.033,8.033,0,0,0,78.1,61.936L70.737,74.5a8.014,8.014,0,0,0-4.709.1l-8.3-12.9a8.042,8.042,0,1,0-3.4,2.191l8.3,12.9a8.03,8.03,0,0,0,0,10.907l-8.3,12.9a8.067,8.067,0,1,0,3.4,2.191l8.3-12.9a8.013,8.013,0,0,0,4.709.1L78.1,102.549a8.033,8.033,0,0,0-.08,11.3l-5.523,9.1a8.053,8.053,0,1,0,2.968,2.9l6.008-9.9a8.047,8.047,0,0,0,10.107-5.687H110.4a8.049,8.049,0,1,0,13.456-7.734l7.349-12.54a8.014,8.014,0,0,0,4.709-.1l8.3,12.9a8.045,8.045,0,1,0,5.913-2.6ZM114.186,56.246a4.006,4.006,0,1,1,4.006,4.006A4.011,4.011,0,0,1,114.186,56.246Zm-26.393,0a4.006,4.006,0,1,1-4.006-4.006A4.011,4.011,0,0,1,87.793,56.246Zm-24.739-26a4.006,4.006,0,1,1,4.006,4.006A4.011,4.011,0,0,1,63.054,30.25Zm-15.243,26a4.006,4.006,0,1,1,4.006,4.006A4.011,4.011,0,0,1,47.811,56.246Zm4.006,56a4.006,4.006,0,1,1,4.006-4.006A4.011,4.011,0,0,1,51.817,112.244Zm12.72-30a4.006,4.006,0,1,1,4.006,4.006A4.011,4.011,0,0,1,64.538,82.242Zm4.006,51.715a4.006,4.006,0,1,1,4.006-4.006A4.011,4.011,0,0,1,68.544,133.957Zm15.243-21.713a4.006,4.006,0,1,1,4.006-4.006A4.011,4.011,0,0,1,83.787,112.244Zm34.405,0a4.011,4.011,0,0,1-4.006-4v-.005a4.006,4.006,0,1,1,4.006,4.009Zm31.933-60a4.006,4.006,0,1,1-4.006,4.006A4.011,4.011,0,0,1,150.125,52.239Zm-20.733,30a4.006,4.006,0,1,1,4.006,4.006A4.011,4.011,0,0,1,129.392,82.242Zm20.733,30a4.006,4.006,0,1,1,4.006-4.006A4.011,4.011,0,0,1,150.125,112.244Z" transform="translate(-43.768 0)"/></g></g></svg>