<svg xmlns="http://www.w3.org/2000/svg" width="1030" height="318" viewBox="0 0 1030 318"><g transform="translate(-285 -559)"><rect width="1030" height="318" rx="20" transform="translate(285 559)" fill="#d9e2f4"/><path d="M20,0H214a20,20,0,0,1,20,20V220a20,20,0,0,1-20,20H20A20,20,0,0,1,0,220V20A20,20,0,0,1,20,0Z" transform="translate(304 585)" fill="#fff"/><rect width="234" height="240" rx="20" transform="translate(558 585)" fill="#fff"/><rect width="234" height="240" rx="20" transform="translate(812 585)" fill="#fff"/><rect width="234" height="240" rx="20" transform="translate(1063 585)" fill="#fff"/><path d="M-21.123,0h-3.115V-8.379q0-1.357.117-3H-24.2a14.752,14.752,0,0,1-.439,1.855L-27.92,0H-30.5l-3.34-9.424a18.339,18.339,0,0,1-.439-1.953h-.088q.127,2.07.127,3.633V0H-37.08V-14h4.619L-29.6-5.7a11.687,11.687,0,0,1,.5,2h.059a20.158,20.158,0,0,1,.557-2.021L-25.625-14h4.5ZM-8.74,0h-3.076V-1.523h-.049A3.49,3.49,0,0,1-14.922.244Q-18.4.244-18.4-3.965V-10h3.076v5.762q0,2.119,1.68,2.119A1.661,1.661,0,0,0-12.314-2.7a2.343,2.343,0,0,0,.5-1.577V-10H-8.74ZM2.842-4.121H-3.682q.156,2.178,2.744,2.178a5.357,5.357,0,0,0,2.9-.781V-.5a7.619,7.619,0,0,1-3.6.742A5.073,5.073,0,0,1-5.4-1.1,5.073,5.073,0,0,1-6.738-4.844,5.352,5.352,0,0,1-5.293-8.789a4.815,4.815,0,0,1,3.555-1.455,4.37,4.37,0,0,1,3.384,1.3,5,5,0,0,1,1.2,3.525ZM-.02-6.016q0-2.148-1.738-2.148a1.66,1.66,0,0,0-1.284.615A2.792,2.792,0,0,0-3.7-6.016ZM4.023-.264v-2.5a6.57,6.57,0,0,0,1.519.684,5.035,5.035,0,0,0,1.431.225A3.068,3.068,0,0,0,8.267-2.08a.726.726,0,0,0,.474-.684.632.632,0,0,0-.215-.488,2,2,0,0,0-.552-.342,6.261,6.261,0,0,0-.737-.264q-.4-.117-.771-.264A7.392,7.392,0,0,1,5.415-4.6a3.034,3.034,0,0,1-.762-.6A2.361,2.361,0,0,1,4.185-6a3.157,3.157,0,0,1-.161-1.064A2.74,2.74,0,0,1,4.39-8.506,2.991,2.991,0,0,1,5.366-9.5a4.462,4.462,0,0,1,1.4-.566A7.281,7.281,0,0,1,8.4-10.244a9.076,9.076,0,0,1,1.348.1,10.059,10.059,0,0,1,1.348.3v2.383a4.87,4.87,0,0,0-1.255-.513,5.294,5.294,0,0,0-1.313-.171,2.91,2.91,0,0,0-.571.054,1.882,1.882,0,0,0-.474.156.87.87,0,0,0-.322.264.607.607,0,0,0-.117.366.677.677,0,0,0,.176.469,1.527,1.527,0,0,0,.459.337,4.531,4.531,0,0,0,.63.254q.347.112.688.229a8.951,8.951,0,0,1,1.113.469,3.56,3.56,0,0,1,.854.6,2.339,2.339,0,0,1,.547.8,2.846,2.846,0,0,1,.19,1.094,2.853,2.853,0,0,1-.386,1.519A3.088,3.088,0,0,1,10.288-.513,4.65,4.65,0,0,1,8.813.063,8.175,8.175,0,0,1,7.08.244,8.936,8.936,0,0,1,4.023-.264Zm15.5.146a4.561,4.561,0,0,1-2.061.361Q14.2.244,14.2-3.145v-4.58H12.578V-10H14.2v-2.158l3.076-.879V-10h2.246v2.275H17.275v4.043q0,1.563,1.24,1.563A2.091,2.091,0,0,0,19.521-2.4Zm8.262-7.1a2.677,2.677,0,0,0-1.3-.3,1.871,1.871,0,0,0-1.572.737,3.217,3.217,0,0,0-.566,2.007V0H21.26V-10h3.086v1.855h.039a2.67,2.67,0,0,1,2.637-2.031,1.987,1.987,0,0,1,.762.117ZM37.539,0h-2.92V-1.436H34.58A3.259,3.259,0,0,1,31.6.244a3.116,3.116,0,0,1-2.29-.825,2.957,2.957,0,0,1-.835-2.2q0-2.91,3.447-3.359L34.639-6.5q0-1.641-1.777-1.641a6.067,6.067,0,0,0-3.4,1.064V-9.4a7.646,7.646,0,0,1,1.763-.586,9.266,9.266,0,0,1,2.036-.254q4.277,0,4.277,4.268Zm-2.9-4.062v-.674L32.822-4.5q-1.5.2-1.5,1.357a1.122,1.122,0,0,0,.366.864,1.407,1.407,0,0,0,.991.337,1.827,1.827,0,0,0,1.416-.6A2.169,2.169,0,0,0,34.639-4.062Z" transform="translate(421 854)" fill="#12263f"/><path d="M-62.627,0h-3.437l-1-3.115h-4.98L-73.027,0h-3.418l5.1-14h3.74Zm-5.156-5.537-1.5-4.707a6.134,6.134,0,0,1-.234-1.26H-69.6a5.341,5.341,0,0,1-.244,1.221l-1.523,4.746ZM-51.523,0H-54.6V-5.557q0-2.324-1.66-2.324a1.647,1.647,0,0,0-1.318.615A2.344,2.344,0,0,0-58.1-5.7V0h-3.086V-10H-58.1v1.582h.039a3.536,3.536,0,0,1,3.213-1.826q3.32,0,3.32,4.121Zm10.762,0h-2.92V-1.436h-.039A3.259,3.259,0,0,1-46.7.244a3.116,3.116,0,0,1-2.29-.825,2.957,2.957,0,0,1-.835-2.2q0-2.91,3.447-3.359l2.715-.361q0-1.641-1.777-1.641a6.067,6.067,0,0,0-3.4,1.064V-9.4a7.646,7.646,0,0,1,1.763-.586,9.266,9.266,0,0,1,2.036-.254q4.277,0,4.277,4.268Zm-2.9-4.062v-.674l-1.816.234q-1.5.2-1.5,1.357a1.122,1.122,0,0,0,.366.864,1.407,1.407,0,0,0,.991.337,1.827,1.827,0,0,0,1.416-.6A2.169,2.169,0,0,0-43.662-4.062Zm1.982-10.674-3.057,3.154h-2.227l2.539-3.154ZM-35.234,0H-38.32V-14.8h3.086Zm4.16-11.582a1.8,1.8,0,0,1-1.279-.464,1.5,1.5,0,0,1-.5-1.138,1.441,1.441,0,0,1,.5-1.133,1.862,1.862,0,0,1,1.279-.439,1.858,1.858,0,0,1,1.284.439,1.448,1.448,0,0,1,.493,1.133,1.489,1.489,0,0,1-.493,1.152A1.833,1.833,0,0,1-31.074-11.582ZM-29.551,0h-3.086V-10h3.086Zm1.943-.264v-2.5a6.57,6.57,0,0,0,1.519.684,5.035,5.035,0,0,0,1.431.225,3.068,3.068,0,0,0,1.294-.225.726.726,0,0,0,.474-.684.632.632,0,0,0-.215-.488,2,2,0,0,0-.552-.342,6.261,6.261,0,0,0-.737-.264q-.4-.117-.771-.264a7.392,7.392,0,0,1-1.05-.483,3.034,3.034,0,0,1-.762-.6A2.361,2.361,0,0,1-27.446-6a3.157,3.157,0,0,1-.161-1.064,2.74,2.74,0,0,1,.366-1.445,2.991,2.991,0,0,1,.977-.991,4.462,4.462,0,0,1,1.4-.566,7.281,7.281,0,0,1,1.636-.181,9.076,9.076,0,0,1,1.348.1,10.059,10.059,0,0,1,1.348.3v2.383a4.87,4.87,0,0,0-1.255-.513,5.294,5.294,0,0,0-1.313-.171,2.91,2.91,0,0,0-.571.054,1.882,1.882,0,0,0-.474.156.87.87,0,0,0-.322.264.607.607,0,0,0-.117.366.677.677,0,0,0,.176.469,1.527,1.527,0,0,0,.459.337,4.531,4.531,0,0,0,.63.254q.347.112.688.229a8.951,8.951,0,0,1,1.113.469,3.56,3.56,0,0,1,.854.6,2.339,2.339,0,0,1,.547.8,2.846,2.846,0,0,1,.19,1.094,2.853,2.853,0,0,1-.386,1.519A3.088,3.088,0,0,1-21.343-.513a4.65,4.65,0,0,1-1.475.576,8.175,8.175,0,0,1-1.733.181A8.936,8.936,0,0,1-27.607-.264Zm11.016-11.318a1.8,1.8,0,0,1-1.279-.464,1.5,1.5,0,0,1-.5-1.138,1.441,1.441,0,0,1,.5-1.133,1.862,1.862,0,0,1,1.279-.439,1.858,1.858,0,0,1,1.284.439,1.448,1.448,0,0,1,.493,1.133,1.489,1.489,0,0,1-.493,1.152A1.833,1.833,0,0,1-16.592-11.582ZM-15.068,0h-3.086V-10h3.086Zm1.943-.264v-2.5a6.57,6.57,0,0,0,1.519.684,5.035,5.035,0,0,0,1.431.225A3.068,3.068,0,0,0-8.882-2.08a.726.726,0,0,0,.474-.684.632.632,0,0,0-.215-.488,2,2,0,0,0-.552-.342,6.261,6.261,0,0,0-.737-.264q-.4-.117-.771-.264a7.392,7.392,0,0,1-1.05-.483,3.034,3.034,0,0,1-.762-.6A2.361,2.361,0,0,1-12.964-6a3.157,3.157,0,0,1-.161-1.064,2.74,2.74,0,0,1,.366-1.445,2.991,2.991,0,0,1,.977-.991,4.462,4.462,0,0,1,1.4-.566,7.281,7.281,0,0,1,1.636-.181,9.076,9.076,0,0,1,1.348.1,10.059,10.059,0,0,1,1.348.3v2.383A4.87,4.87,0,0,0-7.31-7.974a5.294,5.294,0,0,0-1.313-.171,2.91,2.91,0,0,0-.571.054,1.882,1.882,0,0,0-.474.156.87.87,0,0,0-.322.264.607.607,0,0,0-.117.366.677.677,0,0,0,.176.469,1.527,1.527,0,0,0,.459.337,4.531,4.531,0,0,0,.63.254q.347.112.688.229a8.951,8.951,0,0,1,1.113.469,3.56,3.56,0,0,1,.854.6,2.339,2.339,0,0,1,.547.8,2.846,2.846,0,0,1,.19,1.094,2.853,2.853,0,0,1-.386,1.519A3.088,3.088,0,0,1-6.86-.513,4.65,4.65,0,0,1-8.335.063a8.175,8.175,0,0,1-1.733.181A8.936,8.936,0,0,1-13.125-.264ZM11.631,4.6H8.545V-1.377H8.506A3.428,3.428,0,0,1,5.43.244,3.829,3.829,0,0,1,2.4-1.069,5.423,5.423,0,0,1,1.25-4.756,5.993,5.993,0,0,1,2.51-8.75a4.088,4.088,0,0,1,3.281-1.494A2.976,2.976,0,0,1,8.506-8.838h.039V-10h3.086ZM8.6-4.775v-.8a2.441,2.441,0,0,0-.566-1.641,1.826,1.826,0,0,0-1.455-.664,1.884,1.884,0,0,0-1.611.806,3.732,3.732,0,0,0-.586,2.231,3.15,3.15,0,0,0,.571,2,1.81,1.81,0,0,0,1.489.723,1.913,1.913,0,0,0,1.567-.732A2.971,2.971,0,0,0,8.6-4.775ZM23.73,0H20.654V-1.523h-.049A3.49,3.49,0,0,1,17.549.244q-3.477,0-3.477-4.209V-10h3.076v5.762q0,2.119,1.68,2.119A1.661,1.661,0,0,0,20.156-2.7a2.343,2.343,0,0,0,.5-1.577V-10H23.73Zm5.684,0H26.328V-10h3.086Zm1.592-14.736-3.057,3.154H25.723l2.539-3.154ZM47.891,0H44.814V-5.7q0-2.178-1.6-2.178a1.471,1.471,0,0,0-1.24.654A2.689,2.689,0,0,0,41.494-5.6V0H38.408V-5.762q0-2.119-1.572-2.119a1.507,1.507,0,0,0-1.265.625,2.75,2.75,0,0,0-.474,1.7V0H32.012V-10H35.1v1.563h.039a3.69,3.69,0,0,1,1.343-1.3,3.69,3.69,0,0,1,1.89-.5,2.88,2.88,0,0,1,2.9,1.865,3.7,3.7,0,0,1,3.359-1.865q3.262,0,3.262,4.023Zm4-11.582a1.8,1.8,0,0,1-1.279-.464,1.5,1.5,0,0,1-.5-1.138,1.441,1.441,0,0,1,.5-1.133,1.862,1.862,0,0,1,1.279-.439,1.858,1.858,0,0,1,1.284.439,1.448,1.448,0,0,1,.493,1.133,1.489,1.489,0,0,1-.493,1.152A1.833,1.833,0,0,1,51.895-11.582ZM53.418,0H50.332V-10h3.086ZM63.594-.361a6.1,6.1,0,0,1-3.018.605,5.1,5.1,0,0,1-3.73-1.4,4.823,4.823,0,0,1-1.426-3.6,5.313,5.313,0,0,1,1.528-4.019,5.648,5.648,0,0,1,4.087-1.47,5.244,5.244,0,0,1,2.559.469v2.617a3.518,3.518,0,0,0-2.158-.723,2.844,2.844,0,0,0-2.1.776,2.9,2.9,0,0,0-.776,2.144A2.85,2.85,0,0,0,59.3-2.876a2.728,2.728,0,0,0,2.041.757,4.073,4.073,0,0,0,2.256-.723Zm6.787.605a5.376,5.376,0,0,1-3.931-1.4,5.081,5.081,0,0,1-1.431-3.8A5.081,5.081,0,0,1,66.5-8.843a5.609,5.609,0,0,1,4.014-1.4,5.311,5.311,0,0,1,3.906,1.4A4.981,4.981,0,0,1,75.84-5.137,5.288,5.288,0,0,1,74.38-1.2,5.435,5.435,0,0,1,70.381.244Zm.078-8.125a2.058,2.058,0,0,0-1.7.752A3.316,3.316,0,0,0,68.154-5q0,2.881,2.324,2.881,2.217,0,2.217-2.959Q72.7-7.881,70.459-7.881Z" transform="translate(675 854)" fill="#12263f"/><path d="M-37.607,0H-41.23l-2.178-3.6q-.244-.41-.469-.732a4.069,4.069,0,0,0-.454-.552,1.806,1.806,0,0,0-.479-.352,1.215,1.215,0,0,0-.542-.122h-.85V0h-3.154V-14h5q5.1,0,5.1,3.809a3.944,3.944,0,0,1-.225,1.353,3.757,3.757,0,0,1-.635,1.118,4.024,4.024,0,0,1-.991.859A5.112,5.112,0,0,1-42.4-6.3v.039a2.007,2.007,0,0,1,.605.317,4.336,4.336,0,0,1,.566.513,7.153,7.153,0,0,1,.522.63q.249.337.454.659ZM-46.2-11.641v3.9h1.367A2.267,2.267,0,0,0-43.2-8.33,1.955,1.955,0,0,0-42.578-9.8q0-1.836-2.2-1.836Zm18.086,7.52h-6.523q.156,2.178,2.744,2.178a5.357,5.357,0,0,0,2.9-.781V-.5a7.619,7.619,0,0,1-3.6.742A5.073,5.073,0,0,1-36.357-1.1,5.073,5.073,0,0,1-37.7-4.844,5.352,5.352,0,0,1-36.25-8.789,4.815,4.815,0,0,1-32.7-10.244a4.37,4.37,0,0,1,3.384,1.3,5,5,0,0,1,1.2,3.525Zm-2.861-1.895q0-2.148-1.738-2.148A1.66,1.66,0,0,0-34-7.549a2.792,2.792,0,0,0-.659,1.533Zm4.043,5.752v-2.5a6.57,6.57,0,0,0,1.519.684,5.035,5.035,0,0,0,1.431.225A3.068,3.068,0,0,0-22.69-2.08a.726.726,0,0,0,.474-.684.632.632,0,0,0-.215-.488,2,2,0,0,0-.552-.342,6.261,6.261,0,0,0-.737-.264q-.4-.117-.771-.264a7.392,7.392,0,0,1-1.05-.483,3.034,3.034,0,0,1-.762-.6A2.361,2.361,0,0,1-26.772-6a3.157,3.157,0,0,1-.161-1.064,2.74,2.74,0,0,1,.366-1.445,2.991,2.991,0,0,1,.977-.991,4.462,4.462,0,0,1,1.4-.566,7.281,7.281,0,0,1,1.636-.181,9.076,9.076,0,0,1,1.348.1,10.059,10.059,0,0,1,1.348.3v2.383a4.87,4.87,0,0,0-1.255-.513,5.294,5.294,0,0,0-1.313-.171A2.91,2.91,0,0,0-23-8.091a1.882,1.882,0,0,0-.474.156.87.87,0,0,0-.322.264.607.607,0,0,0-.117.366.677.677,0,0,0,.176.469,1.527,1.527,0,0,0,.459.337,4.531,4.531,0,0,0,.63.254q.347.112.688.229a8.951,8.951,0,0,1,1.113.469,3.56,3.56,0,0,1,.854.6,2.339,2.339,0,0,1,.547.8,2.846,2.846,0,0,1,.19,1.094,2.853,2.853,0,0,1-.386,1.519A3.088,3.088,0,0,1-20.669-.513a4.65,4.65,0,0,1-1.475.576,8.175,8.175,0,0,1-1.733.181A8.936,8.936,0,0,1-26.934-.264ZM-7.979,0h-3.076V-1.523H-11.1A3.49,3.49,0,0,1-14.16.244q-3.477,0-3.477-4.209V-10h3.076v5.762q0,2.119,1.68,2.119A1.661,1.661,0,0,0-11.553-2.7a2.343,2.343,0,0,0,.5-1.577V-10h3.076Zm5.684,0H-5.381V-14.8h3.086ZM6.348-.117A4.561,4.561,0,0,1,4.287.244q-3.262,0-3.262-3.389v-4.58H-.6V-10H1.025v-2.158L4.1-13.037V-10H6.348v2.275H4.1v4.043q0,1.563,1.24,1.563A2.091,2.091,0,0,0,6.348-2.4ZM16.406,0h-2.92V-1.436h-.039A3.259,3.259,0,0,1,10.469.244a3.116,3.116,0,0,1-2.29-.825,2.957,2.957,0,0,1-.835-2.2q0-2.91,3.447-3.359L13.506-6.5q0-1.641-1.777-1.641A6.067,6.067,0,0,0,8.33-7.08V-9.4a7.646,7.646,0,0,1,1.763-.586,9.266,9.266,0,0,1,2.036-.254q4.277,0,4.277,4.268Zm-2.9-4.062v-.674L11.689-4.5q-1.5.2-1.5,1.357a1.122,1.122,0,0,0,.366.864,1.407,1.407,0,0,0,.991.337,1.827,1.827,0,0,0,1.416-.6A2.169,2.169,0,0,0,13.506-4.062ZM28.633,0H25.547V-1.377h-.039a3.46,3.46,0,0,1-3.1,1.621,3.791,3.791,0,0,1-3.018-1.323,5.478,5.478,0,0,1-1.143-3.7,5.962,5.962,0,0,1,1.26-3.975,4.109,4.109,0,0,1,3.3-1.494,2.808,2.808,0,0,1,2.7,1.387h.039V-14.8h3.086ZM25.605-4.863v-.752a2.366,2.366,0,0,0-.566-1.621,1.871,1.871,0,0,0-1.475-.645,1.859,1.859,0,0,0-1.6.806,3.741,3.741,0,0,0-.576,2.212,3.237,3.237,0,0,0,.557,2.031,1.848,1.848,0,0,0,1.543.713,1.856,1.856,0,0,0,1.528-.752A3.134,3.134,0,0,0,25.605-4.863ZM36,.244a5.376,5.376,0,0,1-3.931-1.4,5.081,5.081,0,0,1-1.431-3.8,5.081,5.081,0,0,1,1.484-3.882,5.609,5.609,0,0,1,4.014-1.4,5.311,5.311,0,0,1,3.906,1.4,4.981,4.981,0,0,1,1.416,3.706A5.288,5.288,0,0,1,40-1.2,5.435,5.435,0,0,1,36,.244Zm.078-8.125a2.058,2.058,0,0,0-1.7.752A3.316,3.316,0,0,0,33.77-5q0,2.881,2.324,2.881,2.217,0,2.217-2.959Q38.311-7.881,36.074-7.881ZM42.8-.264v-2.5a6.57,6.57,0,0,0,1.519.684,5.035,5.035,0,0,0,1.431.225,3.068,3.068,0,0,0,1.294-.225.726.726,0,0,0,.474-.684.632.632,0,0,0-.215-.488,2,2,0,0,0-.552-.342,6.261,6.261,0,0,0-.737-.264q-.4-.117-.771-.264a7.392,7.392,0,0,1-1.05-.483,3.034,3.034,0,0,1-.762-.6A2.361,2.361,0,0,1,42.964-6,3.157,3.157,0,0,1,42.8-7.061a2.74,2.74,0,0,1,.366-1.445,2.991,2.991,0,0,1,.977-.991,4.462,4.462,0,0,1,1.4-.566,7.281,7.281,0,0,1,1.636-.181,9.076,9.076,0,0,1,1.348.1,10.058,10.058,0,0,1,1.348.3v2.383a4.87,4.87,0,0,0-1.255-.513A5.294,5.294,0,0,0,47.3-8.145a2.91,2.91,0,0,0-.571.054,1.882,1.882,0,0,0-.474.156.87.87,0,0,0-.322.264.607.607,0,0,0-.117.366A.677.677,0,0,0,46-6.836a1.527,1.527,0,0,0,.459.337,4.531,4.531,0,0,0,.63.254q.347.112.688.229a8.951,8.951,0,0,1,1.113.469,3.56,3.56,0,0,1,.854.6,2.339,2.339,0,0,1,.547.8,2.846,2.846,0,0,1,.19,1.094,2.853,2.853,0,0,1-.386,1.519A3.088,3.088,0,0,1,49.067-.513a4.65,4.65,0,0,1-1.475.576,8.175,8.175,0,0,1-1.733.181A8.936,8.936,0,0,1,42.8-.264Z" transform="translate(929 854)" fill="#12263f"/><path d="M-48.037,0V-14h4.961q7.461,0,7.461,6.826a6.9,6.9,0,0,1-2.036,5.225A7.508,7.508,0,0,1-43.076,0Zm3.154-11.436v8.877h1.563A4.222,4.222,0,0,0-40.1-3.789a4.669,4.669,0,0,0,1.167-3.35,4.235,4.235,0,0,0-1.157-3.149,4.412,4.412,0,0,0-3.247-1.147Zm20.273,7.314h-6.523q.156,2.178,2.744,2.178a5.357,5.357,0,0,0,2.9-.781V-.5a7.619,7.619,0,0,1-3.6.742A5.073,5.073,0,0,1-32.852-1.1a5.073,5.073,0,0,1-1.338-3.745,5.352,5.352,0,0,1,1.445-3.945,4.815,4.815,0,0,1,3.555-1.455,4.37,4.37,0,0,1,3.384,1.3,5,5,0,0,1,1.2,3.525Zm-2.861-1.895q0-2.148-1.738-2.148a1.66,1.66,0,0,0-1.284.615,2.792,2.792,0,0,0-.659,1.533ZM-15.2-.361a6.1,6.1,0,0,1-3.018.605,5.1,5.1,0,0,1-3.73-1.4,4.823,4.823,0,0,1-1.426-3.6,5.313,5.313,0,0,1,1.528-4.019,5.648,5.648,0,0,1,4.087-1.47,5.244,5.244,0,0,1,2.559.469v2.617a3.518,3.518,0,0,0-2.158-.723,2.844,2.844,0,0,0-2.1.776,2.9,2.9,0,0,0-.776,2.144,2.85,2.85,0,0,0,.742,2.085,2.728,2.728,0,0,0,2.041.757A4.073,4.073,0,0,0-15.2-2.842Zm3.584-11.221a1.8,1.8,0,0,1-1.279-.464,1.5,1.5,0,0,1-.5-1.138,1.441,1.441,0,0,1,.5-1.133,1.862,1.862,0,0,1,1.279-.439,1.858,1.858,0,0,1,1.284.439,1.448,1.448,0,0,1,.493,1.133,1.489,1.489,0,0,1-.493,1.152A1.833,1.833,0,0,1-11.611-11.582ZM-10.088,0h-3.086V-10h3.086Zm1.943-.264v-2.5a6.57,6.57,0,0,0,1.519.684A5.035,5.035,0,0,0-5.2-1.855,3.068,3.068,0,0,0-3.9-2.08a.726.726,0,0,0,.474-.684.632.632,0,0,0-.215-.488,2,2,0,0,0-.552-.342,6.261,6.261,0,0,0-.737-.264q-.4-.117-.771-.264A7.392,7.392,0,0,1-6.753-4.6a3.034,3.034,0,0,1-.762-.6A2.361,2.361,0,0,1-7.983-6a3.157,3.157,0,0,1-.161-1.064,2.74,2.74,0,0,1,.366-1.445A2.991,2.991,0,0,1-6.8-9.5a4.462,4.462,0,0,1,1.4-.566,7.281,7.281,0,0,1,1.636-.181,9.076,9.076,0,0,1,1.348.1,10.059,10.059,0,0,1,1.348.3v2.383a4.87,4.87,0,0,0-1.255-.513,5.294,5.294,0,0,0-1.313-.171,2.91,2.91,0,0,0-.571.054,1.882,1.882,0,0,0-.474.156.87.87,0,0,0-.322.264.607.607,0,0,0-.117.366.677.677,0,0,0,.176.469,1.527,1.527,0,0,0,.459.337,4.531,4.531,0,0,0,.63.254q.347.112.688.229a8.951,8.951,0,0,1,1.113.469,3.56,3.56,0,0,1,.854.6,2.339,2.339,0,0,1,.547.8,2.846,2.846,0,0,1,.19,1.094A2.853,2.853,0,0,1-.854-1.538,3.088,3.088,0,0,1-1.88-.513,4.65,4.65,0,0,1-3.354.063,8.175,8.175,0,0,1-5.088.244,8.936,8.936,0,0,1-8.145-.264ZM2.871-11.582a1.8,1.8,0,0,1-1.279-.464,1.5,1.5,0,0,1-.5-1.138,1.441,1.441,0,0,1,.5-1.133,1.862,1.862,0,0,1,1.279-.439,1.858,1.858,0,0,1,1.284.439,1.448,1.448,0,0,1,.493,1.133,1.489,1.489,0,0,1-.493,1.152A1.833,1.833,0,0,1,2.871-11.582ZM4.395,0H1.309V-10H4.395Zm7.363.244a5.376,5.376,0,0,1-3.931-1.4A5.081,5.081,0,0,1,6.4-4.961,5.081,5.081,0,0,1,7.881-8.843a5.609,5.609,0,0,1,4.014-1.4,5.311,5.311,0,0,1,3.906,1.4,4.981,4.981,0,0,1,1.416,3.706A5.288,5.288,0,0,1,15.757-1.2,5.435,5.435,0,0,1,11.758.244Zm.078-8.125a2.058,2.058,0,0,0-1.7.752A3.316,3.316,0,0,0,9.531-5q0,2.881,2.324,2.881,2.217,0,2.217-2.959Q14.072-7.881,11.836-7.881ZM28.877,0H25.8V-5.557q0-2.324-1.66-2.324a1.647,1.647,0,0,0-1.318.615A2.344,2.344,0,0,0,22.3-5.7V0H19.219V-10H22.3v1.582h.039a3.536,3.536,0,0,1,3.213-1.826q3.32,0,3.32,4.121ZM40.3-4.121H33.779q.156,2.178,2.744,2.178a5.357,5.357,0,0,0,2.9-.781V-.5a7.619,7.619,0,0,1-3.6.742A5.073,5.073,0,0,1,32.061-1.1a5.073,5.073,0,0,1-1.338-3.745,5.352,5.352,0,0,1,1.445-3.945,4.815,4.815,0,0,1,3.555-1.455,4.37,4.37,0,0,1,3.384,1.3A5,5,0,0,1,40.3-5.42ZM37.441-6.016q0-2.148-1.738-2.148a1.66,1.66,0,0,0-1.284.615,2.792,2.792,0,0,0-.659,1.533ZM41.484-.264v-2.5A6.57,6.57,0,0,0,43-2.08a5.035,5.035,0,0,0,1.431.225,3.068,3.068,0,0,0,1.294-.225.726.726,0,0,0,.474-.684.632.632,0,0,0-.215-.488,2,2,0,0,0-.552-.342,6.261,6.261,0,0,0-.737-.264q-.4-.117-.771-.264a7.392,7.392,0,0,1-1.05-.483,3.034,3.034,0,0,1-.762-.6A2.361,2.361,0,0,1,41.646-6a3.157,3.157,0,0,1-.161-1.064,2.74,2.74,0,0,1,.366-1.445,2.991,2.991,0,0,1,.977-.991,4.462,4.462,0,0,1,1.4-.566,7.281,7.281,0,0,1,1.636-.181,9.076,9.076,0,0,1,1.348.1,10.058,10.058,0,0,1,1.348.3v2.383A4.87,4.87,0,0,0,47.3-7.974a5.294,5.294,0,0,0-1.313-.171,2.91,2.91,0,0,0-.571.054,1.882,1.882,0,0,0-.474.156.87.87,0,0,0-.322.264A.607.607,0,0,0,44.5-7.3a.677.677,0,0,0,.176.469,1.527,1.527,0,0,0,.459.337,4.531,4.531,0,0,0,.63.254q.347.112.688.229a8.951,8.951,0,0,1,1.113.469,3.56,3.56,0,0,1,.854.6,2.339,2.339,0,0,1,.547.8,2.846,2.846,0,0,1,.19,1.094,2.853,2.853,0,0,1-.386,1.519A3.088,3.088,0,0,1,47.749-.513a4.65,4.65,0,0,1-1.475.576,8.175,8.175,0,0,1-1.733.181A8.936,8.936,0,0,1,41.484-.264Z" transform="translate(1180 854)" fill="#12263f"/><g transform="translate(18.264 -27.665)"><g transform="translate(349.383 697.3)"><path d="M126.343,161.906c.164-.2.5-.012.712-.037,1.547-.174,3.386-1.567,4.919-3.726s2.247-4.351,1.9-5.857c-.633-2.78-3.658-8.885-3.786-9.144l-.206-.414s-.944-.073-2.2-.073c-.887,0-1.963.016-3.2.048-3.275.084-8.449.763-9.956.969a2.166,2.166,0,0,0-1.095.482c-.539.45-2.338,1.948-4.646,3.865l-3.618,5.948s-9.6,9.51-11.2,11.973a4.358,4.358,0,0,0,.806,5.812c1.434,1,4.547.885,7.163-2.124,1.575-1.811,2.177-1.885,2.177-1.885s-2.747,4.058-3.144,6.455.581,3.972,2.074,4.687,4.16.115,6.135-2.612l.158-.218a5.668,5.668,0,0,0-.443,1.862c.024,2.24,1.181,3.485,2.674,3.859s3.852-.657,5.228-3.484c1.1-2.256,3.12-5.881,3.12-5.881S124.01,164.709,126.343,161.906Z" transform="translate(-72.225 -131.338)" fill="#ffc7b5"/><path d="M130.821,115.6S116,91.476,113.966,88.855c-1.3-1.671-2.953-1.6-5.847-1.488s-20.736,2.338-21.61,2.42A9.468,9.468,0,0,0,83.041,91.8c-.963.791-16.592,14.424-18.211,16.236s-3.964,4.362-2.3,7.245c1.782,3.09,4.9,3.254,6.9,1.634,1.91-1.548,17.338-14.214,19.664-16.154a1.34,1.34,0,0,1,.681-.3c1.446-.2,6.62-.878,9.867-.961,3.8-.1,4.848-.015,4.848-.015s3.1,6.244,3.722,8.961-3.294,8.272-6.117,8.589-9.463-1.805-12.859-3.488l-5.817,11.028c3.622,1.053,9.157,2.626,10.107,2.924,2.85.895,4.371,1.5,5.225,2.792,1.693,2.564,4.456,7.978,8.3,10.736,5.59,4.013,16.365,4.24,16.365,4.24h.993l15.428-21.472Z" transform="translate(-47.35 -87.314)" fill="#fcd3c4"/><path d="M348.638,276.351l15.428-21.47-3.059-2.781-17.167,23.956c2.242.262,3.8.295,3.8.295Z" transform="translate(-271.587 -218.401)" fill="#ffc7b5"/><path d="M383.831,259.735l-11.493-8.17-19.4,27.071,11.378,8.332h19.514Z" transform="translate(-278.825 -217.976)" fill="#d0e5ff"/><path d="M126.563,137.562l-2.5,4.773,13.986,7.377,2.5-4.777a.76.76,0,0,0-.319-1.025l-12.641-6.668a.76.76,0,0,0-1.028.32Z" transform="translate(-96.754 -126.962)" fill="#34507d"/><path d="M0,0H20.13V44.575a10.065,10.065,0,0,1-20.13,0V0Z" transform="matrix(0.884, 0.467, -0.467, 0.884, 25.517, 14.056)" fill="#d0e5ff"/><path d="M9.169,292.87a10.066,10.066,0,0,0,17.806,9.393l12.55-23.8H16.765Z" transform="translate(-4.429 -239.375)" fill="#44e444"/><path d="M123.622,200.872c-2.43-1.209-8.388-3.742-11.216-3.762-1.82-.012-5.6-.024-6.9,4.376a5.494,5.494,0,0,0,.757,4.994,13.694,13.694,0,0,0,5.532,3.966c2.055.939,4.337.913,6.679,1.654l5.767-10.932C124.027,201.069,123.818,200.969,123.622,200.872Z" transform="translate(-81.771 -174.656)" fill="#fcd3c4"/></g><g transform="translate(352.032 695.667)"><path d="M293.082,121.389l-11.493-8.17a1.636,1.636,0,0,0-2.278.38l-.592.826-6.849-6.228c-1.522-2.476-14.846-24.134-16.835-26.7-1.814-2.337-4.192-2.241-7.2-2.12-1.4.056-5.407.442-8.695.785a1.636,1.636,0,1,0,.339,3.254c4.07-.425,7.4-.727,8.487-.771,3.006-.12,3.78-.056,4.489.857,1.566,2.017,11.643,18.282,16.753,26.6a1.631,1.631,0,0,0,.294.354l7.3,6.641-2.828,3.947a1.636,1.636,0,1,0,2.66,1.906l4.389-6.126,10.164,7.226a1.636,1.636,0,1,0,1.9-2.666Z" transform="translate(-189.066 -79.329)"/><path d="M84.519,153.874,74.448,146.5l10.3-14.372a1.636,1.636,0,1,0-2.66-1.906L73.3,142.477c-2.568-.148-10.345-.842-14.6-3.895-2.809-2.017-5.07-5.729-6.721-8.44-.418-.686-.813-1.335-1.166-1.868-1.307-1.979-3.5-2.655-7.492-3.883-.593-.182-11.591-2.437-14.56-3.888-2.407-1.176-4.032-2.233-4.878-3.425a3.874,3.874,0,0,1-.521-3.584c.881-2.984,3.108-3.215,5.316-3.2,2.171.015,7.492,2.095,10.5,3.591,3.069,1.526,10.3,4.053,13.8,3.663,2.558-.288,4.7-2.939,5.5-4.066.625-.879,2.618-3.949,2.035-6.512-.654-2.874-3.722-9.064-3.851-9.325a1.636,1.636,0,0,0-1.335-.9c-.116-.009-1.241-.088-5.021.01-3.854.1-10.174.993-10.441,1.031a1.636,1.636,0,0,0-.818.363l-1.353,1.128-7.058-3.723c2.135-1.867,3.765-3.279,4.154-3.6a11.5,11.5,0,0,1,2.863-1.7c.5-.137,2.857-.491,7.987-1.073a1.636,1.636,0,0,0-.37-3.252c-4.784.544-7.639.937-8.485,1.17a14,14,0,0,0-4.072,2.325c-.848.7-16.663,14.474-18.393,16.41-1.7,1.9-4.55,5.092-2.543,9.071a6.7,6.7,0,0,0,1.3,1.8L1.353,138.931a11.7,11.7,0,0,0,20.7,10.919l7.495-14.208a4.655,4.655,0,0,0,.831.075,6.182,6.182,0,0,0,3.038-.868,4.467,4.467,0,0,0,3.311,3.227,4.284,4.284,0,0,0,1.037.121,7.769,7.769,0,0,0,6.408-4.27c.749-1.337,1.962-3.464,2.733-4.812a2.95,2.95,0,0,1,1.186.962c.319.483.681,1.078,1.1,1.766,1.8,2.951,4.258,6.991,7.607,9.4,4.083,2.932,10.514,3.977,14.277,4.347l-.23.321a1.636,1.636,0,0,0,.363,2.273l11.378,8.332a1.636,1.636,0,1,0,1.931-2.64ZM57.29,108.465a8.723,8.723,0,0,1-1.48,3.12c-1.191,1.677-2.508,2.632-3.193,2.709-1.955.22-6.916-1.169-10.42-2.635l.131-.248,3.354-2.077Zm-6.9-8.446c1.87-.048,3.058-.052,3.77-.044.66,1.375,1.63,3.477,2.338,5.268l-11.459.857a1.634,1.634,0,0,0-.739.241l-2.581,1.6,1.937-3.673a1.636,1.636,0,0,0-.684-2.21l-2.106-1.111c1.615-.218,6.485-.846,9.524-.925ZM40,104.187l-1.191,2.257-11.092-5.851,1.191-2.257Zm-25.3,9.242c-.931-1.847.266-3.411,2.061-5.419.248-.278.9-.9,1.826-1.75l-3.833,7.268C14.735,113.495,14.717,113.463,14.7,113.429Zm4.458,34.895a8.429,8.429,0,1,1-14.911-7.866L24.281,102.48l13.989,7.379c-2.876-1.25-7.065-2.822-9.563-2.84-1.865-.012-6.825-.046-8.476,5.549a7.1,7.1,0,0,0,.991,6.4c1.583,2.229,4.289,3.64,6.187,4.507.134.061.269.119.4.176H16.192a1.636,1.636,0,0,0,0,3.272H30.444Zm14.568-18.1a6.106,6.106,0,0,1-2.371,1.987l3.514-6.662,2.021.426S34.448,129.274,33.726,130.227Zm7.591,2.1c-1.208,2.157-3.1,2.747-3.8,2.573-.321-.081-1.175-.294-1.047-2.026a5.087,5.087,0,0,1,.278-1.226c1.016-1.355,3.543-4.772,3.543-4.772l3.5,1.086s-1.806,3.167-2.478,4.365Z" transform="translate(0.001 -84.568)"/></g></g><g transform="translate(815.463 643.333)"><g transform="translate(70.307 1.807)"><path d="M209.359,14.727h-10.84A7.227,7.227,0,0,0,191.293,7.5h-7.227a7.227,7.227,0,0,0-7.227,7.227H166V29.18h43.359V14.727Z" transform="translate(-144.32 -7.5)" fill="#ffc45c" fill-rule="evenodd"/><path d="M97.68,59.727V52.5H76V157.767a3.624,3.624,0,0,0,3.613,3.613h79.493a3.625,3.625,0,0,0,3.613-3.613V52.5h-21.68v7.227h14.453V139.7l-14.453,14.453H83.227V59.727Z" transform="translate(-76 -41.66)" fill="#ffc45c" fill-rule="evenodd"/><path d="M120.453,82.5H106v94.428h57.813V162.474h14.453V82.5H163.813v3.613H120.453Zm3.225,47.453,7.382-4.262v-8.524l-7.382-4.262v-8.524l7.382-4.262,7.382,4.262v8.524l7.382,4.262v8.524l-7.382,4.262v8.524l-7.382,4.262-7.382-4.262Z" transform="translate(-98.773 -64.434)" fill="#fff" fill-rule="evenodd"/><path d="M360.453,414.5H346v14.453Z" transform="translate(-280.961 -316.459)" fill="#9ee6fa" fill-rule="evenodd"/><path d="M186.772,278.85l7.382-4.262v-8.524l-7.382-4.262-7.382,4.262v8.524Z" transform="translate(-154.485 -200.545)" fill="#97eeba" fill-rule="evenodd"/><path d="M210.034,221.512l7.382,4.262,7.382-4.262v-8.524l-7.382-4.262-7.382,4.262Z" transform="translate(-177.747 -160.253)" fill="#ffee89" fill-rule="evenodd"/><path d="M186.772,172.7l7.382-4.262v-8.524l-7.382-4.262-7.382,4.262v8.524Z" transform="translate(-154.485 -119.963)" fill="#00e7f0" fill-rule="evenodd"/><path d="M81.42,52.5H76V157.767a3.624,3.624,0,0,0,3.613,3.613h5.42a3.624,3.624,0,0,1-3.613-3.613V52.5Z" transform="translate(-76 -41.66)" fill="#ff8e42" fill-rule="evenodd"/><path d="M106,82.5h5.42v94.428H106Z" transform="translate(-98.773 -64.434)" fill="#9ee6fa" fill-rule="evenodd"/><path d="M166,37.5h5.42V51.953H166Z" transform="translate(-144.321 -30.273)" fill="#ff8e42" fill-rule="evenodd"/></g><g transform="translate(68.5)"><path d="M137.152,10.84V7.227H126.131A9.049,9.049,0,0,0,117.28,0h-7.227A9.049,9.049,0,0,0,101.2,7.227H90.18V10.84H68.5V21.68h3.613V14.453H90.18v3.613H75.727v98.041h60.368L151.606,100.6V18.067H137.152V14.453h18.067V117.914a1.809,1.809,0,0,1-1.807,1.807h-5.42v3.613h5.42a5.426,5.426,0,0,0,5.42-5.42V10.84Zm-43.359,0h10.84V9.033a5.426,5.426,0,0,1,5.42-5.42h7.227a5.426,5.426,0,0,1,5.42,5.42V10.84h10.84V21.68H93.793Zm43.359,99.1v-8.285h8.285Zm10.84-88.259V98.041H133.539v14.453H79.34V21.68H90.18v3.613h46.972V21.68Z" transform="translate(-68.5)"/><path d="M368.5,497h3.613v3.613H368.5Z" transform="translate(-296.234 -377.279)"/><path d="M72.113,197.621V105H68.5v92.621a5.426,5.426,0,0,0,5.42,5.42h63.233v-3.613H73.92A1.809,1.809,0,0,1,72.113,197.621Z" transform="translate(-68.5 -79.707)"/><path d="M368.5,105h3.613v3.613H368.5Z" transform="translate(-296.234 -79.706)"/><path d="M368.5,135h3.613v3.614H368.5Z" transform="translate(-296.234 -102.48)"/><path d="M248.5,30h3.613v3.613H248.5Z" transform="translate(-205.14 -22.773)"/><path d="M205.03,153.338h-3.613v7.481l-5.575,3.219-5.575-3.219v-8.524l-9.188-5.3-9.188,5.3V162.9l7.382,4.262V173.6l-7.382,4.262v10.61l9.188,5.3,9.188-5.3v-8.524l5.575-3.219,6.478,3.74,1.807-3.129-6.478-3.74v-6.437l5.575-3.219,6.478,3.74,1.807-3.129-6.478-3.74ZM175.5,154.381l5.575-3.219,5.575,3.219v6.438l-5.575,3.219-5.575-3.219Zm5.575,35.227-5.575-3.219v-6.437l5.575-3.219,5.575,3.219v6.437Zm12.957-16-5.575,3.219-5.575-3.219v-6.437l5.575-3.219,5.575,3.219Z" transform="translate(-146.985 -111.582)"/><path d="M237.25,363.85h16.26v3.613H237.25Z" transform="translate(-196.6 -276.203)"/><path d="M237.25,393.85h16.26v3.613H237.25Z" transform="translate(-196.6 -298.977)"/><path d="M207.25,363.85h3.613v3.613H207.25Z" transform="translate(-173.827 -276.203)"/><path d="M207.25,393.85h3.613v3.613H207.25Z" transform="translate(-173.827 -298.977)"/></g></g><g transform="translate(1125 650)"><path d="M368,321.375h10.938V312l15.625,18.75L378.937,349.5v-9.375H368Z" transform="translate(-296.125 -251.063)" fill="#f4b651"/><path d="M335.812,154.3,354.641,134.8l7.734,7.734-2.21-24.307-24.307-2.21,6.629,6.629L328,137.137V154.3Z" transform="translate(-263.938 -93.36)" fill="#f7d74f"/><path d="M34.562,154.3,15.734,134.8,8,142.537l2.21-24.307,24.307-2.21-6.629,6.629,14.488,14.488V154.3Z" transform="translate(-6.438 -93.36)" fill="#f7d74f"/><path d="M136,344.625v-28.4c0-6.754,4.989-12.228,11.142-12.228H170.17c6.154,0,11.143,5.475,11.143,12.228v28.4Z" transform="translate(-109.438 -244.625)" fill="#23a3db"/><path d="M240,344v25l3.125,4.688L246.25,369V344Z" transform="translate(-193.125 -276.813)" fill="#3dfaff"/><path d="M240,312h6.25v6.25H240Z" transform="translate(-193.125 -251.063)" fill="#23d8d8"/><path d="M208,176v13.237c0,3.133,1.506,4.745,4.117,5.675a3.16,3.16,0,0,1,2.133,2.963v4.688h6.25v-4.688a3.16,3.16,0,0,1,2.133-2.963c2.611-.93,4.117-2.542,4.117-5.675V176Z" transform="translate(-167.375 -141.625)" fill="#fdcaa7"/><path d="M214.25,144h12.5v6.25H212.688l-1.562,6.25L208,159.625V150.25A6.25,6.25,0,0,1,214.25,144Z" transform="translate(-167.375 -115.875)" fill="#894619"/><path d="M248,170.562h5.115a3.233,3.233,0,0,1,1.705-1.4c2.611-.93,4.117-2.542,4.117-5.675V144h-6.25v20.79a4.947,4.947,0,0,1-2.2,4.116Z" transform="translate(-199.563 -115.875)" fill="#e28f56" opacity="0.3"/><path d="M170.375,31.437V23.625H161L179.75,8,198.5,23.625h-9.375v7.812Z" transform="translate(-129.555 -6.438)" fill="#3dfaff"/><path d="M33,321.375H23.625V312L8,330.75,23.625,349.5v-9.375H33Z" transform="translate(-6.438 -251.063)" fill="#f4b651"/><path d="M256.11,8.145V31.437h9.549V23.625h9.375L256.284,8Z" transform="translate(-206.089 -6.438)" fill="#1fe8e8"/><path d="M43.621,116.02l-24.307,2.21,32.165,32.708v-13.8L36.992,122.649Z" transform="translate(-15.542 -93.36)" fill="#f2cb2a"/><path d="M33,321.375H23.625V312L8,330.75H33Z" transform="translate(-6.438 -251.063)" fill="#f2a536"/><path d="M328,149.849l32.165-31.619-24.307-2.21,6.629,6.629L328,137.137Z" transform="translate(-263.938 -93.36)" fill="#f2cb2a"/><path d="M378.937,321.375H368v9.375h26.562L378.937,312Z" transform="translate(-296.125 -251.063)" fill="#f2a536"/><path d="M168,360h3.125v29.688H168Z" transform="translate(-135.188 -289.688)"/><path d="M320,360h3.125v29.688H320Z" transform="translate(-257.5 -289.688)"/><path d="M240,200h3.125v3.125H240Z" transform="translate(-193.125 -160.938)"/><path d="M272,200h3.125v3.125H272Z" transform="translate(-218.875 -160.938)"/><path d="M181.125,17.187V25h3.125V18.75h7.813a1.563,1.563,0,0,0,1-2.763L174.313.362a1.562,1.562,0,0,0-2,0l-18.75,15.625a1.562,1.562,0,0,0,1,2.763h7.813V25H165.5V17.187a1.562,1.562,0,0,0-1.562-1.562h-5.059L173.312,3.6l14.434,12.029h-5.059a1.562,1.562,0,0,0-1.562,1.562Z" transform="translate(-123.117)"/><path d="M350.088,126.8a1.563,1.563,0,0,0-1.1.458l-18.828,18.828,2.21,2.21,17.723-17.723,6.629,6.629a1.563,1.563,0,0,0,2.661-1.246l-2.209-24.307a1.562,1.562,0,0,0-1.415-1.415l-24.307-2.21a1.562,1.562,0,0,0-1.246,2.661l5.524,5.524-13.383,13.383,2.21,2.21,14.488-14.488a1.562,1.562,0,0,0,0-2.21l-3.577-3.578,18.712,1.7,1.7,18.712-4.682-4.682A1.562,1.562,0,0,0,350.088,126.8Z" transform="translate(-259.386 -86.923)"/><path d="M15.987,208.875a1.563,1.563,0,0,0,2.763-1v-7.812H25v9.375h3.125V180.531a10.168,10.168,0,0,1,10.156-10.156h7.031v29.688a1.563,1.563,0,0,0,.262.867l3.125,4.688a1.563,1.563,0,0,0,2.6,0l3.125-4.687a1.562,1.562,0,0,0,.262-.867V170.375h5.469a10.168,10.168,0,0,1,10.156,10.156v28.906h3.125v-9.375H81.25v7.813a1.563,1.563,0,0,0,2.763,1l15.625-18.75a1.563,1.563,0,0,0,0-2l-15.625-18.75a1.563,1.563,0,0,0-2.763,1v7.813H73.226a13.3,13.3,0,0,0-13.07-10.937H54.687v-1.563a1.589,1.589,0,0,1,1.1-1.491c3.469-1.236,5.155-3.574,5.155-7.147V137.562A1.562,1.562,0,0,0,59.375,136h-12.5a7.821,7.821,0,0,0-7.812,7.813v13.237c0,3.573,1.686,5.911,5.155,7.147a1.589,1.589,0,0,1,1.1,1.491v1.563H38.281a13.3,13.3,0,0,0-13.07,10.938H18.75v-7.812a1.562,1.562,0,0,0-2.763-1L.362,188.125a1.562,1.562,0,0,0,0,2Zm66.825-27.563a1.562,1.562,0,0,0,1.562-1.562v-5.059L96.4,189.125,84.375,203.559V198.5a1.562,1.562,0,0,0-1.562-1.562H73.437V181.312ZM48.437,170.375h3.125V173.5H48.437ZM50,201.933l-1.562-2.344V176.625h3.125v22.964Zm-7.812-58.121a4.693,4.693,0,0,1,4.688-4.688H57.812v3.125h-12.5a1.562,1.562,0,0,0-1.516,1.184l-1.457,5.83-.152.152Zm3.079,17.44c-2.216-.789-3.079-1.968-3.079-4.2v-3.215l2.667-2.667a1.563,1.563,0,0,0,.41-.726l1.267-5.066h11.28v11.674c0,2.235-.863,3.414-3.079,4.2a4.74,4.74,0,0,0-3.171,4.435v1.563H48.437v-1.562A4.74,4.74,0,0,0,45.266,161.253ZM15.625,174.691v5.059a1.563,1.563,0,0,0,1.563,1.563H25v15.625H17.187a1.562,1.562,0,0,0-1.563,1.563v5.059L3.6,189.125Z" transform="translate(0 -109.438)"/><path d="M20.345,117.316,34.833,131.8l2.21-2.21L23.66,116.212l5.524-5.524a1.563,1.563,0,0,0-1.246-2.661l-24.307,2.21a1.563,1.563,0,0,0-1.415,1.415L.006,135.958A1.563,1.563,0,0,0,2.667,137.2L9.3,130.575,27.02,148.3l2.21-2.21L10.4,127.261a1.563,1.563,0,0,0-2.21,0l-4.683,4.681,1.7-18.711,18.712-1.7-3.577,3.576a1.563,1.563,0,0,0,0,2.211Z" transform="translate(0 -86.923)"/></g><g transform="translate(609.364 648.668)"><path d="M119.981,32h74.433v97.472H119.981Z" transform="translate(-80.932 -24.911)" fill="#e6e6e6"/><path d="M207.981,8h31.9V18.633h-31.9Z" transform="translate(-149.438 -6.228)" fill="#0071bc"/><path d="M231.981,304H270.97l-3.544,7.089v30.128H231.981Z" transform="translate(-168.121 -236.656)" fill="#f7931e"/><path d="M54.109,200H43.475v31.9L24.9,253.851a3.891,3.891,0,0,0,2.977,6.4H69.7a3.9,3.9,0,0,0,3.9-3.9h0a3.884,3.884,0,0,0-.922-2.513L54.109,231.9Z" transform="translate(-6.199 -155.695)" fill="#29abe2"/><g transform="translate(17.797 38.989)"><path d="M63.158,392H34.53l-9.57,11.317a3.9,3.9,0,0,0,2.972,6.4H69.756a3.9,3.9,0,0,0,2.97-6.4Z" transform="translate(-24.048 -344.15)" fill="#0071bc"/><path d="M95.981,176H113.7v7.089H95.981Z" transform="translate(-80.046 -176)" fill="#0071bc"/></g><path d="M17.35,97.011a5.671,5.671,0,0,0,4.331,9.322h91.8a1.772,1.772,0,0,0,1.772-1.772V7.089a1.772,1.772,0,0,0-1.772-1.772H92.215V1.772A1.772,1.772,0,0,0,90.443,0h-31.9a1.772,1.772,0,0,0-1.772,1.772V5.317H39.049a1.772,1.772,0,0,0-1.772,1.772V37.217H33.732a1.772,1.772,0,0,0-1.772,1.772v7.089a1.772,1.772,0,0,0,1.772,1.772H35.5V75.557Zm4.331,5.777A2.127,2.127,0,0,1,20.063,99.3L23.1,95.7H44.366V92.155H26.112l3-3.544H56.085L65.124,99.3a2.118,2.118,0,0,1-1.618,3.486Zm66.99,0V81.522H85.127v21.267H68.757a5.627,5.627,0,0,0-.92-5.777l-2.2-2.605V69.116H99.981l-2.263,4.524a1.772,1.772,0,0,0-.186.792H92.215v3.544h5.317v3.544H92.215v3.544h5.317v3.544H92.215v3.544h5.317V95.7H92.215v3.544h5.317v3.544ZM60.316,3.544H88.671v7.089H60.316V3.544ZM40.821,8.861h15.95v3.544a1.772,1.772,0,0,0,1.772,1.772h31.9a1.772,1.772,0,0,0,1.772-1.772V8.861H111.71v93.928H101.077V74.851l3.367-6.715a1.772,1.772,0,0,0-1.595-2.564H63.86a1.772,1.772,0,0,0-1.772,1.772V90.218L49.682,75.557V47.85h1.772a1.772,1.772,0,0,0,1.772-1.772V38.989a1.772,1.772,0,0,0-1.772-1.772H40.821V8.861ZM35.5,40.761H49.682v3.544H35.5ZM46.138,47.85V76.205a1.773,1.773,0,0,0,.42,1.145l6.529,7.716H32.1l6.529-7.716a1.773,1.773,0,0,0,.42-1.145V69.116h3.544V65.572H39.049V62.028h3.544V58.483H39.049V54.939h3.544V51.394H39.049V47.85Z"/><path d="M159.981,416h3.544v3.544h-3.544Z" transform="translate(-112.071 -323.845)"/><path d="M327.981,336h3.544v3.544h-3.544Z" transform="translate(-242.854 -261.567)"/><path d="M207.981,107.494h4.9l5.735,2.867v4.221h3.544v-4.221l5.317-2.658,5.317,2.658v4.221h3.544v-4.221l6.109-3.045a1.772,1.772,0,0,0,.98-1.595V98.633h3.544V95.089h-4.9l-5.735-2.867V88h-3.544v4.221l-5.317,2.658-5.317-2.658V88h-3.544v4.221l-6.109,3.054a1.772,1.772,0,0,0-.98,1.586v7.089h-3.544Zm31.9-2.867-5.317,2.658-5.317-2.658V97.956l5.317-2.658,5.317,2.658ZM215.07,97.956l5.317-2.658,5.317,2.658v6.671l-5.317,2.658-5.317-2.658V97.956Z" transform="translate(-149.438 -68.506)"/><path d="M191.981,256h44.305v3.544H191.981Z" transform="translate(-136.982 -199.289)"/><path d="M239.981,224h40.761v3.544H239.981Z" transform="translate(-174.349 -174.378)"/><path d="M207.981,224h3.544v3.544h-3.544Z" transform="translate(-149.438 -174.378)"/><path d="M159.981,96h3.544v3.544h-3.544Z" transform="translate(-112.071 -74.733)"/><path d="M191.981,96h3.544v3.544h-3.544Z" transform="translate(-136.982 -74.733)"/><path d="M375.981,80h3.544v3.544h-3.544Z" transform="translate(-280.221 -62.278)"/><path d="M407.981,80h3.544v3.544h-3.544Z" transform="translate(-305.132 -62.278)"/></g><path d="M18,.563A17.438,17.438,0,1,1,.563,18,17.434,17.434,0,0,1,18,.563Zm-2.032,10.1,5.309,5.091H8.438A1.683,1.683,0,0,0,6.75,17.438v1.125A1.683,1.683,0,0,0,8.438,20.25H21.277l-5.309,5.091a1.689,1.689,0,0,0-.028,2.412l.773.766a1.681,1.681,0,0,0,2.384,0l9.33-9.323a1.681,1.681,0,0,0,0-2.384L19.1,7.474a1.681,1.681,0,0,0-2.384,0l-.773.766a1.7,1.7,0,0,0,.028,2.419Z" transform="translate(530.104 686.563)" fill="#0540b7"/><path d="M18,.563A17.438,17.438,0,1,1,.563,18,17.434,17.434,0,0,1,18,.563Zm-2.032,10.1,5.309,5.091H8.438A1.683,1.683,0,0,0,6.75,17.438v1.125A1.683,1.683,0,0,0,8.438,20.25H21.277l-5.309,5.091a1.689,1.689,0,0,0-.028,2.412l.773.766a1.681,1.681,0,0,0,2.384,0l9.33-9.323a1.681,1.681,0,0,0,0-2.384L19.1,7.474a1.681,1.681,0,0,0-2.384,0l-.773.766a1.7,1.7,0,0,0,.028,2.419Z" transform="translate(782 686.563)" fill="#0540b7"/><path d="M18,.563A17.438,17.438,0,1,1,.563,18,17.434,17.434,0,0,1,18,.563Zm-2.032,10.1,5.309,5.091H8.438A1.683,1.683,0,0,0,6.75,17.438v1.125A1.683,1.683,0,0,0,8.438,20.25H21.277l-5.309,5.091a1.689,1.689,0,0,0-.028,2.412l.773.766a1.681,1.681,0,0,0,2.384,0l9.33-9.323a1.681,1.681,0,0,0,0-2.384L19.1,7.474a1.681,1.681,0,0,0-2.384,0l-.773.766a1.7,1.7,0,0,0,.028,2.419Z" transform="translate(1039 686.563)" fill="#0540b7"/></g></svg>