<svg xmlns="http://www.w3.org/2000/svg" width="387" height="186.37" viewBox="0 0 387 186.37"><g transform="translate(-31.21 -32.533)"><g transform="translate(83.699 79.381)"><g transform="translate(8.001)"><g transform="translate(0.728 0.69)"><path d="M67.152,56.456V78.525c0,1.355-.918,1.84-2.049,1.84h-.042c-1.131,0-2.049-.485-2.049-1.84V56.456h-1V79.783a3.035,3.035,0,0,0,3.034,3.034h.062a3.035,3.035,0,0,0,3.034-3.034V56.456Z" transform="translate(-62.017 -56.456)" fill="#fff"/><rect width="0.996" height="2.069" transform="translate(5.134)" fill="#dfeaeb"/><rect width="0.996" height="2.069" fill="#dfeaeb"/><path d="M64.608,80.365h-.042c-1.131,0-2.049-.485-2.049-1.84V56.456h4.139V78.525C66.657,79.88,65.739,80.365,64.608,80.365Z" transform="translate(-61.522 -56.456)" fill="#fff" opacity="0.32" style="mix-blend-mode:screen;isolation:isolate"/><path d="M62.518,61.668V73.38c0,1.355.918,1.84,2.049,1.84h.042c1.131,0,2.049-.485,2.049-1.84V61.668Z" transform="translate(-61.522 -51.311)" fill="#56b2e5"/></g><rect width="7.587" height="1.571" rx="0.391" fill="#fff"/><path d="M64.227,63.086a.537.537,0,1,1-.537-.537A.536.536,0,0,1,64.227,63.086Z" transform="translate(-60.166 -49.751)" fill="#6fc6ec"/><path d="M64.465,65.2a.862.862,0,1,1-.862-.862A.863.863,0,0,1,64.465,65.2Z" transform="translate(-60.575 -47.982)" fill="#6fc6ec"/><path d="M64.411,66.18a.45.45,0,1,1-.449-.449A.45.45,0,0,1,64.411,66.18Z" transform="translate(-59.814 -46.61)" fill="#6fc6ec"/><path d="M65.073,67.693a.825.825,0,1,1-.825-.825A.823.823,0,0,1,65.073,67.693Z" transform="translate(-59.9 -45.488)" fill="#6fc6ec"/><circle cx="0.556" cy="0.556" r="0.556" transform="translate(4.33 14.982)" fill="#6fc6ec"/><path d="M63.6,66.865a.453.453,0,1,1-.453-.453A.453.453,0,0,1,63.6,66.865Z" transform="translate(-60.616 -45.938)" fill="#6fc6ec"/></g><g transform="translate(18.484)"><g transform="translate(0.728 0.69)"><path d="M72.426,56.456V78.525c0,1.355-.916,1.84-2.047,1.84h-.042c-1.133,0-2.049-.485-2.049-1.84V56.456h-1V79.783a3.034,3.034,0,0,0,3.034,3.034h.062a3.035,3.035,0,0,0,3.034-3.034V56.456Z" transform="translate(-67.292 -56.456)" fill="#fff"/><rect width="0.996" height="2.069" transform="translate(5.134)" fill="#dfeaeb"/><rect width="0.996" height="2.069" fill="#dfeaeb"/><path d="M69.884,80.365h-.042c-1.133,0-2.049-.485-2.049-1.84V56.456h4.137V78.525C71.931,79.88,71.015,80.365,69.884,80.365Z" transform="translate(-66.797 -56.456)" fill="#fff" opacity="0.32" style="mix-blend-mode:screen;isolation:isolate"/><path d="M67.794,63v9.067c0,1.355.916,1.84,2.049,1.84h.042c1.131,0,2.047-.485,2.047-1.84V63Z" transform="translate(-66.797 -49.997)" fill="#56b2e5"/></g><rect width="7.587" height="1.571" rx="0.391" fill="#fff"/><path d="M70.531,64.274a.862.862,0,1,1-.862-.862A.863.863,0,0,1,70.531,64.274Z" transform="translate(-65.07 -48.9)" fill="#6fc6ec"/><path d="M69.915,65.581a.451.451,0,1,1-.451-.451A.45.45,0,0,1,69.915,65.581Z" transform="translate(-64.866 -47.204)" fill="#6fc6ec"/><path d="M69.6,67.539a.724.724,0,1,1-.725-.725A.724.724,0,0,1,69.6,67.539Z" transform="translate(-65.717 -45.541)" fill="#6fc6ec"/><path d="M69.859,66.494a.623.623,0,1,1-.624-.624A.624.624,0,0,1,69.859,66.494Z" transform="translate(-65.261 -46.473)" fill="#6fc6ec"/><path d="M69.262,64.9a.555.555,0,1,1-.556-.556A.555.555,0,0,1,69.262,64.9Z" transform="translate(-65.717 -47.982)" fill="#6fc6ec"/><path d="M69.918,67.922a.453.453,0,1,1-.453-.453A.455.455,0,0,1,69.918,67.922Z" transform="translate(-64.867 -44.895)" fill="#6fc6ec"/></g><g transform="translate(28.968)"><g transform="translate(0.728 0.69)"><path d="M77.7,56.456V78.525c0,1.355-.916,1.84-2.049,1.84h-.042c-1.131,0-2.047-.485-2.047-1.84V56.456h-1V79.783A3.035,3.035,0,0,0,75.6,82.817h.062A3.034,3.034,0,0,0,78.7,79.783V56.456Z" transform="translate(-72.568 -56.456)" fill="#fff"/><rect width="0.996" height="2.069" transform="translate(5.135)" fill="#dfeaeb"/><rect width="0.996" height="2.069" transform="translate(0)" fill="#dfeaeb"/><path d="M75.158,80.365h-.042c-1.131,0-2.047-.485-2.047-1.84V56.456h4.137V78.525C77.207,79.88,76.291,80.365,75.158,80.365Z" transform="translate(-72.072 -56.456)" fill="#fff" opacity="0.32" style="mix-blend-mode:screen;isolation:isolate"/><path d="M73.07,62.257V72.8c0,1.355.916,1.84,2.047,1.84h.042c1.133,0,2.049-.485,2.049-1.84V62.257Z" transform="translate(-72.072 -50.729)" fill="#56b2e5"/></g><rect width="7.587" height="1.571" rx="0.391" fill="#fff"/><path d="M74.378,64.06a.537.537,0,1,1-.537-.537A.536.536,0,0,1,74.378,64.06Z" transform="translate(-71.113 -48.79)" fill="#6fc6ec"/><path d="M75.786,63.517a.861.861,0,1,1-.862-.862A.863.863,0,0,1,75.786,63.517Z" transform="translate(-70.365 -49.647)" fill="#6fc6ec"/><path d="M75.151,65.511a.766.766,0,1,1-.765-.767A.766.766,0,0,1,75.151,65.511Z" transform="translate(-70.803 -47.585)" fill="#6fc6ec"/><path d="M75.3,68.07a.824.824,0,1,1-.823-.825A.822.822,0,0,1,75.3,68.07Z" transform="translate(-70.774 -45.116)" fill="#6fc6ec"/><circle cx="0.556" cy="0.556" r="0.556" transform="translate(4.423 15.871)" fill="#6fc6ec"/><path d="M74.255,66.781a.454.454,0,1,1-.455-.455A.455.455,0,0,1,74.255,66.781Z" transform="translate(-71.071 -46.023)" fill="#6fc6ec"/><circle cx="0.453" cy="0.453" r="0.453" transform="translate(4.349 19.85)" fill="#6fc6ec"/></g><g transform="translate(39.451)"><g transform="translate(0.728 0.69)"><path d="M82.979,56.456V78.525c0,1.355-.918,1.84-2.049,1.84h-.042c-1.131,0-2.049-.485-2.049-1.84V56.456h-1V79.783a3.035,3.035,0,0,0,3.034,3.034h.062a3.035,3.035,0,0,0,3.034-3.034V56.456Z" transform="translate(-77.844 -56.456)" fill="#fff"/><rect width="0.996" height="2.069" transform="translate(5.134)" fill="#dfeaeb"/><rect width="0.996" height="2.069" fill="#dfeaeb"/><path d="M80.435,80.365h-.042c-1.131,0-2.049-.485-2.049-1.84V56.456h4.139V78.525C82.484,79.88,81.566,80.365,80.435,80.365Z" transform="translate(-77.349 -56.456)" fill="#fff" opacity="0.32" style="mix-blend-mode:screen;isolation:isolate"/><path d="M78.345,61.111V73.93c0,1.355.918,1.84,2.049,1.84h.042c1.131,0,2.049-.485,2.049-1.84V61.111Z" transform="translate(-77.349 -51.861)" fill="#56b2e5"/></g><rect width="7.587" height="1.571" rx="0.391" fill="#fff"/><path d="M80.458,63.009a.536.536,0,1,1-.537-.537A.536.536,0,0,1,80.458,63.009Z" transform="translate(-75.593 -49.827)" fill="#6fc6ec"/><path d="M81.081,67.173a.861.861,0,1,1-.862-.862A.862.862,0,0,1,81.081,67.173Z" transform="translate(-75.621 -46.038)" fill="#6fc6ec"/><path d="M79.806,67.92a.451.451,0,1,1-.451-.449A.451.451,0,0,1,79.806,67.92Z" transform="translate(-76.069 -44.893)" fill="#6fc6ec"/><path d="M80.365,63.974a.825.825,0,1,1-.825-.823A.825.825,0,0,1,80.365,63.974Z" transform="translate(-76.255 -49.157)" fill="#6fc6ec"/><path d="M80.906,64.9a.68.68,0,1,1-.68-.682A.679.679,0,0,1,80.906,64.9Z" transform="translate(-75.435 -48.105)" fill="#6fc6ec"/><circle cx="0.556" cy="0.556" r="0.556" transform="translate(2.28 10.932)" fill="#6fc6ec"/><path d="M80.234,65.869a.766.766,0,1,1-.767-.765A.767.767,0,0,1,80.234,65.869Z" transform="translate(-76.269 -47.229)" fill="#6fc6ec"/><path d="M79.433,66.865a.454.454,0,1,1-.455-.453A.455.455,0,0,1,79.433,66.865Z" transform="translate(-76.443 -45.938)" fill="#6fc6ec"/></g><g transform="translate(0 4.198)"><g transform="translate(3.245 0.936)"><rect width="2.871" height="25.585" fill="#8397ca"/><rect width="2.871" height="25.585" transform="translate(45.678)" fill="#8397ca"/></g><g transform="translate(3.245 0.936)" style="mix-blend-mode:multiply;isolation:isolate"><rect width="2.871" height="5.491" fill="#8397a9"/><rect width="2.871" height="5.491" transform="translate(45.678)" fill="#8397a9"/></g><rect width="55.038" height="3.37" transform="translate(0 25.523)" fill="#fff"/><rect width="55.038" height="3.37" fill="#fff"/></g></g><g transform="translate(125.921 32.533)"><path d="M115.127,81.838H98.043l1.4-20.595h14.276Z" transform="translate(-59.947 -4.192)" fill="#dee8f3"/><path d="M119.855,70.194a1.117,1.117,0,0,0-.926-.495H99.221a1.123,1.123,0,0,0-.928.495l-2.579,3.851a1.116,1.116,0,0,0,.926,1.739H121.51a1.116,1.116,0,0,0,.926-1.739Z" transform="translate(-62.436 4.155)" fill="#fff"/><rect width="93.277" height="62.527" rx="2.42" transform="translate(0 0)" fill="#fff"/><path d="M172.148,88.012V37.342a4.808,4.808,0,0,0-4.809-4.809H83.679a4.807,4.807,0,0,0-4.807,4.809v50.67Z" transform="translate(-78.872 -32.533)" fill="#110239"/><rect width="84.688" height="46.738" transform="translate(4.294 4.143)" fill="#56b2e5"/><g transform="translate(16.85 5.56)"><g transform="translate(18.845 15.712)"><rect width="0.207" height="4.001" transform="matrix(0.949, -0.316, 0.316, 0.949, 0, 0.065)" fill="#c5c5c4"/></g><g transform="translate(1.672 22.184)"><rect width="0.207" height="13.349" transform="translate(0 0.197) rotate(-72.223)" fill="#c5c5c4"/></g><g transform="translate(15.759 28.437)"><rect width="0.207" height="4.66" transform="matrix(0.99, -0.14, 0.14, 0.99, 0, 0.029)" fill="#c5c5c4"/></g><g transform="translate(12.581 35.786)"><rect width="4.6" height="0.207" transform="matrix(0.659, -0.752, 0.752, 0.659, 0, 3.46)" fill="#c5c5c4"/></g><g transform="translate(18.568 34.732)"><rect width="0.207" height="3.898" transform="translate(0 0.196) rotate(-71.545)" fill="#c5c5c4"/></g><g transform="translate(18.199 35.35)"><rect width="0.207" height="4.175" transform="translate(0 0.194) rotate(-69.827)" fill="#c5c5c4"/></g><g transform="translate(16.607 22.217)"><rect width="3.636" height="0.206" transform="matrix(0.655, -0.756, 0.756, 0.655, 0, 2.748)" fill="#c5c5c4"/></g><g transform="translate(17.019 23.019)"><rect width="3.67" height="0.206" transform="translate(0 2.869) rotate(-51.409)" fill="#c5c5c4"/></g><g transform="translate(22.572 21.362)"><rect width="0.207" height="4.344" transform="translate(0 0.192) rotate(-68.035)" fill="#c5c5c4"/></g><g transform="translate(28.773 25.322)"><rect width="0.207" height="4.221" transform="translate(0 0.061) rotate(-17.153)" fill="#c5c5c4"/></g><g transform="translate(26.22 32.408)"><rect width="4.468" height="0.207" transform="matrix(0.654, -0.756, 0.756, 0.654, 0, 3.379)" fill="#c5c5c4"/></g><g transform="translate(32.149 31.309)"><rect width="0.207" height="5.665" transform="translate(0 0.207) rotate(-88.034)" fill="#c5c5c4"/></g><g transform="translate(40.48 24.48)"><rect width="5.796" height="0.207" transform="translate(0 5.41) rotate(-68.986)" fill="#c5c5c4"/></g><g transform="translate(40.758 32.75)"><rect width="0.207" height="2.626" transform="translate(0 0.149) rotate(-45.975)" fill="#c5c5c4"/></g><g transform="translate(43.59 22.735)"><rect width="4.503" height="0.206" transform="translate(0 1.075) rotate(-13.809)" fill="#c5c5c4"/></g><g transform="translate(36.119 12.46)"><rect width="5.216" height="0.207" transform="matrix(0.135, -0.991, 0.991, 0.135, 0, 5.169)" fill="#c5c5c4"/></g><g transform="translate(37.305 19.348)"><path d="M110.366,49.933l-4.241-3.886.18-.98,4.706,3.946-.133.158-4.434-3.718-.1.519,4.157,3.808Z" transform="translate(-106.124 -45.067)" fill="#c5c5c4"/></g><g transform="translate(30.059 19.757)"><rect width="4.814" height="0.207" transform="matrix(0.82, -0.573, 0.573, 0.82, 0, 2.757)" fill="#c5c5c4"/></g><g transform="translate(38.824 8.489)"><rect width="4.619" height="0.207" transform="matrix(0.962, -0.273, 0.273, 0.962, 0, 1.26)" fill="#c5c5c4"/></g><g transform="translate(33.863 5.719)"><rect width="0.206" height="3.093" transform="translate(0 0.14) rotate(-42.576)" fill="#c5c5c4"/></g><g transform="translate(33.16 6.589)"><rect width="0.207" height="3.478" transform="matrix(0.736, -0.677, 0.677, 0.736, 0, 0.14)" fill="#c5c5c4"/></g><g transform="translate(33.977 4.094)"><rect width="0.207" height="4.554" transform="translate(0 0.105) rotate(-30.592)" fill="#c5c5c4"/></g><g transform="translate(43.034 2.347)"><rect width="0.207" height="4.362" transform="translate(0 0.075) rotate(-21.323)" fill="#c5c5c4"/></g><g transform="translate(42.219 4.491)"><rect width="0.207" height="3.288" transform="translate(0 0.112) rotate(-32.878)" fill="#c5c5c4"/></g><g transform="translate(47.122 6.828)"><rect width="4.067" height="0.207" transform="translate(0 1.009) rotate(-14.37)" fill="#c5c5c4"/></g><g transform="translate(9.963 38.09)"><path d="M96.069,56.351A1.852,1.852,0,1,1,94.217,54.5,1.851,1.851,0,0,1,96.069,56.351Z" transform="translate(-92.365 -54.499)" fill="#fc3"/><path d="M94.583,55.422a.62.62,0,1,1-.62-.618A.62.62,0,0,1,94.583,55.422Z" transform="translate(-91.4 -54.198)" fill="#ffe390"/></g><g transform="translate(4.488 21.392)"><path d="M95.1,48.842A2.747,2.747,0,1,1,92.356,46.1,2.747,2.747,0,0,1,95.1,48.842Z" transform="translate(-89.61 -46.096)" fill="#fc3"/><path d="M92.9,47.465a.919.919,0,1,1-.918-.918A.919.919,0,0,1,92.9,47.465Z" transform="translate(-88.179 -45.651)" fill="#ffe390"/></g><g transform="translate(12.236 24.138)"><path d="M99,50.224a2.746,2.746,0,1,1-2.746-2.746A2.746,2.746,0,0,1,99,50.224Z" transform="translate(-93.509 -47.478)" fill="#fc3"/><circle cx="0.919" cy="0.919" r="0.919" transform="translate(2.881 0.896)" fill="#ffe390"/></g><g transform="translate(18.235 18.643)"><path d="M102.02,47.461a2.746,2.746,0,1,1-2.746-2.748A2.746,2.746,0,0,1,102.02,47.461Z" transform="translate(-96.528 -44.713)" fill="#fc3"/><circle cx="0.919" cy="0.919" r="0.919" transform="translate(2.881 0.897)" fill="#ffe390"/></g><g transform="translate(25.991 20.865)"><path d="M105.925,48.577a2.747,2.747,0,1,1-2.748-2.746A2.747,2.747,0,0,1,105.925,48.577Z" transform="translate(-100.431 -45.831)" fill="#fc3"/><path d="M103.719,47.2a.919.919,0,1,1-.92-.92A.921.921,0,0,1,103.719,47.2Z" transform="translate(-99 -45.386)" fill="#ffe390"/></g><g transform="translate(17.548 14.254)"><circle cx="1.33" cy="1.33" r="1.33" fill="#fc3"/><path d="M97.774,43.168a.445.445,0,1,1-.445-.445A.446.446,0,0,1,97.774,43.168Z" transform="translate(-95.49 -42.288)" fill="#ffe390"/></g><g transform="translate(41.221)"><circle cx="1.67" cy="1.67" r="1.67" fill="#fc3"/><path d="M110.1,36.165a.559.559,0,1,1-.56-.56A.559.559,0,0,1,110.1,36.165Z" transform="translate(-107.225 -35.06)" fill="#ffe390"/></g><g transform="translate(32.363 2.92)"><circle cx="1.231" cy="1.231" r="1.231" fill="#e4e4e4"/><circle cx="0.412" cy="0.412" r="0.412" transform="translate(1.291 0.402)" fill="#fff"/></g><g transform="translate(41.427 22.681)"><circle cx="1.231" cy="1.231" r="1.231" fill="#e4e4e4"/><circle cx="0.412" cy="0.412" r="0.412" transform="translate(1.291 0.402)" fill="#fff"/></g><g transform="translate(47.319 20.903)"><path d="M113.2,46.7a.569.569,0,1,1-.568-.57A.568.568,0,0,1,113.2,46.7Z" transform="translate(-110.278 -45.575)" fill="#c5c5c4"/><path d="M114.568,47.551a1.7,1.7,0,1,1-1.7-1.7A1.7,1.7,0,0,1,114.568,47.551Z" transform="translate(-111.164 -45.85)" fill="#1f1f1f"/></g><g transform="translate(36.658 29.415)"><path d="M108.706,51.346a.813.813,0,1,1-.813-.813A.813.813,0,0,1,108.706,51.346Z" transform="translate(-104.534 -49.74)" fill="#c5c5c4"/><circle cx="2.428" cy="2.428" r="2.428" fill="#1f1f1f"/></g><g transform="translate(27.98 28.593)"><path d="M104.339,50.932a.813.813,0,1,1-.813-.813A.812.812,0,0,1,104.339,50.932Z" transform="translate(-100.167 -49.326)" fill="#c5c5c4"/><path d="M106.289,52.148a2.428,2.428,0,1,1-2.428-2.428A2.428,2.428,0,0,1,106.289,52.148Z" transform="translate(-101.432 -49.72)" fill="#1f1f1f"/></g><g transform="translate(22.154 34.459)"><path d="M101.406,53.884a.813.813,0,1,1-.813-.813A.812.812,0,0,1,101.406,53.884Z" transform="translate(-97.235 -52.278)" fill="#c5c5c4"/><path d="M103.357,55.1a2.428,2.428,0,1,1-2.428-2.428A2.426,2.426,0,0,1,103.357,55.1Z" transform="translate(-98.5 -52.672)" fill="#1f1f1f"/></g><g transform="translate(40.833 2.92)"><circle cx="1.231" cy="1.231" r="1.231" fill="#e4e4e4"/><path d="M109.375,37.414a.412.412,0,1,1-.413-.411A.413.413,0,0,1,109.375,37.414Z" transform="translate(-107.259 -36.601)" fill="#fff"/></g><g transform="translate(42.658 5.789)"><circle cx="2.665" cy="2.665" r="2.665" fill="#e4e4e4"/><path d="M112.009,39.574a.892.892,0,1,1-.892-.892A.892.892,0,0,1,112.009,39.574Z" transform="translate(-107.43 -37.812)" fill="#fff"/></g><g transform="translate(34.355 7.718)"><path d="M109.97,41.88a2.665,2.665,0,1,1-2.665-2.665A2.665,2.665,0,0,1,109.97,41.88Z" transform="translate(-104.64 -39.215)" fill="#e4e4e4"/><path d="M107.83,40.544a.892.892,0,1,1-.892-.892A.892.892,0,0,1,107.83,40.544Z" transform="translate(-103.252 -38.784)" fill="#fff"/></g><g transform="translate(33.236 16.432)"><circle cx="2.665" cy="2.665" r="2.665" fill="#e4e4e4"/><path d="M107.266,44.93a.891.891,0,1,1-.892-.892A.892.892,0,0,1,107.266,44.93Z" transform="translate(-102.688 -43.168)" fill="#fff"/></g><g transform="translate(14.023 31.606)"><path d="M99.737,53.9a2.665,2.665,0,1,1-2.665-2.667A2.663,2.663,0,0,1,99.737,53.9Z" transform="translate(-94.408 -51.236)" fill="#e4e4e4"/><path d="M97.6,52.566a.892.892,0,1,1-.892-.892A.892.892,0,0,1,97.6,52.566Z" transform="translate(-93.02 -50.804)" fill="#fff"/></g><g transform="translate(0 21.056)"><circle cx="1.231" cy="1.231" r="1.231" fill="#e4e4e4"/><circle cx="0.412" cy="0.412" r="0.412" transform="translate(1.291 0.402)" fill="#fff"/></g><g transform="translate(31.486 4.547)"><path d="M106.536,39.29a1.67,1.67,0,1,1-1.671-1.671A1.671,1.671,0,0,1,106.536,39.29Z" transform="translate(-103.196 -37.619)" fill="#fc3"/><path d="M105.2,38.452a.559.559,0,1,1-.56-.558A.559.559,0,0,1,105.2,38.452Z" transform="translate(-102.326 -37.348)" fill="#ffe390"/></g><g transform="translate(50.26 5.113)"><path d="M115.984,39.575a1.67,1.67,0,1,1-1.671-1.671A1.669,1.669,0,0,1,115.984,39.575Z" transform="translate(-112.644 -37.904)" fill="#fc3"/><path d="M114.643,38.738a.558.558,0,1,1-.558-.56A.559.559,0,0,1,114.643,38.738Z" transform="translate(-111.773 -37.634)" fill="#ffe390"/></g><g transform="translate(41.862 33.726)"><path d="M111.758,53.974a1.67,1.67,0,1,1-1.671-1.671A1.671,1.671,0,0,1,111.758,53.974Z" transform="translate(-108.418 -52.303)" fill="#fc3"/><path d="M110.418,53.136a.559.559,0,1,1-.558-.558A.559.559,0,0,1,110.418,53.136Z" transform="translate(-107.548 -52.032)" fill="#ffe390"/></g></g></g><g transform="translate(256.722 79.381)"><g transform="translate(8.001)"><g transform="translate(0.727 0.69)"><path d="M154.223,56.456V78.525c0,1.355-.916,1.84-2.049,1.84h-.042c-1.131,0-2.047-.485-2.047-1.84V56.456h-1V79.783a3.035,3.035,0,0,0,3.034,3.034h.062a3.034,3.034,0,0,0,3.034-3.034V56.456Z" transform="translate(-149.088 -56.456)" fill="#fff"/><rect width="0.996" height="2.069" transform="translate(5.135)" fill="#dfeaeb"/><rect width="0.996" height="2.069" transform="translate(0)" fill="#dfeaeb"/><path d="M151.678,80.365h-.042c-1.131,0-2.047-.485-2.047-1.84V56.456h4.137V78.525C153.727,79.88,152.811,80.365,151.678,80.365Z" transform="translate(-148.592 -56.456)" fill="#fff" opacity="0.32" style="mix-blend-mode:screen;isolation:isolate"/><path d="M149.59,61.668V73.38c0,1.355.916,1.84,2.047,1.84h.042c1.133,0,2.049-.485,2.049-1.84V61.668Z" transform="translate(-148.592 -51.311)" fill="#fc3"/></g><rect width="7.586" height="1.571" rx="0.391" fill="#fff"/><path d="M151.3,63.086a.537.537,0,1,1-.537-.537A.537.537,0,0,1,151.3,63.086Z" transform="translate(-147.237 -49.751)" fill="#ffe081"/><path d="M151.536,65.2a.862.862,0,1,1-.862-.862A.862.862,0,0,1,151.536,65.2Z" transform="translate(-147.647 -47.982)" fill="#ffe081"/><path d="M151.483,66.18a.45.45,0,1,1-.451-.449A.452.452,0,0,1,151.483,66.18Z" transform="translate(-146.885 -46.61)" fill="#ffe081"/><circle cx="0.824" cy="0.824" r="0.824" transform="translate(3.525 21.38)" fill="#ffe081"/><path d="M152.012,64.2a.555.555,0,1,1-.556-.556A.555.555,0,0,1,152.012,64.2Z" transform="translate(-146.571 -48.667)" fill="#ffe081"/><path d="M150.676,66.865a.453.453,0,1,1-.453-.453A.453.453,0,0,1,150.676,66.865Z" transform="translate(-147.687 -45.938)" fill="#ffe081"/></g><g transform="translate(18.484)"><g transform="translate(0.728 0.69)"><path d="M159.5,56.456V78.525c0,1.355-.918,1.84-2.049,1.84h-.042c-1.131,0-2.049-.485-2.049-1.84V56.456h-1V79.783a3.035,3.035,0,0,0,3.034,3.034h.062a3.035,3.035,0,0,0,3.034-3.034V56.456Z" transform="translate(-154.364 -56.456)" fill="#fff"/><rect width="0.996" height="2.069" transform="translate(5.134)" fill="#dfeaeb"/><rect width="0.996" height="2.069" fill="#dfeaeb"/><path d="M156.955,80.365h-.042c-1.131,0-2.049-.485-2.049-1.84V56.456H159V78.525C159,79.88,158.086,80.365,156.955,80.365Z" transform="translate(-153.869 -56.456)" fill="#fff" opacity="0.32" style="mix-blend-mode:screen;isolation:isolate"/><path d="M154.865,63v9.067c0,1.355.918,1.84,2.049,1.84h.042c1.131,0,2.049-.485,2.049-1.84V63Z" transform="translate(-153.869 -49.997)" fill="#56b2e5"/></g><rect width="7.586" height="1.571" rx="0.391" fill="#fff"/><path d="M157.6,64.274a.861.861,0,1,1-.862-.862A.863.863,0,0,1,157.6,64.274Z" transform="translate(-152.141 -48.9)" fill="#6fc6ec"/><path d="M156.985,65.581a.45.45,0,1,1-.451-.451A.449.449,0,0,1,156.985,65.581Z" transform="translate(-151.937 -47.204)" fill="#6fc6ec"/><path d="M156.673,67.539a.725.725,0,1,1-.725-.725A.726.726,0,0,1,156.673,67.539Z" transform="translate(-152.789 -45.541)" fill="#6fc6ec"/><path d="M156.93,66.494a.623.623,0,1,1-.622-.624A.623.623,0,0,1,156.93,66.494Z" transform="translate(-152.333 -46.473)" fill="#6fc6ec"/><path d="M156.333,64.9a.555.555,0,1,1-.554-.556A.555.555,0,0,1,156.333,64.9Z" transform="translate(-152.789 -47.982)" fill="#6fc6ec"/><path d="M156.991,67.922a.454.454,0,1,1-.455-.453A.456.456,0,0,1,156.991,67.922Z" transform="translate(-151.939 -44.895)" fill="#6fc6ec"/></g><g transform="translate(28.968)"><g transform="translate(0.728 0.69)"><path d="M164.773,56.456V78.525c0,1.355-.916,1.84-2.047,1.84h-.042c-1.131,0-2.049-.485-2.049-1.84V56.456h-1V79.783a3.034,3.034,0,0,0,3.034,3.034h.062a3.035,3.035,0,0,0,3.034-3.034V56.456Z" transform="translate(-159.639 -56.456)" fill="#fff"/><rect width="0.996" height="2.069" transform="translate(5.134)" fill="#dfeaeb"/><rect width="0.996" height="2.069" fill="#dfeaeb"/><path d="M162.231,80.365h-.042c-1.131,0-2.049-.485-2.049-1.84V56.456h4.137V78.525C164.278,79.88,163.362,80.365,162.231,80.365Z" transform="translate(-159.145 -56.456)" fill="#fff" opacity="0.32" style="mix-blend-mode:screen;isolation:isolate"/><path d="M160.141,62.257V72.8c0,1.355.918,1.84,2.049,1.84h.042c1.131,0,2.047-.485,2.047-1.84V62.257Z" transform="translate(-159.145 -50.729)" fill="#fc3"/></g><rect width="7.586" height="1.571" rx="0.391" fill="#fff"/><path d="M161.45,64.06a.537.537,0,1,1-.537-.537A.537.537,0,0,1,161.45,64.06Z" transform="translate(-158.184 -48.79)" fill="#ffe081"/><path d="M162.859,63.517a.862.862,0,1,1-.862-.862A.863.863,0,0,1,162.859,63.517Z" transform="translate(-157.437 -49.647)" fill="#ffe081"/><circle cx="0.767" cy="0.767" r="0.767" transform="translate(2.816 17.16)" fill="#ffe081"/><path d="M162.368,68.07a.825.825,0,1,1-.825-.825A.823.823,0,0,1,162.368,68.07Z" transform="translate(-157.846 -45.116)" fill="#ffe081"/><path d="M162.61,64.65a.555.555,0,1,1-.554-.554A.555.555,0,0,1,162.61,64.65Z" transform="translate(-157.076 -48.224)" fill="#ffe081"/><path d="M161.325,66.781a.453.453,0,1,1-.453-.455A.453.453,0,0,1,161.325,66.781Z" transform="translate(-158.142 -46.023)" fill="#ffe081"/><path d="M162.368,66.551a.453.453,0,1,1-.453-.453A.455.455,0,0,1,162.368,66.551Z" transform="translate(-157.113 -46.248)" fill="#ffe081"/></g><g transform="translate(39.451)"><g transform="translate(0.727 0.69)"><path d="M170.05,56.456V78.525c0,1.355-.916,1.84-2.049,1.84h-.04c-1.133,0-2.049-.485-2.049-1.84V56.456h-1V79.783a3.036,3.036,0,0,0,3.036,3.034h.06a3.036,3.036,0,0,0,3.036-3.034V56.456Z" transform="translate(-164.915 -56.456)" fill="#fff"/><rect width="0.996" height="2.069" transform="translate(5.135)" fill="#dfeaeb"/><rect width="0.996" height="2.069" transform="translate(0.001)" fill="#dfeaeb"/><path d="M167.505,80.365h-.04c-1.133,0-2.049-.485-2.049-1.84V56.456h4.137V78.525C169.554,79.88,168.638,80.365,167.505,80.365Z" transform="translate(-164.419 -56.456)" fill="#fff" opacity="0.32" style="mix-blend-mode:screen;isolation:isolate"/><path d="M165.417,61.111V73.93c0,1.355.916,1.84,2.049,1.84h.04c1.133,0,2.049-.485,2.049-1.84V61.111Z" transform="translate(-164.419 -51.861)" fill="#56b2e5"/></g><rect width="7.586" height="1.571" rx="0.391" fill="#fff"/><path d="M167.531,63.009a.537.537,0,1,1-.537-.537A.537.537,0,0,1,167.531,63.009Z" transform="translate(-162.665 -49.827)" fill="#6fc6ec"/><path d="M168.154,67.173a.862.862,0,1,1-.862-.862A.863.863,0,0,1,168.154,67.173Z" transform="translate(-162.693 -46.038)" fill="#6fc6ec"/><path d="M166.876,67.92a.45.45,0,1,1-.451-.449A.45.45,0,0,1,166.876,67.92Z" transform="translate(-163.14 -44.893)" fill="#6fc6ec"/><path d="M167.435,63.974a.824.824,0,1,1-.825-.823A.825.825,0,0,1,167.435,63.974Z" transform="translate(-163.326 -49.157)" fill="#6fc6ec"/><path d="M167.978,64.9a.68.68,0,1,1-.68-.682A.679.679,0,0,1,167.978,64.9Z" transform="translate(-162.506 -48.105)" fill="#6fc6ec"/><path d="M166.807,62.166a.555.555,0,1,1-.554-.556A.555.555,0,0,1,166.807,62.166Z" transform="translate(-163.417 -50.678)" fill="#6fc6ec"/><path d="M167.305,65.869a.766.766,0,1,1-.765-.765A.766.766,0,0,1,167.305,65.869Z" transform="translate(-163.341 -47.229)" fill="#6fc6ec"/><path d="M166.5,66.865a.453.453,0,1,1-.453-.453A.453.453,0,0,1,166.5,66.865Z" transform="translate(-163.515 -45.938)" fill="#6fc6ec"/></g><g transform="translate(0 4.198)"><g transform="translate(3.245 0.936)"><rect width="2.87" height="25.585" fill="#8397ca"/><rect width="2.87" height="25.585" transform="translate(45.678)" fill="#8397ca"/></g><g transform="translate(3.245 0.936)" style="mix-blend-mode:multiply;isolation:isolate"><rect width="2.87" height="5.491" fill="#8397a9"/><rect width="2.87" height="5.491" transform="translate(45.678)" fill="#8397a9"/></g><rect width="55.039" height="3.37" transform="translate(0 25.523)" fill="#fff"/><rect width="55.039" height="3.37" fill="#fff"/></g></g><g transform="translate(31.21 112.472)"><g transform="translate(2.634 4.332)"><rect width="101.671" height="85.136" fill="#fff"/><rect width="8.485" height="85.136" transform="translate(171.807)" fill="#fff"/><rect width="197.644" height="10.281" transform="translate(78.62)" fill="#fff"/><g transform="translate(8.576 9.287)"><path d="M77.287,98.823H36.851V79.615H77.287ZM38.838,96.836H75.3V81.6H38.838Z" transform="translate(-36.851 -79.615)" fill="#d0d1de"/><rect width="7.524" height="2.437" transform="translate(16.456 3.404)" fill="#d0d1de"/></g><g transform="translate(54.004 9.287)"><path d="M100.148,150.343H59.712V79.615h40.436ZM61.7,148.356H98.161V81.6H61.7Z" transform="translate(-59.712 -79.615)" fill="#d0d1de"/><rect width="7.524" height="2.437" transform="translate(16.456 3.404)" fill="#d0d1de"/></g><g transform="translate(8.576 35.047)"><path d="M77.287,111.786H36.851V92.578H77.287ZM38.838,109.8H75.3V94.565H38.838Z" transform="translate(-36.851 -92.578)" fill="#d0d1de"/><rect width="7.524" height="2.437" transform="translate(16.456 3.405)" fill="#d0d1de"/></g><g transform="translate(8.576 60.808)"><path d="M77.287,124.75H36.851V105.542H77.287Zm-38.449-1.987H75.3V107.529H38.838Z" transform="translate(-36.851 -105.542)" fill="#d0d1de"/><rect width="7.524" height="2.437" transform="translate(16.456 3.403)" fill="#d0d1de"/></g></g><rect width="286.838" height="5.625" transform="translate(2.634 4.332)" fill="#8397a9" opacity="0.32" style="mix-blend-mode:multiply;isolation:isolate"/><rect width="292.515" height="4.332" fill="#8397ca"/><rect width="16.895" height="4.332" transform="translate(170.235 89.283)" fill="#8397ca"/><rect width="106.939" height="4.332" transform="translate(0 89.283)" fill="#8397ca"/><g transform="translate(13.666 93.615)"><path d="M40.021,123.532h8.64l1.934-3.661H38.087Z" transform="translate(-38.087 -119.871)" fill="#110239"/><path d="M69.257,119.871l1.934,3.661h8.64l1.934-3.661Z" transform="translate(-7.318 -119.871)" fill="#110239"/><path d="M117.982,119.871l1.934,3.661h8.64l1.934-3.661Z" transform="translate(40.78 -119.871)" fill="#110239"/></g></g><g transform="translate(302.673 112.472)"><g transform="translate(2.634 4.332)"><rect width="101.671" height="85.136" fill="#fff"/><g transform="translate(8.578 9.287)"><path d="M213.9,98.823H173.462V79.615H213.9Zm-38.447-1.987h36.46V81.6h-36.46Z" transform="translate(-173.462 -79.615)" fill="#d0d1de"/><rect width="7.524" height="2.437" transform="translate(16.455 3.404)" fill="#d0d1de"/></g><g transform="translate(54.004 9.287)"><path d="M236.76,150.343H196.322V79.615H236.76Zm-38.451-1.987h36.464V81.6H198.309Z" transform="translate(-196.322 -79.615)" fill="#d0d1de"/><rect width="7.524" height="2.437" transform="translate(16.457 3.404)" fill="#d0d1de"/></g><g transform="translate(8.578 35.047)"><path d="M213.9,111.786H173.462V92.578H213.9ZM175.449,109.8h36.46V94.565h-36.46Z" transform="translate(-173.462 -92.578)" fill="#d0d1de"/><rect width="7.524" height="2.437" transform="translate(16.455 3.405)" fill="#d0d1de"/></g><g transform="translate(8.578 60.808)"><path d="M213.9,124.75H173.462V105.542H213.9Zm-38.447-1.987h36.46V107.529h-36.46Z" transform="translate(-173.462 -105.542)" fill="#d0d1de"/><rect width="7.524" height="2.437" transform="translate(16.455 3.403)" fill="#d0d1de"/></g></g><rect width="101.671" height="5.625" transform="translate(2.634 4.332)" fill="#8397a9" opacity="0.32" style="mix-blend-mode:multiply;isolation:isolate"/><rect width="106.939" height="4.332" fill="#8397ca"/><rect width="106.939" height="4.332" transform="translate(0 89.283)" fill="#8397ca"/><g transform="translate(13.666 93.615)"><path d="M176.632,123.532h8.64l1.934-3.661H174.7Z" transform="translate(-174.697 -119.871)" fill="#110239"/><path d="M205.867,119.871l1.934,3.661h8.64l1.934-3.661Z" transform="translate(-143.928 -119.871)" fill="#110239"/></g></g><g transform="translate(309.094 52.63)"><path d="M181.751,51.662l3.2,3.432c-2.1,1.137-6.931,2.474-6.931,11.724,0,4.588,5.2,10.653,13.044,10.591a17.444,17.444,0,0,0,6.679-1.713H200.5c.725.141,2.063-.642,2.683.34-2.655,3.428-8.811,5.94-13.262,5.94-8.718,0-15.418-6.442-15.784-14.371C173.747,59.1,176.635,55.116,181.751,51.662Z" transform="translate(-168.036 -33.747)" fill="#110239"/><rect width="7.048" height="11.17" transform="translate(2.777 7.879) rotate(-46.337)" fill="#fff"/><rect width="4.122" height="11.17" transform="matrix(0.69, -0.723, 0.723, 0.69, 22.064, 24.264)" fill="#fff"/><rect width="10.771" height="22.606" transform="translate(6.879 14.366) rotate(-46.336)" fill="#56b2e5"/><path d="M176.276,49.135,178.4,46.9l16.341,15.637-2.129,2.231Z" transform="translate(-165.893 -38.448)" fill="#6fc6ec"/><path d="M192.6,64.214l-1.042,1.092L175.22,49.678l1.042-1.092Z" transform="translate(-166.935 -36.784)" fill="#1d81bd"/><rect width="6.117" height="1.463" transform="matrix(0.69, -0.723, 0.723, 0.69, 26.089, 29.484)" fill="#110239"/><rect width="9.664" height="2.682" transform="matrix(0.69, -0.723, 0.723, 0.69, 0, 6.991)" fill="#110239"/><rect width="5.419" height="2.094" transform="matrix(0.69, -0.723, 0.723, 0.69, 28.813, 31.602)" fill="#110239"/><rect width="14.068" height="3.103" transform="translate(25.066 39.185)" fill="#9597b4"/><path d="M176.632,54.458a4.061,4.061,0,1,0,4.062-4.06A4.06,4.06,0,0,0,176.632,54.458Z" transform="translate(-165.542 -34.995)" fill="#110239"/><circle cx="2.072" cy="2.072" r="2.072" transform="translate(13.078 17.391)" fill="#fff"/><path d="M184.065,64.859c5.3,0,6.265,11.263,6.265,11.263H177.8S178.764,64.859,184.065,64.859Z" transform="translate(-164.389 -20.72)" fill="#56b2e5"/><path d="M199.6,75.2a2.5,2.5,0,0,0-2.446-1.973H178.266A2.5,2.5,0,0,0,175.82,75.2h-1.711V73.147a2.85,2.85,0,0,1,2.85-2.852h21.5a2.85,2.85,0,0,1,2.85,2.852V75.2Z" transform="translate(-168.033 -15.354)" fill="#110239"/><path d="M179.718,68.135a2.454,2.454,0,1,0,2.454-2.452A2.454,2.454,0,0,0,179.718,68.135Z" transform="translate(-162.496 -19.906)" fill="#110239"/><path d="M180.323,67.539a1.252,1.252,0,1,0,1.252-1.252A1.252,1.252,0,0,0,180.323,67.539Z" transform="translate(-161.899 -19.31)" fill="#fff"/></g><g transform="translate(54.619 35.266)"><path d="M88.3,55.151c-.564-.026-.753,1.58-1.174,1.87A3.9,3.9,0,0,1,87.316,56a4.829,4.829,0,0,0,.314-1.528,1.3,1.3,0,0,0-.169-.942c-.54-.646-.8.523-.864.91-.109.626,0,1.737-.541,2.166-.076.062.081-.7.135-.847a4.859,4.859,0,0,0,.2-1.079c.054-.546.238-1.888-.622-1.9-.542-.006-.552,1.86-.584,2.18a5.361,5.361,0,0,1-.278,1.566c-.242-.145-.121-.658-.157-.892a10.232,10.232,0,0,1-.1-1.057c-.016-.34-.022-1.145-.5-1.1-.423.044-.473.469-.461.8.018.447,0,.85-.022,1.3-.012.266-.016.544-.032.813a12.279,12.279,0,0,1-.139,1.331,3.872,3.872,0,0,1-.36,1.115c-.113.232-.537,1.377-.868,1.1-.242-.207-.062-.97-.006-1.234.1-.465.427-1.212.27-1.669-.123-.356-.272-.67-.729-.5-.576.209-.672,2.065-.795,2.434a12.332,12.332,0,0,1-.694,1.26,11.077,11.077,0,0,0-.445,1.19,16.76,16.76,0,0,1-.908,2.651c-.769,1.439-6.613,6.2-7.611,6.74-.354.189-1.4-2.15-2.7-4.994a56.318,56.318,0,0,1-8.572,4.8c3.44,6.242,6.724,14.856,10.271,11.631C72.271,80.514,81.68,67.988,83.29,65.8a49.883,49.883,0,0,0,3.124-4.775A17.065,17.065,0,0,0,88.663,56.1C88.707,55.854,88.671,55.171,88.3,55.151Z" transform="translate(-26.108 -15.276)" fill="#e45940"/><path d="M73.836,69.249c-1.019-2.381-8.143-13.791-12.626-17.866L57.683,55.21c-2.486,3.1.688,10.444,1.715,11.275.866.7,4.179,7.637,5.047,8.533C68.57,72.516,73.836,69.249,73.836,69.249Z" transform="translate(-29.404 -16.659)" fill="#fff"/><path d="M65.2,64.49c-1.6-4.276-3-8.5-5.3-12.394l-2.222,2.41C55.2,57.6,58.37,64.951,59.4,65.781c.868.7,4.179,7.637,5.047,8.533,1.6-.974,3.376-2.059,4.948-3.026A16.923,16.923,0,0,1,65.2,64.49Z" transform="translate(-29.404 -15.955)" fill="#d0d1de"/><path d="M76.173,77.8l-9.987-1.085a1.319,1.319,0,0,1-1.31-1.578L69.093,52.05a2.3,2.3,0,0,1,2.359-2.025l11.277,1.488c.984.129,1.488,1.2,1.141,2.371L78.077,76.418A2.007,2.007,0,0,1,76.173,77.8Z" transform="translate(-21.41 -18.013)" fill="#110239"/><path d="M59.57,43.541,51.488,44.8s2.271,7.183-1.212,13.314c0,0,5.81,6.293,9.862,4.628,4.33-1.778,2.714-6.15,2.714-6.15S58.443,53.1,59.57,43.541Z" transform="translate(-35.798 -24.4)" fill="#e45940"/><path d="M47.462,119.7s-2.18,8.648-.936,10.057,19.367,4.5,21.115,3.064,1.2-4.308-2.486-5.87c-3.958-1.673-6.116-.819-8.551-2.224s-1.226-5.373-1.226-5.373Z" transform="translate(-39.878 50.441)" fill="#110239"/><path d="M58.178,118.943s-.437,10.848,1.007,12.05,19.828,1.478,21.336-.209.632-4.093-3.094-4.92c-3.35-.741-5.846-.085-8.431-1.188-2.265-.97-3.4-6.055-3.4-6.055Z" transform="translate(-28.059 49.714)" fill="#110239"/><path d="M73.79,75.361l-23.631-4.2s8.944,48.647,10.132,54.257S65,168.007,65,168.007l10.3-1.21s-.119-40.416-.638-44.013S73.79,75.361,73.79,75.361Z" transform="translate(-35.913 2.864)" fill="#56b2e5"/><path d="M65.083,94.93c1.17-7.629.382-13.556,2.069-17.276.668-1.476,2.848-1.093,3.342-2.6a4.519,4.519,0,0,1-.733-1.16L50.136,70.953s8.9,41.937,11.209,52.224C61.345,123.177,64.151,101.018,65.083,94.93Z" transform="translate(-35.936 2.66)" fill="#4556ba"/><path d="M68.073,72.087,49.1,76.916A36.215,36.215,0,0,0,47.95,92.654c1.562,10.556,1.715,27.114,1.908,29.36s-3.549,37.917-3.837,46.455l10.226.433s7.841-44.687,8.3-45.666S68.073,72.087,68.073,72.087Z" transform="translate(-39.999 3.779)" fill="#56b2e5"/><path d="M67.1,76.8c-.014-8.481-.886-16.726-.37-25.107a14.287,14.287,0,0,0-3-1.365,5.551,5.551,0,0,1-3.978,3.239c-2.8.378-7.247-3.839-7.247-3.839s-1.123.636-2.762,1.522c-.189,1.506-.423,2.991-.668,4.465,1.876,6.19,4.614,12.076,6.085,18.409,1.719,7.416-.376,15,.707,22.451a71.9,71.9,0,0,0,10.472.044c.954-.07,1.892-.187,2.818-.326C67.052,90.043,67.107,83.75,67.1,76.8Z" transform="translate(-36.99 -18.288)" fill="#56b2e5"/><path d="M63.443,89.409c-.177-12.883-.65-24.394-1.041-30.8-2.516-2.253-5-5.457-5.759-8.845l-.032-.03s-6.228,3.525-10.844,5.588c1.119,3.7-.081,6.52-.066,10.214a22.333,22.333,0,0,1-.8,6.019c1.874,4.016,3.692,7.945,4.09,10.77a32.04,32.04,0,0,1-.133,8.014c-.67,5.479-3.5,45.009-3.5,45.009s5.167.926,15.283,1.778c.892.074,1.935.119,3.032.153C63.367,136.311,63.745,111.18,63.443,89.409Z" transform="translate(-41.104 -18.288)" fill="#fff"/><path d="M68.319,91a131.944,131.944,0,0,1-1.8-13.815c-.4-8-4.386-24.058-5.041-24.521a19.464,19.464,0,0,0-4.783-2.585c.58,2.09.868,5.453-.213,7.241,1.027,4.928,2.214,13.616,3.68,30.65,1.685,19.581,2.454,47.55,1.773,48.727a52.27,52.27,0,0,0,8.274-1.178S69.261,96.478,68.319,91Z" transform="translate(-29.672 -17.943)" fill="#fff"/><path d="M44.9,66.643l0,0c1.872,4.018,3.69,7.953,4.088,10.782.089.648.143,1.331.171,2.033.01.238,0,.487.006.731.006.471.01.942-.006,1.423,0,.076,0,.147,0,.223-.01.219-.034.441-.048.66-.024.445-.052.886-.091,1.333-.028.31-.06.616-.093.924-.026.229-.044.459-.072.688-.67,5.479-3.5,45.009-3.5,45.009s2.651.473,7.847,1.053c-.227-13.145,4.594-44.154,3.63-49.555-.6-3.344,4.088-15.168.616-19.231-2-2.347-6.19-6.7-9.429-7.607-.727-.2-1.3-.326-1.82-.421-.113,1.918-.515,3.784-.5,5.949,0,.541-.014,1.069-.048,1.588A23.024,23.024,0,0,1,44.9,66.643Z" transform="translate(-41.103 -13.394)" fill="#d0d1de"/><path d="M54.064,64.25S61.892,74.642,62.9,74.362s16.273-7.7,17.215-8.875a14.924,14.924,0,0,0,1.266-2.271,10.078,10.078,0,0,1,.6-1.013,10.154,10.154,0,0,0,.843-1.023c.175-.316.558-2.025,1.127-2.094.449-.054.538.272.594.63.072.461-.354,1.085-.517,1.494-.093.236-.384.908-.191,1.153.262.334.837-.642.978-.833a3.466,3.466,0,0,0,.515-.96,11.929,11.929,0,0,0,.34-1.21c.058-.246.105-.5.159-.751.091-.413.173-.785.229-1.2.044-.316.157-.7.554-.65.447.06.326.811.286,1.131a9.559,9.559,0,0,0-.079,1.005c0,.227-.2.678,0,.866a4.928,4.928,0,0,0,.507-1.4c.079-.29.387-2.029.89-1.9.795.2.409,1.409.272,1.906a4.414,4.414,0,0,1-.362.962c-.074.127-.34.8-.26.759.568-.282.646-1.341.847-1.9.125-.346.548-1.379.946-.66a1.251,1.251,0,0,1,.006.914,4.349,4.349,0,0,1-.535,1.355,3.533,3.533,0,0,0-.336.908c.437-.179.868-1.633,1.387-1.484.338.1.262.741.181.958a14.978,14.978,0,0,1-2.871,4.1,43.046,43.046,0,0,1-3.656,3.768C82,69.728,65.794,82.521,63.473,83.1S50.873,74.581,47.9,71.932,54.064,64.25,54.064,64.25Z" transform="translate(-38.73 -11.659)" fill="#f88667"/><path d="M48.224,52.466c2.381-.507,5.673,7.09,10.289,14.222a39.742,39.742,0,0,0,5.28,6.5c-.149.123-.308.236-.455.364a74.271,74.271,0,0,0-7.036,7.11C51.855,76.5,46.074,70.12,43.582,63.127,42.167,59.155,43.127,53.551,48.224,52.466Z" transform="translate(-42.99 -15.613)" fill="#fff"/><path d="M54.01,37.3s11.571-1.753,12.9-.469,1.552,5.94,1.5,9.878,1.6,11.472-2.995,12.865-13.365-2.9-16.471-10.7C44.992,38.938,53.219,37.412,54.01,37.3Z" transform="translate(-38.167 -31.489)" fill="#f88667"/><path d="M52.592,36.37s5.473.185,6.432,8.429c.433,3.716,1.369,6.579.223,6.764A1.929,1.929,0,0,1,56.918,49.9c0-1.073-.334-4.572-2.514-3.6s-1.443,5.188,1.331,6.409a3.478,3.478,0,0,1-1.645,3.7s-5.769-3.629-6.6-10.1S49.1,36.186,52.592,36.37Z" transform="translate(-38.708 -31.485)" fill="#110239"/><path d="M48.874,39.521a7.942,7.942,0,0,1,7.394-5.582c6.1-.407,10.981,3.253,13.9,8.133,0,0-1.663,2.921-7.949,3.291a23.091,23.091,0,0,1-9.574-1.775C49.387,41.9,48.874,39.521,48.874,39.521Z" transform="translate(-37.182 -33.908)" fill="#110239"/></g><g transform="translate(222.715 55.097)"><path d="M137.655,71.293c-2.126-.9-3.662-1.647-3.3-5.039a5.147,5.147,0,0,1,1.9-3.7,3.613,3.613,0,0,0,1.7-2.391c.439-1.983-.115-3.611.837-5.423C139.8,52.8,142,53,143.014,51.193c.878-1.564,1.284-3.295,3.275-3.9a1.786,1.786,0,0,1,2.236,2.508,20.6,20.6,0,0,0-1.314,2.613,3.033,3.033,0,0,0,.682,2.341c1.057,1.818,1.6,4.008-.451,5.86-1.228,1.107-2.164,2.061-1.548,3.879.7,2.077,1.067,3.348-.811,5.173-1.407,1.367-2.714,1.26-4.29,1.363-1.421.1-3.265.7-4.423-.246Z" transform="translate(-120.95 -40.642)" fill="#56b2e5"/><path d="M139.757,69.853c-1.52,1.627-2.82,2.9-5.063.968a4.57,4.57,0,0,1-1.61-3.865c.024-1.333.117-1.935-.711-2.957-1.3-1.6-3.165-2.18-4.008-4.248-.906-2.228,1.121-3.656.386-5.661-.636-1.739-1.836-3.37-.694-4.874.93-1.224,2.855-.491,3.585.916a19.942,19.942,0,0,0,1.031,2.49,3.442,3.442,0,0,0,1.963,1.21c1.657.6,3.148,1.6,3.283,3.728.085,1.312.213,2.4,1.465,2.955,1.321.59,2.057.97,2.3,2.963a6.293,6.293,0,0,1-.825,3.644c-.5,1.178-.912,3.028-1.981,3.7Z" transform="translate(-127.582 -39.243)" fill="#56b2e5"/><g transform="translate(17.918 10.013)"><path d="M136.944,67.378c-.068,0-.135,0-.2-.01a.161.161,0,0,1-.143-.177.15.15,0,0,1,.175-.143c1.053.111,2.14-.849,2.744-1.7a2.816,2.816,0,0,0,.384-2.071l-.04-.642c-.1-1.677-.191-3.124,1.109-4.437a4.862,4.862,0,0,0,1.721-4.376c-.006-.165-.016-.338-.026-.517a8.449,8.449,0,0,1,.046-2.009,4.308,4.308,0,0,1,.388-1,3,3,0,0,0,.393-1.212.161.161,0,0,1,.161-.159h0a.16.16,0,0,1,.159.161,3.285,3.285,0,0,1-.427,1.351,4,4,0,0,0-.36.92,8.053,8.053,0,0,0-.042,1.928c.01.181.02.356.026.523a5.179,5.179,0,0,1-1.812,4.614c-1.2,1.21-1.119,2.526-1.017,4.191l.04.638a3.109,3.109,0,0,1-.441,2.279A3.919,3.919,0,0,1,136.944,67.378Z" transform="translate(-136.6 -48.927)" fill="#fff"/></g><g transform="translate(21.207 18.512)"><path d="M138.959,58.706a.867.867,0,0,1-.666-.346.161.161,0,0,1,.244-.209.513.513,0,0,0,.538.219c.672-.167,1.407-1.61,1.526-2.15.348-1.592.767-2.4,2.325-3a.16.16,0,1,1,.115.3c-1.5.578-1.81,1.325-2.128,2.776-.105.481-.86,2.166-1.759,2.393A.86.86,0,0,1,138.959,58.706Z" transform="translate(-138.255 -53.204)" fill="#fff"/></g><g transform="translate(2.363 12.579)"><path d="M138.674,67.41a1.79,1.79,0,0,1-.847-.207c-1.117-.59-1.633-2.321-2.088-3.849a11,11,0,0,0-.694-1.931,8.725,8.725,0,0,0-2.778-3.058,4.822,4.822,0,0,1-2.23-3.895,9.436,9.436,0,0,0-1.234-4,.16.16,0,0,1,.032-.225.163.163,0,0,1,.225.032,9.688,9.688,0,0,1,1.3,4.141,4.516,4.516,0,0,0,2.1,3.684,9.177,9.177,0,0,1,2.869,3.162,11.093,11.093,0,0,1,.721,2c.437,1.467.934,3.13,1.93,3.656a1.657,1.657,0,0,0,1.329.064.161.161,0,0,1,.1.306A2.446,2.446,0,0,1,138.674,67.41Z" transform="translate(-128.772 -50.218)" fill="#fff"/></g><g transform="translate(6.693 16.347)"><path d="M131.592,57.648a.161.161,0,0,1-.1-.034.163.163,0,0,1-.03-.227c.471-.608.183-1.574-.121-2.6a4.717,4.717,0,0,1-.3-2.563.159.159,0,1,1,.3.1,4.538,4.538,0,0,0,.308,2.377c.314,1.055.638,2.146.068,2.885A.16.16,0,0,1,131.592,57.648Z" transform="translate(-130.95 -52.114)" fill="#fff"/></g><g transform="translate(2.128 19.555)"><path d="M135.463,58.218a.143.143,0,0,1-.058-.012,3.511,3.511,0,0,1-.574-.3,1.82,1.82,0,0,0-.9-.336,3.808,3.808,0,0,0-.588.016,2.283,2.283,0,0,1-1.3-.185,7.147,7.147,0,0,1-2.178-1.91c-.1-.127-.234-.328-.374-.541-.2-.3-.57-.87-.711-.906a.166.166,0,0,1-.123-.191.156.156,0,0,1,.179-.125c.25.042.515.423.924,1.047.133.2.26.4.354.513a7.179,7.179,0,0,0,2.075,1.826,1.921,1.921,0,0,0,1.129.149,4.69,4.69,0,0,1,.634-.014,2.132,2.132,0,0,1,1.047.382,3.5,3.5,0,0,0,.525.274.16.16,0,0,1,.089.209A.161.161,0,0,1,135.463,58.218Z" transform="translate(-128.653 -53.729)" fill="#fff"/></g><path d="M135.6,74.842c-2.277-1.92-4.982-3.209-4.368-6.866.507-3.028,4-3.805,2.9-7.064-.7-2.081-2.506-4.483-1.89-6.806.656-2.482,3.895-1.488,4.592-3.805.588-1.953-1.474-4.219.36-5.818,1.618-1.411,4.483-.072,5.351,1.548,1.111,2.069-.725,3.607-.421,5.626.195,1.3,1.447,1.494,2.363,2.247a7.465,7.465,0,0,1,2.224,2.955c1.18,3.352-2.192,4.568-3.213,7.154-.966,2.436,2.323,3.189,2.571,5.645.274,2.71-2.627,4.851-4.962,5.294C139.5,75.257,137.034,76.054,135.6,74.842Z" transform="translate(-124.069 -43.888)" fill="#56b2e5"/><g transform="translate(13.85 5.282)"><path d="M134.848,73.006A.17.17,0,0,1,134.8,73a.162.162,0,0,1-.109-.2,28.235,28.235,0,0,0,.292-12.9,16.727,16.727,0,0,1,.616-9.479,8.292,8.292,0,0,0,.588-3.682.162.162,0,0,1,.129-.187.158.158,0,0,1,.187.127,8.532,8.532,0,0,1-.6,3.835,16.444,16.444,0,0,0-.612,9.314,28.616,28.616,0,0,1-.3,13.065A.163.163,0,0,1,134.848,73.006Z" transform="translate(-134.552 -46.546)" fill="#fff"/></g><g transform="translate(14.39 11.677)"><path d="M134.985,56.679a.16.16,0,0,1-.024-.318,3.642,3.642,0,0,0,2.991-2.9c.016-.179.028-.374.042-.576.058-.976.131-2.188.841-2.774a1.752,1.752,0,0,1,1.381-.322.158.158,0,0,1,.139.179.161.161,0,0,1-.179.139,1.421,1.421,0,0,0-1.137.25c-.6.5-.67,1.633-.725,2.546-.014.209-.026.407-.042.588a3.927,3.927,0,0,1-3.263,3.189Z" transform="translate(-134.824 -49.764)" fill="#fff"/></g><g transform="translate(9.708 11.17)"><path d="M136.341,56.975a2.425,2.425,0,0,1-1.586-.564,3.568,3.568,0,0,1-.942-2.861c0-.129.012-.278.02-.441.046-.926.117-2.323-.459-2.953a1.015,1.015,0,0,0-.753-.324.161.161,0,0,1-.153-.167.159.159,0,0,1,.163-.155h0a1.349,1.349,0,0,1,.978.429c.666.729.592,2.208.542,3.185-.008.161-.016.306-.018.433a3.266,3.266,0,0,0,.833,2.611,2.488,2.488,0,0,0,2.11.431.159.159,0,0,1,.183.133.162.162,0,0,1-.133.185A4.4,4.4,0,0,1,136.341,56.975Z" transform="translate(-132.468 -49.509)" fill="#fff"/></g><g transform="translate(14.791 24.042)"><path d="M135.708,61.058a1.531,1.531,0,0,1-.582-.109.161.161,0,0,1,.121-.3c.964.4,2.442-.692,3-1.411a4.374,4.374,0,0,0,.548-1.258c.29-.878.59-1.786,1.4-1.989a.155.155,0,0,1,.193.117.159.159,0,0,1-.115.195c-.644.159-.914.982-1.176,1.776a4.652,4.652,0,0,1-.6,1.355A4.251,4.251,0,0,1,135.708,61.058Z" transform="translate(-135.026 -55.987)" fill="#fff"/></g><g transform="translate(9.739 21.399)"><path d="M136.791,62.31a1.887,1.887,0,0,1-.622-.111,5.287,5.287,0,0,1-2.532-2.748,5.694,5.694,0,0,1-.248-1.844c-.04-1.121-.081-2.279-.817-2.647a.159.159,0,0,1-.072-.215.163.163,0,0,1,.217-.072c.9.453.95,1.765.992,2.921a5.523,5.523,0,0,0,.223,1.731,5.041,5.041,0,0,0,2.343,2.571,1.407,1.407,0,0,0,1.184-.085.16.16,0,1,1,.153.282A1.7,1.7,0,0,1,136.791,62.31Z" transform="translate(-132.483 -54.657)" fill="#fff"/></g><g transform="translate(2.062 30.01)"><path d="M136.584,86.355h8.823a4.992,4.992,0,0,0,4.225-2.361,27.611,27.611,0,0,0,3.742-14.47A30.213,30.213,0,0,0,151.56,58.99H130.432a30.213,30.213,0,0,0-1.812,10.534,27.611,27.611,0,0,0,3.74,14.47A4.992,4.992,0,0,0,136.584,86.355Z" transform="translate(-128.62 -58.99)" fill="#f34f95"/><path d="M152.61,63.781a27.835,27.835,0,0,0-1.3-4.791H130.18a27.832,27.832,0,0,0-1.3,4.791Z" transform="translate(-128.367 -58.99)" fill="#110239"/></g></g><g transform="translate(344.209 39.636)"><path d="M217.593,44.182a8.513,8.513,0,0,1,4.5,2.083,7.234,7.234,0,0,1,2.15,5.447c.012,2.351-1.351,4.247-1.669,6.49a4.924,4.924,0,0,0,.364,2.945c.626,1.123,1.407.382,2.186.98.042.032.236,0,.288-.006a5.782,5.782,0,0,1-1.572,1.707,6.283,6.283,0,0,1-3.187.942A7.042,7.042,0,0,1,217.2,63.4c-1.145-.65-1.834-.956-2.146-2.315-.626-2.728-.872-5.524-1.542-8.237-.326-1.317-1.216-3.146-.946-4.5.282-1.4,1.6-1.922,2.768-2.4a10.062,10.062,0,0,0,1.622-.743C217.331,44.961,217.162,44.317,217.593,44.182Z" transform="translate(-165.239 -28.137)" fill="#110239"/><path d="M198.737,63.841a7.616,7.616,0,0,1-.584-3.7c.05-.564,1.113-2.82,1.113-3.714a3.015,3.015,0,0,0-.415-1.814c-.469-.624-.864.288-1.039.936-.193.7-.787,3.048-1.421,3.491s-1.441-2.218-1.594-2.748a5.845,5.845,0,0,1-.25-3.2c.141-.676.044-1.015-.686-.692a1.73,1.73,0,0,0-.878,1.719,14.258,14.258,0,0,0,.564,3.219,8.392,8.392,0,0,1-.564-3.219c.119-.809.944-3.3-.03-3.37-1.949-.137-1.552,5.568-1.081,6.562a9.7,9.7,0,0,1-.354-3.241c0-.646.054-2.172-.918-1.544-1.435.93-.137,4.193.183,5.755a11.417,11.417,0,0,1-.97-2.945c-.364-1.327-1.212-.6-1.075.827a15.65,15.65,0,0,0,.447,2.023,10.5,10.5,0,0,0,3.805,5.618c.717.64,1.357,2.567,2.19,2.575C196.789,66.4,197.753,64.787,198.737,63.841Z" transform="translate(-188.723 -21.652)" fill="#ff9d8a"/><path d="M196.963,60.245l-5.626,2.9S199.6,81.3,205.454,82.213s19.679-18.526,19.679-18.526,4.382-10.637,1.107-10.5c-2.526.107-19.557,19.424-20.575,19.971S196.963,60.245,196.963,60.245Z" transform="translate(-186.142 -19.248)" fill="#fff"/><path d="M220.068,120.861s.173,4.6-.606,6.76-6.329,5.467-6.329,5.467,5.023.972,6.951-.519,6.5-9.292,6.206-10.307-1.685-4.147-1.685-4.147Z" transform="translate(-164.626 44.845)" fill="#ff9d8a"/><path d="M205.009,119.444s.173,4.6-.6,6.758-6.331,5.467-6.331,5.467,5.023.974,6.951-.519,6.506-9.29,6.206-10.305-1.685-4.149-1.685-4.149Z" transform="translate(-179.491 43.444)" fill="#ff9d8a"/><path d="M226.475,119.5s4.215,1.4,3.16,5.091a32.079,32.079,0,0,0-.876,8.429h-1.23s-.262-5.268-1.053-5.093-2.546,5.093-4.3,5.093h-9.92s-1.055-1.055,0-1.669,7.778-.35,8.541-1.844S226.475,119.5,226.475,119.5Z" transform="translate(-165.958 46.209)" fill="#110239"/><path d="M211.3,118.019s4.213,1.4,3.16,5.093a32.1,32.1,0,0,0-.878,8.427h-1.228s-.264-5.268-1.053-5.093-2.548,5.093-4.3,5.093h-9.922s-1.053-1.053,0-1.667,7.778-.352,8.543-1.844S211.3,118.019,211.3,118.019Z" transform="translate(-180.941 44.75)" fill="#110239"/><path d="M209.609,71.9s11.806,4.149,20.362,0c0,0,5.182,4.35,6,13.228a48.428,48.428,0,0,1-.35,9.981c-.594,4.94-2.033,17.89-1.135,25.878,1.317,11.7,4.95,45.627,4.95,45.627l-8.139,1.266s-7.476-40.961-8.36-46.016-3.73-25.592-3.73-25.592-5.065,15.881-6.371,23.569c-.2,1.18-3.813,44.671-3.813,44.671l-7.887-.048s.441-48.309.441-45.768C201.581,119.735,203.715,86.119,209.609,71.9Z" transform="translate(-176.465 -0.775)" fill="#110239"/><path d="M207.81,93.774c1.771-5.373,2.855-8.066,6.5-12.885-.372,2.2-.709,4.4-.966,6.625l-.03-.113s-4.334,13.592-6.017,21.715C207.482,100.353,206.506,97.73,207.81,93.774Z" transform="translate(-170.564 8.098)" fill="#00a7cc"/><path d="M210.485,52.6c.817-.169,4.729-8.421,6.4-10.029.8,5.637,2.367,18.494,2.367,18.494-4.135,4.435-10.538,2.23-10.538,2.23A27.977,27.977,0,0,0,210.485,52.6Z" transform="translate(-168.984 -29.723)" fill="#e17c5e"/><path d="M217,37.8s-8.024,1.806-9.562,4.145-1.532,8.431-2.383,10.039c-.515.976-.974,1.761-1.232,2.333-.227.5.344.795,1.041,1.041a1.21,1.21,0,0,1,.749.777c.477,1.472,1.8,5.23,3.128,5.753,1.655.652,9.828.4,12.286-6.719S222.144,36.275,217,37.8Z" transform="translate(-173.862 -34.569)" fill="#ff9d8a"/><path d="M226.561,51.164a47.559,47.559,0,0,0-9.546,1.856s-1.162,2.424-1.872,3.875c-1.892,3.881-5.409,11.362-5.729,13.962s-2.2,16.37-3.175,23.542c-.36,2.619-5.1,38.332-5.1,38.332s16.887,6.464,35.48,0c0,0,1.81-25.712-.68-37.537-1.312-6.228-3-16.44-2.323-21.483C234.639,66.145,232.97,56.774,226.561,51.164Z" transform="translate(-176.465 -21.245)" fill="#fff"/><path d="M211.341,57.107c3.3-1.172,7.509-2.283,9.944-4.475-.2-.187-1.145-1.286-1.349-1.467a33.9,33.9,0,0,0-9.6,1.467,42.084,42.084,0,0,1-2.484,3.831,11.474,11.474,0,0,0,2.438-1.369Z" transform="translate(-169.839 -21.246)" fill="#dee8f3"/><path d="M205.825,134.111c.282.044.564.085.856.123l5.955-82.228c-.139.044-.282.085-.423.129Z" transform="translate(-171.84 -20.413)" fill="#d0d1de"/><path d="M226.523,117.715c.133-5.1.159-11.1-.155-16.481,0-.072-.01-.143-.014-.215-.062-1.025-.137-2.025-.227-2.993l-.026-.29c-.091-.954-.2-1.874-.318-2.748l-.03-.221c-.131-.928-.28-1.808-.451-2.619l-.008-.042c-.115-.542-.232-1.123-.35-1.719l-.066-.328c-.123-.64-.25-1.3-.374-1.983v0c-.266-1.465-.527-3.011-.759-4.574-.109-.741-.215-1.484-.31-2.226-.034-.252-.064-.5-.1-.751l0-.026c-.081-.684-.163-1.365-.227-2.049l0-.016c-.121-1.228-.207-2.414-.25-3.527,0-.1-.008-.195-.01-.292-.016-.439-.022-.862-.02-1.274,0-.105,0-.211,0-.314.006-.487.022-.956.054-1.393.024-.338.056-.664.1-.966a31.565,31.565,0,0,0,.217-6.146,28,28,0,0,0-.161-3.279c-.068.083-.133.171-.2.254a25.8,25.8,0,0,0-2.263-7.249c-3.927,1.019-10.359,1.445-8.235,6.989.5,1.306,1.035,2.6,1.572,3.881a45.289,45.289,0,0,1,3.4,13.954c.042.548.089,1.095.139,1.639.459,5.071,1.262,10,1.16,15.09-.24,12.006-.7,24.009-1.121,36.009h0c.328-.056.654-.141.984-.2l-.006.042c.886-.163,1.79-.38,2.695-.592.125-.03.254-.048.38-.077s.229-.052.342-.079l.018-.006c1.347-.34,2.706-.729,4.082-1.208,0,0,.364-5.178.541-11.951v-.02Z" transform="translate(-165.827 -18.201)" fill="#d0d1de"/><path d="M216.5,52.19c-.054.477-.624,1.3-.529,1.731.346,1.53,1.7-1.188,1.967-1.51,1.025-1.234,2.214-.847,2.953.465a2.4,2.4,0,0,1-.358,2.959c.016.026.036.044.054.07.55.876,1.274,2.45,2.385,2.748a11.15,11.15,0,0,0,3.937-.01,2.67,2.67,0,0,1,1.307.179,5.114,5.114,0,0,0,.535-.417c.548-.525.966-1.28,1.834-1.22a14.4,14.4,0,0,0-1.411-2.808c-2.695-3.2,1.679-2.943-1.566-11.374-2.4-6.242-6.329-6.812-10.349-6.891a19.5,19.5,0,0,0-11.031,3.716c-1.777,1.238-2.939,5.26-.346,6.275.246.1,1.773-.926,2.128-1.025a3.918,3.918,0,0,1,2.414.1c1.512.6,1.647,2.025,2.693,3.106.835.864,2.029,1.323,2.838,2.18A1.9,1.9,0,0,1,216.5,52.19Z" transform="translate(-173.275 -36.108)" fill="#110239"/><path d="M224.141,82.918a6.782,6.782,0,0,1-.866,3.412,4.05,4.05,0,0,0-.753,1.465,8.6,8.6,0,0,1-.7,1.757,3.375,3.375,0,0,0-.517,1.8c.107.777.9.165,1.369-.318.511-.525.845-2.792,1.618-2.875s.191,2.651.068,3.193c-.294,1.282-1.232,1.582-2.007,2.484-.453.527-.5.906.3.976.6.052,1.075-.461,1.467-.845a7.12,7.12,0,0,0,1.852-2.933,8.311,8.311,0,0,1-1.443,2.911c-.374.495-2.337,2.321-1.612,2.979,1.457,1.317,4.445-3.946,4.515-5.051a9.746,9.746,0,0,1-1.266,3.022c-.312.57-1.1,1.884.058,1.8,1.713-.119,2.158-3.621,2.635-5.151a11.427,11.427,0,0,1-.578,3.062c-.324,1.343.777,1.115,1.347-.2a15.51,15.51,0,0,0,.59-2,10.542,10.542,0,0,0-.616-6.788c-.32-.912.056-2.919-.674-3.33C227.513,81.492,225.464,82.565,224.141,82.918Z" transform="translate(-156.577 9.194)" fill="#ff9d8a"/><path d="M232.8,111.4l7.4.393s.089-21.874-1.874-29.3-15.983-27.438-19.178-28.959c-3.841-1.826-10.925,4.928-5.852,10.4,7.193,7.764,15.249,21.1,15.575,21.729S232.8,111.4,232.8,111.4Z" transform="translate(-166.204 -19.206)" fill="#fff"/><g transform="translate(4.692 28.022)"><g transform="translate(0.501 0.474)"><path d="M194.867,50.448V69.014c0,.932-.63,1.266-1.409,1.266h-.028c-.779,0-1.409-.334-1.409-1.266V50.448h-.686v19.43a2.087,2.087,0,0,0,2.087,2.088h.044a2.087,2.087,0,0,0,2.086-2.088V50.448Z" transform="translate(-191.336 -50.448)" fill="#fff"/><rect width="0.685" height="1.423" transform="translate(3.532 0.001)" fill="#dfeaeb"/><rect width="0.685" height="1.423" transform="translate(0 0.001)" fill="#dfeaeb"/><path d="M193.118,70.28h-.028c-.779,0-1.409-.334-1.409-1.266V50.448h2.846V69.014C194.527,69.946,193.9,70.28,193.118,70.28Z" transform="translate(-190.995 -50.448)" fill="#fff" opacity="0.32" style="mix-blend-mode:screen;isolation:isolate"/><path d="M191.681,54.438V65.075c0,.932.63,1.266,1.409,1.266h.028c.779,0,1.409-.334,1.409-1.266V54.438Z" transform="translate(-190.995 -46.509)" fill="#f34f95"/></g><rect width="5.218" height="1.081" rx="0.269" fill="#fff"/><path d="M192.58,55.679a.369.369,0,1,1-.368-.37A.37.37,0,0,1,192.58,55.679Z" transform="translate(-190.334 -45.176)" fill="#fc889f"/><circle cx="0.593" cy="0.593" r="0.593" transform="translate(2.543 8.948)" fill="#fc889f"/><path d="M193.112,56.678a.527.527,0,1,1-.527-.529A.528.528,0,0,1,193.112,56.678Z" transform="translate(-190.121 -44.346)" fill="#fc889f"/><path d="M193.379,58.2a.528.528,0,1,1-.529-.527A.527.527,0,0,1,193.379,58.2Z" transform="translate(-189.86 -42.837)" fill="#fc889f"/><path d="M193,58.88a.528.528,0,1,1-.529-.527A.527.527,0,0,1,193,58.88Z" transform="translate(-190.23 -42.171)" fill="#fc889f"/><path d="M193.212,60.139a.566.566,0,1,1-.566-.566A.568.568,0,0,1,193.212,60.139Z" transform="translate(-190.101 -40.966)" fill="#fc889f"/><path d="M193.38,56.085A.383.383,0,1,1,193,55.7.382.382,0,0,1,193.38,56.085Z" transform="translate(-189.572 -44.787)" fill="#fc889f"/><path d="M192.5,57.548a.312.312,0,1,1-.312-.31A.313.313,0,0,1,192.5,57.548Z" transform="translate(-190.306 -43.271)" fill="#fc889f"/><path d="M193.213,57.393a.312.312,0,1,1-.312-.312A.311.311,0,0,1,193.213,57.393Z" transform="translate(-189.598 -43.426)" fill="#fc889f"/><path d="M193.213,59.188a.312.312,0,1,1-.312-.314A.311.311,0,0,1,193.213,59.188Z" transform="translate(-189.598 -41.656)" fill="#fc889f"/></g></g><path d="M208.979,53.326l9.5-3.351,1.838,3.888-10.1,3.772Z" transform="translate(175.483 17.218)" fill="#fff"/><path d="M208.789,55.753l-.937.217,2.24-4.308.285.988Z" transform="translate(174.37 18.882)" fill="#fff"/></g></svg>